<svg width="12" height="12" viewBox="0 0 12 12" fill="none" xmlns="http://www.w3.org/2000/svg">
<g clip-path="url(#clip0_376_9770)">
<path d="M12 6C12 9.31 9.31 12 6 12C2.69 12 0 9.31 0 6C0 2.69 2.69 0 6 0C6.365 0 6.735 0.035 7.09 0.1C7.36 0.15 7.54 0.41 7.49 0.68C7.44 0.95 7.18 1.13 6.91 1.08C6.615 1.025 6.305 1 6 1C3.245 1 1 3.245 1 6C1 8.755 3.245 11 6 11C8.755 11 11 8.755 11 6C11 5.695 10.97 5.39 10.92 5.09C10.87 4.82 11.05 4.56 11.32 4.51C11.595 4.46 11.85 4.64 11.9 4.91C11.965 5.265 12 5.635 12 6ZM6.43 3.03C6.705 3.07 6.955 2.88 6.995 2.605C7.035 2.33 6.845 2.08 6.57 2.04C6.38 2.015 6.19 2 6 2C3.795 2 2 3.795 2 6C2 8.205 3.795 10 6 10C8.205 10 10 8.205 10 6C10 5.81 9.985 5.62 9.96 5.43C9.92 5.155 9.67 4.965 9.395 5.005C9.12 5.045 8.93 5.295 8.97 5.57C8.99 5.71 9 5.855 9 6C9 7.655 7.655 9 6 9C4.345 9 3 7.655 3 6C3 4.345 4.345 3 6 3C6.145 3 6.29 3.01 6.43 3.03ZM5.375 4.55C5.19 4.345 4.875 4.325 4.67 4.51C4.245 4.89 4.005 5.435 4.005 6C4.005 7.105 4.9 8 6.005 8C6.575 8 7.115 7.755 7.495 7.335C7.68 7.13 7.66 6.815 7.455 6.63C7.25 6.445 6.935 6.465 6.75 6.67C6.56 6.88 6.29 7.005 6.005 7.005C5.455 7.005 5.005 6.555 5.005 6.005C5.005 5.72 5.125 5.45 5.34 5.26C5.545 5.075 5.565 4.76 5.38 4.555L5.375 4.55ZM6.15 5.15C5.955 5.345 5.955 5.66 6.15 5.855C6.25 5.955 6.375 6 6.505 6C6.635 6 6.76 5.95 6.86 5.855L9.215 3.5H10.51C10.645 3.5 10.77 3.445 10.865 3.355L11.865 2.355C12.01 2.21 12.05 1.995 11.975 1.81C11.9 1.625 11.715 1.5 11.515 1.5H10.515V0.5C10.515 0.3 10.395 0.115 10.205 0.04C10.015 -0.04 9.805 0.00500001 9.66 0.15L8.66 1.15C8.565 1.245 8.515 1.37 8.515 1.505V2.8L6.16 5.155L6.15 5.15Z" fill="#F7AD06"/>
</g>
<defs>
<clipPath id="clip0_376_9770">
<rect width="12" height="12" fill="white"/>
</clipPath>
</defs>
</svg>
