<svg width="16" height="16" viewBox="0 0 16 16" fill="none" xmlns="http://www.w3.org/2000/svg">
<g clip-path="url(#clip0_376_9802)">
<path d="M15.0739 15.542C14.8439 15.8333 14.5006 16 14.1306 16H1.86923C1.49923 16 1.1559 15.8333 0.925901 15.542C0.695901 15.25 0.613234 14.876 0.699901 14.5147C0.801901 14.0887 1.08457 13.6907 1.33323 13.3333H14.6666C14.9152 13.6913 15.1979 14.0893 15.2999 14.514C15.3866 14.876 15.3039 15.25 15.0739 15.542ZM13.9519 4.914L14.4172 3.75133L15.5799 3.286C15.8332 3.18467 15.9992 2.93933 15.9992 2.66667C15.9992 2.394 15.8332 2.14933 15.5799 2.04733L14.4172 1.582L13.9519 0.419333C13.8506 0.166 13.6052 0 13.3326 0C13.0599 0 12.8152 0.166 12.7132 0.419333L12.2506 1.57533L11.0966 2.012C10.8419 2.10933 10.6712 2.35067 10.6659 2.62333C10.6606 2.896 10.8219 3.144 11.0732 3.25L12.2452 3.74333L12.7132 4.91333C12.8146 5.16667 13.0599 5.33267 13.3326 5.33267C13.6052 5.33267 13.8499 5.16733 13.9519 4.914ZM15.1066 5.57867C15.2486 6.15 15.3326 6.744 15.3326 7.35933C15.3326 9.122 14.7046 10.7333 13.6706 12.0007H2.27923C1.24457 10.7333 0.615234 9.12333 0.615234 7.35933C0.615234 3.29467 3.9099 0 7.97457 0C9.03923 0 10.0486 0.230667 10.9626 0.637333L10.6226 0.766C9.85523 1.058 9.34923 1.778 9.33323 2.598C9.3179 3.42 9.79723 4.15867 10.5566 4.47867L11.2146 4.756L11.4766 5.40933C11.7826 6.17333 12.5119 6.666 13.3332 6.666C14.0912 6.666 14.7666 6.24333 15.1072 5.578L15.1066 5.57867ZM10.3326 7.66667C10.3326 7.36067 10.1246 7.09467 9.82723 7.02L8.8819 6.784L8.6459 5.83867C8.5719 5.542 8.30523 5.33333 7.99923 5.33333C7.69323 5.33333 7.42657 5.54133 7.35257 5.83867L7.1179 6.77533L6.1819 6.99133C5.88457 7.06067 5.67123 7.32333 5.6659 7.62933C5.66057 7.93533 5.8639 8.20533 6.15923 8.28467L7.11457 8.54133L7.35257 9.49467C7.42657 9.79133 7.69323 10 7.99923 10C8.30523 10 8.57123 9.792 8.6459 9.49467L8.8819 8.54933L9.82723 8.31333C10.1239 8.23933 10.3326 7.97267 10.3326 7.66667Z" fill="#1DB68A"/>
</g>
<defs>
<clipPath id="clip0_376_9802">
<rect width="16" height="16" fill="white"/>
</clipPath>
</defs>
</svg>
