<svg width="24" height="24" viewBox="0 0 24 24" fill="none" xmlns="http://www.w3.org/2000/svg">
<g clip-path="url(#clip0_141_1231)">
<path d="M10 12C10 12.2652 9.89464 12.5196 9.70711 12.7071C9.51957 12.8946 9.26522 13 9 13H4.069C4.31113 14.9327 5.25065 16.7104 6.71105 17.9993C8.17145 19.2881 10.0522 19.9994 12 19.9994C13.9478 19.9994 15.8286 19.2881 17.289 17.9993C18.7493 16.7104 19.6889 14.9327 19.931 13H15C14.7348 13 14.4804 12.8946 14.2929 12.7071C14.1054 12.5196 14 12.2652 14 12C14 11.7348 14.1054 11.4804 14.2929 11.2929C14.4804 11.1053 14.7348 11 15 11H20V8.99999H15C14.7348 8.99999 14.4804 8.89463 14.2929 8.70709C14.1054 8.51956 14 8.2652 14 7.99999C14 7.73477 14.1054 7.48042 14.2929 7.29288C14.4804 7.10534 14.7348 6.99999 15 6.99999H19.931C19.6889 5.0673 18.7493 3.28954 17.289 2.00069C15.8286 0.711844 13.9478 0.000610352 12 0.000610352C10.0522 0.000610352 8.17145 0.711844 6.71105 2.00069C5.25065 3.28954 4.31113 5.0673 4.069 6.99999H9C9.26522 6.99999 9.51957 7.10534 9.70711 7.29288C9.89464 7.48042 10 7.73477 10 7.99999C10 8.2652 9.89464 8.51956 9.70711 8.70709C9.51957 8.89463 9.26522 8.99999 9 8.99999H4V11H9C9.26522 11 9.51957 11.1053 9.70711 11.2929C9.89464 11.4804 10 11.7348 10 12Z" fill="white"/>
<path d="M23 12C22.7348 12 22.4804 12.1054 22.2929 12.2929C22.1054 12.4804 22 12.7348 22 13C21.9974 15.3861 21.0483 17.6738 19.361 19.361C17.6738 21.0483 15.3861 21.9974 13 22H11C8.61395 21.9971 6.32645 21.0479 4.63925 19.3607C2.95206 17.6735 2.00291 15.3861 2 13C2 12.7348 1.89464 12.4804 1.70711 12.2929C1.51957 12.1054 1.26522 12 1 12C0.734784 12 0.48043 12.1054 0.292893 12.2929C0.105357 12.4804 0 12.7348 0 13C0.00344047 15.9163 1.16347 18.7122 3.22563 20.7744C5.28778 22.8365 8.08367 23.9966 11 24H13C15.9163 23.9966 18.7122 22.8365 20.7744 20.7744C22.8365 18.7122 23.9966 15.9163 24 13C24 12.7348 23.8946 12.4804 23.7071 12.2929C23.5196 12.1054 23.2652 12 23 12Z" fill="white"/>
</g>
<defs>
<clipPath id="clip0_141_1231">
<rect width="24" height="24" fill="white"/>
</clipPath>
</defs>
</svg>
