<svg width="16" height="17" viewBox="0 0 16 17" fill="none" xmlns="http://www.w3.org/2000/svg">
<path d="M1.71436 14.6143C1.71846 14.8524 1.78774 15.0848 1.91468 15.2863C2.04162 15.4878 2.22136 15.6506 2.43436 15.7571C2.64705 15.8773 2.8872 15.9405 3.1315 15.9405C3.3758 15.9405 3.61595 15.8773 3.82864 15.7571L13.7144 9.64284C13.9295 9.53922 14.1109 9.37699 14.2379 9.17482C14.365 8.97265 14.4323 8.73874 14.4323 8.49999C14.4323 8.26123 14.365 8.02732 14.2379 7.82515C14.1109 7.62298 13.9295 7.46075 13.7144 7.35713L3.82864 1.28856C3.61595 1.16838 3.3758 1.10522 3.1315 1.10522C2.8872 1.10522 2.64705 1.16838 2.43436 1.28856C2.22136 1.39506 2.04162 1.5579 1.91468 1.75939C1.78774 1.96088 1.71846 2.19331 1.71436 2.43142V14.6143Z" fill="white"/>
</svg>
