<svg width="33" height="32" viewBox="0 0 33 32" fill="none" xmlns="http://www.w3.org/2000/svg">
<g clip-path="url(#clip0_141_1134)">
<path d="M7.16667 26.6667H17.8333C21.5093 26.6667 24.5 23.676 24.5 20V12C24.5 8.32404 21.5093 5.33337 17.8333 5.33337H7.16667C3.49067 5.33337 0.5 8.32404 0.5 12V20C0.5 23.676 3.49067 26.6667 7.16667 26.6667ZM32.5 11.084V20.8427C32.5 21.852 31.94 22.7587 31.0373 23.2094C30.66 23.3974 30.2547 23.4907 29.852 23.4907C29.2907 23.4907 28.736 23.3107 28.2667 22.9587C28.2173 22.9214 27.1667 21.8787 27.1667 21.8787V10.0587C27.1667 10.0587 28.2147 9.00671 28.2667 8.96804C29.072 8.36271 30.132 8.26537 31.0373 8.71737C31.9427 9.16937 32.5 10.0747 32.5 11.084Z" fill="white"/>
</g>
<defs>
<clipPath id="clip0_141_1134">
<rect width="32" height="32" fill="white" transform="translate(0.5)"/>
</clipPath>
</defs>
</svg>
