<svg width="12" height="12" viewBox="0 0 12 12" fill="none" xmlns="http://www.w3.org/2000/svg">
<g clip-path="url(#clip0_376_9782)">
<path d="M4.74988 7.5H7.24988C7.55638 7.5075 7.80838 7.1995 7.73988 6.9005C7.57488 6.089 6.84338 5.5 5.99988 5.5C5.15638 5.5 4.42438 6.089 4.25988 6.9005C4.19138 7.1995 4.44288 7.5075 4.74988 7.5Z" fill="#97AAFF"/>
<path d="M6 5C6.55228 5 7 4.55228 7 4C7 3.44772 6.55228 3 6 3C5.44772 3 5 3.44772 5 4C5 4.55228 5.44772 5 6 5Z" fill="#97AAFF"/>
<path d="M11.6312 6.85812C11.3802 6.77412 10.9342 6.69012 10.4857 6.63262C10.9802 6.56012 11.5352 6.33662 11.7762 5.73412C12.0827 4.96662 12.0142 4.03662 11.9242 3.46262C11.8797 3.17862 11.5612 3.03062 11.3147 3.17812C11.0787 3.31912 10.7842 3.52712 10.4872 3.80862C10.8337 3.27662 11.1837 2.49462 10.8462 1.81512C10.5362 1.19162 9.95271 0.406117 9.47971 0.0976174C9.11721 -0.139383 8.62871 0.0776174 8.57071 0.506617C8.47021 1.24712 8.47321 2.66462 9.06171 3.88912C9.48371 6.36062 8.75421 7.89912 8.04821 8.76212C7.42121 9.52812 6.65121 9.96362 6.01721 10.1231C5.41671 9.96312 4.67271 9.52562 4.04171 8.75512C3.04621 7.53862 2.64971 5.86312 2.89071 3.98912C3.52921 2.74312 3.53421 1.26762 3.43071 0.506617C3.37271 0.0776174 2.88421 -0.139383 2.52171 0.0976174C2.04871 0.406117 1.46521 1.19162 1.15521 1.81512C0.817706 2.49462 1.16721 3.27662 1.51421 3.80862C1.21721 3.52712 0.922706 3.31962 0.686706 3.17812C0.440206 3.03062 0.121706 3.17812 0.0772063 3.46262C-0.0127937 4.03662 -0.0812937 4.96662 0.225206 5.73412C0.465706 6.33662 1.02071 6.56012 1.51571 6.63262C1.06771 6.69012 0.621706 6.77462 0.370206 6.85812C0.00720626 6.97912 -0.119794 7.43012 0.134206 7.71662C0.523706 8.15412 1.44921 8.71012 2.14771 8.92112C1.74471 9.11762 1.40071 9.32362 1.19171 9.49812C0.922206 9.72362 0.941706 10.1471 1.23371 10.3431C1.63221 10.6101 2.47521 10.9161 3.26671 10.9661C3.19371 11.0611 3.12921 11.1531 3.08321 11.2376C2.91571 11.5436 3.11321 11.9231 3.46021 11.9591C4.08171 12.0231 5.17621 12.0366 6.00221 11.7146C6.83271 12.0361 7.94021 12.0231 8.56171 11.9591C8.90871 11.9231 9.10621 11.5436 8.93871 11.2376C8.89221 11.1531 8.82671 11.0606 8.75221 10.9651C9.53921 10.9121 10.3727 10.6081 10.7687 10.3431C11.0607 10.1476 11.0807 9.72362 10.8107 9.49812C10.6017 9.32362 10.2577 9.11762 9.85471 8.92112C10.5532 8.71012 11.4787 8.15362 11.8682 7.71662C12.1222 7.43012 11.9952 6.97912 11.6322 6.85812H11.6312Z" fill="#97AAFF"/>
</g>
<defs>
<clipPath id="clip0_376_9782">
<rect width="12" height="12" fill="white"/>
</clipPath>
</defs>
</svg>
