<svg width="12" height="12" viewBox="0 0 12 12" fill="none" xmlns="http://www.w3.org/2000/svg">
<g clip-path="url(#clip0_376_9774)">
<path d="M7.69461 5.54993C7.69461 6.03593 6.97061 6.94193 6.29411 7.48393C6.26761 7.50543 6.23261 7.50493 6.20611 7.48393C5.52961 6.94193 4.80561 6.03593 4.80561 5.54993C4.80561 5.24693 5.01761 4.99993 5.27761 4.99993C5.49561 4.99993 5.74961 5.11893 5.74961 5.45443C5.74961 5.73043 5.97311 5.95443 6.24961 5.95443C6.52611 5.95443 6.74961 5.73043 6.74961 5.45443C6.74961 5.11893 7.00411 4.99993 7.22161 4.99993C7.48211 4.99993 7.69361 5.24693 7.69361 5.54993H7.69461ZM11.9996 1.40043C11.8921 4.82393 11.2631 7.31693 10.1311 8.80893C9.20961 10.0229 7.82211 10.7959 6.32361 10.9294C6.16961 10.9434 6.01661 10.9499 5.86461 10.9499C4.74161 10.9499 3.68561 10.5779 2.82861 9.87893L0.854113 11.8534C0.756613 11.9509 0.628613 11.9999 0.500613 11.9999C0.372613 11.9999 0.244613 11.9509 0.147113 11.8534C-0.0483867 11.6579 -0.0483867 11.3419 0.147113 11.1464L2.12161 9.17243C1.41861 8.31543 1.02511 7.25793 1.00161 6.12993C0.973113 4.76243 1.49061 3.47643 2.45761 2.50943C3.66611 1.30093 5.08461 1.20743 6.45611 1.11793C7.66711 1.03843 8.91911 0.956429 10.2101 0.155429C10.5391 -0.0500714 10.9476 -0.0515714 11.3021 0.153429C11.7351 0.403429 12.0156 0.904429 12.0001 1.40093L11.9996 1.40043ZM8.69461 5.54993C8.69461 4.69543 8.03411 3.99993 7.22261 3.99993C6.84311 3.99993 6.50611 4.12743 6.25061 4.34393C5.99461 4.12743 5.65761 3.99993 5.27861 3.99993C4.46711 3.99993 3.80661 4.69543 3.80661 5.54993C3.80661 6.82743 5.50911 8.20593 5.58211 8.26443C5.77911 8.42193 6.01511 8.50093 6.25111 8.50093C6.48711 8.50093 6.72311 8.42193 6.92011 8.26443C6.99311 8.20643 8.69561 6.82743 8.69561 5.54993H8.69461Z" fill="#42DEB1"/>
</g>
<defs>
<clipPath id="clip0_376_9774">
<rect width="12" height="12" fill="white"/>
</clipPath>
</defs>
</svg>
