<svg width="16" height="16" viewBox="0 0 16 16" fill="none" xmlns="http://www.w3.org/2000/svg">
<g clip-path="url(#clip0_376_9806)">
<path d="M9.33333 2.66667C9.33333 2.29867 9.63133 2 10 2H11.3333C12.804 2 14 3.196 14 4.66667V6C14 6.368 13.702 6.66667 13.3333 6.66667C12.9647 6.66667 12.6667 6.368 12.6667 6V4.66667C12.6667 3.93133 12.0687 3.33333 11.3333 3.33333H10C9.63133 3.33333 9.33333 3.03467 9.33333 2.66667ZM6 12.6667H4.66667C3.93133 12.6667 3.33333 12.0687 3.33333 11.3333V10C3.33333 9.632 3.03533 9.33333 2.66667 9.33333C2.298 9.33333 2 9.632 2 10V11.3333C2 12.804 3.196 14 4.66667 14H6C6.36867 14 6.66667 13.7013 6.66667 13.3333C6.66667 12.9653 6.36867 12.6667 6 12.6667ZM8 4C8 6.206 6.206 8 4 8C1.794 8 0 6.206 0 4C0 1.794 1.794 0 4 0C6.206 0 8 1.794 8 4ZM2.66667 2.66667C2.66667 3.40333 3.26333 4 4 4C4.73667 4 5.33333 3.40333 5.33333 2.66667C5.33333 1.93 4.73667 1.33333 4 1.33333C3.26333 1.33333 2.66667 1.93 2.66667 2.66667ZM5.85067 5.91333C5.554 5.18333 4.84133 4.66667 4.00533 4.66667H3.99467C3.15867 4.66667 2.44467 5.18267 2.14867 5.912C2.62867 6.37733 3.28067 6.66667 4.00067 6.66667C4.72067 6.66667 5.37067 6.378 5.85133 5.91333H5.85067ZM16 12C16 14.206 14.206 16 12 16C9.794 16 8 14.206 8 12C8 9.794 9.794 8 12 8C14.206 8 16 9.794 16 12ZM10.6667 10.6667C10.6667 11.4033 11.2633 12 12 12C12.7367 12 13.3333 11.4033 13.3333 10.6667C13.3333 9.93 12.7367 9.33333 12 9.33333C11.2633 9.33333 10.6667 9.93 10.6667 10.6667ZM13.8507 13.9133C13.554 13.1833 12.8413 12.6667 12.0053 12.6667H11.9947C11.1587 12.6667 10.4447 13.1827 10.1487 13.912C10.6287 14.3773 11.2807 14.6667 12.0007 14.6667C12.7207 14.6667 13.3707 14.378 13.8513 13.9133H13.8507Z" fill="#708AFF"/>
</g>
<defs>
<clipPath id="clip0_376_9806">
<rect width="16" height="16" fill="white"/>
</clipPath>
</defs>
</svg>
