<svg width="12" height="12" viewBox="0 0 12 12" fill="none" xmlns="http://www.w3.org/2000/svg">
<g clip-path="url(#clip0_376_9778)">
<path d="M0.663596 6.20022L2.4436 7.50022L1.7676 9.59372C1.65835 9.91842 1.65697 10.2697 1.76365 10.5953C1.87033 10.9208 2.07937 11.2032 2.3596 11.4002C2.63502 11.6036 2.96879 11.7126 3.31117 11.7109C3.65355 11.7091 3.98622 11.5969 4.2596 11.3907L6.0001 10.1097L7.7411 11.3892C8.01602 11.5914 8.34799 11.7013 8.68928 11.703C9.03057 11.7046 9.3636 11.598 9.64048 11.3985C9.91737 11.1989 10.1238 10.9167 10.2302 10.5925C10.3366 10.2682 10.3375 9.91851 10.2326 9.59372L9.5566 7.50022L11.3366 6.20022C11.6112 5.99948 11.8153 5.7171 11.9198 5.39342C12.0243 5.06974 12.0238 4.72131 11.9184 4.39792C11.8131 4.07452 11.6082 3.79268 11.3331 3.59267C11.058 3.39266 10.7267 3.28471 10.3866 3.28422H8.2001L7.5366 1.21622C7.43226 0.8907 7.22723 0.606728 6.95108 0.405254C6.67493 0.20378 6.34193 0.0952148 6.0001 0.0952148C5.65826 0.0952148 5.32526 0.20378 5.04911 0.405254C4.77296 0.606728 4.56794 0.8907 4.4636 1.21622L3.8001 3.28422H1.6156C1.27547 3.28471 0.944192 3.39266 0.669086 3.59267C0.393981 3.79268 0.189117 4.07452 0.0837572 4.39792C-0.0216025 4.72131 -0.0220689 5.06974 0.0824248 5.39342C0.186918 5.7171 0.391027 5.99948 0.665596 6.20022H0.663596Z" fill="#FFFD7D"/>
</g>
<defs>
<clipPath id="clip0_376_9778">
<rect width="12" height="12" fill="white"/>
</clipPath>
</defs>
</svg>
