<svg width="63" height="24" viewBox="0 0 63 24" fill="none" xmlns="http://www.w3.org/2000/svg">
<rect width="63" height="24" rx="10" fill="white"/>
<rect x="8" y="7" width="1" height="10" rx="0.5" fill="black"/>
<rect x="11" y="5.5" width="1" height="13" rx="0.5" fill="black"/>
<rect x="14" y="4.5" width="1" height="15" rx="0.5" fill="black"/>
<rect x="17" y="5.5" width="1" height="13" rx="0.5" fill="black"/>
<rect x="20" y="7" width="1" height="10" rx="0.5" fill="black"/>
<path d="M30.624 16.144C30.008 16.144 29.468 16.036 29.004 15.82C28.54 15.596 28.18 15.284 27.924 14.884C27.668 14.484 27.54 14.016 27.54 13.48H28.8C28.808 13.784 28.88 14.064 29.016 14.32C29.16 14.568 29.364 14.768 29.628 14.92C29.9 15.064 30.232 15.136 30.624 15.136C30.96 15.136 31.248 15.08 31.488 14.968C31.736 14.856 31.924 14.704 32.052 14.512C32.18 14.312 32.244 14.084 32.244 13.828C32.244 13.532 32.176 13.288 32.04 13.096C31.904 12.904 31.72 12.748 31.488 12.628C31.264 12.5 31 12.388 30.696 12.292C30.4 12.196 30.088 12.092 29.76 11.98C29.096 11.764 28.6 11.484 28.272 11.14C27.952 10.796 27.792 10.348 27.792 9.796C27.792 9.324 27.904 8.916 28.128 8.572C28.352 8.22 28.664 7.948 29.064 7.756C29.472 7.556 29.952 7.456 30.504 7.456C31.048 7.456 31.524 7.556 31.932 7.756C32.34 7.956 32.66 8.232 32.892 8.584C33.124 8.936 33.24 9.348 33.24 9.82H31.968C31.968 9.604 31.912 9.392 31.8 9.184C31.688 8.976 31.52 8.808 31.296 8.68C31.072 8.544 30.796 8.476 30.468 8.476C30.196 8.468 29.952 8.512 29.736 8.608C29.52 8.704 29.352 8.844 29.232 9.028C29.112 9.212 29.052 9.432 29.052 9.688C29.052 9.944 29.104 10.152 29.208 10.312C29.32 10.464 29.48 10.596 29.688 10.708C29.896 10.82 30.136 10.924 30.408 11.02C30.688 11.108 30.996 11.208 31.332 11.32C31.748 11.456 32.116 11.624 32.436 11.824C32.764 12.016 33.02 12.268 33.204 12.58C33.396 12.884 33.492 13.276 33.492 13.756C33.492 14.172 33.384 14.56 33.168 14.92C32.952 15.28 32.632 15.576 32.208 15.808C31.784 16.032 31.256 16.144 30.624 16.144ZM35.555 18.64L37.031 15.328H36.683L34.295 9.952H35.591L37.487 14.344L39.395 9.952H40.655L36.815 18.64H35.555ZM41.7144 16V9.952H42.7944L42.8664 10.984C43.0584 10.624 43.3304 10.34 43.6824 10.132C44.0344 9.916 44.4384 9.808 44.8944 9.808C45.3744 9.808 45.7864 9.904 46.1304 10.096C46.4744 10.288 46.7424 10.58 46.9344 10.972C47.1264 11.356 47.2224 11.84 47.2224 12.424V16H46.0224V12.544C46.0224 11.984 45.8984 11.56 45.6504 11.272C45.4024 10.984 45.0424 10.84 44.5704 10.84C44.2584 10.84 43.9784 10.916 43.7304 11.068C43.4824 11.212 43.2824 11.428 43.1304 11.716C42.9864 12.004 42.9144 12.356 42.9144 12.772V16H41.7144ZM51.5534 16.144C50.9694 16.144 50.4494 16.012 49.9934 15.748C49.5374 15.476 49.1774 15.104 48.9134 14.632C48.6574 14.16 48.5294 13.612 48.5294 12.988C48.5294 12.356 48.6574 11.804 48.9134 11.332C49.1774 10.852 49.5374 10.48 49.9934 10.216C50.4494 9.944 50.9694 9.808 51.5534 9.808C52.2894 9.808 52.9054 10 53.4014 10.384C53.8974 10.768 54.2134 11.288 54.3494 11.944H53.1014C53.0214 11.592 52.8374 11.32 52.5494 11.128C52.2694 10.936 51.9334 10.84 51.5414 10.84C51.2214 10.84 50.9254 10.924 50.6534 11.092C50.3814 11.252 50.1614 11.492 49.9934 11.812C49.8334 12.124 49.7534 12.512 49.7534 12.976C49.7534 13.32 49.8014 13.628 49.8974 13.9C49.9934 14.164 50.1214 14.388 50.2814 14.572C50.4494 14.756 50.6414 14.896 50.8574 14.992C51.0734 15.08 51.3014 15.124 51.5414 15.124C51.8054 15.124 52.0414 15.084 52.2494 15.004C52.4654 14.916 52.6454 14.788 52.7894 14.62C52.9414 14.452 53.0454 14.252 53.1014 14.02H54.3494C54.2134 14.66 53.8974 15.176 53.4014 15.568C52.9054 15.952 52.2894 16.144 51.5534 16.144Z" fill="black"/>
</svg>
