<svg width="16" height="16" viewBox="0 0 16 16" fill="none" xmlns="http://www.w3.org/2000/svg">
<g clip-path="url(#clip0_376_9810)">
<path d="M12.6669 16.0002H3.33355C3.14021 16.0002 2.95688 15.9162 2.83021 15.7702C2.70355 15.6242 2.64688 15.4302 2.67421 15.2389C3.04688 12.6322 5.33688 10.6669 8.00088 10.6669C10.6649 10.6669 12.9549 12.6322 13.3275 15.2389C13.3549 15.4302 13.2982 15.6242 13.1715 15.7702C13.0449 15.9162 12.8615 16.0002 12.6682 16.0002H12.6669ZM10.0002 2.00021L8.46888 0.213547C8.22221 -0.0737865 7.77755 -0.0737865 7.53155 0.213547L6.00021 2.00021L4.93155 0.227547C4.65288 -0.19112 4.00021 0.0068802 4.00021 0.509547V4.00021H12.0002V0.509547C12.0002 0.0068802 11.3482 -0.19112 11.0689 0.227547L10.0002 2.00021ZM4.00021 5.33355C4.00021 7.53955 5.79421 9.33355 8.00021 9.33355C10.2062 9.33355 12.0002 7.53955 12.0002 5.33355H4.00021Z" fill="#F7AD06"/>
</g>
<defs>
<clipPath id="clip0_376_9810">
<rect width="16" height="16" fill="white"/>
</clipPath>
</defs>
</svg>
