<svg width="24" height="24" viewBox="0 0 24 24" fill="none" xmlns="http://www.w3.org/2000/svg">
<path d="M1 4V10H7" stroke="white" stroke-width="2" stroke-linecap="round" stroke-linejoin="round"/>
<path d="M3.51012 15C4.16015 16.8399 5.39057 18.4187 7.01596 19.4985C8.64136 20.5783 10.5737 21.1006 12.5217 20.9866C14.4697 20.8726 16.328 20.1286 17.8164 18.8667C19.3048 17.6047 20.3427 15.8932 20.7738 13.9901C21.2048 12.0869 21.0056 10.0952 20.2063 8.31508C19.4069 6.53496 18.0506 5.06288 16.3418 4.12065C14.633 3.17843 12.6642 2.81711 10.7322 3.09116C8.80013 3.3652 7.00951 4.25975 5.63012 5.64001L2 9" stroke="white" stroke-width="3" stroke-linecap="round" stroke-linejoin="round"/>
<path d="M9.45113 15C9.31246 15 9.20313 14.9627 9.12313 14.888C9.04846 14.808 9.01113 14.7013 9.01113 14.568C9.01113 14.4293 9.04846 14.3253 9.12313 14.256C9.20313 14.1867 9.31246 14.152 9.45113 14.152H10.3471V10.224H10.8431L9.66713 10.936C9.56579 10.9947 9.46979 11.0187 9.37912 11.008C9.29379 10.992 9.21913 10.9547 9.15513 10.896C9.09646 10.832 9.05646 10.7573 9.03513 10.672C9.01379 10.5867 9.01913 10.5013 9.05113 10.416C9.08846 10.3253 9.15779 10.2507 9.25912 10.192L10.3631 9.528C10.4698 9.464 10.5765 9.41067 10.6831 9.368C10.7898 9.32 10.8885 9.296 10.9791 9.296C11.0911 9.296 11.1845 9.328 11.2591 9.392C11.3338 9.45067 11.3711 9.54933 11.3711 9.688V14.152H12.1871C12.3258 14.152 12.4325 14.1867 12.5071 14.256C12.5871 14.3253 12.6271 14.4293 12.6271 14.568C12.6271 14.7067 12.5871 14.8133 12.5071 14.888C12.4325 14.9627 12.3258 15 12.1871 15H9.45113ZM15.448 15.08C15.1653 15.08 14.8773 15.0427 14.584 14.968C14.2907 14.8933 14.0213 14.7787 13.776 14.624C13.6747 14.56 13.6053 14.4853 13.568 14.4C13.536 14.3093 13.528 14.2213 13.544 14.136C13.5653 14.0453 13.6053 13.9707 13.664 13.912C13.728 13.848 13.8027 13.8107 13.888 13.8C13.9787 13.7893 14.0773 13.8133 14.184 13.872C14.3813 13.984 14.5813 14.0693 14.784 14.128C14.9867 14.1867 15.2027 14.216 15.432 14.216C15.656 14.216 15.848 14.176 16.008 14.096C16.168 14.016 16.2907 13.904 16.376 13.76C16.4613 13.616 16.504 13.448 16.504 13.256C16.504 12.9573 16.4133 12.7173 16.232 12.536C16.0507 12.3493 15.8027 12.256 15.488 12.256C15.3173 12.256 15.152 12.2853 14.992 12.344C14.832 12.3973 14.6747 12.4933 14.52 12.632C14.472 12.6747 14.4107 12.7173 14.336 12.76C14.2613 12.7973 14.1813 12.816 14.096 12.816C13.9627 12.816 13.8613 12.7813 13.792 12.712C13.7227 12.6427 13.688 12.5467 13.688 12.424V9.808C13.688 9.664 13.7253 9.55467 13.8 9.48C13.88 9.4 13.992 9.36 14.136 9.36H16.768C16.912 9.36 17.0213 9.39733 17.096 9.472C17.176 9.54133 17.216 9.64533 17.216 9.784C17.216 9.91733 17.176 10.0213 17.096 10.096C17.0213 10.1707 16.912 10.208 16.768 10.208H14.688V12H14.424C14.5627 11.8133 14.7467 11.6693 14.976 11.568C15.2053 11.4667 15.456 11.416 15.728 11.416C16.0853 11.416 16.3947 11.4933 16.656 11.648C16.9227 11.7973 17.128 12.008 17.272 12.28C17.4213 12.5467 17.496 12.8587 17.496 13.216C17.496 13.584 17.4133 13.9093 17.248 14.192C17.0827 14.4693 16.8453 14.688 16.536 14.848C16.232 15.0027 15.8693 15.08 15.448 15.08Z" fill="white"/>
</svg>
