<svg width="24" height="24" viewBox="0 0 24 24" fill="none" xmlns="http://www.w3.org/2000/svg">
<path d="M23 4V10H17" stroke="white" stroke-width="2" stroke-linecap="round" stroke-linejoin="round"/>
<path d="M20.4899 15C19.8399 16.8399 18.6094 18.4187 16.984 19.4985C15.3586 20.5783 13.4263 21.1006 11.4783 20.9866C9.53026 20.8726 7.67203 20.1286 6.18363 18.8667C4.69524 17.6047 3.6573 15.8932 3.22625 13.9901C2.79519 12.0869 2.99436 10.0952 3.79374 8.31508C4.59313 6.53496 5.94942 5.06288 7.65823 4.12065C9.36705 3.17843 11.3358 2.81711 13.2678 3.09116C15.1999 3.3652 16.9905 4.25975 18.3699 5.64001L22 9" stroke="white" stroke-width="3" stroke-linecap="round" stroke-linejoin="round"/>
<path d="M7.45113 15C7.31246 15 7.20313 14.9627 7.12313 14.888C7.04846 14.808 7.01113 14.7013 7.01113 14.568C7.01113 14.4293 7.04846 14.3253 7.12313 14.256C7.20313 14.1867 7.31246 14.152 7.45113 14.152H8.34713V10.224H8.84313L7.66713 10.936C7.56579 10.9947 7.46979 11.0187 7.37912 11.008C7.29379 10.992 7.21913 10.9547 7.15513 10.896C7.09646 10.832 7.05646 10.7573 7.03513 10.672C7.01379 10.5867 7.01913 10.5013 7.05113 10.416C7.08846 10.3253 7.15779 10.2507 7.25912 10.192L8.36313 9.528C8.46979 9.464 8.57646 9.41067 8.68313 9.368C8.78979 9.32 8.88846 9.296 8.97913 9.296C9.09113 9.296 9.18446 9.328 9.25913 9.392C9.33379 9.45067 9.37113 9.54933 9.37113 9.688V14.152H10.1871C10.3258 14.152 10.4325 14.1867 10.5071 14.256C10.5871 14.3253 10.6271 14.4293 10.6271 14.568C10.6271 14.7067 10.5871 14.8133 10.5071 14.888C10.4325 14.9627 10.3258 15 10.1871 15H7.45113ZM13.448 15.08C13.1653 15.08 12.8773 15.0427 12.584 14.968C12.2907 14.8933 12.0213 14.7787 11.776 14.624C11.6747 14.56 11.6053 14.4853 11.568 14.4C11.536 14.3093 11.528 14.2213 11.544 14.136C11.5653 14.0453 11.6053 13.9707 11.664 13.912C11.728 13.848 11.8027 13.8107 11.888 13.8C11.9787 13.7893 12.0773 13.8133 12.184 13.872C12.3813 13.984 12.5813 14.0693 12.784 14.128C12.9867 14.1867 13.2027 14.216 13.432 14.216C13.656 14.216 13.848 14.176 14.008 14.096C14.168 14.016 14.2907 13.904 14.376 13.76C14.4613 13.616 14.504 13.448 14.504 13.256C14.504 12.9573 14.4133 12.7173 14.232 12.536C14.0507 12.3493 13.8027 12.256 13.488 12.256C13.3173 12.256 13.152 12.2853 12.992 12.344C12.832 12.3973 12.6747 12.4933 12.52 12.632C12.472 12.6747 12.4107 12.7173 12.336 12.76C12.2613 12.7973 12.1813 12.816 12.096 12.816C11.9627 12.816 11.8613 12.7813 11.792 12.712C11.7227 12.6427 11.688 12.5467 11.688 12.424V9.808C11.688 9.664 11.7253 9.55467 11.8 9.48C11.88 9.4 11.992 9.36 12.136 9.36H14.768C14.912 9.36 15.0213 9.39733 15.096 9.472C15.176 9.54133 15.216 9.64533 15.216 9.784C15.216 9.91733 15.176 10.0213 15.096 10.096C15.0213 10.1707 14.912 10.208 14.768 10.208H12.688V12H12.424C12.5627 11.8133 12.7467 11.6693 12.976 11.568C13.2053 11.4667 13.456 11.416 13.728 11.416C14.0853 11.416 14.3947 11.4933 14.656 11.648C14.9227 11.7973 15.128 12.008 15.272 12.28C15.4213 12.5467 15.496 12.8587 15.496 13.216C15.496 13.584 15.4133 13.9093 15.248 14.192C15.0827 14.4693 14.8453 14.688 14.536 14.848C14.232 15.0027 13.8693 15.08 13.448 15.08Z" fill="white"/>
</svg>
