<svg width="25" height="24" viewBox="0 0 25 24" fill="none" xmlns="http://www.w3.org/2000/svg">
<g clip-path="url(#clip0_260_29537)">
<path d="M20.0086 2.75802C18.7416 1.70368 17.2699 0.923183 15.6864 0.46572C14.1028 0.00825769 12.4416 -0.116257 10.8076 0.100021C7.78463 0.492739 5.02446 2.02119 3.08749 4.37503C1.15053 6.72887 0.181975 9.73164 0.378496 12.7736C0.575017 15.8156 1.92188 18.6688 4.14561 20.7539C6.36934 22.8389 9.30323 23.9995 12.3516 24H19.3336C20.6592 23.9984 21.93 23.4711 22.8674 22.5338C23.8047 21.5965 24.332 20.3256 24.3336 19V11.309V11.246C24.2277 9.61147 23.7896 8.01568 23.0459 6.55624C22.3023 5.0968 21.2688 3.80438 20.0086 2.75802ZM8.33357 7.00002H12.3336C12.5988 7.00002 12.8531 7.10538 13.0407 7.29292C13.2282 7.48045 13.3336 7.73481 13.3336 8.00002C13.3336 8.26524 13.2282 8.51959 13.0407 8.70713C12.8531 8.89466 12.5988 9.00002 12.3336 9.00002H8.33357C8.06836 9.00002 7.814 8.89466 7.62647 8.70713C7.43893 8.51959 7.33357 8.26524 7.33357 8.00002C7.33357 7.73481 7.43893 7.48045 7.62647 7.29292C7.814 7.10538 8.06836 7.00002 8.33357 7.00002ZM16.3336 17H8.33357C8.06836 17 7.814 16.8947 7.62647 16.7071C7.43893 16.5196 7.33357 16.2652 7.33357 16C7.33357 15.7348 7.43893 15.4805 7.62647 15.2929C7.814 15.1054 8.06836 15 8.33357 15H16.3336C16.5988 15 16.8531 15.1054 17.0407 15.2929C17.2282 15.4805 17.3336 15.7348 17.3336 16C17.3336 16.2652 17.2282 16.5196 17.0407 16.7071C16.8531 16.8947 16.5988 17 16.3336 17ZM16.3336 13H8.33357C8.06836 13 7.814 12.8947 7.62647 12.7071C7.43893 12.5196 7.33357 12.2652 7.33357 12C7.33357 11.7348 7.43893 11.4805 7.62647 11.2929C7.814 11.1054 8.06836 11 8.33357 11H16.3336C16.5988 11 16.8531 11.1054 17.0407 11.2929C17.2282 11.4805 17.3336 11.7348 17.3336 12C17.3336 12.2652 17.2282 12.5196 17.0407 12.7071C16.8531 12.8947 16.5988 13 16.3336 13Z" fill="#6F6F70"/>
</g>
<defs>
<clipPath id="clip0_260_29537">
<rect width="24" height="24" fill="white" transform="translate(0.333496)"/>
</clipPath>
</defs>
</svg>
