<svg width="25" height="24" viewBox="0 0 25 24" fill="none" xmlns="http://www.w3.org/2000/svg">
<g clip-path="url(#clip0_260_29541)">
<path d="M12.1665 5C13.5475 5 14.6665 6.119 14.6665 7.5C14.6665 8.881 13.5475 10 12.1665 10C10.7855 10 9.66647 8.881 9.66647 7.5C9.66647 6.119 10.7855 5 12.1665 5ZM16.1665 14V17C16.1665 17.883 15.7755 18.67 15.1665 19.22V23C15.1665 23.553 14.7185 24 14.1665 24C13.6145 24 13.1665 23.553 13.1665 23V20H11.1665V23C11.1665 23.553 10.7185 24 10.1665 24C9.61447 24 9.16647 23.553 9.16647 23V19.22C8.55747 18.671 8.16647 17.883 8.16647 17V14C8.16647 12.346 9.51247 11 11.1665 11H13.1665C14.8205 11 16.1665 12.346 16.1665 14ZM19.1665 5C20.5475 5 21.6665 3.881 21.6665 2.5C21.6665 1.119 20.5475 0 19.1665 0C17.7855 0 16.6665 1.119 16.6665 2.5C16.6665 3.881 17.7855 5 19.1665 5ZM24.1435 16.628L23.2675 9.621C23.0105 7.557 21.2475 6 19.1665 6C18.2025 6 17.3155 6.344 16.6065 6.908C16.6325 7.104 16.6665 7.297 16.6665 7.5C16.6665 8.371 16.4065 9.179 15.9765 9.868C17.2965 10.769 18.1665 12.284 18.1665 14V17C18.1665 18.077 17.8095 19.123 17.1665 19.981V20H20.1665V23C20.1665 23.552 20.6135 24 21.1665 24C21.7195 24 22.1665 23.552 22.1665 23V19.812C22.6405 19.643 23.0755 19.371 23.4155 18.986C23.9845 18.341 24.2495 17.481 24.1435 16.628ZM7.66647 2.5C7.66647 1.119 6.54647 0 5.16647 0C3.78647 0 2.66647 1.119 2.66647 2.5C2.66647 3.881 3.78547 5 5.16647 5C6.54747 5 7.66647 3.881 7.66647 2.5ZM0.917471 18.985C1.25747 19.37 1.69247 19.643 2.16647 19.811V22.999C2.16647 23.551 2.61347 23.999 3.16647 23.999C3.71947 23.999 4.16647 23.551 4.16647 22.999V19.999H7.16647V19.98C6.52347 19.122 6.16647 18.076 6.16647 16.999V13.999C6.16647 12.283 7.03647 10.768 8.35647 9.867C7.92647 9.177 7.66647 8.37 7.66647 7.499C7.66647 7.296 7.70047 7.103 7.72647 6.907C7.01747 6.344 6.13047 5.999 5.16647 5.999C3.08547 5.999 1.32247 7.556 1.06547 9.62L0.189471 16.628C0.0834713 17.482 0.347471 18.34 0.917471 18.985Z" fill="#6C6A74"/>
</g>
<defs>
<clipPath id="clip0_260_29541">
<rect width="24" height="24" fill="white" transform="translate(0.166504)"/>
</clipPath>
</defs>
</svg>
