<svg width="20" height="20" viewBox="0 0 20 20" fill="none" xmlns="http://www.w3.org/2000/svg">
<path d="M10 0C6.28449 0 3.26172 3.02277 3.26172 6.73828C3.26172 8.37754 3.85738 9.95738 4.93898 11.1868C5.95379 12.3402 7.32691 13.1107 8.82812 13.3744V15.2734H7.61719C6.97102 15.2734 6.44531 15.7991 6.44531 16.4453C6.44531 16.7583 6.56723 17.0526 6.78855 17.2739C7.00988 17.4953 7.30418 17.6172 7.61719 17.6172H8.82812V18.8281C8.82812 19.4743 9.35383 20 10 20C10.6462 20 11.1719 19.4743 11.1719 18.8281V17.6172H12.3828C12.6959 17.6172 12.9901 17.4953 13.2114 17.2739C13.4328 17.0526 13.5547 16.7583 13.5547 16.4453C13.5547 15.7991 13.029 15.2734 12.3828 15.2734H11.1719V13.3745C12.6731 13.1107 14.0462 12.3402 15.061 11.1868C16.1426 9.95738 16.7383 8.37754 16.7383 6.73828C16.7383 3.02277 13.7155 0 10 0ZM10.8393 12.8334C10.6941 12.8532 10.5859 12.9772 10.5859 13.1237V15.5664C10.5859 15.7282 10.7171 15.8594 10.8789 15.8594H12.3828C12.7059 15.8594 12.9688 16.1222 12.9688 16.4453C12.9688 16.6018 12.9078 16.7489 12.7971 16.8596C12.6864 16.9703 12.5393 17.0312 12.3828 17.0312H10.8789C10.7171 17.0312 10.5859 17.1624 10.5859 17.3242V18.8281C10.5859 19.1512 10.3231 19.4141 10 19.4141C9.67691 19.4141 9.41406 19.1512 9.41406 18.8281V17.3242C9.41406 17.1624 9.28293 17.0312 9.12109 17.0312H7.61719C7.46066 17.0312 7.31355 16.9703 7.20289 16.8596C7.09223 16.7489 7.03125 16.6018 7.03125 16.4453C7.03125 16.1222 7.2941 15.8594 7.61719 15.8594H9.12109C9.28293 15.8594 9.41406 15.7282 9.41406 15.5664V13.1237C9.41406 12.9772 9.30582 12.8532 9.1607 12.8334C6.13176 12.4203 3.84766 9.8 3.84766 6.73828C3.84766 3.34586 6.60758 0.585938 10 0.585938C13.3924 0.585938 16.1523 3.34586 16.1523 6.73828C16.1523 9.8 13.8682 12.4203 10.8393 12.8334Z" fill="white"/>
<path d="M10 1.75781C8.88262 1.75781 7.82652 2.11961 6.94598 2.8041C6.8182 2.9034 6.79516 3.08746 6.89445 3.2152C6.99375 3.34293 7.17785 3.36598 7.30555 3.26668C8.08234 2.66289 9.01406 2.34375 10 2.34375C12.4231 2.34375 14.3945 4.31512 14.3945 6.73828C14.3945 9.16145 12.4231 11.1328 10 11.1328C7.57687 11.1328 5.60547 9.16145 5.60547 6.73828C5.60547 5.7523 5.92461 4.82059 6.52844 4.04383C6.62773 3.91605 6.60465 3.73203 6.47691 3.63273C6.34922 3.53344 6.16516 3.55645 6.06582 3.68422C5.38133 4.56477 5.01953 5.62086 5.01953 6.73828C5.01953 9.48453 7.25375 11.7188 10 11.7188C12.7463 11.7188 14.9805 9.48453 14.9805 6.73828C14.9805 3.99203 12.7463 1.75781 10 1.75781Z" fill="white"/>
</svg>
