<svg width="14" height="14" viewBox="0 0 14 14" fill="none" xmlns="http://www.w3.org/2000/svg">
<g clip-path="url(#clip0_232_4246)">
<path d="M12.9416 3.00354H9.52675V2.01518C9.52675 1.81305 9.43081 1.61921 9.27005 1.4966C9.23032 1.4663 9.0128 1.30741 8.63193 1.15434C8.47085 1.08962 8.30028 1.03419 8.12484 0.989648C8.01492 0.961676 7.90303 1.0282 7.87508 1.13821C7.84716 1.24818 7.91366 1.35999 8.02367 1.38794C8.18144 1.42802 8.33454 1.47773 8.47869 1.53565C8.82325 1.67412 9.01299 1.81737 9.0209 1.82339C9.08034 1.86872 9.11583 1.94039 9.11583 2.01515V3.00354H8.63357V2.26811C8.63357 2.19089 8.59029 2.12018 8.52149 2.08507C8.27241 1.958 7.74361 1.7448 6.99995 1.7448C6.25628 1.7448 5.72748 1.95797 5.4784 2.08507C5.40961 2.12018 5.36632 2.19086 5.36632 2.26811V3.00357H4.88403V2.01518C4.88403 1.94045 4.9195 1.86875 4.979 1.82341C4.9869 1.81737 5.17653 1.67417 5.52117 1.53565C5.96583 1.35696 6.47719 1.26251 6.99995 1.26251C7.08725 1.26251 7.17574 1.26519 7.26294 1.27052C7.37625 1.27744 7.47365 1.19117 7.48054 1.07791C7.48743 0.964656 7.40121 0.86723 7.28793 0.860312C7.19245 0.854516 7.09554 0.851562 6.99995 0.851562C6.42518 0.851562 5.86083 0.956262 5.36791 1.15434C4.98693 1.30746 4.76949 1.46633 4.72976 1.49663C4.56903 1.61918 4.47308 1.81302 4.47308 2.01515V3.00354H1.05837C0.47477 3.00354 0 3.47831 0 4.06188V6.93776C0 7.24046 0.127613 7.52459 0.351586 7.72534V12.0899C0.351586 12.6735 0.826355 13.1482 1.40993 13.1482H9.52861C9.64212 13.1482 9.7341 13.0562 9.7341 12.9428C9.7341 12.8293 9.64212 12.7373 9.52861 12.7373H1.40995C1.05298 12.7373 0.762563 12.4468 0.762563 12.0899V8.03088C1.06036 8.228 1.46573 8.45389 1.99694 8.66728C2.10216 8.70953 2.2219 8.65853 2.26423 8.5532C2.30653 8.4479 2.25542 8.32825 2.15015 8.28595C1.39757 7.98366 0.918859 7.65909 0.649797 7.44001C0.498012 7.31647 0.410977 7.13341 0.410977 6.93779V4.06188C0.410977 3.70491 0.701395 3.41449 1.05837 3.41449H12.9417C13.2986 3.41449 13.5891 3.70491 13.5891 4.06188V6.93776C13.5891 7.13338 13.502 7.31645 13.3502 7.43998C13.043 7.69012 12.4904 8.05634 11.603 8.38053C10.5828 8.75317 9.37278 8.97848 8.00428 9.05157V8.58238C8.00428 8.3123 7.78457 8.0926 7.51453 8.0926H6.48531C6.21523 8.0926 5.99553 8.3123 5.99553 8.58238V9.05187C4.88914 8.99267 3.88114 8.83288 2.99655 8.5762C2.88766 8.54467 2.77359 8.60729 2.74195 8.71628C2.71031 8.82527 2.77304 8.93924 2.88203 8.97088C3.80256 9.23797 4.84922 9.40332 5.99553 9.46326V9.55989C5.99553 10.1137 6.4461 10.5643 6.99992 10.5643C7.55371 10.5643 8.00428 10.1137 8.00428 9.55989V9.46334C10.7829 9.31861 12.3911 8.59447 13.2374 8.0317V12.0899C13.2374 12.4469 12.947 12.7373 12.59 12.7373H10.3505C10.237 12.7373 10.1451 12.8293 10.1451 12.9428C10.1451 13.0563 10.237 13.1483 10.3505 13.1483H12.59C13.1736 13.1483 13.6484 12.6735 13.6484 12.0899V7.72534C13.8724 7.52459 14 7.24046 14 6.93779V4.06188C14 3.47831 13.5252 3.00354 12.9416 3.00354ZM5.77727 2.39799C6.0223 2.29001 6.4397 2.15575 6.99992 2.15575C7.56014 2.15575 7.97754 2.29001 8.22257 2.39799V3.00354H5.77724V2.39799H5.77727ZM7.59333 9.55992C7.59333 9.88714 7.32714 10.1533 6.99992 10.1533C6.6727 10.1533 6.40648 9.88714 6.40648 9.55992V8.58238C6.40648 8.5389 6.44186 8.50355 6.48531 8.50355H7.51453C7.55798 8.50355 7.59333 8.5389 7.59333 8.58238V9.55992Z" fill="white"/>
</g>
<defs>
<clipPath id="clip0_232_4246">
<rect width="14" height="14" fill="white"/>
</clipPath>
</defs>
</svg>
