<svg width="14" height="14" viewBox="0 0 14 14" fill="none" xmlns="http://www.w3.org/2000/svg">
<path d="M7.82368 6.80273C7.71042 6.80273 7.6186 6.89456 7.6186 7.00781C7.6186 7.34893 7.34109 7.62644 6.99997 7.62644C6.65886 7.62644 6.38135 7.34893 6.38135 7.00781C6.38135 6.89456 6.28953 6.80273 6.17627 6.80273C6.06301 6.80273 5.97119 6.89456 5.97119 7.00781C5.97119 7.57509 6.4327 8.03659 6.99997 8.03659C7.56725 8.03659 8.02875 7.57509 8.02875 7.00781C8.02875 6.89456 7.93693 6.80273 7.82368 6.80273Z" fill="white"/>
<path d="M6.09909 6.02562C6.09909 5.47839 5.65388 5.0332 5.10667 5.0332C4.55947 5.0332 4.11426 5.47839 4.11426 6.02562C4.11426 6.13887 4.20608 6.2307 4.31934 6.2307C4.43259 6.2307 4.52441 6.13887 4.52441 6.02562C4.52441 5.70455 4.7856 5.44336 5.10667 5.44336C5.42774 5.44336 5.68893 5.70455 5.68893 6.02562C5.68893 6.13887 5.78075 6.2307 5.89401 6.2307C6.00727 6.2307 6.09909 6.13887 6.09909 6.02562Z" fill="white"/>
<path d="M8.8928 5.0332C8.34557 5.0332 7.90039 5.47839 7.90039 6.02562C7.90039 6.13887 7.99221 6.2307 8.10547 6.2307C8.21873 6.2307 8.31055 6.13887 8.31055 6.02562C8.31055 5.70455 8.57176 5.44336 8.8928 5.44336C9.21385 5.44336 9.47506 5.70455 9.47506 6.02562C9.47506 6.13887 9.56688 6.2307 9.68014 6.2307C9.7934 6.2307 9.88522 6.13887 9.88522 6.02562C9.88522 5.47839 9.44004 5.0332 8.8928 5.0332Z" fill="white"/>
<path d="M10.9925 4.02847C10.7842 2.9995 10.1827 2.08687 9.29395 1.48507C9.20394 0.978113 8.85695 0.587289 8.41718 0.323914C8.31997 0.265699 8.19402 0.297309 8.13586 0.394516C8.07768 0.491668 8.10929 0.617613 8.20644 0.675828C8.36506 0.770793 8.44501 0.855148 8.47454 0.875273C8.7056 1.04595 8.89342 1.38698 8.90255 1.66827C8.91062 1.9069 8.84382 2.17347 8.65827 2.30768C8.65654 2.30893 8.65485 2.31019 8.65318 2.31148C8.49737 2.43171 8.38428 2.59509 8.38428 2.79032C8.38428 2.79163 8.38442 2.79295 8.38442 2.79423C8.38573 2.95755 8.45581 3.05003 8.53464 3.1798C8.19635 3.03868 7.89792 2.87913 7.64337 2.70301C7.33877 2.49233 6.97758 2.73334 6.86695 3.01848C6.77327 3.25511 6.87307 3.4125 6.98182 3.59155C6.49447 3.38792 6.08735 3.14552 5.78673 2.87815C5.40428 2.53802 5.20213 2.16327 5.20213 1.79449C5.20213 1.55761 5.20163 1.58752 5.20355 1.547C5.23105 0.965563 5.88813 0.282652 7.3853 0.425059C7.49821 0.435832 7.59815 0.353062 7.60887 0.240324C7.61959 0.127586 7.53687 0.0274805 7.42413 0.0167617C7.2683 0.00191406 7.12734 0 7.02193 0C6.95527 0 6.89093 0.000875 6.84075 0.000875C5.78509 0.000875 4.91359 0.622371 4.80386 1.41766C4.25332 1.76701 3.79152 2.24678 3.46437 2.81121C3.24505 3.18962 3.08974 3.60147 3.00279 4.0288C2.21881 4.08885 1.59912 4.74548 1.59912 5.5446C1.59912 6.34356 2.21857 7.00008 3.00235 7.06035C3.1879 7.97128 3.68045 8.77179 4.36666 9.34924C3.53591 9.99037 3.04777 10.9741 3.04777 12.035V12.4359C3.04777 12.5491 3.13959 12.6409 3.25284 12.6409C3.3661 12.6409 3.45792 12.5491 3.45792 12.4359V12.035C3.45792 11.2891 3.73254 10.5866 4.21603 10.0468V10.3442C4.21603 11.8822 5.46725 13.1334 7.00523 13.1334C8.5432 13.1334 9.79445 11.8822 9.79445 10.3442V10.0471C10.0127 10.2911 10.1903 10.5702 10.3195 10.8767C10.3195 10.8769 10.3196 10.8771 10.3197 10.8773C10.4742 11.2439 10.5526 11.6335 10.5526 12.035V13.5898H3.45789V13.3929C3.45789 13.2796 3.36607 13.1878 3.25282 13.1878C3.13956 13.1878 3.04774 13.2796 3.04774 13.3929V13.7949C3.04774 13.9082 3.13956 14 3.25282 14H10.7576C10.8709 14 10.9627 13.9082 10.9627 13.7949V12.0349C10.9627 11.5784 10.8735 11.1353 10.6976 10.7179C10.6976 10.7177 10.6975 10.7175 10.6974 10.7173C10.4695 10.1768 10.1099 9.7107 9.64934 9.35369C9.64529 9.35055 9.6413 9.34738 9.63725 9.34426C9.63671 9.34382 9.63616 9.34339 9.63561 9.34298C10.3179 8.76611 10.8075 7.96821 10.9925 7.06068C11.7785 7.00271 12.4004 6.34512 12.4004 5.54455C12.4004 4.74403 11.7785 4.08647 10.9925 4.02847ZM2.9397 6.64054C2.41271 6.55421 2.00928 6.09561 2.00928 5.54455C2.00928 4.99349 2.41271 4.53491 2.9397 4.44858C2.91673 4.68787 2.9061 6.29013 2.9397 6.64054ZM9.38427 10.3442C9.38427 11.656 8.31702 12.7232 7.0052 12.7232C5.69338 12.7232 4.62616 11.656 4.62616 10.3442V9.66719C4.65298 9.64657 4.68011 9.62661 4.70739 9.60703C4.82147 9.68417 4.93979 9.75548 5.06171 9.82092V10.3442C5.06171 11.4159 5.93357 12.2877 7.00523 12.2877C8.07688 12.2877 8.94874 11.4159 8.94874 10.3442V9.81271C9.06807 9.74802 9.18376 9.67747 9.29551 9.60151C9.32537 9.62278 9.35504 9.64458 9.3843 9.66708L9.38427 10.3442ZM5.47187 10.3442V10.0122C6.00064 10.2235 6.49595 10.2995 7.02535 10.2995C7.56009 10.2995 8.07084 10.195 8.53855 10.0059V10.3442C8.53855 11.1897 7.8507 11.8775 7.0052 11.8775C6.1597 11.8775 5.47187 11.1897 5.47187 10.3442ZM10.6192 6.81942C10.337 8.61066 8.78025 9.88933 6.99976 9.88933C5.66347 9.88933 4.87977 9.19064 4.78396 9.15786C4.04592 8.60158 3.52562 7.77123 3.37564 6.81942C3.318 6.452 3.33113 6.28857 3.33113 4.8382C3.33113 3.72337 3.85875 2.62128 4.79741 1.91961C4.89773 3.07103 6.29907 3.82648 7.39873 4.18173C7.5792 4.24003 7.73495 4.04127 7.63703 3.88011L7.26168 3.26227C7.25523 3.25166 7.25047 3.24163 7.24719 3.232C7.23057 3.19197 7.25963 3.14609 7.261 3.14371C7.28055 3.1109 7.31459 3.07571 7.36078 3.04153C7.3815 3.03004 7.40078 3.03278 7.41 3.0403C7.50294 3.10461 7.60129 3.16665 7.7043 3.22664C7.8607 3.31773 8.02821 3.40386 8.20687 3.48452C8.43736 3.58859 8.68588 3.68378 8.95125 3.76953C9.03274 3.79586 9.1221 3.76873 9.1752 3.70152C9.2283 3.63431 9.23404 3.54113 9.18956 3.46793L8.81423 2.85012C8.74259 2.7323 8.89257 2.65437 8.98254 2.57083C9.14838 2.41675 9.24411 2.21014 9.28723 1.98795C10.1594 2.67911 10.6637 3.72362 10.6637 4.8382C10.6637 6.35882 10.6755 6.46048 10.6192 6.81942ZM11.0551 6.6413C11.0889 6.29021 11.0784 4.69068 11.0552 4.44787C11.5845 4.53228 11.9903 4.99196 11.9903 5.54457C11.9903 6.09727 11.5844 6.55695 11.0551 6.6413Z" fill="white"/>
</svg>
