<svg width="20" height="21" viewBox="0 0 20 21" fill="none" xmlns="http://www.w3.org/2000/svg">
<path d="M1.6665 10.4997C1.6665 7.35717 1.6665 5.78551 2.64317 4.80967C3.61984 3.83384 5.19067 3.83301 8.33317 3.83301H11.6665C14.809 3.83301 16.3807 3.83301 17.3565 4.80967C18.3323 5.78634 18.3332 7.35717 18.3332 10.4997V12.1663C18.3332 15.3088 18.3332 16.8805 17.3565 17.8563C16.3798 18.8322 14.809 18.833 11.6665 18.833H8.33317C5.19067 18.833 3.619 18.833 2.64317 17.8563C1.66734 16.8797 1.6665 15.3088 1.6665 12.1663V10.4997Z" stroke="#656565" stroke-width="1.5"/>
<path d="M5.83301 3.83301V2.58301M14.1663 3.83301V2.58301M2.08301 7.99967H17.9163" stroke="#656565" stroke-width="1.5" stroke-linecap="round"/>
<path d="M15 14.6667C15 14.8877 14.9122 15.0996 14.7559 15.2559C14.5996 15.4122 14.3877 15.5 14.1667 15.5C13.9457 15.5 13.7337 15.4122 13.5774 15.2559C13.4211 15.0996 13.3333 14.8877 13.3333 14.6667C13.3333 14.4457 13.4211 14.2337 13.5774 14.0774C13.7337 13.9211 13.9457 13.8333 14.1667 13.8333C14.3877 13.8333 14.5996 13.9211 14.7559 14.0774C14.9122 14.2337 15 14.4457 15 14.6667ZM15 11.3333C15 11.5543 14.9122 11.7663 14.7559 11.9226C14.5996 12.0789 14.3877 12.1667 14.1667 12.1667C13.9457 12.1667 13.7337 12.0789 13.5774 11.9226C13.4211 11.7663 13.3333 11.5543 13.3333 11.3333C13.3333 11.1123 13.4211 10.9004 13.5774 10.7441C13.7337 10.5878 13.9457 10.5 14.1667 10.5C14.3877 10.5 14.5996 10.5878 14.7559 10.7441C14.9122 10.9004 15 11.1123 15 11.3333ZM10.8333 14.6667C10.8333 14.8877 10.7455 15.0996 10.5893 15.2559C10.433 15.4122 10.221 15.5 10 15.5C9.77899 15.5 9.56702 15.4122 9.41074 15.2559C9.25446 15.0996 9.16667 14.8877 9.16667 14.6667C9.16667 14.4457 9.25446 14.2337 9.41074 14.0774C9.56702 13.9211 9.77899 13.8333 10 13.8333C10.221 13.8333 10.433 13.9211 10.5893 14.0774C10.7455 14.2337 10.8333 14.4457 10.8333 14.6667ZM10.8333 11.3333C10.8333 11.5543 10.7455 11.7663 10.5893 11.9226C10.433 12.0789 10.221 12.1667 10 12.1667C9.77899 12.1667 9.56702 12.0789 9.41074 11.9226C9.25446 11.7663 9.16667 11.5543 9.16667 11.3333C9.16667 11.1123 9.25446 10.9004 9.41074 10.7441C9.56702 10.5878 9.77899 10.5 10 10.5C10.221 10.5 10.433 10.5878 10.5893 10.7441C10.7455 10.9004 10.8333 11.1123 10.8333 11.3333ZM6.66667 14.6667C6.66667 14.8877 6.57887 15.0996 6.42259 15.2559C6.26631 15.4122 6.05435 15.5 5.83333 15.5C5.61232 15.5 5.40036 15.4122 5.24408 15.2559C5.0878 15.0996 5 14.8877 5 14.6667C5 14.4457 5.0878 14.2337 5.24408 14.0774C5.40036 13.9211 5.61232 13.8333 5.83333 13.8333C6.05435 13.8333 6.26631 13.9211 6.42259 14.0774C6.57887 14.2337 6.66667 14.4457 6.66667 14.6667ZM6.66667 11.3333C6.66667 11.5543 6.57887 11.7663 6.42259 11.9226C6.26631 12.0789 6.05435 12.1667 5.83333 12.1667C5.61232 12.1667 5.40036 12.0789 5.24408 11.9226C5.0878 11.7663 5 11.5543 5 11.3333C5 11.1123 5.0878 10.9004 5.24408 10.7441C5.40036 10.5878 5.61232 10.5 5.83333 10.5C6.05435 10.5 6.26631 10.5878 6.42259 10.7441C6.57887 10.9004 6.66667 11.1123 6.66667 11.3333Z" fill="#656565"/>
</svg>
