<svg width="14" height="14" viewBox="0 0 14 14" fill="none" xmlns="http://www.w3.org/2000/svg">
<g clip-path="url(#clip0_232_4271)">
<path d="M13.7949 5.20215C13.9082 5.20215 14 5.11036 14 4.99707V3.62305C14 3.28382 13.724 3.00781 13.3848 3.00781H11.066L7.93051 1.50825C7.94768 1.43661 7.95703 1.36196 7.95703 1.28516C7.95703 0.757449 7.52771 0.328125 7 0.328125C6.47229 0.328125 6.04297 0.757449 6.04297 1.28516C6.04297 1.36194 6.05232 1.43656 6.06946 1.50814L2.93398 3.00781H0.615234C0.27598 3.00781 0 3.28382 0 3.62305V13.0566C0 13.3959 0.27598 13.6719 0.615234 13.6719H13.3848C13.724 13.6719 14 13.3959 14 13.0566V5.9541C14 5.84082 13.9082 5.74902 13.7949 5.74902C13.6817 5.74902 13.5898 5.84082 13.5898 5.9541V12.9717L13.1759 12.5578C13.1781 12.542 13.1797 12.5261 13.1797 12.5098V4.16992C13.1797 4.1536 13.1781 4.13766 13.1759 4.12193L13.5898 3.708V4.99707C13.5898 5.11036 13.6817 5.20215 13.7949 5.20215ZM0.410156 3.708L0.824086 4.12193C0.821871 4.13766 0.820312 4.1536 0.820312 4.16992V12.5098C0.820312 12.5261 0.821871 12.542 0.824086 12.5578L0.410156 12.9717V3.708ZM12.7695 4.23828V12.4414H12.1133V11.1135C12.1133 10.8817 12.0335 10.6683 11.9002 10.4988C12.0732 10.3366 12.1717 10.1111 12.1717 9.87252C12.1717 9.70391 12.1215 9.53862 12.0291 9.39884C12.1215 9.25906 12.1717 9.09377 12.1717 8.92516C12.1717 8.73614 12.1101 8.55496 11.9971 8.40623C12.1502 8.281 12.25 8.09082 12.25 7.88208V7.87845C12.25 7.71198 12.1867 7.55981 12.0827 7.44362C12.1162 7.35063 12.1338 7.25208 12.1338 7.15225C12.1338 6.92248 12.0403 6.7002 11.8766 6.53945C11.9216 6.43341 11.9444 6.32089 11.9444 6.2049C11.9444 5.73139 11.5591 5.34617 11.0856 5.34617C11.0688 5.34617 11.0519 5.34666 11.0353 5.34764C10.9259 4.98911 10.5901 4.73985 10.214 4.73985C10.0131 4.73985 9.81859 4.81039 9.66457 4.9388C9.51057 4.81039 9.31604 4.73985 9.11509 4.73985C8.73906 4.73985 8.40328 4.98909 8.29382 5.34764C8.2772 5.34666 8.2603 5.34617 8.24354 5.34617C7.87279 5.34617 7.55035 5.57979 7.432 5.92372C7.2902 5.89438 7.14421 5.87896 6.99557 5.87896C6.80701 5.87896 6.6226 5.90393 6.44566 5.95129C6.26823 5.30132 5.6712 4.8399 4.9866 4.8399H3.68438C2.85898 4.83984 2.1875 5.52057 2.1875 6.35726V7.26034C1.93225 7.35399 1.75 7.59568 1.75 7.87842V7.88205C1.75 8.24879 2.05784 8.55859 2.42225 8.55859H2.53479C2.6647 9.13114 3.05905 9.60373 3.58203 9.84025V10.1172H2.88299C2.33362 10.1172 1.88672 10.5704 1.88672 11.1275V12.4414H1.23047V4.23828H12.7695ZM6.2898 11.5664C6.37766 11.8822 6.66302 12.1143 7.00197 12.1143C7.33846 12.1143 7.62275 11.8822 7.71031 11.5664H8.42226C8.73868 11.5664 8.99609 11.8293 8.99609 12.1524V12.4414H5.00391V12.1524C5.00391 11.8293 5.26345 11.5664 5.58247 11.5664H6.2898ZM11.5823 6.82538C11.6734 6.91111 11.7236 7.02715 11.7236 7.1522C11.7236 7.1794 11.721 7.20636 11.7161 7.23286C11.6715 7.22364 11.6252 7.21872 11.5777 7.21872H11.0168C10.963 7.21872 10.9101 7.16912 10.9101 7.11854V6.99833C10.9101 6.82782 10.7837 6.69922 10.6162 6.69922H8.71292C8.6984 6.69922 8.68446 6.70037 8.67076 6.7022C8.6152 6.62996 8.55509 6.56059 8.48966 6.4951C8.29579 6.30112 8.07015 6.15005 7.82414 6.04584C7.88919 5.87295 8.05413 5.75624 8.24348 5.75624C8.25409 5.75624 8.26459 5.75663 8.27515 5.75734C8.46089 5.77071 8.63305 5.65111 8.6841 5.47395C8.73909 5.28314 8.9163 5.14992 9.11507 5.14992C9.22269 5.14992 9.32671 5.18864 9.408 5.25891C9.55423 5.38543 9.77479 5.38541 9.92108 5.25894C10.0024 5.18864 10.1064 5.14992 10.214 5.14992C10.4128 5.14992 10.59 5.28314 10.6449 5.47392C10.696 5.65111 10.8683 5.7703 11.054 5.75734C11.0645 5.75663 11.075 5.75624 11.0856 5.75624C11.3329 5.75624 11.5342 5.95747 11.5342 6.20482C11.5342 6.26735 11.5216 6.32781 11.4967 6.38449C11.4298 6.53713 11.4642 6.71428 11.5823 6.82538ZM11.6405 8.61859C11.7185 8.70196 11.7615 8.81081 11.7615 8.92514C11.7615 9.02948 11.7267 9.12734 11.6608 9.20815C11.5707 9.31864 11.5707 9.47901 11.6608 9.58953C11.7267 9.67031 11.7615 9.76814 11.7615 9.87252C11.7615 10.0057 11.7028 10.1313 11.6004 10.2169C11.5956 10.2209 11.591 10.2252 11.5866 10.2296C11.5865 10.2297 11.585 10.2312 11.5829 10.2332C11.4438 10.1593 11.2853 10.1172 11.117 10.1172H10.4125V9.84277C10.9382 9.60706 11.3349 9.13317 11.4652 8.55862H11.5778C11.5782 8.55862 11.5787 8.55859 11.5791 8.55859C11.6173 8.59411 11.6402 8.61837 11.6405 8.61859ZM8.90859 10.1172H8.56198C8.62884 10.0011 8.68252 9.87812 8.72219 9.74996C8.78254 9.78526 8.8448 9.81693 8.90859 9.84514V10.1172ZM11.0169 7.62891H11.1016V8.14672C11.1016 8.94472 10.4542 9.59391 9.65852 9.59391C9.50176 9.59391 9.34721 9.56802 9.20065 9.51904C9.40434 9.40822 9.54297 9.19168 9.54297 8.94321V8.93966C9.54297 8.65416 9.3599 8.41091 9.10547 8.32169V7.98711C9.10547 7.67875 9.03984 7.38101 8.91603 7.10935H10.5V7.11854C10.5 7.3952 10.7367 7.62891 11.0169 7.62891ZM11.8398 7.87842V7.88205C11.8398 8.02148 11.7149 8.14844 11.5778 8.14844H11.5117C11.5117 8.14786 11.5117 8.14729 11.5117 8.14672V7.62891H11.5778C11.7198 7.62891 11.8398 7.74318 11.8398 7.87842ZM8.89109 8.69531C9.02213 8.69531 9.13281 8.80723 9.13281 8.93968V8.94324C9.13281 9.07566 9.02213 9.18753 8.89109 9.18753H8.80469V8.69534H8.89109V8.69531ZM9.31875 9.97229C9.43023 9.9931 9.5439 10.004 9.65852 10.004C9.77602 10.004 9.89086 9.99253 10.0023 9.97147V10.3324C10.0023 10.5227 9.84916 10.6775 9.66057 10.6783C9.47198 10.6775 9.31875 10.5227 9.31875 10.3324V9.97229ZM8.69531 7.98714V8.28516H8.59961H8.22642C8.08828 8.28516 7.97048 8.18617 7.94631 8.04975C7.92039 7.90336 7.7913 7.79297 7.64605 7.79297H6.35871C6.21343 7.79297 6.08434 7.90338 6.05844 8.04978C6.0343 8.18617 5.9165 8.28516 5.77836 8.28516H5.40039H5.30469V7.98714C5.30469 7.05081 6.0632 6.28906 6.99792 6.28906C7.93387 6.28906 8.69531 7.05081 8.69531 7.98714ZM5.10891 8.69531H5.19531V9.1875H5.10891C4.97787 9.1875 4.86719 9.07564 4.86719 8.94321V8.93966C4.86719 8.80723 4.97787 8.69531 5.10891 8.69531ZM5.5067 6.49545C5.40274 6.59996 5.31147 6.7139 5.23283 6.83506C5.17727 6.76774 5.09206 6.72656 4.99502 6.72656H3.67588C3.52557 6.72656 3.39907 6.83162 3.37507 6.97635C3.35177 7.11681 3.22908 7.21875 3.08331 7.21875H2.67969H2.59766V6.35726C2.59766 5.74673 3.08514 5.25 3.68435 5.25H4.98657C5.49888 5.25 5.9439 5.60391 6.0597 6.09695C5.85722 6.19743 5.67044 6.33087 5.5067 6.49545ZM2.42225 7.62891H2.48828V8.14672C2.48828 8.14729 2.48834 8.14786 2.48834 8.14844H2.42225C2.28506 8.14844 2.16016 8.02145 2.16016 7.88205V7.87842C2.16016 7.74318 2.28017 7.62891 2.42225 7.62891ZM2.89844 7.62891H3.08331C3.39784 7.62891 3.66775 7.42689 3.75766 7.13672H4.91373C4.93382 7.20174 4.96349 7.26236 5.00142 7.31855C4.93145 7.53113 4.8945 7.75605 4.8945 7.98711V8.32169C4.64007 8.41094 4.457 8.65416 4.457 8.93966V8.94321C4.457 9.19168 4.59564 9.40822 4.79935 9.51902C4.65281 9.56799 4.49827 9.59388 4.34148 9.59388C3.54577 9.59388 2.89844 8.94469 2.89844 8.14669V7.62891ZM3.99219 9.97049C4.10539 9.99223 4.22207 10.004 4.34148 10.004C4.45422 10.004 4.56608 9.99351 4.67578 9.97339V10.3324C4.67578 10.5227 4.5226 10.6775 4.33401 10.6783C4.14542 10.6775 3.99219 10.5227 3.99219 10.3324V9.97049ZM5.08594 9.84755C5.1517 9.81873 5.2159 9.78627 5.27803 9.74991C5.31778 9.87809 5.3716 10.0011 5.43862 10.1172H5.08594V9.84755ZM5.60547 9.20194V8.69531H5.77834C6.0874 8.69531 6.35471 8.4928 6.44271 8.20312H7.56205C7.65004 8.49278 7.91736 8.69531 8.22642 8.69531H8.39453V9.20194C8.39453 9.99078 7.78261 10.6087 7.00118 10.6094C6.23148 10.6088 5.60547 9.97763 5.60547 9.20194ZM6.99888 11.0195H7.00003H7.00232H7.00347C7.1137 11.0193 7.22214 11.0089 7.32812 10.9896V11.3613C7.32812 11.5504 7.18181 11.7042 7.00019 11.7042C6.81915 11.7042 6.67188 11.5504 6.67188 11.3613V10.9893C6.77863 11.0088 6.88786 11.0193 6.99888 11.0195ZM8.42226 11.1562H7.73828V10.8628C7.92096 10.781 8.08979 10.6684 8.2384 10.5273H8.93413C9.01956 10.8483 9.31052 11.0859 9.65631 11.0884C9.65729 11.0885 9.65828 11.0885 9.65926 11.0885H9.66194C9.66293 11.0885 9.66391 11.0885 9.6649 11.0884C10.0106 11.0859 10.3016 10.8483 10.387 10.5273H11.117C11.4402 10.5273 11.7031 10.7903 11.7031 11.1135V12.4414H9.40625V12.1524C9.40625 11.6031 8.96481 11.1562 8.42226 11.1562ZM1.11412 12.8478C1.12984 12.85 1.14579 12.8516 1.16211 12.8516H2.0918C2.20505 12.8516 2.29688 12.7598 2.29688 12.6465V11.1275C2.29688 10.7966 2.55981 10.5273 2.88299 10.5273H3.60757C3.69299 10.8483 3.98396 11.0859 4.32975 11.0884C4.33073 11.0885 4.33172 11.0885 4.3327 11.0885H4.33538C4.33636 11.0885 4.33735 11.0885 4.33833 11.0884C4.68407 11.0859 4.975 10.8483 5.0604 10.5273H5.76283C5.91117 10.6679 6.07955 10.7802 6.26169 10.8619V11.1562H5.58245C5.03729 11.1562 4.59375 11.6031 4.59375 12.1524V12.4414H3.04883C2.93557 12.4414 2.84375 12.5332 2.84375 12.6465C2.84375 12.7598 2.93557 12.8516 3.04883 12.8516H12.8379C12.8542 12.8516 12.8702 12.85 12.8859 12.8478L13.2998 13.2617H0.700191L1.11412 12.8478ZM12.8379 3.82812H1.16211C1.14579 3.82812 1.12984 3.82968 1.11412 3.8319L0.700191 3.41797H11.0184H13.2998L12.8859 3.8319C12.8702 3.82968 12.8542 3.82812 12.8379 3.82812ZM7 0.738281C7.30155 0.738281 7.54688 0.983609 7.54688 1.28516C7.54688 1.5867 7.30155 1.83203 7 1.83203C6.69845 1.83203 6.45312 1.5867 6.45312 1.28516C6.45312 0.983609 6.69845 0.738281 7 0.738281ZM6.24879 1.87704C6.4242 2.09918 6.69561 2.24219 7 2.24219C7.30434 2.24219 7.57575 2.09921 7.75116 1.87712L10.1154 3.00781H3.88454L6.24879 1.87704Z" fill="white"/>
</g>
<defs>
<clipPath id="clip0_232_4271">
<rect width="14" height="14" fill="white"/>
</clipPath>
</defs>
</svg>
