<svg width="20" height="20" viewBox="0 0 20 20" fill="none" xmlns="http://www.w3.org/2000/svg">
<path d="M9.16669 3.33301H3.33335C2.89133 3.33301 2.4674 3.5086 2.15484 3.82116C1.84228 4.13372 1.66669 4.55765 1.66669 4.99967V16.6663C1.66669 17.1084 1.84228 17.5323 2.15484 17.8449C2.4674 18.1574 2.89133 18.333 3.33335 18.333H15C15.442 18.333 15.866 18.1574 16.1785 17.8449C16.4911 17.5323 16.6667 17.1084 16.6667 16.6663V10.833" stroke="white" stroke-linecap="round" stroke-linejoin="round"/>
<path d="M15.4167 2.0832C15.7482 1.75168 16.1978 1.56543 16.6667 1.56543C17.1355 1.56543 17.5852 1.75168 17.9167 2.0832C18.2482 2.41472 18.4345 2.86436 18.4345 3.3332C18.4345 3.80204 18.2482 4.25168 17.9167 4.5832L10 12.4999L6.66669 13.3332L7.50002 9.99986L15.4167 2.0832Z" stroke="white" stroke-linecap="round" stroke-linejoin="round"/>
</svg>
