<svg width="14" height="14" viewBox="0 0 14 14" fill="none" xmlns="http://www.w3.org/2000/svg">
<path d="M13.4293 9.09331L11.8227 8.45065C11.814 8.44717 11.8059 8.44274 11.7978 8.43848C12.9075 8.18599 13.433 7.76374 13.4563 7.74463C13.5118 7.69915 13.5395 7.62801 13.5294 7.55699C13.5271 7.54075 13.2971 5.91267 13.2971 4.30569C13.2971 2.77143 12.0489 1.5232 10.5146 1.5232C8.98037 1.5232 7.73217 2.7714 7.73217 4.30569C7.73217 4.72608 7.71309 5.24025 7.68203 5.727L7.23432 5.95087L5.92018 5.29382C5.9164 5.29193 5.91244 5.29057 5.90858 5.28893C5.97109 5.10673 6.01197 4.91462 6.02698 4.71525C6.30187 4.63032 6.50216 4.37381 6.50216 4.07138C6.50216 3.8677 6.41116 3.68499 6.26785 3.56134V2.19688C6.26785 1.81994 6.0774 1.46726 5.76508 1.25534C5.65926 0.862138 5.30598 0.585938 4.89122 0.585938H3.01674C1.99928 0.585938 1.1715 1.41372 1.1715 2.43119V3.56131C1.02819 3.68493 0.937185 3.86767 0.937185 4.07136C0.937185 4.37378 1.13748 4.63029 1.41237 4.71522C1.46416 5.40372 1.81897 6.00865 2.34304 6.39797V6.96481L0.647066 7.4736C0.260041 7.58972 0 7.93921 0 8.3433V10.632C0 10.7453 0.0918208 10.8371 0.205079 10.8371H0.23431V13.2094C0.23431 13.3227 0.326131 13.4145 0.439389 13.4145C0.552648 13.4145 0.644469 13.3227 0.644469 13.2094V10.8371H1.40586V13.2094C1.40586 13.3227 1.49768 13.4145 1.61094 13.4145C1.7242 13.4145 1.81602 13.3227 1.81602 13.2094V9.6733C1.81602 9.49343 1.76327 9.31925 1.66352 9.16963L1.31297 8.6438C1.25014 8.54955 1.1228 8.52412 1.0286 8.5869C0.934341 8.64971 0.908884 8.77705 0.971721 8.87131L1.32227 9.39716C1.37696 9.47919 1.40589 9.57467 1.40589 9.6733V10.4269H0.439389H0.410159V8.3433C0.410159 8.12173 0.55273 7.93013 0.764973 7.86644L1.469 7.65524C1.71416 8.68179 2.64525 9.43123 3.71973 9.43123C4.10574 9.43123 4.48063 9.33604 4.81633 9.15492C4.93902 9.32229 5.13691 9.43123 5.35987 9.43123H5.3891V9.46046C5.3891 10.148 5.76732 10.7484 6.32634 11.0659V11.4004C6.32634 11.4129 6.3183 11.4241 6.30635 11.4281L5.54135 11.6831C5.17 11.8069 4.92048 12.1531 4.92048 12.5445V13.2094C4.92048 13.3227 5.0123 13.4145 5.12556 13.4145C5.23882 13.4145 5.33064 13.3227 5.33064 13.2094V12.5445C5.33064 12.3299 5.46744 12.1401 5.67104 12.0722L5.896 11.9972C6.19361 12.4411 6.69414 12.7116 7.23432 12.7116C7.77508 12.7116 8.27514 12.4412 8.5727 11.9973L8.7976 12.0722C9.00121 12.1401 9.13801 12.3299 9.13801 12.5445V13.2094C9.13801 13.3227 9.22983 13.4145 9.34309 13.4145C9.45634 13.4145 9.54817 13.3227 9.54817 13.2094V12.5445C9.54817 12.1531 9.29865 11.8069 8.92729 11.6831L8.16229 11.4281C8.15034 11.4241 8.14231 11.413 8.14231 11.4004V11.0659C8.56086 10.8282 8.87767 10.4319 9.01056 9.95899C9.3981 10.3645 9.93937 10.6028 10.5146 10.6028C11.4228 10.6028 12.2196 10.0158 12.4941 9.16104L13.2769 9.47416C13.467 9.5502 13.5898 9.73166 13.5898 9.93638V10.8956H13.5606H12.8285V10.632C12.8285 10.5188 12.7366 10.427 12.6234 10.427C12.5101 10.427 12.4183 10.5188 12.4183 10.632V13.2094C12.4183 13.3227 12.5101 13.4145 12.6234 13.4145C12.7366 13.4145 12.8285 13.3227 12.8285 13.2094V11.3057H13.3555V13.2094C13.3555 13.3227 13.4474 13.4145 13.5606 13.4145C13.6739 13.4145 13.7657 13.3227 13.7657 13.2094V11.3057H13.7949C13.8493 11.3057 13.9015 11.2841 13.9399 11.2457C13.9784 11.2072 14 11.1551 14 11.1007V9.93638C14.0001 9.56292 13.7761 9.232 13.4293 9.09331ZM8.14236 4.30567C8.14236 2.99756 9.20658 1.93334 10.5147 1.93334C11.8228 1.93334 12.887 2.99756 12.887 4.30567C12.887 5.68279 13.0528 7.07489 13.1067 7.49066C12.923 7.61089 12.4524 7.87569 11.657 8.0497V7.72335C11.7659 7.66161 11.8702 7.59115 11.9683 7.5119C12.3718 7.18572 12.657 6.72888 12.7712 6.22559C12.8093 6.05789 12.8286 5.88494 12.8286 5.71155C12.8286 4.55242 11.9903 4.386 11.1796 4.22506C10.6637 4.12265 10.1303 4.01675 9.70558 3.67695C9.64403 3.6277 9.5597 3.6181 9.48864 3.65226C9.41757 3.68641 9.3724 3.75824 9.3724 3.8371C9.3724 3.84254 9.36346 4.38215 8.5905 4.57539C8.4806 4.60287 8.4138 4.71421 8.44128 4.82411C8.46874 4.934 8.58011 5.00075 8.68998 4.97332C9.33693 4.81158 9.60086 4.44865 9.70848 4.17597C10.1532 4.43951 10.6514 4.53839 11.0997 4.62739C11.9662 4.79942 12.4184 4.92577 12.4184 5.71158C12.4184 5.85448 12.4025 5.99689 12.3712 6.13486C12.2773 6.54869 12.0426 6.92445 11.7104 7.19296C11.3686 7.46925 10.9551 7.61526 10.5147 7.61526C10.1132 7.61526 9.73104 7.49211 9.40674 7.25938C9.28793 6.93511 9.0971 6.63843 8.84529 6.39398V5.47727C8.84529 5.40618 8.80849 5.34017 8.74803 5.30282C8.68757 5.26546 8.6121 5.26205 8.5485 5.29385L8.10572 5.51522C8.13 5.08814 8.14236 4.68208 8.14236 4.30567ZM8.43513 5.80903V6.55123L7.69291 6.18015L8.43513 5.80903ZM6.03357 5.80903L6.77577 6.18015L6.03357 6.55123V5.80903ZM4.92048 8.0546V8.24937C4.77364 8.37616 4.68617 8.56172 4.68617 8.7575C4.39408 8.93007 4.06227 9.02107 3.7197 9.02107C2.82763 9.02107 2.05585 8.39331 1.86278 7.53712L2.36943 7.38511C2.49442 8.01643 3.05226 8.49399 3.71973 8.49399C4.24974 8.49399 4.71043 8.19274 4.94039 7.75264C4.92724 7.85223 4.92048 7.95307 4.92048 8.0546ZM2.75326 7.11703V6.64198C3.04753 6.77788 3.37489 6.85382 3.71973 6.85382C4.06454 6.85382 4.39192 6.77786 4.6862 6.64201V7.11733C4.6862 7.65024 4.25266 8.0838 3.71973 8.0838C3.1877 8.0838 2.75476 7.65166 2.75331 7.11996C2.75331 7.11897 2.75326 7.11799 2.75326 7.11703ZM3.71973 6.44366C2.67 6.44366 1.81602 5.58968 1.81602 4.53998C1.81602 4.42672 1.7242 4.3349 1.61094 4.3349C1.46563 4.3349 1.3474 4.21666 1.3474 4.07136C1.3474 3.92605 1.46561 3.80782 1.61094 3.80782H2.07956C2.16783 3.80782 2.24619 3.75135 2.27411 3.6676L2.46235 3.10289C2.93362 3.09225 4.39458 3.026 5.21727 2.61464C5.31858 2.56397 5.35965 2.44081 5.30898 2.3395C5.25834 2.23819 5.13519 2.19712 5.03385 2.24779C4.15116 2.68912 2.33208 2.69475 2.31381 2.69475C2.22555 2.69478 2.14718 2.75125 2.11929 2.835L1.93174 3.39768H1.61094C1.60115 3.39768 1.59142 3.39801 1.58171 3.39842V2.43119C1.58171 1.63988 2.22549 0.996096 3.0168 0.996096H4.89128C5.13617 0.996096 5.34191 1.1726 5.38054 1.41574C5.39036 1.47754 5.42785 1.53146 5.48234 1.5622C5.71389 1.69279 5.85775 1.93596 5.85775 2.19685V3.39837C5.84804 3.39793 5.83834 3.39763 5.82852 3.39763H5.59421C5.48095 3.39763 5.38913 3.48945 5.38913 3.60271C5.38913 3.71597 5.48095 3.80779 5.59421 3.80779H5.82852C5.97382 3.80779 6.09206 3.926 6.09206 4.07133C6.09206 4.21666 5.97385 4.33487 5.82852 4.33487C5.71526 4.33487 5.62344 4.42669 5.62344 4.53995C5.62344 5.58965 4.76946 6.44366 3.71973 6.44366ZM5.09633 7.11739V6.39797C5.30034 6.2464 5.47865 6.06229 5.62341 5.85306V6.39395C5.39375 6.61691 5.21473 6.88327 5.09488 7.17443C5.09567 7.15548 5.09633 7.1365 5.09633 7.11739ZM8.16347 11.8608C7.93769 12.1366 7.59852 12.3014 7.23435 12.3014C6.87062 12.3014 6.53123 12.1365 6.30537 11.8608L6.43607 11.8172C6.61578 11.7573 6.73653 11.5898 6.73653 11.4004V11.2369C6.89501 11.2814 7.06187 11.3057 7.23438 11.3057C7.40689 11.3057 7.57374 11.2814 7.73223 11.2369V11.4004C7.7322 11.5898 7.85293 11.7573 8.03266 11.8172L8.16347 11.8608ZM8.87455 9.02107C8.76129 9.02107 8.66947 9.11289 8.66947 9.22615V9.43005C8.66947 9.43183 8.66944 9.43361 8.66947 9.43538V9.46046C8.66944 10.2518 8.02566 10.8955 7.23435 10.8955C6.44305 10.8955 5.79929 10.2518 5.79929 9.46046V9.22615C5.79929 9.11289 5.70747 9.02107 5.59421 9.02107H5.3599C5.21459 9.02107 5.09636 8.90286 5.09636 8.75753C5.09636 8.66401 5.14585 8.57938 5.22873 8.53115C5.24724 8.52037 5.26335 8.50673 5.27729 8.49131C5.78425 8.47662 7.42759 8.38122 8.50765 7.76404C8.60598 7.70785 8.64016 7.58259 8.58396 7.48423C8.52777 7.38588 8.40246 7.35172 8.30415 7.40791C7.358 7.94856 5.87126 8.05681 5.33067 8.07844V8.0546C5.33067 7.67318 5.44617 7.30379 5.65546 6.99237C5.67184 7.01832 5.69374 7.04085 5.7207 7.0575C5.75365 7.07785 5.79103 7.08813 5.82852 7.08813C5.85985 7.08813 5.89127 7.08094 5.92023 7.06647L7.23438 6.4094L8.54853 7.06647C8.57748 7.08094 8.6089 7.08813 8.64024 7.08813C8.67775 7.08813 8.71513 7.07785 8.74806 7.0575C8.77499 7.04085 8.79689 7.01829 8.81327 6.99237C9.02256 7.30379 9.13806 7.67318 9.13806 8.0546V8.3539C9.13806 8.42691 9.17686 8.49442 9.24 8.53115C9.32291 8.57941 9.3724 8.66401 9.3724 8.75753C9.3724 8.90283 9.25416 9.02107 9.10886 9.02107H8.87455ZM10.5147 10.1926C9.94692 10.1926 9.42017 9.90357 9.11353 9.43112C9.48284 9.42857 9.78253 9.12744 9.78253 8.75756C9.78253 8.56177 9.69506 8.37619 9.54822 8.2494V8.05463C9.54822 7.97207 9.54376 7.88999 9.53504 7.80867C9.83913 7.95124 10.1711 8.02537 10.5147 8.02537C10.7648 8.02537 11.012 7.98394 11.2469 7.90563V8.20595C11.2469 8.48302 11.4131 8.72857 11.6703 8.83147L12.1126 9.00835C11.9006 9.70912 11.2534 10.1926 10.5147 10.1926Z" fill="white"/>
</svg>
