<svg width="14" height="14" viewBox="0 0 14 14" fill="none" xmlns="http://www.w3.org/2000/svg">
<g clip-path="url(#clip0_232_4280)">
<path d="M3.09549 3.37069C3.48256 3.74666 3.45092 3.65934 3.3603 4.1871C3.26705 4.69062 3.81824 5.09264 4.26888 4.84769L4.56122 4.69374C4.64629 4.64898 4.74788 4.64895 4.83298 4.69377L5.12529 4.84769C5.33678 4.95912 5.5896 4.9417 5.78433 4.80038C5.97886 4.65918 6.07448 4.42418 6.03387 4.18707L5.97804 3.86109C5.96174 3.76596 5.99321 3.66894 6.0622 3.60156L6.29871 3.37069C6.66975 3.01817 6.45977 2.36873 5.95165 2.30176C5.41706 2.225 5.49565 2.27819 5.25862 1.79736C5.03828 1.33472 4.35608 1.33422 4.1356 1.79739L3.98945 2.094C3.94684 2.18046 3.86459 2.24034 3.7694 2.25415L3.44258 2.30173C2.93495 2.36873 2.72402 3.01784 3.09549 3.37069ZM3.32732 2.85481C3.35335 2.77474 3.41852 2.71975 3.50162 2.70764L3.82841 2.66006C4.05726 2.62678 4.25499 2.48295 4.35732 2.27532L4.50347 1.97868C4.57435 1.81981 4.81982 1.8194 4.89067 1.97868L5.03683 2.27529C5.13916 2.48295 5.33689 2.62678 5.56571 2.66003L5.89256 2.70761C5.97566 2.7197 6.04082 2.77472 6.06685 2.85478C6.09299 2.93512 6.07254 3.01825 6.01219 3.07717L5.77569 3.30802C5.6102 3.46957 5.53472 3.70219 5.57377 3.9303L5.62961 4.25628C5.66562 4.42636 5.46743 4.57184 5.3164 4.48469C5.13812 4.39462 4.90353 4.23697 4.6971 4.24993C4.49089 4.23681 4.2551 4.39522 4.0778 4.48472C3.92691 4.57156 3.72839 4.42664 3.76459 4.25628L3.8204 3.9303C3.85948 3.70219 3.78398 3.46957 3.61849 3.30805L3.38198 3.07717C3.32166 3.01827 3.30121 2.93515 3.32732 2.85481Z" fill="white"/>
<path d="M4.69727 0.793823C4.81053 0.793823 4.90236 0.702027 4.90236 0.588738V0.203779C4.89405 -0.067207 4.50055 -0.0673437 4.49219 0.203779V0.588738C4.49219 0.702027 4.58401 0.793823 4.69727 0.793823Z" fill="white"/>
<path d="M4.49219 5.77995V6.16491C4.49219 6.2782 4.58401 6.36999 4.69727 6.36999C4.81053 6.36999 4.90236 6.2782 4.90236 6.16491V5.77995C4.89405 5.50896 4.50053 5.50883 4.49219 5.77995Z" fill="white"/>
<path d="M6.53233 1.5539C6.58481 1.5539 6.63731 1.53388 6.67734 1.49385L6.94952 1.22167C7.02961 1.14158 7.02961 1.01173 6.94952 0.931663C6.86946 0.851573 6.7396 0.851546 6.65951 0.931636L6.38733 1.20382C6.25734 1.32798 6.35507 1.55841 6.53233 1.5539Z" fill="white"/>
<path d="M2.58947 5.49677C2.64194 5.49677 2.69445 5.47675 2.73448 5.43672L3.00668 5.16454C3.08677 5.08445 3.08677 4.9546 3.00668 4.87453C2.92659 4.79444 2.79674 4.79442 2.71665 4.87451L2.44444 5.14669C2.31448 5.27088 2.4122 5.50131 2.58947 5.49677Z" fill="white"/>
<path d="M7.29265 3.38966H7.67761C7.79087 3.38966 7.88269 3.29787 7.88269 3.18458C7.88269 3.07129 7.79089 2.97949 7.67761 2.97949H7.29265C7.02166 2.9878 7.02152 3.38132 7.29265 3.38966Z" fill="white"/>
<path d="M1.71647 3.38966H2.10143C2.2147 3.38966 2.30652 3.29787 2.30652 3.18458C2.30652 3.07129 2.2147 2.97949 2.10143 2.97949H1.71647C1.44549 2.9878 1.44535 3.38132 1.71647 3.38966Z" fill="white"/>
<path d="M6.67736 4.87461C6.47988 4.68895 6.20155 4.96703 6.38735 5.16467L6.65953 5.43685C6.73962 5.51692 6.86948 5.51694 6.94954 5.43683C7.02963 5.35674 7.02963 5.22688 6.94954 5.14682L6.67736 4.87461Z" fill="white"/>
<path d="M2.71706 1.49388C2.91459 1.67957 3.19284 1.40143 3.00706 1.20382L2.73486 0.931636C2.65474 0.851573 2.52491 0.851546 2.44482 0.931663C2.36473 1.01175 2.36476 1.14161 2.44482 1.22167L2.71706 1.49388Z" fill="white"/>
<path d="M13.7949 10.5051C13.9082 10.5051 14 10.4133 14 10.3V9.87187C14 9.75858 13.9082 9.66678 13.7949 9.66678H11.273C10.7778 9.14614 9.76884 8.96755 9.27106 8.99946C9.14675 9.00384 9.02742 8.94835 8.95413 8.85136L7.90082 7.45741C7.74818 7.25542 7.526 7.1249 7.27522 7.0899C6.77257 7.00923 6.2664 7.39072 6.20719 7.89643C6.1726 8.14693 6.23782 8.39594 6.39084 8.5976L7.79469 10.4477C7.03005 10.7891 6.35146 11.211 6.07783 11.3884L2.97633 8.95484C2.67021 8.71461 2.26854 8.67688 1.93425 8.82191L1.49827 8.59446C0.998081 8.33351 0.378286 8.52815 0.116624 9.02845C-0.148455 9.51089 0.0562473 10.165 0.549491 10.4096C0.567019 10.4121 3.40865 11.9072 3.42413 11.9084L4.32093 12.6121C4.3585 12.6415 4.4031 12.6558 4.4474 12.6558C4.63881 12.6583 4.72702 12.4071 4.57411 12.2894L1.96422 10.2416C1.83527 10.1404 1.75351 9.99514 1.73398 9.83255C1.66606 9.29632 2.2992 8.94094 2.72315 9.27756L5.94088 11.8023C6.01108 11.8574 6.10886 11.8608 6.18272 11.8106C6.71373 11.4767 9.67281 9.4405 11.1607 10.8556C11.5091 11.1781 11.6933 11.6332 11.6933 12.1717C11.7007 12.4414 12.0945 12.4443 12.1035 12.1717C12.0697 10.0423 9.92159 9.52098 8.18547 10.2843L6.71756 8.34975C6.53875 8.12383 6.58701 7.76854 6.82054 7.59949C7.0475 7.42066 7.40418 7.47073 7.57355 7.70477L8.62687 9.09872C8.78058 9.30211 9.02619 9.41792 9.285 9.40944C9.43075 9.40435 10.7229 9.3865 11.2241 10.2662C11.3577 10.489 11.6939 10.3168 11.5875 10.077H12.4173V12.9191L11.2116 12.8955C11.1759 12.8926 6.56899 13.5796 6.53219 13.5823C6.50274 13.5866 6.47257 13.5889 6.44258 13.5889C6.30561 13.5889 6.17085 13.5423 6.06314 13.4578L5.32585 12.8793C5.10903 12.7187 4.86378 13.0274 5.07266 13.202L5.80998 13.7805C5.98958 13.9214 6.21425 13.999 6.4426 13.999C6.49254 13.999 6.54285 13.9953 6.5921 13.9881L11.2206 13.306L12.4173 13.3294V13.4858C12.4173 13.5991 12.5091 13.6909 12.6224 13.6909H13.7949C13.9082 13.6909 14 13.5991 14 13.4858V11.2539C13.9918 10.9836 13.5984 10.9822 13.5898 11.2539V13.2807H12.8275V10.077H13.5898V10.3C13.5898 10.4132 13.6816 10.5051 13.7949 10.5051ZM0.438171 9.6862C0.272353 9.17157 0.831142 8.70507 1.30855 8.95812L1.56691 9.0929C1.19986 9.50096 1.25159 10.1846 1.67377 10.5335L0.739236 10.0459C0.594036 9.9702 0.487145 9.84244 0.438171 9.6862Z" fill="white"/>
</g>
<defs>
<clipPath id="clip0_232_4280">
<rect width="14" height="14" fill="white"/>
</clipPath>
</defs>
</svg>
