<svg width="14" height="14" viewBox="0 0 14 14" fill="none" xmlns="http://www.w3.org/2000/svg">
<path d="M12.9178 1.51735L13.2728 1.16553C13.3543 1.08479 13.3522 0.948557 13.2683 0.870355C12.8592 0.489141 12.388 0.207474 11.9417 0.0772457C11.5779 -0.0288807 11.0272 -0.0728543 10.7562 0.263895C10.4601 0.631297 10.1495 1.00724 9.83295 1.38125C9.66743 1.57677 9.97241 1.85019 10.1455 1.64575C10.4614 1.2725 10.7714 0.897405 11.067 0.530658C11.3714 0.245252 12.1586 0.476939 12.8287 1.02924L8.3589 5.45868C8.04303 5.19146 7.69066 4.96591 7.31073 4.79007C8.02706 4.04164 8.72733 3.27812 9.39494 2.51681C9.56384 2.32419 9.26367 2.0455 9.08709 2.24686C8.38851 3.04354 7.65387 3.84271 6.90244 4.62425C6.78149 4.58175 6.62962 4.50595 6.51978 4.61923C6.10267 5.04963 5.6783 5.47686 5.25847 5.88911C5.1569 5.98885 5.18919 6.16363 5.31767 6.22166C4.00097 7.50718 2.69257 8.68364 1.42484 9.72137C1.09254 9.99545 0.686406 10.2857 0.409271 10.6167C0.185636 10.8715 0.156238 11.275 0.327056 11.7545C0.676771 12.8089 2.04541 14.016 3.07818 13.9998C3.2758 13.9998 3.5564 13.9496 3.67383 13.7665L4.48624 12.7768C5.35591 11.7336 6.26899 10.7107 7.21157 9.72276V12.8019C7.21157 13.0084 7.50582 13.0883 7.60083 12.8905L8.38551 11.2567L8.86095 11.5698C8.99464 11.6579 9.17826 11.5589 9.17826 11.3988V8.15115C9.34591 7.98874 9.51365 7.82728 9.68092 7.66839C9.73922 7.61301 9.75969 7.52861 9.73324 7.45265C9.71383 7.39691 9.69298 7.34185 9.6715 7.2871C10.8982 6.13966 12.1869 5.03008 13.5042 3.98779C13.7061 3.82822 13.7832 3.52223 13.7832 3.27941C13.7831 2.74108 13.4533 2.07247 12.9178 1.51735ZM1.61987 10.0949C2.94047 9.01367 4.37138 7.72457 5.74234 6.37869C6.11905 6.53944 6.47147 6.7548 6.7542 7.00453L3.13872 10.5873C2.71386 10.2761 2.14758 10.0758 1.61987 10.0949ZM1.49606 12.7791C0.728906 12.0188 0.47025 11.1783 0.713784 10.8906C1.10182 10.5171 1.64891 10.4291 2.16145 10.5699L1.46142 11.2699C1.36307 11.3682 1.31593 11.5043 1.32079 11.642C1.33285 11.9835 1.64291 12.4135 2.26869 12.9566C2.34772 13.0252 2.47115 13.0197 2.54411 12.9501L3.06268 12.4558C3.38791 12.9738 3.3563 13.3657 3.31355 13.5427C3.05585 13.6824 2.24028 13.5165 1.49606 12.7791ZM1.75092 11.5594C2.02281 11.2875 2.65362 11.9341 2.81685 12.1245L2.39808 12.5237C2.31671 12.4493 1.53998 11.7706 1.75092 11.5594ZM8.76882 11.0189L8.41499 10.7859C8.3129 10.7187 8.17077 10.7581 8.11787 10.8683L7.62103 11.9028V9.29774C7.76797 9.14668 7.9155 8.99642 8.06369 8.84719C8.11659 8.98193 8.29729 9.01853 8.39858 8.91743C8.52136 8.79487 8.64493 8.67264 8.7688 8.5507V11.0189H8.76882ZM8.33051 8.40781C8.26868 8.2653 8.19949 8.12571 8.12355 7.99046C7.99818 7.76701 7.63542 7.95729 7.76652 8.19086C7.81178 8.2715 7.8543 8.35382 7.89416 8.43745C6.59719 9.73595 5.34524 11.107 4.17078 12.5159L3.72839 13.0548C3.61001 12.2928 2.93217 11.3623 2.16729 11.143L2.57998 10.7304C2.736 10.8066 2.90114 10.905 3.07537 11.0304C3.1548 11.0875 3.27094 11.0771 3.33905 11.0096L7.08909 7.29346C7.28745 7.49375 7.61626 7.24771 7.41173 7.03704C6.95157 6.5631 6.39212 6.19169 5.77892 5.95083C6.09459 5.63793 6.41161 5.31789 6.72502 4.99564C7.90696 5.39688 8.8568 6.30715 9.30153 7.46425C9.14428 7.61418 8.49581 8.24417 8.33051 8.40781ZM13.2402 3.67454C11.9543 4.69251 10.6952 5.77414 9.49421 6.89234C9.2771 6.46454 8.9947 6.075 8.65989 5.73683L12.6269 1.80559C13.1189 2.31313 13.6242 3.21496 13.2402 3.67454Z" fill="white"/>
</svg>
