<svg width="13" height="12" viewBox="0 0 13 12" fill="none" xmlns="http://www.w3.org/2000/svg">
<g clip-path="url(#clip0_232_3139)">
<path d="M10.9033 2.14457C10.8569 2.09812 10.8017 2.06127 10.741 2.03613C10.6803 2.01099 10.6153 1.99805 10.5496 1.99805C10.4839 1.99805 10.4188 2.01099 10.3581 2.03613C10.2975 2.06127 10.2423 2.09812 10.1958 2.14457C10.1494 2.19103 10.1125 2.24618 10.0874 2.30688C10.0623 2.36757 10.0493 2.43263 10.0493 2.49832C10.0493 2.56402 10.0623 2.62908 10.0874 2.68977C10.1125 2.75047 10.1494 2.80562 10.1958 2.85207C11.0293 3.68753 11.4974 4.81946 11.4974 5.99957C11.4974 7.17969 11.0293 8.31162 10.1958 9.14707C10.102 9.2409 10.0493 9.36814 10.0493 9.50082C10.0493 9.63351 10.102 9.76075 10.1958 9.85457C10.2897 9.94839 10.4169 10.0011 10.5496 10.0011C10.6823 10.0011 10.8095 9.94839 10.9033 9.85457C11.9242 8.83136 12.4976 7.44498 12.4976 5.99957C12.4976 4.55417 11.9242 3.16779 10.9033 2.14457Z" fill="white"/>
<path d="M9.55001 3.64546C9.50356 3.59884 9.44837 3.56183 9.38761 3.53653C9.32685 3.51124 9.26171 3.49816 9.19589 3.49805C9.13008 3.49793 9.06489 3.51078 9.00404 3.53586C8.94319 3.56094 8.88788 3.59775 8.84126 3.64421C8.79464 3.69066 8.75763 3.74585 8.73233 3.80661C8.70704 3.86737 8.69396 3.93251 8.69385 3.99833C8.69373 4.06414 8.70658 4.12933 8.73166 4.19018C8.75674 4.25103 8.79356 4.30634 8.84001 4.35296C9.27638 4.79 9.52148 5.38236 9.52148 5.99996C9.52148 6.61756 9.27638 7.20992 8.84001 7.64696C8.79356 7.69358 8.75674 7.74889 8.73166 7.80974C8.70658 7.87059 8.69373 7.93578 8.69385 8.00159C8.69396 8.06741 8.70704 8.13255 8.73233 8.19331C8.75763 8.25407 8.79464 8.30925 8.84126 8.35571C8.93541 8.44953 9.06298 8.50211 9.19589 8.50187C9.26171 8.50176 9.32685 8.48868 9.38761 8.46338C9.44837 8.43809 9.50356 8.40108 9.55001 8.35446C10.1737 7.72959 10.5239 6.88281 10.5239 5.99996C10.5239 5.11711 10.1737 4.27033 9.55001 3.64546Z" fill="white"/>
<path d="M7.41 0.100056C5.88965 0.385689 4.53734 1.24498 3.633 2.50006H3C2.33728 2.50111 1.70201 2.76485 1.2334 3.23346C0.76479 3.70207 0.501058 4.33734 0.5 5.00006L0.5 7.00006C0.501058 7.66277 0.76479 8.29804 1.2334 8.76665C1.70201 9.23527 2.33728 9.499 3 9.50006H3.633C4.53752 10.7549 5.88975 11.6142 7.41 11.9001C7.43981 11.9059 7.47013 11.9087 7.5005 11.9086C7.63311 11.9086 7.76029 11.8559 7.85405 11.7621C7.94782 11.6683 8.0005 11.5412 8.0005 11.4086V0.593056C8.00069 0.519623 7.98469 0.44705 7.95366 0.380497C7.92263 0.313943 7.87732 0.255042 7.82095 0.207979C7.76458 0.160917 7.69853 0.126849 7.62751 0.108196C7.55648 0.0895433 7.48222 0.086764 7.41 0.100056ZM7 10.7676C5.89719 10.416 4.94894 9.69568 4.3145 8.72756C4.26917 8.65782 4.20716 8.60049 4.13408 8.56077C4.06101 8.52104 3.97918 8.50017 3.896 8.50006H3C2.60218 8.50006 2.22064 8.34202 1.93934 8.06072C1.65804 7.77941 1.5 7.39788 1.5 7.00006V5.00006C1.5 4.60223 1.65804 4.2207 1.93934 3.9394C2.22064 3.65809 2.60218 3.50006 3 3.50006H3.9C3.98308 3.50004 4.06485 3.47933 4.13792 3.43978C4.21099 3.40024 4.27305 3.34311 4.3185 3.27356C4.95164 2.30567 5.89844 1.58503 7 1.23256V10.7676Z" fill="white"/>
</g>
<defs>
<clipPath id="clip0_232_3139">
<rect width="12" height="12" fill="white" transform="translate(0.5)"/>
</clipPath>
</defs>
<!-- Diagonal line for stop/mute indication -->
<line x1="0.5" y1="11.5" x2="12.5" y2="0.5" stroke="white" stroke-width="2" stroke-linecap="round"/>
</svg>
