<svg width="14" height="14" viewBox="0 0 14 14" fill="none" xmlns="http://www.w3.org/2000/svg">
<g clip-path="url(#clip0_232_4255)">
<path d="M6.86208 10.4665C6.75035 10.4433 6.22631 10.5336 5.7269 10.2645C5.62712 10.2107 5.50277 10.248 5.44901 10.3477C5.39528 10.4474 5.43255 10.5718 5.53224 10.6256C5.57479 10.6485 5.61744 10.6693 5.66018 10.6883C5.24171 10.8721 4.90364 11.2039 4.70613 11.6943C4.51875 11.2355 4.19759 10.8867 3.75167 10.6877C4.20645 10.4848 4.52285 10.1299 4.70613 9.68127C4.7454 9.77817 4.78122 9.84549 4.78259 9.84828C4.83405 9.94916 4.95764 9.98919 5.05854 9.93773C5.15944 9.88624 5.19947 9.7627 5.14798 9.66177C5.14738 9.65904 4.89907 9.20584 4.92841 8.60267C4.94517 8.4896 4.86593 8.37722 4.7451 8.35499C4.63512 8.33333 4.51328 8.40309 4.48495 8.52662C4.47029 8.59064 4.57639 9.69825 3.77259 10.2121C3.24931 10.546 2.65524 10.4422 2.54455 10.4673C2.31057 10.5206 2.31077 10.8549 2.54455 10.9082C2.65387 10.9328 3.25959 10.8294 3.78303 11.1701C4.56036 11.6765 4.47459 12.7547 4.47978 12.803C4.47978 13.0559 4.84118 13.1129 4.92094 12.8661C4.94793 12.7821 4.83443 11.7127 5.60194 11.1872C6.10761 10.8407 6.73427 10.9243 6.84332 10.912C7.09286 10.884 7.11517 10.5201 6.86208 10.4665Z" fill="white"/>
<path d="M13.7804 6.4647C13.4055 6.42305 10.7326 6.79851 9.56443 4.34588C8.95034 3.05581 9.10784 1.88629 9.07438 1.73956C9.04424 1.60765 8.91953 1.52863 8.80028 1.54386C8.6643 1.55925 8.5741 1.67186 8.5741 1.78522V2.31744C8.48143 4.14707 7.64881 5.70457 5.9004 6.25278C4.89073 6.5695 4.0142 6.4327 3.85054 6.4685C3.5881 6.52805 3.58613 6.90499 3.85333 6.96435C4.08215 7.01264 5.80365 6.73373 7.14052 7.84397C7.22769 7.91632 7.357 7.90432 7.42938 7.81723C7.50173 7.73006 7.48978 7.60077 7.40263 7.52837C6.94392 7.14742 6.39411 6.87518 5.76499 6.71702C7.42128 6.29984 8.4379 5.11755 8.82702 3.46145C9.2129 5.10741 10.2211 6.30017 11.8952 6.71527C10.2378 7.13 9.20716 8.3113 8.82465 9.96286C8.68224 9.35753 8.44468 8.77814 8.08757 8.27217C8.02224 8.17961 7.89427 8.15755 7.80172 8.22285C7.70913 8.28817 7.68709 8.41614 7.75239 8.5087C7.87828 8.68703 7.99156 8.88136 8.08923 9.08631C8.66862 10.3035 8.56625 11.5419 8.57464 11.6614C8.59627 11.9666 9.09415 11.9819 9.07856 11.6046C9.05042 10.9245 9.10317 8.62061 10.9641 7.52736C12.2198 6.79039 13.6167 7.00566 13.8031 6.96372C14.0842 6.89993 14.0538 6.49538 13.7804 6.4647Z" fill="white"/>
<path d="M4.49279 3.09102C4.35391 3.06222 3.25901 3.25606 2.76989 2.26928C2.53995 1.80635 2.55592 1.29163 2.55907 1.2271C2.57553 1.1154 2.49798 1.00185 2.37556 0.979505C2.26627 0.957877 2.14385 1.02722 2.11555 1.1515C2.10095 1.21521 2.20696 2.32282 1.40325 2.83672C0.898316 3.15883 0.309004 3.07562 0.197933 3.08801C-0.0516329 3.11639 -0.0718126 3.47648 0.175183 3.53273C0.294457 3.55958 0.887351 3.45201 1.41366 3.79463C1.97459 4.16005 2.09116 4.83117 2.11044 5.20226C2.11309 5.41433 2.10371 5.439 2.12036 5.49068C2.15102 5.58553 2.23767 5.64922 2.33594 5.64922C2.44876 5.64927 2.54017 5.56585 2.55827 5.46361C2.5708 5.3935 2.51605 4.86018 2.77582 4.34402C2.82673 4.24282 2.78599 4.11952 2.68482 4.06858C2.58362 4.01761 2.46033 4.05841 2.40939 4.15958C2.38346 4.21113 2.35937 4.26458 2.33714 4.31971C2.14987 3.86063 1.82869 3.51156 1.38238 3.31234C1.83714 3.10931 2.1535 2.75447 2.33679 2.30584C2.51996 2.75775 2.83379 3.11106 3.29048 3.31305C3.24572 3.33282 3.20096 3.35461 3.15653 3.37862C3.05686 3.43251 3.01981 3.55695 3.07373 3.65662C3.12762 3.75626 3.25204 3.79331 3.35173 3.73945C3.83583 3.47755 4.36471 3.54878 4.474 3.53661C4.72488 3.50784 4.74391 3.14415 4.49279 3.09102Z" fill="white"/>
</g>
<defs>
<clipPath id="clip0_232_4255">
<rect width="14" height="14" fill="white"/>
</clipPath>
</defs>
</svg>
