<svg width="24" height="25" viewBox="0 0 24 25" fill="none" xmlns="http://www.w3.org/2000/svg">
<path d="M10.5388 2.56339C11.3293 1.71758 12.6707 1.71758 13.4612 2.56339L14.8236 4.02117C15.2179 4.44303 15.7753 4.67389 16.3524 4.65439L18.3466 4.587C19.5036 4.54789 20.4521 5.49635 20.413 6.65341L20.3456 8.64763C20.3261 9.22472 20.557 9.78208 20.9788 10.1764L22.4366 11.5388C23.2824 12.3293 23.2824 13.6707 22.4366 14.4612L20.9788 15.8236C20.557 16.2179 20.3261 16.7753 20.3456 17.3524L20.413 19.3466C20.4521 20.5036 19.5037 21.4521 18.3466 21.413L16.3524 21.3456C15.7753 21.3261 15.2179 21.557 14.8236 21.9788L13.4612 23.4366C12.6707 24.2824 11.3293 24.2824 10.5388 23.4366L9.17635 21.9788C8.78208 21.557 8.22472 21.3261 7.64763 21.3456L5.65341 21.413C4.49635 21.4521 3.54789 20.5037 3.587 19.3466L3.65439 17.3524C3.67389 16.7753 3.44303 16.2179 3.02117 15.8236L1.56339 14.4612C0.717576 13.6707 0.717575 12.3293 1.56339 11.5388L3.02117 10.1764C3.44303 9.78208 3.67389 9.22472 3.65439 8.64763L3.587 6.65341C3.54789 5.49635 4.49635 4.54789 5.65341 4.587L7.64763 4.65439C8.22472 4.67389 8.78208 4.44303 9.17635 4.02117L10.5388 2.56339Z" fill="#1DB68A"/>
<path d="M17.3333 9L9.99999 16.3333L6.66666 13" stroke="white" stroke-linecap="round" stroke-linejoin="round"/>
</svg>
