<svg width="20" height="20" viewBox="0 0 20 20" fill="none" xmlns="http://www.w3.org/2000/svg">
<g clip-path="url(#clip0_232_3829)">
<path d="M9.99973 4.86445C7.16406 4.86445 4.86484 7.1641 4.86484 9.99973C4.86484 12.8359 7.16406 15.1346 9.99973 15.1346C12.8359 15.1346 15.1355 12.8359 15.1355 9.99973C15.1355 7.1641 12.8359 4.86445 9.99973 4.86445ZM9.99973 13.3332C8.1591 13.3332 6.66629 11.8408 6.66629 9.99973C6.66629 8.15867 8.15906 6.66633 9.99973 6.66633C11.8408 6.66633 13.3336 8.15867 13.3336 9.99973C13.3336 11.8408 11.8408 13.3332 9.99973 13.3332ZM16.538 4.66184C16.538 5.32402 16.0007 5.86141 15.338 5.86141C14.6755 5.86141 14.138 5.32402 14.138 4.66184C14.138 3.99938 14.6754 3.46184 15.338 3.46184C16.0007 3.46184 16.538 3.99938 16.538 4.66184ZM19.475 3.44953C19.2194 2.79164 18.8775 2.23422 18.3219 1.6782C17.201 0.556523 15.6675 0.130117 14.1233 0.0601953C13.0565 0.0108984 12.7159 0 9.99973 0C7.28445 0 6.94391 0.0108984 5.87711 0.0601953C4.32918 0.130273 2.79742 0.559336 1.67863 1.67816C0.555469 2.80133 0.131055 4.33012 0.0600391 5.87711C0.0114453 6.94391 0 7.28406 0 9.99973C0 12.7154 0.0114453 13.0561 0.0600391 14.1233C0.131367 15.6757 0.555039 17.1987 1.67855 18.3214C2.80191 19.4439 4.33023 19.869 5.87711 19.9398C6.94391 19.9886 7.28445 19.9996 9.99973 19.9996C12.716 19.9996 13.0565 19.9885 14.1233 19.9398C15.6738 19.8688 17.2007 19.4434 18.3218 18.3214C19.4422 17.2002 19.8697 15.6669 19.9398 14.1233C19.9886 13.0561 20 12.7154 20 9.99969C20 7.28398 19.9886 6.94387 19.9398 5.87707C19.8915 4.81242 19.7224 4.08578 19.475 3.44953ZM18.1398 14.0406C18.0904 15.1268 17.838 16.2565 17.0478 17.0478C16.2471 17.8495 15.1341 18.09 14.0412 18.1399C12.9864 18.1877 12.6705 18.1981 9.99973 18.1981C7.32988 18.1981 7.01402 18.1876 5.95918 18.1399C4.86348 18.0899 3.75227 17.8454 2.95223 17.0479C2.15449 16.2527 1.90898 15.1261 1.86012 14.0406C1.81234 12.9864 1.80187 12.6701 1.80187 9.99969C1.80187 7.32984 1.81238 7.01359 1.86012 5.95875C1.90883 4.87762 2.16605 3.73957 2.95207 2.95223C3.74902 2.15395 4.8718 1.90969 5.95926 1.86008C7.01402 1.81191 7.32988 1.80184 9.99973 1.80184C12.6702 1.80184 12.9864 1.81191 14.0412 1.86008C15.1363 1.91004 16.2493 2.15348 17.0477 2.95207C17.8464 3.75106 18.0902 4.86961 18.1398 5.95883C18.1881 7.01359 18.1986 7.32984 18.1986 9.99973C18.1986 12.6702 18.1881 12.9864 18.1398 14.0406Z" fill="url(#paint0_linear_232_3829)"/>
</g>
<defs>
<linearGradient id="paint0_linear_232_3829" x1="1.67859" y1="18.3214" x2="18.3218" y2="1.6782" gradientUnits="userSpaceOnUse">
<stop stop-color="#FDD91D"/>
<stop offset="0.05" stop-color="#FDD91D"/>
<stop offset="0.4972" stop-color="#EC1C24"/>
<stop offset="0.95" stop-color="#A43A94"/>
<stop offset="1" stop-color="#A43A94"/>
</linearGradient>
<clipPath id="clip0_232_3829">
<rect width="20" height="20" fill="white"/>
</clipPath>
</defs>
</svg>
