<svg width="25" height="24" viewBox="0 0 25 24" fill="none" xmlns="http://www.w3.org/2000/svg">
<g clip-path="url(#clip0_260_29533)">
<path d="M1.49976 16.5C1.49976 15.119 2.61876 14 3.99976 14C5.38076 14 6.49976 15.119 6.49976 16.5C6.49976 17.881 5.38076 19 3.99976 19C2.61876 19 1.49976 17.881 1.49976 16.5ZM7.27476 23.631C7.46476 23.398 7.53976 23.091 7.47876 22.797C7.14376 21.176 5.67976 20 3.99976 20C2.31976 20 0.855763 21.176 0.520763 22.797C0.459763 23.091 0.534763 23.398 0.724763 23.631C0.914763 23.864 1.19976 24 1.49976 24H6.49976C6.80076 24 7.08476 23.865 7.27476 23.631ZM24.4998 18C24.4998 15.794 22.7058 14 20.4998 14H11.4998C10.3968 14 9.49976 13.103 9.49976 12C9.49976 10.897 10.3968 10 11.4998 10H12.4998C13.0518 10 13.4998 9.552 13.4998 9C13.4998 8.448 13.0518 8 12.4998 8H11.4998C9.29376 8 7.49976 9.794 7.49976 12C7.49976 14.206 9.29376 16 11.4998 16H20.4998C21.6028 16 22.4998 16.897 22.4998 18C22.4998 19.103 21.6028 20 20.4998 20H10.4998C9.94776 20 9.49976 20.448 9.49976 21C9.49976 21.552 9.94776 22 10.4998 22H20.4998C22.7058 22 24.4998 20.206 24.4998 18ZM16.0028 7.389L15.1408 10.154C15.0248 10.525 15.1538 10.93 15.4658 11.163C15.6278 11.285 15.8218 11.346 16.0158 11.346C16.1938 11.346 16.3708 11.295 16.5258 11.191L19.0078 9.53L21.5318 11.174C21.8578 11.386 22.2828 11.369 22.5918 11.132C22.9008 10.894 23.0248 10.487 22.9028 10.118L22.0058 7.386L24.1748 5.619C24.4688 5.371 24.5778 4.965 24.4458 4.603C24.3138 4.241 23.9698 4.001 23.5848 4.001H20.8338L19.8598 1.269C19.7268 0.909997 19.3838 0.671997 19.0008 0.671997C18.6178 0.671997 18.2748 0.909997 18.1418 1.269L17.1678 4.001H14.4168C14.0328 4.001 13.6888 4.241 13.5568 4.602C13.4238 4.963 13.5308 5.368 13.8238 5.617L16.0028 7.389Z" fill="white"/>
</g>
<defs>
<clipPath id="clip0_260_29533">
<rect width="24" height="24" fill="white" transform="translate(0.5)"/>
</clipPath>
</defs>
</svg>
