<svg width="20" height="20" viewBox="0 0 20 20" fill="none" xmlns="http://www.w3.org/2000/svg">
<g clip-path="url(#clip0_232_3771)">
<path d="M18.5352 0H12.9688C12.3226 0 11.7969 0.525703 11.7969 1.17188C11.7969 1.81805 12.3226 2.34375 12.9688 2.34375H15.9989L12.6133 5.72937C11.2456 4.71457 9.62523 4.17969 7.91016 4.17969C3.54848 4.17969 0 7.72816 0 12.0898C0 16.4515 3.54848 20 7.91016 20C12.2718 20 15.8203 16.4515 15.8203 12.0898C15.8203 10.3748 15.2854 8.75434 14.2706 7.38668L17.6562 4.00102V7.03125C17.6562 7.67742 18.182 8.20312 18.8281 8.20312C19.4743 8.20312 20 7.67742 20 7.03125V1.46484C20 0.657109 19.3429 0 18.5352 0ZM19.4141 7.03125C19.4141 7.35434 19.1512 7.61719 18.8281 7.61719C18.505 7.61719 18.2422 7.35434 18.2422 7.03125V3.29375C18.2422 3.17523 18.1708 3.06844 18.0613 3.02309C17.9518 2.97773 17.8259 3.00281 17.742 3.0866L13.6746 7.15398C13.5694 7.25918 13.5598 7.4266 13.6522 7.54316C14.6873 8.84848 15.2344 10.4207 15.2344 12.0898C15.2344 16.1284 11.9487 19.4141 7.91016 19.4141C3.87156 19.4141 0.585938 16.1284 0.585938 12.0898C0.585938 8.05125 3.87156 4.76562 7.91016 4.76562C9.57926 4.76562 11.1515 5.3127 12.4568 6.34773C12.5734 6.44016 12.7408 6.43055 12.8461 6.32531L16.9134 2.25793C16.9972 2.17414 17.0222 2.04813 16.9769 1.93867C16.9316 1.82918 16.8247 1.75781 16.7062 1.75781H12.9688C12.6457 1.75781 12.3828 1.49496 12.3828 1.17188C12.3828 0.848789 12.6457 0.585938 12.9688 0.585938H18.5352C19.0198 0.585938 19.4141 0.980195 19.4141 1.46484V7.03125Z" fill="white"/>
<path d="M7.91016 5.9375C6.49383 5.9375 5.11105 6.43074 4.01656 7.32641C3.89133 7.42887 3.87289 7.61344 3.97535 7.73867C4.07781 7.86391 4.26242 7.88234 4.38762 7.77988C5.37773 6.96965 6.62871 6.52344 7.91016 6.52344C10.9795 6.52344 13.4766 9.02051 13.4766 12.0898C13.4766 15.1592 10.9795 17.6562 7.91016 17.6562C4.84082 17.6562 2.34375 15.1592 2.34375 12.0898C2.34375 10.8084 2.78996 9.55738 3.6002 8.5673C3.70266 8.44207 3.68422 8.2575 3.55902 8.15504C3.43383 8.05258 3.24922 8.07105 3.14676 8.19621C2.25105 9.29074 1.75781 10.6735 1.75781 12.0898C1.75781 15.4823 4.51773 18.2422 7.91016 18.2422C11.3026 18.2422 14.0625 15.4823 14.0625 12.0898C14.0625 8.69742 11.3026 5.9375 7.91016 5.9375Z" fill="white"/>
</g>
<defs>
<clipPath id="clip0_232_3771">
<rect width="20" height="20" fill="white"/>
</clipPath>
</defs>
</svg>
