<svg width="40" height="40" viewBox="0 0 40 40" fill="none" xmlns="http://www.w3.org/2000/svg">
<g clip-path="url(#clip0_1003_5447)">
<path d="M16.6665 19.9999C16.6665 20.442 16.4909 20.8659 16.1783 21.1784C15.8658 21.491 15.4419 21.6666 14.9998 21.6666H6.7815C7.18506 24.8877 8.75092 27.8507 11.1849 29.9988C13.6189 32.1468 16.7535 33.3322 19.9998 33.3322C23.2462 33.3322 26.3808 32.1468 28.8148 29.9988C31.2488 27.8507 32.8146 24.8877 33.2182 21.6666H24.9998C24.5578 21.6666 24.1339 21.491 23.8213 21.1784C23.5088 20.8659 23.3332 20.442 23.3332 19.9999C23.3332 19.5579 23.5088 19.134 23.8213 18.8214C24.1339 18.5089 24.5578 18.3333 24.9998 18.3333H33.3332V14.9999H24.9998C24.5578 14.9999 24.1339 14.8243 23.8213 14.5118C23.5088 14.1992 23.3332 13.7753 23.3332 13.3333C23.3332 12.8912 23.5088 12.4673 23.8213 12.1548C24.1339 11.8422 24.5578 11.6666 24.9998 11.6666H33.2182C32.8146 8.44546 31.2488 5.48253 28.8148 3.33445C26.3808 1.18637 23.2462 0.000976562 19.9998 0.000976562C16.7535 0.000976562 13.6189 1.18637 11.1849 3.33445C8.75092 5.48253 7.18506 8.44546 6.7815 11.6666H14.9998C15.4419 11.6666 15.8658 11.8422 16.1783 12.1548C16.4909 12.4673 16.6665 12.8912 16.6665 13.3333C16.6665 13.7753 16.4909 14.1992 16.1783 14.5118C15.8658 14.8243 15.4419 14.9999 14.9998 14.9999H6.6665V18.3333H14.9998C15.4419 18.3333 15.8658 18.5089 16.1783 18.8214C16.4909 19.134 16.6665 19.5579 16.6665 19.9999Z" fill="white"/>
<path d="M38.3333 20C37.8913 20 37.4674 20.1756 37.1548 20.4882C36.8423 20.8007 36.6667 21.2246 36.6667 21.6667C36.6623 25.6436 35.0805 29.4563 32.2684 32.2684C29.4563 35.0805 25.6436 36.6623 21.6667 36.6667H18.3333C14.3566 36.6618 10.5441 35.0799 7.73209 32.2679C4.9201 29.4559 3.33818 25.6434 3.33333 21.6667C3.33333 21.2246 3.15774 20.8007 2.84518 20.4882C2.53262 20.1756 2.10869 20 1.66667 20C1.22464 20 0.800716 20.1756 0.488155 20.4882C0.175595 20.8007 0 21.2246 0 21.6667C0.00573412 26.5272 1.93912 31.187 5.37604 34.624C8.81297 38.0609 13.4728 39.9943 18.3333 40H21.6667C26.5272 39.9943 31.187 38.0609 34.624 34.624C38.0609 31.187 39.9943 26.5272 40 21.6667C40 21.2246 39.8244 20.8007 39.5118 20.4882C39.1993 20.1756 38.7754 20 38.3333 20Z" fill="white"/>
</g>
<defs>
<clipPath id="clip0_1003_5447">
<rect width="40" height="40" fill="white"/>
</clipPath>
</defs>
</svg>
