<svg width="20" height="20" viewBox="0 0 20 20" fill="none" xmlns="http://www.w3.org/2000/svg">
<g clip-path="url(#clip0_232_3146)">
<path d="M19.707 7.43164C19.8688 7.43164 20 7.30051 20 7.13867V5.17578C20 4.69117 19.6057 4.29688 19.1211 4.29688H15.8086L11.3293 2.15465C11.3538 2.0523 11.3672 1.94566 11.3672 1.83594C11.3672 1.08207 10.7539 0.46875 10 0.46875C9.24613 0.46875 8.63281 1.08207 8.63281 1.83594C8.63281 1.94563 8.64617 2.05223 8.67066 2.15449L4.19141 4.29688H0.878906C0.394258 4.29688 0 4.69117 0 5.17578V18.6523C0 19.137 0.394258 19.5312 0.878906 19.5312H19.1211C19.6057 19.5312 20 19.137 20 18.6523V8.50586C20 8.34402 19.8688 8.21289 19.707 8.21289C19.5452 8.21289 19.4141 8.34402 19.4141 8.50586V18.531L18.8227 17.9396C18.8259 17.9172 18.8281 17.8944 18.8281 17.8711V5.95703C18.8281 5.93371 18.8259 5.91094 18.8227 5.88848L19.4141 5.29715V7.13867C19.4141 7.30051 19.5452 7.43164 19.707 7.43164ZM0.585938 5.29715L1.17727 5.88848C1.1741 5.91094 1.17188 5.93371 1.17188 5.95703V17.8711C1.17188 17.8944 1.1741 17.9172 1.17727 17.9396L0.585938 18.531V5.29715ZM18.2422 6.05469V17.7734H17.3047V15.8764C17.3047 15.5452 17.1907 15.2404 17.0003 14.9983C17.2475 14.7666 17.3881 14.4445 17.3881 14.1036C17.3881 13.8627 17.3164 13.6266 17.1844 13.4269C17.3164 13.2272 17.3881 12.9911 17.3881 12.7502C17.3881 12.4802 17.3002 12.2214 17.1387 12.0089C17.3574 11.83 17.5 11.5583 17.5 11.2601V11.2549C17.5 11.0171 17.4096 10.7997 17.2609 10.6337C17.3088 10.5009 17.334 10.3601 17.334 10.2175C17.334 9.88926 17.2004 9.57172 16.9666 9.34207C17.0308 9.19059 17.0634 9.02984 17.0634 8.86414C17.0634 8.1877 16.513 7.63738 15.8366 7.63738C15.8125 7.63738 15.7884 7.63809 15.7647 7.63949C15.6084 7.1273 15.1287 6.77121 14.5915 6.77121C14.3044 6.77121 14.0266 6.87199 13.8065 7.05543C13.5865 6.87199 13.3086 6.77121 13.0216 6.77121C12.4844 6.77121 12.0047 7.12727 11.8483 7.63949C11.8246 7.63809 11.8004 7.63738 11.7765 7.63738C11.2468 7.63738 10.7862 7.97113 10.6171 8.46246C10.4146 8.42055 10.206 8.39852 9.99367 8.39852C9.7243 8.39852 9.46086 8.43418 9.20809 8.50184C8.95461 7.57332 8.10172 6.91414 7.12371 6.91414H5.2634C4.08426 6.91406 3.125 7.88652 3.125 9.0818V10.3719C2.76035 10.5057 2.5 10.851 2.5 11.2549V11.2601C2.5 11.784 2.93977 12.2266 3.46035 12.2266H3.62113C3.80672 13.0445 4.37008 13.7196 5.11719 14.0575V14.4531H4.11855C3.33375 14.4531 2.69531 15.1006 2.69531 15.8964V17.7734H1.75781V6.05469H18.2422ZM8.98543 16.5234C9.11094 16.9746 9.51859 17.3062 10.0028 17.3062C10.4835 17.3062 10.8896 16.9746 11.0147 16.5234H12.0318C12.4838 16.5234 12.8516 16.8989 12.8516 17.3606V17.7734H7.14844V17.3606C7.14844 16.899 7.51922 16.5234 7.97496 16.5234H8.98543ZM16.5461 9.75055C16.6763 9.87301 16.748 10.0388 16.748 10.2174C16.748 10.2563 16.7443 10.2948 16.7373 10.3327C16.6735 10.3195 16.6074 10.3125 16.5396 10.3125H15.7383C15.6614 10.3125 15.5859 10.2416 15.5859 10.1693V9.99762C15.5859 9.75402 15.4054 9.57031 15.1659 9.57031H12.447C12.4263 9.57031 12.4064 9.57195 12.3868 9.57457C12.3074 9.47137 12.2216 9.37227 12.1281 9.27871C11.8511 9.0016 11.5288 8.78578 11.1773 8.63691C11.2703 8.38992 11.5059 8.2232 11.7764 8.2232C11.7916 8.2232 11.8066 8.22375 11.8216 8.22477C12.087 8.24387 12.3329 8.07301 12.4059 7.81992C12.4844 7.54734 12.7376 7.35703 13.0215 7.35703C13.1753 7.35703 13.3239 7.41234 13.44 7.51273C13.6489 7.69348 13.964 7.69344 14.173 7.51277C14.2891 7.41234 14.4377 7.35703 14.5914 7.35703C14.8754 7.35703 15.1286 7.54734 15.2071 7.81988C15.28 8.07301 15.5261 8.24328 15.7915 8.22477C15.8064 8.22375 15.8214 8.2232 15.8365 8.2232C16.1899 8.2232 16.4774 8.51066 16.4774 8.86402C16.4774 8.95336 16.4594 9.03973 16.4239 9.1207C16.3283 9.33875 16.3774 9.59184 16.5461 9.75055ZM16.6292 12.3123C16.7407 12.4314 16.8022 12.5869 16.8022 12.7502C16.8022 12.8993 16.7525 13.0391 16.6583 13.1545C16.5296 13.3123 16.5296 13.5414 16.6583 13.6993C16.7524 13.8147 16.8022 13.9545 16.8022 14.1036C16.8022 14.2939 16.7183 14.4732 16.5721 14.5955C16.5652 14.6013 16.5586 14.6074 16.5522 14.6138C16.5522 14.6138 16.55 14.6159 16.5471 14.6189C16.3483 14.5133 16.1218 14.4532 15.8814 14.4532H14.875V14.0611C15.626 13.7244 16.1927 13.0474 16.3789 12.2266H16.5397L16.5416 12.2266C16.5961 12.2773 16.6292 12.3123 16.6292 12.3123ZM12.7266 14.4531H12.2314C12.3269 14.2873 12.4036 14.1116 12.4603 13.9285C12.5465 13.9789 12.6354 14.0242 12.7266 14.0645V14.4531ZM15.7384 10.8984H15.8594V11.6382C15.8594 12.7782 14.9346 13.7056 13.7979 13.7056C13.5739 13.7056 13.3532 13.6686 13.1438 13.5986C13.4348 13.4403 13.6328 13.131 13.6328 12.776V12.7709C13.6328 12.3631 13.3713 12.0156 13.0078 11.8881V11.4102C13.0078 10.9696 12.9141 10.5443 12.7372 10.1562H15V10.1693C15 10.5646 15.3381 10.8984 15.7384 10.8984ZM16.9141 11.2549V11.2601C16.9141 11.4593 16.7356 11.6406 16.5396 11.6406H16.4452L16.4453 11.6382V10.8984H16.5396C16.7426 10.8984 16.9141 11.0617 16.9141 11.2549ZM12.7016 12.4219C12.8888 12.4219 13.0469 12.5818 13.0469 12.771V12.7761C13.0469 12.9652 12.8888 13.125 12.7016 13.125H12.5781V12.4219L12.7016 12.4219ZM13.3125 14.2461C13.4718 14.2759 13.6341 14.2915 13.7979 14.2915C13.9657 14.2915 14.1298 14.275 14.2891 14.245V14.7606C14.2891 15.0324 14.0702 15.2536 13.8008 15.2547C13.5314 15.2536 13.3125 15.0324 13.3125 14.7606V14.2461ZM12.4219 11.4102V11.8359H12.2852H11.752C11.5547 11.8359 11.3864 11.6945 11.3519 11.4996C11.3148 11.2905 11.1304 11.1328 10.9229 11.1328H9.08387C8.87633 11.1328 8.69191 11.2905 8.65492 11.4997C8.62043 11.6945 8.45215 11.8359 8.2548 11.8359H7.71484H7.57812V11.4102C7.57812 10.0726 8.66172 8.98438 9.99703 8.98438C11.3341 8.98438 12.4219 10.0726 12.4219 11.4102ZM7.29844 12.4219H7.42188V13.125H7.29844C7.11125 13.125 6.95312 12.9652 6.95312 12.776V12.7709C6.95312 12.5818 7.11125 12.4219 7.29844 12.4219ZM7.86672 9.27922C7.7182 9.42852 7.58781 9.59129 7.47547 9.76437C7.39609 9.6682 7.27438 9.60938 7.13574 9.60938H5.25125C5.03652 9.60938 4.85582 9.75945 4.82152 9.96621C4.78824 10.1669 4.61297 10.3125 4.40473 10.3125H3.82812H3.71094V9.0818C3.71094 8.20961 4.40734 7.5 5.26336 7.5H7.12367C7.85555 7.5 8.49129 8.00559 8.65672 8.70992C8.36746 8.85348 8.10063 9.0441 7.86672 9.27922ZM3.46035 10.8984H3.55469V11.6382L3.55477 11.6406H3.46035C3.26437 11.6406 3.08594 11.4592 3.08594 11.2601V11.2549C3.08594 11.0617 3.25738 10.8984 3.46035 10.8984ZM4.14062 10.8984H4.40473C4.85406 10.8984 5.23965 10.6098 5.36809 10.1953H7.01961C7.04832 10.2882 7.0907 10.3748 7.14488 10.4551C7.04492 10.7588 6.99215 11.0801 6.99215 11.4102V11.8881C6.62867 12.0156 6.36715 12.3631 6.36715 12.7709V12.776C6.36715 13.131 6.5652 13.4403 6.85621 13.5986C6.64687 13.6686 6.42609 13.7055 6.20211 13.7055C5.06539 13.7055 4.14062 12.7781 4.14062 11.6381V10.8984ZM5.70312 14.2436C5.86484 14.2746 6.03152 14.2915 6.20211 14.2915C6.36316 14.2915 6.52297 14.2764 6.67969 14.2477V14.7606C6.67969 15.0324 6.46086 15.2536 6.19145 15.2546C5.92203 15.2536 5.70312 15.0324 5.70312 14.7606V14.2436ZM7.26562 14.0679C7.35957 14.0268 7.45129 13.9804 7.54004 13.9284C7.59684 14.1116 7.67371 14.2873 7.76945 14.4531H7.26562V14.0679ZM8.00781 13.1456V12.4219H8.25477C8.69629 12.4219 9.07816 12.1326 9.20387 11.7188H10.8029C10.9286 12.1325 11.3105 12.4219 11.752 12.4219H11.9922V13.1456C11.9922 14.2725 11.118 15.1554 10.0017 15.1562C8.90211 15.1554 8.00781 14.2538 8.00781 13.1456ZM9.9984 15.7422H10H10.0033H10.005C10.1624 15.7419 10.3173 15.727 10.4688 15.6995V16.2305C10.4688 16.5005 10.2597 16.7202 10.0003 16.7202C9.74164 16.7202 9.53125 16.5005 9.53125 16.2305V15.6989C9.68375 15.7268 9.83981 15.7419 9.9984 15.7422ZM12.0318 15.9375H11.0547V15.5183C11.3157 15.4014 11.5568 15.2405 11.7691 15.0391H12.763C12.8851 15.4976 13.3007 15.837 13.7947 15.8406L13.7989 15.8407H13.8028L13.807 15.8406C14.3009 15.837 14.7165 15.4976 14.8385 15.0391H15.8814C16.3431 15.0391 16.7188 15.4146 16.7188 15.8764V17.7734H13.4375V17.3606C13.4375 16.5759 12.8069 15.9375 12.0318 15.9375ZM1.5916 18.354C1.61406 18.3571 1.63684 18.3594 1.66016 18.3594H2.98828C3.15008 18.3594 3.28125 18.2282 3.28125 18.0664V15.8964C3.28125 15.4237 3.65687 15.0391 4.11855 15.0391H5.15367C5.2757 15.4976 5.69137 15.837 6.18535 15.8406L6.18957 15.8407H6.1934L6.19762 15.8406C6.69152 15.837 7.10715 15.4976 7.22914 15.0391H8.23262C8.44453 15.2398 8.68508 15.4003 8.94527 15.5171V15.9375H7.97492C7.19613 15.9375 6.5625 16.5759 6.5625 17.3606V17.7734H4.35547C4.19367 17.7734 4.0625 17.9046 4.0625 18.0664C4.0625 18.2282 4.19367 18.3594 4.35547 18.3594H18.3398C18.3632 18.3594 18.3859 18.3571 18.4084 18.354L18.9997 18.9453H1.00027L1.5916 18.354ZM18.3398 5.46875H1.66016C1.63684 5.46875 1.61406 5.47098 1.5916 5.47414L1.00027 4.88281H15.7406H18.9997L18.4084 5.47414C18.3859 5.47098 18.3632 5.46875 18.3398 5.46875ZM10 1.05469C10.4308 1.05469 10.7812 1.40516 10.7812 1.83594C10.7812 2.26672 10.4308 2.61719 10 2.61719C9.56922 2.61719 9.21875 2.26672 9.21875 1.83594C9.21875 1.40516 9.56922 1.05469 10 1.05469ZM8.92684 2.68148C9.17742 2.99883 9.56516 3.20312 10 3.20312C10.4348 3.20312 10.8225 2.99887 11.0731 2.6816L14.4506 4.29688H5.54934L8.92684 2.68148Z" fill="white"/>
</g>
<defs>
<clipPath id="clip0_232_3146">
<rect width="20" height="20" fill="white"/>
</clipPath>
</defs>
</svg>
