<svg width="20" height="20" viewBox="0 0 20 20" fill="none" xmlns="http://www.w3.org/2000/svg">
<path d="M18.4537 2.16764L18.9608 1.66505C19.0773 1.5497 19.0742 1.35508 18.9543 1.24336C18.3699 0.698772 17.6968 0.296392 17.0592 0.110351C16.5395 -0.0412581 15.7528 -0.104078 15.3656 0.376993C14.9427 0.901853 14.4989 1.43892 14.0467 1.97322C13.8103 2.25253 14.2459 2.64314 14.4932 2.35107C14.9445 1.81786 15.3873 1.28201 15.8097 0.758082C16.2445 0.35036 17.3691 0.681342 18.3264 1.47035L11.9409 7.79812C11.4897 7.41637 10.9863 7.09416 10.4436 6.84296C11.4669 5.77378 12.4673 4.68303 13.421 3.59545C13.6623 3.32027 13.2335 2.92214 12.9812 3.2098C11.9832 4.34792 10.9338 5.48959 9.86028 6.60607C9.6875 6.54535 9.47054 6.43707 9.31362 6.59889C8.71775 7.21375 8.11151 7.82409 7.51174 8.41302C7.36665 8.5555 7.41278 8.80518 7.59632 8.88808C5.71532 10.7245 3.84618 12.4052 2.03514 13.8877C1.56042 14.2792 0.980231 14.6939 0.584324 15.1667C0.264846 15.5307 0.222849 16.1072 0.466874 16.7922C0.966467 18.2985 2.92167 20.0229 4.39705 19.9997C4.67937 19.9998 5.08023 19.9281 5.24798 19.6664L6.40856 18.2526C7.65095 16.7622 8.95534 15.301 10.3019 13.8897V18.2884C10.3019 18.5834 10.7222 18.6976 10.858 18.415L11.9789 16.0811L12.6581 16.5283C12.8491 16.6541 13.1115 16.5127 13.1115 16.2841V11.6445C13.351 11.4125 13.5906 11.1818 13.8295 10.9548C13.9128 10.8757 13.9421 10.7552 13.9043 10.6466C13.8766 10.567 13.8468 10.4884 13.8161 10.4101C15.5685 8.77094 17.4095 7.18583 19.2913 5.69684C19.5798 5.46888 19.6899 5.03176 19.6899 4.68487C19.6898 3.91583 19.2187 2.96066 18.4537 2.16764ZM2.31375 14.4212C4.20033 12.8767 6.24447 11.0351 8.20299 9.11241C8.74115 9.34205 9.2446 9.64971 9.6485 10.0065L4.48354 15.1248C3.8766 14.6801 3.06763 14.394 2.31375 14.4212ZM2.13687 18.2558C1.04095 17.1697 0.671437 15.9689 1.01934 15.5581C1.57368 15.0245 2.35524 14.8987 3.08743 15.0998L2.08739 16.0998C1.9469 16.2402 1.87955 16.4348 1.88649 16.6315C1.90373 17.1193 2.34666 17.7335 3.24064 18.5094C3.35353 18.6074 3.52986 18.5995 3.63409 18.5002L4.3749 17.794C4.83952 18.5341 4.79436 19.0939 4.7333 19.3467C4.36515 19.5462 3.20005 19.3093 2.13687 18.2558ZM2.50096 16.5134C2.88938 16.125 3.79054 17.0487 4.02372 17.3207L3.42547 17.891C3.30923 17.7848 2.19962 16.8152 2.50096 16.5134ZM12.5265 15.7413L12.0211 15.4085C11.8752 15.3124 11.6722 15.3687 11.5966 15.5261L10.8868 17.004V13.2825C11.0967 13.0667 11.3075 12.852 11.5192 12.6388C11.5948 12.8313 11.8529 12.8836 11.9976 12.7392C12.173 12.5641 12.3495 12.3895 12.5265 12.2153V15.7413H12.5265ZM11.9004 12.0112C11.8121 11.8076 11.7132 11.6082 11.6047 11.4149C11.4256 11.0957 10.9074 11.3676 11.0947 11.7012C11.1593 11.8164 11.2201 11.934 11.277 12.0535C9.42421 13.9085 7.63571 15.8671 5.95791 17.8798L5.32593 18.6497C5.15681 17.5611 4.18847 16.2318 3.09578 15.9186L3.68533 15.3291C3.90822 15.438 4.14414 15.5786 4.39303 15.7577C4.50651 15.8393 4.67243 15.8245 4.76972 15.728L10.1269 10.4192C10.4103 10.7054 10.88 10.3539 10.5878 10.0529C9.93047 9.37586 9.13125 8.84527 8.25524 8.50118C8.70621 8.05419 9.15909 7.59699 9.60682 7.13662C11.2953 7.70984 12.6522 9.01021 13.2876 10.6632C13.0629 10.8774 12.1365 11.7774 11.9004 12.0112ZM18.9142 5.24935C17.0772 6.70359 15.2785 8.24877 13.5628 9.84621C13.2527 9.23505 12.8492 8.67857 12.3709 8.19547L18.0381 2.57942C18.741 3.30448 19.4627 4.5928 18.9142 5.24935Z" fill="white"/>
</svg>
