<svg width="20" height="20" viewBox="0 0 20 20" fill="none" xmlns="http://www.w3.org/2000/svg">
<path d="M18.1325 8.65246C18.2603 8.75148 18.4444 8.72816 18.5434 8.60019C19.337 7.57547 19.8399 6.35418 19.9978 5.0684C20.0207 4.88203 19.8576 4.71906 19.6713 4.74191C18.4478 4.89215 17.2782 5.36066 16.2883 6.08531L16.2883 1.85547C16.2883 0.832383 15.4559 0 14.4329 0H6.54668C6.18008 0 6.16336 0.585938 6.54668 0.585938H14.4329C15.1329 0.585938 15.7024 1.15547 15.7024 1.85547L15.7023 6.56355C14.935 7.2607 14.2255 8.02844 13.4925 8.76141C12.8809 9.37305 12.8157 10.3268 13.2957 11.012L11.7335 12.5657C11.4737 12.8241 11.879 13.2475 12.1467 12.9812L13.7068 11.4296C14.0043 11.6453 14.3608 11.7621 14.7355 11.7621C15.0845 11.7621 15.4178 11.6609 15.7023 11.4727V12.8659L14.6924 13.3708C14.4864 13.4738 14.4787 13.7742 14.679 13.8877L15.7023 14.4677V17.0705H6.34742C6.18563 17.0705 6.05445 17.2017 6.05445 17.3635V18.1445C6.05445 18.8282 5.51121 19.387 4.83379 19.4128C4.15637 19.387 3.61313 18.8282 3.61313 18.1445V16.2375L5.285 15.4194C5.50195 15.3133 5.49914 14.9933 5.28043 14.8909L3.61313 14.1105L3.6132 6.62109L4.62996 6.07883C4.83605 5.96887 4.83207 5.66277 4.62313 5.55828L3.6132 5.05332V1.85547C3.6132 1.36484 3.4218 0.918086 3.10973 0.585938H4.67176C5.03836 0.585938 5.05508 0 4.67176 0C4.67176 0 1.71336 0.00277344 1.6923 0.00757813C0.745391 0.0905469 0 0.887383 0 1.85547V3.02719C0 3.18898 0.131172 3.32016 0.292969 3.32016H3.02727V5.23438C3.02727 5.34535 3.08996 5.4468 3.18922 5.49641L3.85379 5.82871L3.18238 6.1868C3.08691 6.23773 3.02727 6.33711 3.02727 6.44531L3.02723 14.2969C3.02723 14.4106 3.09301 14.514 3.19602 14.5622L4.47773 15.1621L3.19145 15.7915C3.09094 15.8407 3.02723 15.9428 3.02723 16.0547V18.1445C3.02723 19.1126 3.77262 19.9095 4.71953 19.9924C4.74059 19.9972 4.76242 20 4.78496 20H17.46C18.4831 20 19.3155 19.1676 19.3155 18.1445V17.3634C19.3155 17.2016 19.1843 17.0705 19.0225 17.0705H16.2882V14.2969C16.2882 14.1914 16.2315 14.094 16.1397 14.042L15.4462 13.649L16.1263 13.3089C16.2255 13.2593 16.2883 13.1579 16.2883 13.0469V10.9766C16.2883 10.9641 16.2873 10.9519 16.2857 10.9398L17.339 9.8866C17.5982 9.62734 17.1957 9.20129 16.9246 9.4723L15.5641 10.8329C15.3428 11.0542 15.0485 11.1761 14.7355 11.1761C14.5188 11.1761 14.3112 11.1176 14.1305 11.0082L16.9722 8.18195C17.2321 7.9234 16.8308 7.49621 16.559 7.76648L13.7205 10.5896C13.4623 10.1416 13.5243 9.55824 13.9069 9.17566L15.8704 7.21219C16.8172 6.26535 18.0436 5.6243 19.3574 5.38254C19.167 6.4216 18.7295 7.40305 18.0803 8.24145C17.9811 8.36938 18.0045 8.5534 18.1325 8.65246ZM0.585938 2.73422V1.85547C0.585938 1.17184 1.12918 0.612969 1.8066 0.587187C2.48406 0.612969 3.02727 1.17184 3.02727 1.85547V2.73422H0.585938ZM18.7295 18.1445C18.7295 18.8445 18.16 19.4141 17.46 19.4141H6.13691C6.44898 19.0819 6.64039 18.6352 6.64039 18.1445V17.6564H18.7295V18.1445H18.7295Z" fill="white"/>
<path d="M6.68359 3.79492H13.0115C13.1733 3.79492 13.3045 3.66375 13.3045 3.50195C13.3045 3.34016 13.1733 3.20898 13.0115 3.20898H6.68359C6.5218 3.20898 6.39062 3.34016 6.39062 3.50195C6.39062 3.66375 6.52176 3.79492 6.68359 3.79492Z" fill="white"/>
<path d="M6.68359 6.12402H13.0115C13.1733 6.12402 13.3045 5.99285 13.3045 5.83105C13.3045 5.66926 13.1733 5.53809 13.0115 5.53809H6.68359C6.5218 5.53809 6.39062 5.66926 6.39062 5.83105C6.39062 5.99285 6.52176 6.12402 6.68359 6.12402Z" fill="white"/>
<path d="M6.68359 8.45312H11.449C11.6108 8.45312 11.742 8.32195 11.742 8.16016C11.742 7.99836 11.6108 7.86719 11.449 7.86719H6.68359C6.5218 7.86719 6.39062 7.99836 6.39062 8.16016C6.39062 8.32195 6.52176 8.45312 6.68359 8.45312Z" fill="white"/>
<path d="M6.68359 10.7812H11.449C11.6108 10.7812 11.742 10.6501 11.742 10.4883C11.742 10.3265 11.6108 10.1953 11.449 10.1953H6.68359C6.5218 10.1953 6.39062 10.3265 6.39062 10.4883C6.39062 10.6501 6.52176 10.7812 6.68359 10.7812Z" fill="white"/>
<path d="M6.68359 13.1104H9.49582C9.65762 13.1104 9.78879 12.9792 9.78879 12.8174C9.78879 12.6556 9.65762 12.5244 9.49582 12.5244H6.68359C6.5218 12.5244 6.39062 12.6556 6.39062 12.8174C6.39062 12.9792 6.52176 13.1104 6.68359 13.1104Z" fill="white"/>
<path d="M6.68359 15.4395H13.0115C13.1733 15.4395 13.3045 15.3083 13.3045 15.1465C13.3045 14.9847 13.1733 14.8535 13.0115 14.8535H6.68359C6.5218 14.8535 6.39062 14.9847 6.39062 15.1465C6.39062 15.3083 6.52176 15.4395 6.68359 15.4395Z" fill="white"/>
</svg>
