<svg width="16" height="20" viewBox="0 0 16 20" fill="none" xmlns="http://www.w3.org/2000/svg">
<path d="M7.273 6.47499L7.78464 7.02925C7.84242 7.09183 7.92109 7.12351 7.99999 7.12351C8.07101 7.12351 8.14234 7.0978 8.19863 7.04581C8.31753 6.93604 8.32491 6.75073 8.21519 6.63183L7.85995 6.24694L8.2437 5.67132C8.33347 5.53671 8.29706 5.3548 8.16245 5.26507C8.02785 5.1753 7.84593 5.21167 7.7562 5.34632L7.24456 6.11374C7.16949 6.22632 7.18124 6.37565 7.273 6.47499Z" fill="white"/>
<path d="M7.09874 7.38559C6.98433 7.27121 6.79882 7.27121 6.68444 7.38559C6.57003 7.50004 6.57003 7.68551 6.68444 7.79992C7.04718 8.16262 7.52366 8.34402 8.00011 8.34402C8.47659 8.34402 8.95308 8.16262 9.31581 7.79992C9.43022 7.68547 9.43022 7.5 9.31581 7.38559C9.20136 7.27121 9.01589 7.27121 8.90148 7.38559C8.40452 7.88266 7.59577 7.8827 7.09874 7.38559Z" fill="white"/>
<path d="M6.07921 5.05751C5.9648 4.94306 5.77929 4.9431 5.66491 5.05747C5.5505 5.17188 5.5505 5.35739 5.66491 5.47177C5.88335 5.69024 6.17378 5.81056 6.48269 5.81056C6.79159 5.81056 7.08202 5.69024 7.30046 5.47177C7.41487 5.35735 7.41487 5.17185 7.30046 5.05747C7.18605 4.9431 7.00054 4.94306 6.88616 5.05751C6.77839 5.16528 6.63511 5.22462 6.48272 5.22462C6.33026 5.22462 6.18698 5.16528 6.07921 5.05751Z" fill="white"/>
<path d="M9.51776 5.81056C9.8267 5.81056 10.1171 5.69024 10.3356 5.47177C10.45 5.35735 10.45 5.17185 10.3355 5.05747C10.2212 4.9431 10.0356 4.94306 9.92123 5.05751C9.81346 5.16528 9.67018 5.22462 9.5178 5.22462C9.36545 5.22462 9.22217 5.16524 9.1144 5.05751C8.99999 4.9431 8.81448 4.94306 8.7001 5.05747C8.58565 5.17188 8.58565 5.35739 8.70006 5.47177C8.91842 5.69024 9.20885 5.81056 9.51776 5.81056Z" fill="white"/>
<path d="M15.4363 8.80359L14.8475 8.48152L14.5254 7.89266C14.4559 7.76551 14.3227 7.68656 14.1778 7.68652C14.1777 7.68652 14.1777 7.68652 14.1777 7.68652C14.0328 7.68652 13.8995 7.76547 13.83 7.89266L13.5079 8.48152L12.919 8.80359C12.7918 8.87316 12.7129 9.00637 12.7129 9.15129C12.7129 9.29625 12.7918 9.42945 12.919 9.49902L13.5079 9.82109L13.83 10.41C13.8995 10.5371 14.0327 10.6161 14.1777 10.6161H14.1778C14.3227 10.6161 14.456 10.5371 14.5254 10.41L14.8475 9.82109L15.4363 9.49902C15.5635 9.42949 15.6425 9.29625 15.6425 9.15129C15.6425 9.00637 15.5635 8.87312 15.4363 8.80359ZM14.5179 9.33352C14.451 9.37 14.3963 9.42465 14.36 9.49125L14.1777 9.82469L13.9952 9.49117C13.9587 9.42441 13.9041 9.36988 13.8377 9.33371L13.5043 9.15133L13.8378 8.96891C13.9043 8.93254 13.9587 8.8782 13.9953 8.81141L14.1777 8.47793L14.36 8.81129C14.3964 8.87793 14.4509 8.93246 14.5176 8.96895L14.851 9.15133L14.5179 9.33352Z" fill="white"/>
<path d="M1.80873 10.5882C1.95322 10.5882 2.08607 10.5095 2.15537 10.3827L2.47307 9.80176L3.05408 9.48402C3.18088 9.41465 3.25959 9.2818 3.25959 9.13727C3.25955 8.99281 3.18076 8.85996 3.05404 8.79074L2.47311 8.47301L2.15537 7.89207C2.08604 7.76531 1.95322 7.68652 1.80873 7.68652C1.66424 7.68652 1.53139 7.76531 1.46209 7.89207L1.14436 8.47301L0.563496 8.7907C0.436699 8.85996 0.357949 8.99281 0.35791 9.13727C0.35791 9.2818 0.436621 9.41465 0.563457 9.48402L1.14443 9.80176L1.46213 10.3827C1.53139 10.5095 1.6642 10.5882 1.80873 10.5882ZM1.64127 8.17324L1.64135 8.17344C1.64135 8.17336 1.64127 8.17324 1.64127 8.17324ZM1.47471 8.9602C1.54096 8.92391 1.59518 8.86973 1.63158 8.8032L1.80869 8.47937L1.98592 8.8034C2.02225 8.86969 2.07643 8.92391 2.14291 8.96031L2.46674 9.13742L2.14271 9.31465C2.07643 9.35094 2.02225 9.40512 1.98584 9.4716L1.80873 9.79543L1.6315 9.47141C1.59521 9.40516 1.541 9.35094 1.47451 9.31453L1.15068 9.13742L1.47471 8.9602Z" fill="white"/>
<path d="M12.7598 2.96484L13.3487 3.28695L13.6708 3.87578C13.7403 4.00297 13.8736 4.08195 14.0185 4.08195C14.1634 4.08195 14.2967 4.00297 14.3662 3.87578L14.6882 3.28695L15.2771 2.96488C15.4043 2.89539 15.4833 2.76211 15.4833 2.61715C15.4833 2.47219 15.4043 2.33891 15.2771 2.26945L14.6882 1.94734L14.3662 1.35852C14.2967 1.23133 14.1634 1.15234 14.0185 1.15234C13.8736 1.15234 13.7403 1.23133 13.6708 1.35852L13.3487 1.94734L12.7599 2.26941C12.6327 2.33891 12.5537 2.47219 12.5537 2.61715C12.5537 2.76211 12.6327 2.89539 12.7598 2.96484ZM13.6787 2.43473C13.7453 2.39828 13.7997 2.34383 13.8362 2.27723L14.0186 1.94379L14.2009 2.2773C14.2374 2.34383 14.2918 2.39832 14.3585 2.43477L14.6919 2.61715L14.3584 2.79957C14.2918 2.83602 14.2373 2.89047 14.2009 2.95707L14.0185 3.29051L13.8361 2.95699C13.7997 2.89047 13.7453 2.83598 13.6786 2.79953L13.3452 2.61715L13.6787 2.43473Z" fill="white"/>
<path d="M0.722598 2.94984L1.30353 3.26758L1.62127 3.84852C1.69061 3.97527 1.82342 4.05406 1.96795 4.05406C2.11248 4.05406 2.24529 3.97527 2.31459 3.84852L2.63229 3.26758L3.2133 2.94984C3.3401 2.88047 3.41881 2.74762 3.41881 2.60309C3.41877 2.45863 3.33998 2.32578 3.21326 2.25656L2.63232 1.93883L2.31459 1.35789C2.24525 1.23113 2.11244 1.15234 1.96795 1.15234C1.82346 1.15234 1.69061 1.23113 1.62131 1.35789L1.30353 1.93883L0.722637 2.25652C0.595879 2.32582 0.517129 2.45863 0.51709 2.60309C0.517051 2.74758 0.595762 2.88043 0.722598 2.94984ZM1.80049 1.63902L1.80057 1.63922C1.80057 1.63914 1.80049 1.63902 1.80049 1.63902ZM1.63393 2.42594C1.70037 2.38953 1.75467 2.33516 1.7908 2.26895L1.96795 1.94512L2.14502 2.26891C2.18131 2.33527 2.23557 2.38957 2.30213 2.42602L2.62596 2.60312L2.30193 2.78035C2.23564 2.81664 2.18146 2.87082 2.14506 2.9373L1.96795 3.26117L1.79084 2.93734C1.75455 2.87102 1.70033 2.81672 1.63377 2.78027L1.3099 2.60316L1.63393 2.42594Z" fill="white"/>
<path d="M1.10477 6.81283C1.21617 6.81283 1.3209 6.76943 1.39961 6.69068L2.07469 6.01564C2.15348 5.93686 2.19684 5.83217 2.19684 5.72072C2.19684 5.60936 2.15348 5.50467 2.07473 5.42584L1.39957 4.75072C1.23703 4.5883 0.9725 4.5883 0.809961 4.75072C0.809961 4.75076 0.809961 4.75076 0.809922 4.75076L0.134766 5.42588C0.0560156 5.50467 0.0126953 5.60936 0.0126953 5.72072C0.0126953 5.83217 0.0560937 5.93686 0.134805 6.01561L0.809883 6.69064C0.888633 6.76943 0.993359 6.81283 1.10477 6.81283ZM1.10477 5.28455L1.54094 5.72072L1.10477 6.15689L0.668594 5.72072L1.10477 5.28455Z" fill="white"/>
<path d="M15.8653 5.42588L15.1901 4.75072C15.0276 4.5883 14.7631 4.5883 14.6006 4.75072C14.6005 4.75076 14.6005 4.7508 14.6004 4.7508L13.9254 5.42588C13.8466 5.50467 13.8032 5.60936 13.8032 5.72076C13.8032 5.83221 13.8466 5.93693 13.9254 6.01564L14.6004 6.69072C14.6817 6.77201 14.7885 6.81264 14.8953 6.81264C15.0021 6.81264 15.1089 6.77201 15.1902 6.69072L15.8652 6.01572C15.944 5.93693 15.9874 5.83221 15.9874 5.72076C15.9874 5.60936 15.944 5.50467 15.8653 5.42588ZM14.8953 6.15693L14.4592 5.72076L14.8953 5.28459L15.3315 5.72076L14.8953 6.15693Z" fill="white"/>
<path d="M12.1436 12.2617C11.9817 12.2617 11.8506 12.3929 11.8506 12.5547V13.7114C11.8506 13.8732 11.9817 14.0044 12.1436 14.0044C12.3054 14.0044 12.4365 13.8732 12.4365 13.7114V12.5547C12.4365 12.3929 12.3054 12.2617 12.1436 12.2617Z" fill="white"/>
<path d="M13.8892 12.1201C13.75 11.4715 13.3891 10.8846 12.8731 10.4676C12.5638 10.2177 12.2063 10.0357 11.8267 9.92961C12.1505 9.5048 12.3433 8.975 12.3433 8.40086V7.3398C12.6551 7.08836 12.855 6.70359 12.855 6.27285V6.1259C12.855 5.69516 12.6551 5.31039 12.3433 5.05895V4.34336C12.3433 1.94844 10.3949 0 7.99999 0C5.60507 0 3.65663 1.94844 3.65663 4.34336V5.05891C3.34491 5.31035 3.14499 5.69512 3.14499 6.12586V6.27281C3.14499 6.70355 3.34491 7.08832 3.65663 7.33977V8.40082C3.65663 8.97496 3.8494 9.50473 4.17319 9.92957C3.79362 10.0357 3.43616 10.2177 3.12682 10.4676C2.61085 10.8846 2.24999 11.4714 2.11073 12.1201L1.23194 16.213C1.10214 16.8177 1.25061 17.4404 1.63932 17.9214C2.02803 18.4024 2.60569 18.6783 3.22413 18.6783H3.24632V19.1211C3.24632 19.6057 3.64057 20 4.12522 20H5.73436C5.89616 20 6.02733 19.8689 6.02733 19.707C6.02733 19.5452 5.89616 19.4141 5.73436 19.4141H4.12526C3.9637 19.4141 3.83229 19.2827 3.83229 19.1211V18.6783H5.44948C5.71874 18.6783 5.93776 18.4593 5.93776 18.19V17.6448H7.10448C7.46159 17.6448 7.78218 17.4862 8.00022 17.2361C8.21823 17.4862 8.5385 17.6448 8.89553 17.6448H10.0622V18.19C10.0622 18.4593 10.2812 18.6783 10.5505 18.6783H12.1917V19.1211C12.1917 19.2827 12.0603 19.4141 11.8987 19.4141H7.10155C6.93975 19.4141 6.80858 19.5452 6.80858 19.707C6.80858 19.8689 6.93975 20 7.10155 20H11.8987C12.3833 20 12.7776 19.6057 12.7776 19.1211V18.6783C13.3954 18.6778 13.9723 18.402 14.3606 17.9214C14.7493 17.4404 14.8978 16.8177 14.768 16.213L13.8892 12.1201ZM12.269 6.1259V6.27285C12.269 6.70555 11.917 7.05758 11.4843 7.05758H11.2821C11.3623 6.76816 11.4053 6.46348 11.4053 6.14887V5.34117H11.4843C11.917 5.34117 12.269 5.6932 12.269 6.1259ZM11.7574 7.61609V8.40086C11.7574 9.47129 10.8866 10.3421 9.81612 10.3421H9.33378V9.28164C10.0862 8.96004 10.7003 8.37535 11.0593 7.64352H11.4843C11.5778 7.64352 11.6691 7.63402 11.7574 7.61609ZM4.24257 4.34336C4.24257 2.27148 5.92811 0.585938 7.99999 0.585938C10.0719 0.585938 11.7574 2.27148 11.7574 4.34336V4.78262C11.6691 4.76469 11.5778 4.75523 11.4843 4.75523H11.4054V4.40445C11.4054 3.48859 10.6603 2.74348 9.7444 2.74348H9.2385C8.95475 2.74348 8.67475 2.79035 8.40632 2.88277L7.4876 3.19918C7.3346 3.25188 7.25331 3.41855 7.306 3.57156C7.3587 3.72453 7.52553 3.80602 7.67839 3.75313L8.5971 3.43676C8.80401 3.36551 9.01979 3.32938 9.2385 3.32938H9.7444C10.3372 3.32938 10.8194 3.81164 10.8194 4.40441V6.14883C10.8194 7.70348 9.55464 8.96828 7.99999 8.96828C6.44534 8.96828 5.18053 7.70348 5.18053 6.14883V4.88855C5.18053 4.72395 5.2851 4.57734 5.44073 4.52371L6.38382 4.19895C6.53682 4.14625 6.61811 3.97957 6.56542 3.82656C6.51272 3.67363 6.346 3.59219 6.19303 3.645L5.24991 3.96977C4.90057 4.09008 4.65397 4.39652 4.60432 4.7552H4.51561C4.42214 4.7552 4.33081 4.76469 4.24253 4.78258L4.24257 4.34336ZM8.74784 9.47125V10.3775C8.74784 10.7899 8.41233 11.1254 7.99995 11.1254C7.58757 11.1254 7.25206 10.7899 7.25206 10.3775V9.47125C7.4928 9.52543 7.74303 9.55426 7.99995 9.55426C8.25686 9.55426 8.5071 9.52543 8.74784 9.47125ZM6.66616 9.28164V10.3422H6.18386C5.11343 10.3422 4.24257 9.47133 4.24257 8.4009V7.61613C4.33085 7.63406 4.42217 7.64352 4.51565 7.64352H4.94065C5.29964 8.37535 5.91378 8.96004 6.66616 9.28164ZM3.73093 6.27285V6.1259C3.73093 5.6932 4.08296 5.34117 4.51565 5.34117H4.5946V6.14887C4.5946 6.46348 4.63768 6.76816 4.71788 7.05758H4.51565C4.08296 7.05758 3.73093 6.70555 3.73093 6.27285ZM7.70702 16.4563C7.70702 16.7886 7.43671 17.0589 7.10448 17.0589H5.93776V16.1183H6.15108C6.27577 16.1183 6.38682 16.0393 6.4278 15.9216L7.03745 14.1688C7.08557 14.0305 7.21628 13.9375 7.36268 13.9375C7.55253 13.9375 7.70698 14.092 7.70698 14.2819V16.4563H7.70702ZM10.0622 17.0589H8.89549C8.56323 17.0589 8.29292 16.7886 8.29292 16.4563V14.2819C8.29292 14.092 8.44737 13.9375 8.63721 13.9375C8.78362 13.9375 8.91432 14.0305 8.96241 14.1687L9.57206 15.9216C9.61303 16.0394 9.72409 16.1183 9.84878 16.1183H10.0621V17.0589H10.0622ZM13.9049 17.5531C13.628 17.8958 13.2164 18.0924 12.7758 18.0924H10.6482V16.1183H12.1434C12.3052 16.1183 12.4364 15.9871 12.4364 15.8253V15.0781C12.4364 14.9163 12.3052 14.7852 12.1434 14.7852C11.9816 14.7852 11.8504 14.9163 11.8504 15.0781V15.5323H10.3552H10.0571L9.51593 13.9762C9.38596 13.6027 9.03288 13.3516 8.63729 13.3516C8.39085 13.3516 8.16667 13.4482 8.00007 13.6052C7.83343 13.4482 7.60921 13.3516 7.36272 13.3516C6.96718 13.3516 6.61409 13.6026 6.48409 13.9762L5.94284 15.5323H5.64483H4.1496V12.5542C4.1496 12.3924 4.01842 12.2612 3.85663 12.2612C3.69483 12.2612 3.56366 12.3924 3.56366 12.5542V15.8253C3.56366 15.9871 3.69483 16.1183 3.85663 16.1183H5.35186V18.0924H3.22417C2.78358 18.0924 2.37206 17.8959 2.0951 17.5531C1.81815 17.2104 1.71241 16.7668 1.80487 16.336L2.68358 12.2431C2.8919 11.2728 3.70514 10.5454 4.6721 10.4249C5.09397 10.7408 5.61745 10.9281 6.18382 10.9281H6.78557C6.99565 11.3896 7.46077 11.7113 7.99995 11.7113C8.53913 11.7113 9.00425 11.3896 9.21432 10.9281H9.81608C10.3824 10.9281 10.9059 10.7408 11.3278 10.4249C12.2948 10.5454 13.108 11.2728 13.3163 12.2431L14.195 16.336C14.2876 16.7668 14.1818 17.2104 13.9049 17.5531Z" fill="white"/>
</svg>
