<svg width="20" height="12" viewBox="0 0 20 12" fill="none" xmlns="http://www.w3.org/2000/svg">
<path d="M18.7898 7.2509L17.4428 6.95156C17.2891 6.91742 17.1818 6.78363 17.1818 6.62621V5.45484C17.5711 5.01605 17.8081 4.43934 17.8081 3.80805V2.55555C17.8081 1.35805 16.8339 0.383789 15.6363 0.383789H15.0101C13.8126 0.383789 12.8383 1.35805 12.8383 2.55555V2.88883H12.154C12.1695 2.78152 12.1754 2.67266 12.1694 2.56254C12.1366 1.95277 11.6942 1.44426 11.0934 1.32582C10.7017 1.24863 10.3054 1.34445 10 1.57887C9.69461 1.34445 9.29824 1.24863 8.90656 1.32582C8.30582 1.44422 7.86332 1.95273 7.83055 2.56246C7.82461 2.67262 7.83051 2.78148 7.84594 2.88879H4.75781L5.19707 2.44953C5.31148 2.33512 5.31148 2.14961 5.19707 2.03523C5.08266 1.92082 4.89715 1.92082 4.78277 2.03523L3.84336 2.97465C3.72895 3.08906 3.72895 3.27457 3.84336 3.38895L4.78273 4.32832C4.83992 4.38551 4.91492 4.41414 4.98988 4.41414C5.06484 4.41414 5.13984 4.38555 5.19703 4.32832C5.31145 4.21391 5.31145 4.0284 5.19703 3.91402L4.75781 3.47477H6.57574V3.80805C6.57574 4.85512 5.72387 5.70699 4.6768 5.70699C3.62973 5.70699 2.77785 4.85512 2.77785 3.80805V2.55555C2.77785 1.68113 3.48922 0.969727 4.36367 0.969727H4.98992C5.6607 0.969727 6.26168 1.3943 6.48535 2.02625C6.53937 2.17879 6.70688 2.25871 6.8593 2.20469C7.01184 2.1507 7.09172 1.98328 7.03773 1.83074C6.73141 0.965274 5.90844 0.383789 4.98996 0.383789H4.36371C3.16621 0.383789 2.19195 1.35805 2.19195 2.55555V3.80805C2.19195 4.43934 2.42898 5.01602 2.8182 5.45484V6.62621C2.8182 6.78363 2.71086 6.91742 2.55723 6.95156L1.21027 7.2509C0.497656 7.40926 0 8.02965 0 8.75957V11.3232C0 11.485 0.131172 11.6161 0.292969 11.6161C0.454766 11.6161 0.585938 11.485 0.585938 11.3232V8.75957C0.585938 8.30637 0.894922 7.92117 1.33734 7.82285L2.6843 7.52352C3.10813 7.42934 3.4041 7.06035 3.4041 6.62617V5.94117C3.7766 6.16426 4.21191 6.29289 4.6768 6.29289C5.14168 6.29289 5.57695 6.16426 5.94949 5.94117V6.62617C5.94949 7.06035 6.24551 7.42934 6.6693 7.52352L8.01625 7.82285C8.45867 7.92117 8.76766 8.30637 8.76766 8.75957V11.3232C8.76766 11.485 8.89883 11.6161 9.06063 11.6161C9.22242 11.6161 9.35359 11.485 9.35359 11.3232V8.75957C9.35359 8.02961 8.85594 7.40922 8.14336 7.25086L6.79641 6.95152C6.64273 6.91738 6.53543 6.78359 6.53543 6.62617V5.4548C6.92465 5.01602 7.16168 4.4393 7.16168 3.80801V3.47473H8.02734C8.41082 4.29195 9.25262 4.95461 9.67988 5.25281C9.77562 5.31965 9.88781 5.35305 10 5.35305C10.1122 5.35305 10.2244 5.31965 10.3201 5.25281C10.7474 4.95461 11.5892 4.29199 11.9727 3.47473H15.2422L14.8029 3.91402C14.6885 4.02844 14.6885 4.21395 14.8029 4.32832C14.8601 4.38551 14.9351 4.41414 15.0101 4.41414C15.085 4.41414 15.16 4.38555 15.2172 4.32832L16.1566 3.38895C16.271 3.27453 16.271 3.08902 16.1566 2.97465L15.2172 2.03527C15.1028 1.92086 14.9173 1.92086 14.8029 2.03527C14.6885 2.14969 14.6885 2.3352 14.8029 2.44957L15.2422 2.88883H13.4243V2.55555C13.4243 1.68113 14.1357 0.969727 15.0101 0.969727H15.6363C16.5107 0.969727 17.2221 1.68113 17.2221 2.55555V3.80805C17.2221 4.85512 16.3703 5.70699 15.3232 5.70699C14.489 5.70699 13.7404 5.14918 13.5028 4.35051C13.4566 4.19543 13.2935 4.10699 13.1384 4.15324C12.9834 4.19938 12.895 4.3625 12.9412 4.51758C13.0463 4.87098 13.2281 5.18816 13.4646 5.45352V6.62621C13.4646 6.78363 13.3573 6.91742 13.2036 6.95156L11.8566 7.2509C11.1441 7.40926 10.6464 8.02965 10.6464 8.75961V11.3232C10.6464 11.485 10.7776 11.6162 10.9394 11.6162C11.1012 11.6162 11.2323 11.485 11.2323 11.3232V8.75961C11.2323 8.30641 11.5413 7.92121 11.9837 7.82289L13.3307 7.52355C13.7545 7.42938 14.0505 7.06039 14.0505 6.62621V5.93805C14.4278 6.16418 14.8655 6.29293 15.3232 6.29293C15.7881 6.29293 16.2234 6.1643 16.5959 5.94121V6.62621C16.5959 7.06039 16.8919 7.42938 17.3157 7.52355L18.6627 7.82289C19.1051 7.92121 19.4141 8.30637 19.4141 8.75957V11.3232C19.4141 11.485 19.5452 11.6161 19.707 11.6161C19.8688 11.6161 20 11.485 20 11.3232V8.75957C20 8.02965 19.5023 7.40926 18.7898 7.2509ZM10 4.76168C9.20469 4.20313 8.37531 3.34387 8.41566 2.59395C8.43402 2.25227 8.6825 1.96719 9.01988 1.9007C9.0732 1.8902 9.12621 1.88508 9.1784 1.88508C9.40922 1.88508 9.62367 1.98578 9.77215 2.16949C9.82777 2.23832 9.91152 2.27832 10 2.27832C10.0885 2.27832 10.1722 2.23832 10.2279 2.16949C10.4099 1.94422 10.6911 1.84375 10.9801 1.90074C11.3175 1.96723 11.566 2.2523 11.5843 2.59402C11.6246 3.34395 10.7953 4.20316 10 4.76168Z" fill="white"/>
</svg>
