<svg width="20" height="18" viewBox="0 0 20 18" fill="none" xmlns="http://www.w3.org/2000/svg">
<path d="M20 6.11002C20 4.51287 19.378 3.01146 18.2487 1.88231C17.1196 0.752854 15.6181 0.130859 14.0208 0.130859C12.6752 0.130859 11.3567 0.589768 10.3077 1.42301C10.3076 1.42305 10.3075 1.42309 10.3074 1.42317L10.3034 1.42629C10.1272 1.5659 9.87184 1.56579 9.69582 1.42575C8.6057 0.558791 7.23558 0.100039 5.83674 0.132656C5.67498 0.136484 5.54698 0.270743 5.5508 0.432501C5.55463 0.59426 5.68881 0.722463 5.85065 0.71844C7.11171 0.688284 8.3482 1.10262 9.33113 1.88434C9.39703 1.93676 9.46828 1.97958 9.54261 2.01415L9.3641 2.15208C9.23605 2.25102 9.21246 2.43501 9.31136 2.56306C9.3691 2.63778 9.45578 2.67692 9.5434 2.67692C9.60594 2.67692 9.66898 2.65696 9.7223 2.61579L10.6657 1.88688C10.6662 1.88649 10.6666 1.88606 10.6671 1.88563C10.6677 1.88516 10.6684 1.88477 10.6689 1.8843C11.6154 1.13145 12.8057 0.716838 14.0208 0.716838C15.4616 0.716838 16.8159 1.2779 17.8344 2.29665C18.853 3.31517 19.4141 4.66947 19.4141 6.11006C19.4141 7.55065 18.853 8.90507 17.8343 9.92375L12.8887 14.8693L12.8888 11.6912L13.8357 10.4544C14.3425 9.79242 14.2801 8.84859 13.6906 8.25902C13.3358 7.86659 12.7178 7.76355 12.1923 7.80194C11.9665 7.60351 11.6781 7.49354 11.3688 7.49058C11.0547 7.48835 10.7464 7.60038 10.5085 7.80194L10 8.28695L9.49156 7.80198C9.25375 7.6003 8.94546 7.48776 8.63121 7.49062C8.32199 7.49355 8.03355 7.60355 7.80777 7.80198C7.29011 7.7664 6.70034 7.84882 6.30948 8.25906C5.71991 8.84859 5.65752 9.79238 6.16436 10.4544L7.24335 11.8638C7.8748 12.7342 9.29242 12.7784 10 11.9119C10.5384 12.5505 11.5497 12.7705 12.3029 12.2783V13.7325H7.69714V13.2834C7.69714 13.1216 7.56597 12.9904 7.40417 12.9904C7.24237 12.9904 7.1112 13.1216 7.1112 13.2834L7.11132 14.8693L2.16579 9.92379C1.147 8.9046 0.58594 7.55022 0.58594 6.11018C0.58594 4.66974 1.147 3.3154 2.16579 2.29661C2.78079 1.68149 3.54162 1.2202 4.36592 0.96266C4.52037 0.914417 4.60642 0.750081 4.55818 0.595627C4.5099 0.441173 4.34564 0.355196 4.19115 0.40336C3.27677 0.689065 2.43313 1.20047 1.75141 1.88227C0.621995 3.01173 0 4.51322 0 6.11018C0 7.70675 0.621995 9.2082 1.75145 10.338L8.78586 17.3724C9.41621 18.0163 10.5469 18.0516 11.2143 17.3724L18.2487 10.338C19.378 9.20871 20 7.70714 20 6.11002ZM13.2763 8.67335C13.6589 9.05597 13.6994 9.66855 13.3704 10.0982L13.0056 10.5748L12.1714 9.74051L12.2512 9.6607C12.5926 9.31929 12.6986 8.8246 12.5679 8.38792C12.7866 8.38222 13.0816 8.4771 13.2763 8.67335ZM8.63675 8.07655C8.83039 8.0748 9.01886 8.15132 9.15422 8.28667L9.5857 8.71816L8.61027 9.69359L8.1632 9.2464C7.89933 8.98253 7.89511 8.54929 8.15378 8.28062C8.27878 8.15077 8.45031 8.07831 8.63675 8.07655ZM6.72382 8.67335C6.87675 8.5162 7.16452 8.38038 7.43222 8.38792C7.30143 8.82457 7.40745 9.31925 7.74886 9.66066L7.82866 9.74051L6.9944 10.5748L6.6296 10.0982C6.30069 9.66855 6.34116 9.05601 6.72382 8.67335ZM8.558 11.9625C8.22257 11.9404 7.91296 11.7746 7.70858 11.5076L7.35374 11.0441L8.24296 10.1549L8.40312 10.3151C8.45804 10.37 8.53257 10.4009 8.61027 10.4009C8.68796 10.4009 8.7625 10.37 8.81742 10.3151L10.8458 8.28663C10.9812 8.15128 11.1693 8.07445 11.3633 8.07652C11.5497 8.07827 11.7213 8.15073 11.8463 8.28058C12.1049 8.54925 12.1007 8.9825 11.8368 9.24636L9.45988 11.6234C9.22218 11.8611 8.89339 11.9845 8.558 11.9625ZM11.4421 11.9625C11.0764 11.9968 10.668 11.7965 10.4143 11.4976L11.757 10.1548L12.6463 11.0441L12.2915 11.5076C12.0871 11.7745 11.7775 11.9404 11.4421 11.9625ZM7.6973 14.3185H12.3028V15.4553L10.7999 16.9581C10.6544 17.1036 10.4787 17.2008 10.2929 17.2503V15.1201C10.2929 14.9583 10.1617 14.8272 9.99988 14.8272C9.83809 14.8272 9.70691 14.9583 9.70691 15.1201V17.2503C9.57586 17.2149 9.35457 17.1146 9.20019 16.9582L7.6973 15.4553V14.3185Z" fill="white"/>
<path d="M9.99992 7.2893C11.0402 7.2893 11.8866 6.44293 11.8866 5.40266V4.73066C11.8866 3.85766 11.1763 3.14746 10.3034 3.14746H9.69648C8.82348 3.14746 8.11328 3.8577 8.11328 4.73066V5.40266C8.11324 6.44297 8.95961 7.2893 9.99992 7.2893ZM8.69918 4.73066C8.69918 4.18074 9.14656 3.7334 9.69645 3.7334H10.3033C10.8532 3.7334 11.3006 4.18078 11.3006 4.73066V5.40266C11.3006 6.11988 10.7171 6.70336 9.99988 6.70336C9.2827 6.70336 8.69918 6.11984 8.69918 5.40266V4.73066Z" fill="white"/>
<path d="M14.081 5.24707C13.9192 5.24707 13.788 5.37824 13.788 5.54004V5.72551H13.6025C13.4407 5.72551 13.3096 5.85668 13.3096 6.01848C13.3096 6.18027 13.4407 6.31145 13.6025 6.31145H13.788V6.49691C13.788 6.65871 13.9192 6.78988 14.081 6.78988C14.2428 6.78988 14.3739 6.65871 14.3739 6.49691V6.31145H14.5594C14.7212 6.31145 14.8524 6.18027 14.8524 6.01848C14.8524 5.85668 14.7212 5.72551 14.5594 5.72551H14.3739V5.54004C14.3739 5.37824 14.2428 5.24707 14.081 5.24707Z" fill="white"/>
<path d="M15.272 5.30762C15.4338 5.30762 15.5649 5.17645 15.5649 5.01465C15.5649 4.85285 15.4338 4.72168 15.272 4.72168C15.1102 4.72168 14.979 4.85285 14.979 5.01465C14.979 5.17645 15.1102 5.30762 15.272 5.30762Z" fill="white"/>
</svg>
