<svg width="20" height="20" viewBox="0 0 20 20" fill="none" xmlns="http://www.w3.org/2000/svg">
<path d="M2.49422 5.54773H8.4307L9.66809 6.78512C9.7534 6.87039 9.86656 6.91555 9.98203 6.91555C10.0394 6.91555 10.0973 6.90441 10.1526 6.88148C10.3194 6.81242 10.4271 6.65117 10.4271 6.47074V5.48523C10.8852 5.32746 11.2051 4.88945 11.2051 4.39531V1.15242C11.2051 0.516953 10.6881 0 10.0527 0H2.49422C1.85875 0 1.3418 0.516953 1.3418 1.15242V1.38922C1.3418 1.55105 1.47293 1.68219 1.63477 1.68219C1.7966 1.68219 1.92773 1.55105 1.92773 1.38922V1.15242C1.92773 0.840078 2.18187 0.585938 2.49422 0.585938H10.0527C10.365 0.585938 10.6191 0.840078 10.6191 1.15242V4.39531C10.6191 4.66152 10.4305 4.89457 10.1705 4.94945C9.97965 4.98969 9.84113 5.16152 9.84113 5.35801V6.12953L8.79605 5.08449C8.71711 5.00539 8.61199 4.9618 8.5002 4.9618H2.49422C2.18187 4.9618 1.92773 4.70766 1.92773 4.39531V2.76129C1.92773 2.59945 1.7966 2.46832 1.63477 2.46832C1.47293 2.46832 1.3418 2.59945 1.3418 2.76129V4.39531C1.3418 5.03074 1.85875 5.54773 2.49422 5.54773Z" fill="white"/>
<path d="M19.707 13.5132C19.8689 13.5132 20 13.3821 20 13.2202V12.9947C20 12.0949 19.397 11.2895 18.5336 11.0359L16.9452 10.5696C16.8994 10.5276 16.8466 10.4927 16.7883 10.4668L16.4571 10.3192C16.3688 10.2799 16.2754 10.26 16.1822 10.2588V9.56168C16.7015 9.1784 17.0641 8.59215 17.1482 7.91703C17.4108 7.84285 17.6037 7.60113 17.6037 7.31523V5.21867C17.6037 4.72766 17.2188 4.32484 16.7348 4.29617C16.695 3.82301 16.2971 3.4502 15.8139 3.4502H13.6388C12.6762 3.4502 11.8931 4.23328 11.8931 5.19582V7.31523C11.8931 7.60117 12.086 7.84289 12.3486 7.91707C12.4329 8.59211 12.7954 9.17832 13.3146 9.5616V10.2576C13.2223 10.2594 13.1298 10.2795 13.0427 10.3186L12.7179 10.4644C12.66 10.4904 12.6077 10.5252 12.5622 10.567L10.9641 11.036C10.1007 11.2894 9.49762 12.0949 9.49762 12.9948V14.5858C9.29391 14.4193 9.0568 14.293 8.79781 14.217C8.77207 14.2094 8.92219 14.2397 6.51684 13.7812V13.7749C6.89687 13.705 7.2723 13.6062 7.63934 13.4788C8.45273 13.1964 8.98215 12.3597 8.56766 10.9771C8.43059 10.5199 8.36105 10.0461 8.3609 9.5677C8.36035 7.77832 6.90418 6.32262 5.1148 6.32262C3.32547 6.32262 1.86926 7.77836 1.86867 9.56895C1.86852 10.0462 1.79898 10.52 1.66195 10.9771C1.25176 12.3457 1.76477 13.1922 2.59023 13.4788C2.95699 13.6062 3.33211 13.7048 3.71184 13.7748C1.31684 14.2384 1.45703 14.2096 1.43191 14.217C0.588828 14.4644 0 15.2509 0 16.1296V18.8956C0 19.5072 0.495352 19.9996 1.10398 19.9996H1.10625C1.11129 19.9996 18.891 19.9817 18.8961 19.9817C19.5048 19.9817 20 19.4864 20 18.8777V14.5898C20 14.428 19.8689 14.2969 19.7071 14.2969C19.5452 14.2969 19.4141 14.428 19.4141 14.5898V15.2675H15.9896L15.4713 12.9564L15.7517 12.4538C15.863 12.4323 15.9696 12.3791 16.0577 12.2945L16.958 11.4177C17.0157 11.3615 17.0602 11.295 17.0901 11.2228L18.3686 11.5982C18.9841 11.7789 19.4141 12.3532 19.4141 12.9947V13.2202C19.4141 13.3821 19.5452 13.5132 19.707 13.5132ZM12.4791 5.19578C12.4791 4.55633 12.9993 4.03609 13.6388 4.03609H15.8139C16.0004 4.03609 16.1521 4.18781 16.1521 4.3743C16.1521 4.6534 16.3791 4.88043 16.6582 4.88043H16.6795C16.866 4.88043 17.0177 5.03215 17.0177 5.21863V6.30398H16.8745C16.7939 6.30398 16.7283 6.2384 16.7283 6.15777V5.91742C16.7283 5.39977 16.22 5.03852 15.7343 5.19902C15.0988 5.40906 14.3988 5.4091 13.7624 5.19891C13.2723 5.03691 12.7685 5.40125 12.7685 5.91734V6.15777C12.7685 6.2384 12.7029 6.30398 12.6223 6.30398H12.4791V5.19578H12.4791ZM12.9195 7.73211C12.906 7.52039 12.7298 7.35453 12.5184 7.35453C12.4966 7.35453 12.479 7.33688 12.479 7.3152V6.88992H12.6222C13.0259 6.88992 13.3544 6.56148 13.3544 6.15777V5.91734C13.3544 5.80133 13.467 5.71852 13.5794 5.75551C14.3336 6.00469 15.1641 6.00461 15.9182 5.75535C16.0287 5.71863 16.1423 5.80094 16.1423 5.91738V6.15773C16.1423 6.56145 16.4708 6.88988 16.8745 6.88988H17.0177V7.31516C17.0177 7.33684 17 7.35449 16.9783 7.35449C16.7669 7.35449 16.5907 7.52035 16.5773 7.73219C16.5166 8.69434 15.7132 9.44805 14.7483 9.44805C13.7835 9.44809 12.9802 8.69438 12.9195 7.73211ZM14.9889 12.6184H14.5029L14.3142 12.2944L14.7706 11.9132L15.1848 12.2673L14.9889 12.6184ZM15.389 15.2675H14.1062L14.5689 13.2043H14.9263L15.389 15.2675ZM14.7696 11.1615L13.9005 10.5121V9.88023C14.165 9.97969 14.4509 10.034 14.7484 10.034C15.0459 10.034 15.3318 9.97969 15.5963 9.88023V10.5214L14.7696 11.1615ZM13.2828 10.853C13.3194 10.8365 13.3621 10.8413 13.3944 10.8654C13.6851 11.0826 13.8797 11.228 14.3004 11.5424L13.8793 11.8941C13.8772 11.8959 13.8748 11.8971 13.8723 11.8977C13.8711 11.8979 13.8698 11.8981 13.8686 11.8983C13.8641 11.8984 13.8596 11.897 13.8561 11.8938L12.9611 10.9975L13.2828 10.853ZM2.78246 12.9253C2.04188 12.6681 1.99898 11.8932 2.22332 11.1453C2.37668 10.6336 2.45453 10.1033 2.45469 9.56785C2.4552 8.10148 3.64852 6.90852 5.11488 6.90852C6.58125 6.90852 7.77457 8.10148 7.77504 9.56906C7.7752 10.1032 7.85305 10.6336 8.00644 11.1453C8.23074 11.8934 8.18781 12.6682 7.44727 12.9253C5.9432 13.4474 4.28652 13.4475 2.78246 12.9253ZM5.93094 13.8597V13.9633C5.60996 14.6539 4.61426 14.651 4.29793 13.957V13.8596C4.8343 13.9164 5.3816 13.9178 5.93094 13.8597ZM9.64375 19.3206C9.64375 19.3612 9.61184 19.3943 9.57109 19.396C9.57008 19.396 9.56906 19.3961 9.56805 19.3961C9.56785 19.3961 9.56766 19.3961 9.56746 19.3962C9.56531 19.3963 9.56309 19.3964 9.56078 19.3965L1.10504 19.4136H1.10402C0.81875 19.4136 0.585938 19.1829 0.585938 18.8956V16.1296C0.585938 15.5136 0.99582 14.9618 1.58438 14.7829L3.84121 14.3464C4.40902 15.3058 5.8182 15.3029 6.38676 14.3529L8.64586 14.783C9.25098 14.967 9.64375 15.5234 9.64375 16.1295V19.3206ZM10.0836 12.9948C10.0836 12.3532 10.5136 11.7789 11.1292 11.5982L12.4178 11.22C12.4467 11.2896 12.4891 11.354 12.544 11.4089L13.4438 12.3101C13.4448 12.3111 13.4458 12.3121 13.4468 12.313C13.5306 12.3946 13.6321 12.4473 13.7389 12.4707L14.0234 12.9593L13.5058 15.2674H10.0836V12.9948ZM19.4141 15.8534V18.8777C19.4141 19.1633 19.1817 19.3957 18.896 19.3957H10.2255C10.2283 19.3711 10.2297 19.346 10.2297 19.3206V16.1296C10.2297 16.0369 10.2232 15.9447 10.2105 15.8535C11.4964 15.8534 17.3887 15.8534 19.4141 15.8534ZM15.6503 11.8733C15.6468 11.8766 15.6424 11.8783 15.638 11.8783C15.6357 11.8778 15.6334 11.8773 15.6311 11.8769C15.6294 11.8762 15.6278 11.8753 15.6263 11.874L15.2367 11.5409L16.1057 10.868C16.138 10.8429 16.1813 10.8378 16.2186 10.8544L16.5465 11.0005L15.6503 11.8733Z" fill="white"/>
</svg>
