<svg width="20" height="18" viewBox="0 0 20 18" fill="none" xmlns="http://www.w3.org/2000/svg">
<path d="M19.5737 3.43447C17.8294 -0.73199 12.1183 -0.923389 10 2.93069C8.36623 -0.0419359 4.41219 -0.711913 1.91896 1.39118C1.79525 1.49547 1.77959 1.68031 1.88392 1.80398C1.98821 1.92764 2.17305 1.94331 2.29672 1.83901C4.65495 -0.150096 8.37791 0.682999 9.66337 3.56946L7.15131 6.82958C6.70273 7.40733 7.0005 8.40269 8.32607 8.40261C8.7945 8.40257 9.33655 8.2766 10.082 7.71428L12.2665 6.03078L13.9698 7.72689C14.0844 7.84107 14.2699 7.84068 14.3841 7.72603C14.4982 7.61139 14.4978 7.42589 14.3832 7.31175L13.0975 6.0314C13.5894 6.04644 14.2437 6.00016 14.9456 5.76712C15.0992 5.71614 15.1824 5.55033 15.1314 5.39678C15.0804 5.24323 14.9146 5.16007 14.761 5.21104C13.9339 5.48564 12.9866 5.5026 12.3574 5.35686C12.2686 5.33631 12.1796 5.35823 12.1124 5.4099C10.21 6.84239 9.41069 7.62061 8.72329 7.77295C8.24221 7.87954 7.81 7.7783 7.64758 7.62885C7.52493 7.51596 7.51021 7.32273 7.61477 7.18808C10.4101 3.55884 10.2481 3.78035 10.2716 3.72231C11.8488 -0.178611 17.3886 -0.267475 19.0333 3.66071C19.7883 5.46416 19.4112 7.44362 18.0508 8.82478L16.9782 9.89572L15.288 8.21266C15.1733 8.09852 14.9878 8.09883 14.8737 8.21352C14.7595 8.32816 14.7599 8.51366 14.8746 8.6278L17.1058 10.8497C17.4111 11.155 17.4111 11.6517 17.1058 11.9571C16.8006 12.2623 16.304 12.2623 15.9987 11.9572L12.1027 8.05512C11.9884 7.94064 11.8029 7.94052 11.6884 8.05481C11.5739 8.16914 11.5738 8.3546 11.6881 8.46913L15.5842 12.3714C15.8895 12.6767 15.8895 13.1734 15.5842 13.4787C15.2783 13.7846 14.7832 13.7848 14.477 13.4789C14.477 13.4789 14.477 13.4789 14.477 13.4789L10.5811 9.57683C10.4668 9.4623 10.2813 9.46222 10.1668 9.57652C10.0523 9.69085 10.0521 9.87631 10.1664 9.99084L14.0626 13.893C14.3678 14.1983 14.3679 14.6951 14.0626 15.0004C13.7572 15.3057 13.2605 15.3057 12.9565 15.0017L12.4995 14.539C12.45 13.7122 11.6749 13.114 10.8622 13.28C10.9033 12.4157 10.1536 11.7529 9.33182 11.8528C9.4358 10.9523 8.65919 10.2118 7.78316 10.3352C7.90664 9.08743 6.41302 8.32457 5.4827 9.20235L3.86061 10.7328L1.95106 8.82662C0.234524 7.08387 0.202103 4.5354 1.48784 2.72082C1.58139 2.58879 1.55018 2.40595 1.41815 2.3124C1.28617 2.21888 1.10328 2.25001 1.00973 2.38208C-0.436508 4.42326 -0.387212 7.28765 1.53522 9.23946L3.43906 11.1401C2.61909 12.0876 3.40738 13.5636 4.66339 13.3901C4.57476 14.2687 5.31974 14.9922 6.18931 14.8881C6.07967 15.8179 6.90573 16.576 7.82008 16.3921C7.75848 17.6352 9.26464 18.3127 10.1514 17.4317C12.0496 15.6055 12.1732 15.6083 12.3603 15.232L12.5408 15.4147C13.4573 16.3313 15.0199 15.5721 14.8671 14.284C15.7591 14.3895 16.4928 13.6352 16.3886 12.7616C17.673 12.9148 18.4393 11.3546 17.5196 10.435L17.3933 10.3091C17.9434 9.64585 19.5571 8.64381 19.9289 6.40116C20.0936 5.40861 19.9707 4.38275 19.5737 3.43447ZM3.9208 12.5886C3.61644 12.2842 3.6155 11.7895 3.91807 11.484L5.88468 9.62847C6.19474 9.33594 6.67367 9.34289 6.97511 9.64433C7.28736 9.95658 7.2799 10.4639 6.95882 10.7669L5.03432 12.5827C4.67691 12.9202 4.20224 12.87 3.9208 12.5886ZM5.47157 14.0837C5.1854 13.7975 5.14455 13.317 5.47559 12.9718C7.05514 11.4808 7.37802 11.1777 7.4354 11.1235C7.74547 10.831 8.2244 10.838 8.52583 11.1393C8.83742 11.451 8.83125 11.9583 8.50955 12.2619C6.20377 14.4376 6.63496 14.0276 6.57895 14.0837C6.27361 14.3889 5.77691 14.389 5.47157 14.0837ZM9.74642 17.0082C9.74434 17.0102 9.74231 17.0122 9.74032 17.0142C9.43436 17.3201 8.93898 17.3202 8.63294 17.0142C8.32858 16.7098 8.32764 16.2151 8.6302 15.9096L9.04398 15.5192C9.16167 15.4081 9.16706 15.2227 9.05601 15.105C8.945 14.9873 8.75957 14.982 8.64188 15.093L8.10198 15.6047C7.79598 15.9107 7.30068 15.9107 6.99464 15.6047C6.70648 15.3166 6.66953 14.8345 6.99831 14.4933C8.17354 13.384 8.08608 13.4679 8.95851 12.6446C9.26858 12.352 9.74755 12.359 10.0489 12.6604C10.3519 12.9634 10.3558 13.4523 10.0548 13.7599L9.57463 14.213C9.45693 14.324 9.45154 14.5094 9.56259 14.6271C9.67365 14.7448 9.85907 14.7502 9.97672 14.6391C9.9807 14.6354 10.5925 14.0582 10.5968 14.054C10.9069 13.7615 11.3858 13.7684 11.6872 14.0699C12.0001 14.3827 11.9914 14.8901 11.671 15.1924L9.74642 17.0082Z" fill="white"/>
</svg>
