<svg width="17" height="20" viewBox="0 0 17 20" fill="none" xmlns="http://www.w3.org/2000/svg">
<path d="M14.5939 12.9771C13.681 12.1933 12.4232 11.6514 10.9359 11.3976C11.815 10.6545 12.497 9.65527 12.7773 8.66519C13.0661 8.60976 13.36 8.45168 13.5974 8.2175C13.8852 7.93355 14.0503 7.57754 14.0503 7.24066V6.79113C14.0503 6.37867 13.7147 6.04308 13.3022 6.04308H12.9163V5.53656C13.042 5.46504 13.1616 5.37773 13.2742 5.27121C13.2821 5.26379 13.2895 5.25594 13.2964 5.24773C13.7467 4.71644 14.0677 3.83406 14.1552 2.88738C14.245 1.91449 14.0825 1.06125 13.7092 0.546404C13.3164 0.00448983 12.7228 -0.140276 12.0379 0.138748C11.157 0.497263 10.0018 0.526404 8.88469 0.554568C7.72442 0.583826 6.52461 0.61406 5.54359 1.0025C5.39316 1.06207 5.31949 1.2323 5.37906 1.38273C5.43863 1.53316 5.60887 1.60679 5.7593 1.54726C6.64348 1.19719 7.79035 1.16828 8.89942 1.14031C10.0691 1.11086 11.2787 1.08035 12.2589 0.681404C12.6932 0.504529 13.0033 0.570857 13.2349 0.890349C13.8498 1.73844 13.642 3.91644 12.86 4.85633C12.1817 5.48105 10.9809 5.16285 9.5918 4.79476C7.91024 4.34918 5.84781 3.80265 3.92758 4.77949C3.96703 3.56816 4.26508 2.70043 4.83348 2.13605C4.94828 2.02207 4.94895 1.83656 4.83492 1.72176C4.72094 1.60695 4.53543 1.60633 4.42063 1.72031C3.65727 2.47828 3.30371 3.6457 3.33969 5.28902V6.04312H2.95383C2.54133 6.04312 2.20574 6.37871 2.20574 6.79117V7.2407C2.20574 7.57781 2.37078 7.93394 2.65859 8.21785C2.8959 8.45195 3.18984 8.60996 3.47879 8.66531C3.75906 9.65527 4.44086 10.6543 5.31973 11.3974C3.9741 11.6266 2.80547 12.0945 1.92012 12.7636C1.79102 12.8611 1.76547 13.0448 1.86305 13.1739C1.92066 13.2501 2.00828 13.2902 2.09699 13.2902C2.15852 13.2902 2.22055 13.2709 2.2734 13.231C3.10543 12.6022 4.22184 12.1655 5.5168 11.9584V12.2743C5.5168 13.4229 6.87109 13.946 8.12938 13.946C8.7816 13.946 9.39414 13.8121 9.85418 13.5689C10.4199 13.2698 10.7315 12.812 10.7315 12.2798V11.9577C13.8273 12.449 15.6636 14.1677 15.6636 16.6002V19.0781C15.6636 19.2916 15.5827 19.4141 15.4416 19.4141H13.108V16.8071C13.108 16.6454 12.9768 16.5142 12.815 16.5142C12.6532 16.5142 12.522 16.6454 12.522 16.8071V19.4141H3.49273V16.8071C3.49273 16.6454 3.36156 16.5142 3.19977 16.5142C3.03797 16.5142 2.9068 16.6454 2.9068 16.8071V19.4141H0.807851C0.666797 19.4141 0.585899 19.2916 0.585899 19.0781V16.6001C0.585899 15.6304 0.869453 14.775 1.42871 14.0575C1.5282 13.9299 1.50539 13.7459 1.37777 13.6464C1.2502 13.5469 1.06605 13.5697 0.966602 13.6973C0.325195 14.5201 0 15.4968 0 16.6001V19.0781C0 19.7115 0.418789 20 0.807891 20H15.4417C15.8308 20 16.2496 19.7115 16.2496 19.0781V16.6001C16.2496 15.1599 15.6771 13.9071 14.5939 12.9771ZM12.9164 7.71898V6.62898H13.3023C13.3902 6.62898 13.4644 6.70324 13.4644 6.79109V7.24062C13.4644 7.4191 13.3603 7.62832 13.1859 7.80031C13.0995 7.88562 13.002 7.95574 12.9025 8.00691C12.9115 7.91019 12.9164 7.8141 12.9164 7.71898ZM3.07016 7.8007C2.89582 7.62871 2.79176 7.41937 2.79176 7.24066V6.79113C2.79176 6.70328 2.86602 6.62902 2.95391 6.62902H3.33977V7.71902C3.33977 7.81429 3.34469 7.91051 3.35375 8.00738C3.25414 7.95617 3.15668 7.88601 3.07016 7.8007ZM10.1456 12.2797C10.1456 12.5931 9.95543 12.8525 9.58039 13.0508C9.20867 13.2473 8.67984 13.36 8.12941 13.36C7.1223 13.36 6.10273 12.987 6.10273 12.2742V11.9568C6.35996 12.1096 6.6268 12.2398 6.89981 12.3415C7.35188 12.5105 7.74195 12.5893 8.1275 12.5893C8.51383 12.5893 8.90426 12.5105 9.35598 12.3416C9.62633 12.2409 9.89067 12.1122 10.1456 11.9613V12.2797H10.1456ZM9.15109 11.7927C8.7668 11.9364 8.44152 12.0033 8.12754 12.0033C7.81426 12.0033 7.48938 11.9364 7.10477 11.7926C5.63309 11.2441 4.3191 9.7348 3.99992 8.3389C3.99805 8.32922 3.99574 8.31969 3.99297 8.31035C3.94898 8.10965 3.92574 7.91144 3.92574 7.71894V5.45019C5.71762 4.37453 7.69348 4.89781 9.44184 5.36109C10.3037 5.58949 11.1008 5.80074 11.7957 5.8007C11.9816 5.8007 12.16 5.78519 12.3305 5.75125V7.71894C12.3305 7.91129 12.3073 8.10933 12.2634 8.30988C12.2605 8.31945 12.2581 8.32918 12.2562 8.33914C11.9369 9.73496 10.6229 11.2441 9.15109 11.7927Z" fill="white"/>
</svg>
