<svg width="20" height="20" viewBox="0 0 20 20" fill="none" xmlns="http://www.w3.org/2000/svg">
<g clip-path="url(#clip0_232_3294)">
<path d="M3.20357 1.9384H9.10154C9.26334 1.9384 9.39447 1.80727 9.39447 1.64547C9.39447 1.48367 9.2633 1.35254 9.10154 1.35254H3.20357C3.04178 1.35254 2.91064 1.48367 2.91064 1.64547C2.91064 1.80727 3.04178 1.9384 3.20357 1.9384Z" fill="white"/>
<path d="M3.20357 3.2675H6.39342C6.55521 3.2675 6.68635 3.13637 6.68635 2.97457C6.68635 2.81277 6.55518 2.68164 6.39342 2.68164H3.20357C3.04178 2.68164 2.91064 2.81277 2.91064 2.97457C2.91064 3.13637 3.04178 3.2675 3.20357 3.2675Z" fill="white"/>
<path d="M11.9062 3.01848H17.01C17.1718 3.01848 17.3029 2.88734 17.3029 2.72555C17.3029 2.56375 17.1718 2.43262 17.01 2.43262H11.9062C11.7444 2.43262 11.6133 2.56375 11.6133 2.72555C11.6132 2.88734 11.7444 3.01848 11.9062 3.01848Z" fill="white"/>
<path d="M11.9062 4.1552H14.4581C14.6199 4.1552 14.751 4.02406 14.751 3.86227C14.751 3.70047 14.6198 3.56934 14.4581 3.56934H11.9062C11.7444 3.56934 11.6133 3.70047 11.6133 3.86227C11.6132 4.02406 11.7444 4.1552 11.9062 4.1552Z" fill="white"/>
<path d="M19.7309 17.0427C19.6727 16.8918 19.503 16.8166 19.3522 16.8748C19.2012 16.9331 19.1261 17.1027 19.1843 17.2536C19.3313 17.6345 19.4058 18.0358 19.4058 18.4462V19.108C19.4058 19.2767 19.2686 19.4139 19.0998 19.4139H11.0208C11.0558 19.3185 11.0749 19.2154 11.0749 19.108V18.4462C11.0749 17.625 10.8174 16.8533 10.3731 16.2162C10.6605 15.8999 11.0065 15.6415 11.3904 15.4568C12.9753 17.5251 15.9425 17.5301 17.5321 15.4596C17.898 15.6358 18.2249 15.8759 18.5062 16.1754C18.617 16.2933 18.8023 16.2991 18.9203 16.1884C19.0382 16.0775 19.044 15.8922 18.9332 15.7743C18.5444 15.3604 18.0527 15.0205 17.4868 14.8029C17.7314 14.6412 17.937 14.4203 18.0848 14.1515C18.3714 13.6304 18.3946 13.0223 18.1485 12.4836L18.1395 12.4639C18.0123 12.19 17.9308 11.8941 17.8957 11.5837C18.0686 11.2609 18.0687 10.8595 17.8754 10.5286L17.8753 10.2657C17.8753 8.38152 16.3424 6.84863 14.4582 6.84863C12.574 6.84863 11.0411 8.38152 11.0411 10.2656L11.0409 10.5975C10.8945 10.8955 10.8976 11.2356 11.0268 11.5204C10.9962 11.854 10.9127 12.1712 10.7766 12.4645L10.768 12.4832C10.371 13.3521 10.7057 14.3243 11.4296 14.8028C10.8676 15.0189 10.3872 15.3498 9.99887 15.7584C9.4532 15.1838 8.73207 14.7714 7.90914 14.6131L7.83562 14.5989C7.78555 14.4782 7.71059 14.3675 7.61312 14.2751L7.33019 14.0065C7.3718 13.9735 7.41309 13.9396 7.45367 13.9039C7.90727 13.5052 8.19777 12.9383 8.27332 12.3184C8.61844 12.2632 8.88242 11.9607 8.88094 11.5986L8.87891 10.6749C8.87852 10.582 8.86059 10.4915 8.8266 10.4069C8.84383 10.3453 8.85344 10.2809 8.85344 10.2148V8.8282C8.85344 8.2768 8.41121 7.82672 7.86281 7.81402C7.83711 7.27762 7.39191 6.84863 6.84957 6.84863H4.55324C3.37141 6.84863 2.40992 7.81012 2.40992 8.99195V10.2148C2.40992 10.2425 2.41207 10.2697 2.41516 10.2967C2.27777 10.4588 2.20164 10.6637 2.2018 10.8819L2.20223 11.4402C2.20254 11.9029 2.55035 12.2857 2.99812 12.3413C3.07891 12.9604 3.3741 13.5246 3.8309 13.9193C3.83324 13.9214 3.83566 13.9232 3.83805 13.9253L3.46965 14.275C3.37223 14.3675 3.29723 14.4781 3.24715 14.5989L3.17359 14.6131C1.33922 14.9662 0.0078125 16.5782 0.0078125 18.4462V19.108C0.0078125 19.5998 0.40793 19.9998 0.899727 19.9998H19.0998C19.5916 19.9998 19.9917 19.5998 19.9917 19.108V18.4462C19.9917 17.9634 19.904 17.4912 19.7309 17.0427ZM11.9707 15.2426C12.0472 15.222 12.124 15.2033 12.2011 15.1885C12.6126 15.1093 12.4262 15.1452 12.8564 15.0623C13.2776 14.9777 13.5825 14.6061 13.5825 14.1758V13.8165C13.8583 13.9233 14.154 13.9798 14.4582 13.9798C14.7623 13.9798 15.058 13.9234 15.3338 13.8165V14.1758C15.3338 14.606 15.6387 14.9777 16.0597 15.0623C16.2236 15.0939 16.7096 15.1874 16.7152 15.1885C16.7946 15.2038 16.8736 15.223 16.9523 15.2444C15.6095 16.8193 13.3121 16.818 11.9707 15.2426ZM12.0138 11.5708C11.7377 11.5708 11.5164 11.3466 11.5164 11.0733C11.5165 10.7991 11.7396 10.576 12.0138 10.576H12.036V11.5708H12.0138V11.5708ZM12.6219 11.5872V10.446C12.6219 10.2251 12.8016 10.0455 13.0224 10.0455H13.9577C14.3537 10.0455 14.7402 9.88363 15.0181 9.60148C15.4841 9.1284 16.2945 9.46055 16.2945 10.1245V11.5873C16.2782 12.5837 15.4549 13.3939 14.4582 13.3939C13.4614 13.3939 12.6381 12.5836 12.6219 11.5872ZM16.9396 10.576C17.2138 10.576 17.437 10.799 17.437 11.0732C17.4371 11.3464 17.2162 11.5707 16.9396 11.5707H16.8804V10.5759H16.9396V10.576ZM17.5714 13.8691C17.3779 14.2209 17.0411 14.4538 16.6473 14.5079C16.3936 14.5427 16.3537 14.5231 16.1779 14.4884C16.0283 14.4597 15.9197 14.3282 15.9197 14.1758V13.4889C16.3669 13.1491 16.6728 12.6802 16.8056 12.1567H16.9396C17.0958 12.1567 17.2468 12.1236 17.385 12.0612C17.4378 12.2859 17.5117 12.5031 17.6077 12.71L17.6154 12.7267C17.7839 13.0955 17.7678 13.512 17.5714 13.8691ZM14.4582 7.43457C15.945 7.43457 17.1669 8.5868 17.28 10.0452C17.1728 10.0096 17.0585 9.99012 16.9396 9.99012H16.8736C16.7605 8.86785 15.3871 8.39211 14.6007 9.19035C14.6007 9.19039 14.6007 9.19039 14.6007 9.19039C14.4321 9.36148 14.1978 9.45961 13.9577 9.45961H13.0224C12.6429 9.45961 12.313 9.67516 12.1481 9.99012H12.0138C11.8807 9.99012 11.7532 10.0144 11.6354 10.0585C11.742 8.59387 12.9668 7.43457 14.4582 7.43457ZM11.3011 12.7262L11.3084 12.7106C11.4069 12.4983 11.482 12.2757 11.535 12.0454C11.6821 12.118 11.845 12.1566 12.0138 12.1566H12.1107C12.2434 12.6797 12.549 13.1488 12.9966 13.4888V14.1757C12.9966 14.5195 12.6012 14.5003 12.5415 14.5263C12.4512 14.5244 12.3825 14.5234 12.269 14.5079C11.4387 14.3938 10.9486 13.4981 11.3011 12.7262ZM7.27777 15.7079C7.26828 15.8666 7.12215 15.9805 6.96562 15.9509L6.19676 15.8044L6.61742 15.4461C6.88215 15.2207 7.03781 14.8889 7.04492 14.5435C7.15621 14.6647 7.28875 14.7256 7.31734 14.9039C7.31734 14.9039 7.31734 14.9039 7.31738 14.904C7.32836 14.9728 7.32019 14.9528 7.27777 15.7079ZM2.99582 8.99195C2.99582 8.13316 3.69449 7.43453 4.55324 7.43453H6.84957C7.08523 7.43453 7.27746 7.62625 7.27809 7.86191C7.27891 8.15844 7.51785 8.39965 7.81074 8.39965H7.83902C8.07531 8.39965 8.26754 8.59188 8.26754 8.8282V10.2148C8.26754 10.2696 8.23098 10.3194 8.18086 10.3368C8.05992 10.379 7.92555 10.3243 7.8684 10.2096C7.86781 10.2084 7.86719 10.2072 7.86656 10.206C7.74281 9.96176 7.46941 9.83652 7.20016 9.90141C6.75277 10.0093 5.87445 10.0476 5.0191 9.09145C4.50094 8.5123 3.51664 8.83129 3.47488 9.61805C3.47215 9.66965 3.47379 9.6275 3.47434 10.4732L3.08246 10.3367C3.03062 10.3187 2.99578 10.2696 2.99578 10.2148L2.99582 8.99195ZM3.56219 12.0479C3.55816 11.8891 3.42824 11.7624 3.26934 11.7624C3.2693 11.7624 3.26926 11.7624 3.26922 11.7624L3.11109 11.7625C3.11105 11.7625 3.11102 11.7625 3.11094 11.7625C2.93305 11.7625 2.7882 11.6178 2.78812 11.4398C2.78848 10.8501 2.78594 10.8812 2.78973 10.8463C2.87383 10.8909 2.905 10.8927 3.34566 11.0488C3.69465 11.1702 4.0609 10.9107 4.06035 10.5401C4.0598 9.93504 4.05894 9.66984 4.06 9.64906C4.07375 9.39004 4.40859 9.28777 4.5825 9.48215C5.03687 9.99 5.99891 10.7939 7.33754 10.471C7.34141 10.4701 7.34371 10.4709 7.34402 10.4709C7.34457 10.472 7.34512 10.4731 7.34566 10.4742C7.52223 10.8247 7.91836 11.0037 8.29352 10.9134L8.29504 11.6005C8.29535 11.6779 8.23492 11.7412 8.16035 11.7415L7.9984 11.7422C7.83902 11.7429 7.70945 11.8709 7.70672 12.0302C7.69715 12.5923 7.46391 13.1148 7.06684 13.4639C6.65926 13.8221 6.18141 14.0166 5.64269 14.0258C5.09586 14.0211 4.61613 13.8236 4.21394 13.4761C3.81402 13.1305 3.57644 12.6099 3.56219 12.0479ZM5.64191 14.6117H5.64394C5.64547 14.6117 5.64699 14.6117 5.64852 14.6116C5.93074 14.6073 6.20086 14.5626 6.45801 14.4792L6.45816 14.4817C6.47012 14.6785 6.38766 14.8723 6.23758 15.0001L5.54141 15.593L4.84519 15.0001C4.69512 14.8723 4.61266 14.6785 4.62461 14.4817L4.62879 14.4132C4.94633 14.5422 5.28473 14.6091 5.64191 14.6117ZM3.76539 14.9039C3.79391 14.7257 3.92645 14.6648 4.03781 14.5435C4.04492 14.8889 4.20062 15.2207 4.46531 15.4461L4.88598 15.8044L4.11711 15.9509C3.96242 15.9803 3.81453 15.8682 3.80496 15.7079C3.76246 14.9511 3.75441 14.9724 3.76539 14.9039ZM0.593711 19.108V18.4462C0.593711 16.8916 1.6791 15.5461 3.18812 15.2092L3.22012 15.7429C3.25078 16.2554 3.72543 16.6221 4.22672 16.5264L5.54137 16.2759L6.85602 16.5264C7.35922 16.6224 7.83203 16.2532 7.86258 15.7429L7.89457 15.2092C9.40359 15.5461 10.489 16.8916 10.489 18.4462V19.108C10.489 19.2767 10.3517 19.4139 10.183 19.4139H0.899727C0.731016 19.4139 0.593711 19.2767 0.593711 19.108Z" fill="white"/>
<path d="M2.85037 4.74285H4.93068V5.66051C4.93068 6.0518 5.4017 6.24781 5.68014 5.97707L6.9492 4.74285H10.4173C10.6199 5.07582 10.9649 5.31621 11.3722 5.37195C11.4147 5.37777 11.4587 5.39937 11.496 5.43277L12.6307 6.44977C12.9014 6.6923 13.3353 6.49926 13.3353 6.13504V5.38426H17.3628C18.0963 5.38426 18.6931 4.78746 18.6931 4.05391V2.57977C18.6931 1.84621 18.0963 1.24941 17.3628 1.24941H12.9544C12.8314 0.540742 12.2124 0 11.469 0H2.85037C2.01881 0 1.34229 0.676523 1.34229 1.50809V1.68664C1.34229 1.84844 1.47346 1.97957 1.63521 1.97957C1.79697 1.97957 1.92814 1.84844 1.92814 1.68664V1.50809C1.92814 0.99957 2.34186 0.585898 2.85033 0.585898H11.469C11.8877 0.585898 12.2419 0.866484 12.354 1.24941H11.5538C10.8203 1.24941 10.2235 1.84621 10.2235 2.57977C10.2251 4.13547 10.2198 4.05469 10.2278 4.15699H6.9374C6.7915 4.15699 6.65357 4.21301 6.54908 4.31469L5.51654 5.31891V4.70293C5.51654 4.40191 5.27162 4.15703 4.97064 4.15703H2.85037C2.34186 4.15703 1.92818 3.74332 1.92818 3.23484V3.05625C1.92818 2.89445 1.79701 2.76332 1.63525 2.76332C1.4735 2.76332 1.34232 2.89445 1.34232 3.05625V3.23484C1.34229 4.06633 2.01881 4.74285 2.85037 4.74285ZM10.8094 2.57977C10.8094 2.16926 11.1434 1.83531 11.5539 1.83531H17.3628C17.7733 1.83531 18.1072 2.16926 18.1072 2.57977V4.05395C18.1072 4.46445 17.7733 4.7984 17.3628 4.7984H13.2023C12.9525 4.7984 12.7494 5.0016 12.7494 5.25133V5.76941L11.8869 4.99652C11.7616 4.88418 11.611 4.81328 11.4516 4.79148C11.0854 4.74137 10.8094 4.42426 10.8094 4.05395V2.57977H10.8094Z" fill="white"/>
</g>
<defs>
<clipPath id="clip0_232_3294">
<rect width="20" height="20" fill="white"/>
</clipPath>
</defs>
</svg>
