<svg width="20" height="20" viewBox="0 0 20 20" fill="none" xmlns="http://www.w3.org/2000/svg">
<g clip-path="url(#clip0_232_3306)">
<path d="M7.23434 7.39178H7.49069C7.65243 7.39178 7.78366 7.26071 7.78366 7.09881C7.78366 6.93707 7.65243 6.80585 7.49069 6.80585H7.40478V6.19824C7.40478 6.03635 7.27371 5.90527 7.11182 5.90527C6.95007 5.90527 6.81885 6.03635 6.81885 6.19824V6.97644C6.81885 7.20547 7.00516 7.39178 7.23434 7.39178Z" fill="white"/>
<path d="M8.59276 8.37834C8.67927 8.24162 8.63853 8.06066 8.50181 7.97414C8.36494 7.88762 8.18413 7.92836 8.09761 8.06508C7.93266 8.3257 7.57301 8.49416 7.18132 8.49416C6.78978 8.49416 6.43013 8.3257 6.26518 8.06508C6.17867 7.92836 5.9977 7.88762 5.86098 7.97414C5.72426 8.06066 5.68352 8.24162 5.77004 8.37834C6.04393 8.81123 6.5847 9.08009 7.18132 9.08009C7.77809 9.08009 8.31886 8.81123 8.59276 8.37834Z" fill="white"/>
<path d="M8.9624 6.12106C9.1243 6.12106 9.25537 5.98999 9.25537 5.82809V5.47363C9.25537 5.31174 9.1243 5.18066 8.9624 5.18066C8.80066 5.18066 8.66943 5.31174 8.66943 5.47363V5.82809C8.66943 5.98999 8.80066 6.12106 8.9624 6.12106Z" fill="white"/>
<path d="M5.39941 5.18066C5.23752 5.18066 5.10645 5.31174 5.10645 5.47363V5.82809C5.10645 5.98999 5.23752 6.12106 5.39941 6.12106C5.56116 6.12106 5.69238 5.98999 5.69238 5.82809V5.47363C5.69238 5.31174 5.56116 5.18066 5.39941 5.18066Z" fill="white"/>
<path d="M14.5159 12.0988H14.7105C14.8724 12.0988 15.0036 11.9677 15.0036 11.8058C15.0036 11.6458 14.8753 11.5157 14.716 11.5128V11.1221C14.716 10.9602 14.5847 10.8291 14.423 10.8291C14.2611 10.8291 14.1299 10.9602 14.1299 11.1221V11.7129C14.1299 11.9256 14.3031 12.0988 14.5159 12.0988Z" fill="white"/>
<path d="M15.6067 12.8149C15.6932 12.6782 15.6524 12.4972 15.5157 12.4107C15.379 12.3242 15.198 12.3648 15.1115 12.5015C14.9989 12.6796 14.7493 12.7946 14.4754 12.7946C14.2016 12.7946 13.952 12.6796 13.8394 12.5015C13.7529 12.3648 13.5719 12.3242 13.4352 12.4107C13.2985 12.4972 13.2577 12.6782 13.3443 12.8149C13.565 13.1639 13.9984 13.3806 14.4754 13.3806C14.9524 13.3806 15.3859 13.1637 15.6067 12.8149Z" fill="white"/>
<path d="M15.8281 11.1345C15.9899 11.1345 16.1211 11.0034 16.1211 10.8415V10.6689C16.1211 10.5072 15.9899 10.376 15.8281 10.376C15.6662 10.376 15.5352 10.5072 15.5352 10.6689V10.8415C15.5352 11.0034 15.6662 11.1345 15.8281 11.1345Z" fill="white"/>
<path d="M13.416 10.8415V10.6689C13.416 10.5072 13.2848 10.376 13.123 10.376C12.9612 10.376 12.8301 10.5072 12.8301 10.6689V10.8415C12.8301 11.0034 12.9612 11.1345 13.123 11.1345C13.2848 11.1345 13.416 11.0034 13.416 10.8415Z" fill="white"/>
<path d="M19.2531 16.083C19.1415 15.9659 18.956 15.9613 18.8388 16.0728C18.7216 16.1844 18.717 16.3699 18.8286 16.4871C19.1723 16.8481 19.4122 17.3958 19.4122 17.8189V19.414H18.4414V18.4181C18.4414 18.2562 18.3102 18.1251 18.1485 18.1251C17.9866 18.1251 17.8555 18.2562 17.8555 18.4181V19.414H11.0956V18.4181C11.0956 18.2562 10.9643 18.1251 10.8026 18.1251C10.6407 18.1251 10.5096 18.2562 10.5096 18.4181V19.414H9.53871V17.8189C9.53871 17.2889 9.90737 16.5947 10.3468 16.2925C10.7965 16.0655 11.2672 15.8748 11.7489 15.7243C12.2378 16.2391 13.2538 16.5625 14.4293 16.5625C15.6074 16.5625 16.6488 16.2237 17.1292 15.7022C17.1329 15.7033 17.5427 15.8354 17.7379 15.9099C17.8889 15.9674 18.0583 15.8915 18.116 15.7405C18.1737 15.5893 18.0964 15.4233 17.9466 15.3622C17.5482 15.2002 16.5269 14.9371 16.2457 14.8852C16.0417 14.8475 15.8717 14.7036 15.8937 14.3442C16.5095 14.1818 17.0672 13.8365 17.4902 13.3502C17.9951 12.7694 18.2733 12.0254 18.2733 11.2549V9.21232C18.2733 9.04448 18.2583 8.87541 18.2287 8.70848C18.2776 8.5066 18.2388 8.29329 18.1178 8.11888C18.0827 8.06837 18.0423 8.02321 17.9974 7.98384C17.4849 6.90321 16.3557 6.25243 15.1596 6.35573H13.7915C13.195 6.30431 12.5995 6.44255 12.0901 6.74193V3.68331C12.0901 2.65075 11.6528 1.65923 10.8903 0.963127C10.1277 0.26687 9.10079 -0.078589 8.0725 0.0150999C7.77526 0.0421079 7.47756 0.0700314 7.17895 0.0739987C6.88109 0.0781186 6.58568 0.0421079 6.28951 0.0150999C5.26107 -0.078589 4.23416 0.26687 3.47183 0.963127C2.70919 1.65923 2.27188 2.65075 2.27188 3.68331V12.0178C1.98181 12.139 1.69586 12.2711 1.41464 12.4138C0.542144 12.8567 0 13.7398 0 14.7183V15.0949C0 15.2566 0.131225 15.3879 0.292968 15.3879C0.454711 15.3879 0.585937 15.2566 0.585937 15.0949V14.7183C0.585937 13.9616 1.0051 13.2788 1.67984 12.9362C2.30377 12.6196 2.95242 12.3579 3.61907 12.1536C4.22546 12.829 5.58822 13.271 7.1202 13.271C8.68132 13.271 10.0529 12.8177 10.6465 12.1248C10.6569 12.1278 10.6673 12.1309 10.6776 12.1341V13.8423C10.6776 14.1771 10.95 14.4494 11.2848 14.4494H13.0574C13.0574 14.6556 12.9063 14.8341 12.7054 14.8851C10.7512 15.3807 10.045 15.7893 10.0354 15.7957C9.42824 16.2004 8.95262 17.0891 8.95262 17.8189V19.414H2.74475V16.3704C2.74475 16.2086 2.61352 16.0774 2.45178 16.0774C2.29004 16.0774 2.15881 16.2086 2.15881 16.3704V19.414H0.585937V16.4589C0.585937 16.2971 0.454711 16.1659 0.292968 16.1659C0.131225 16.1659 0 16.2971 0 16.4589V19.4528C0 19.7545 0.245514 20 0.547179 20H19.4511C19.7528 20 19.9983 19.7545 19.9983 19.4528V17.8189C19.9983 17.249 19.6988 16.5513 19.2531 16.083ZM13.0328 13.5321C12.619 13.2161 12.126 12.6611 12.126 11.811L12.1188 9.93177C12.8116 10.0149 14.4574 10.0764 15.3016 8.96299L15.3776 8.95994C15.41 8.9871 15.945 9.2462 16.1398 9.28053C16.3177 9.51643 16.6917 9.90889 16.8306 9.98381L16.8251 11.8121C16.8251 12.6611 16.3319 13.2161 15.9183 13.5321C15.4062 13.9235 14.8134 14.1107 14.4755 14.12C14.1377 14.1107 13.5449 13.9235 13.0328 13.5321ZM14.4752 8.19929L14.8118 7.39958C14.8526 7.30269 14.9881 7.2801 15.0583 7.35808L15.5166 7.86711L15.3023 8.3766L14.6177 8.40468C14.5144 8.4088 14.4333 8.29878 14.4752 8.19929ZM16.8242 8.41749L17.5087 8.38942C17.6156 8.38347 17.6919 8.49791 17.6512 8.5948L17.3147 9.39436C17.2732 9.49278 17.1393 9.5149 17.0682 9.43602L16.6098 8.92683L16.8242 8.41749ZM17.4159 10.208C17.5703 10.2379 17.6874 10.3743 17.6874 10.5375V10.8349C17.6874 10.9991 17.5688 11.1363 17.4128 11.165L17.4159 10.208ZM16.0924 8.64576L15.8648 8.55009L16.0339 8.14833L16.2616 8.244L16.0924 8.64576ZM17.2702 12.6701C17.3581 12.4161 17.4109 12.0727 17.4109 11.7546H17.4112C17.4934 11.7494 17.5728 11.7332 17.6478 11.7077C17.5874 12.0505 17.4591 12.3778 17.2702 12.6701ZM17.2101 7.81523L16.7485 7.83415C16.7166 7.80714 16.6801 7.78456 16.6397 7.76747L16.1104 7.54469C16.0699 7.5276 16.0283 7.51738 15.9866 7.51341C15.9866 7.51341 15.4721 6.94273 15.4608 6.93175C16.152 6.94807 16.793 7.27675 17.2101 7.81523ZM13.7518 6.94044C13.7607 6.94121 14.425 6.94167 14.425 6.94167C14.3608 7.00697 14.3086 7.08479 14.2717 7.17238L13.9351 7.97194C13.8371 8.20479 13.8646 8.46769 14.0086 8.67521C14.1151 8.82856 14.2721 8.93293 14.4487 8.97261C13.6534 9.51399 12.458 9.39314 12.0523 9.33149C11.9214 9.31196 11.7888 9.34996 11.6887 9.43647C11.6316 9.48576 11.5884 9.54786 11.562 9.61668C11.4572 9.6208 11.3568 9.64262 11.2636 9.67909V9.21232C11.2636 8.58 11.5286 7.97239 11.9911 7.5421C11.9945 7.5392 11.9977 7.53615 12.0007 7.53325C12.0027 7.53142 12.0047 7.52959 12.0067 7.52775C12.4789 7.09639 13.1154 6.88246 13.7518 6.94044ZM9.49126 11.2452C9.18105 11.1882 8.95583 10.917 8.95583 10.6007V10.2669C9.13771 10.1637 9.31868 10.0456 9.49324 9.91209C10.1597 9.4029 10.9543 8.61296 10.9543 6.94121H10.9549C11.1482 6.94121 11.3452 6.89192 11.504 6.80525V7.19832C10.9772 7.73268 10.6776 8.45839 10.6776 9.21232V11.5234C10.2864 11.4119 9.88875 11.3185 9.49126 11.2452ZM5.22445 9.44654C4.66293 9.01762 3.99368 8.26353 3.99368 7.10631L3.98345 4.43648C4.58236 4.34081 5.99059 4.01107 7.18093 2.93899C8.37142 4.01107 9.7795 4.34081 10.3786 4.43648L10.3683 7.10738C10.3683 8.26353 9.69908 9.01747 9.13756 9.44654C8.44542 9.97541 7.64007 10.2279 7.18093 10.24C6.72195 10.2279 5.91643 9.97541 5.22445 9.44654ZM11.5042 5.8203C11.5042 6.11525 11.252 6.35527 10.9572 6.35527L10.9628 4.89363C11.2575 4.89363 11.5042 5.13365 11.5042 5.42861V5.8203ZM11.2636 10.5375C11.2636 10.3747 11.38 10.2386 11.534 10.2083L11.5375 11.1648C11.3818 11.136 11.2636 10.999 11.2636 10.8349V10.5375ZM3.86688 1.39571C4.50805 0.810387 5.37185 0.520012 6.23641 0.598595C6.55074 0.627129 6.86507 0.662682 7.18093 0.665276C7.49663 0.66787 7.81173 0.627129 8.1256 0.598595C8.99031 0.520012 9.85396 0.810387 10.4951 1.39571C11.1365 1.98119 11.5042 2.81493 11.5042 3.68331V4.44365C11.3452 4.35698 11.163 4.3077 10.9697 4.3077H10.965L10.9651 4.28176C10.9659 4.07683 10.8131 3.90319 10.6102 3.87786C10.1768 3.82354 8.66896 3.55651 7.46245 2.40081C7.30453 2.24959 7.05733 2.24959 6.89956 2.40081C5.69305 3.55651 4.18517 3.82354 3.75183 3.87786C3.54873 3.90319 3.39614 4.07683 3.39691 4.28176L3.39706 4.3077C3.20358 4.3077 3.01681 4.35698 2.85781 4.44365V3.68331C2.85781 2.81493 3.22555 1.98119 3.86688 1.39571ZM2.85781 5.42861C2.85781 5.13365 3.10455 4.89363 3.3992 4.89363L3.40484 6.35527C3.11019 6.35527 2.85781 6.11525 2.85781 5.8203V5.42861ZM2.85781 6.80525C3.01681 6.89192 3.21365 6.94121 3.40713 6.94121H3.40774C3.40774 8.57405 4.20211 9.4029 4.86862 9.91224C5.04333 10.0456 5.22414 10.1637 5.40603 10.2669V10.6007C5.40603 10.917 5.18096 11.1882 4.87075 11.2454C4.18487 11.3717 3.51196 11.5539 2.85781 11.79V6.80525ZM7.1202 12.6851C5.78735 12.6851 4.80529 12.3533 4.28649 11.9696C4.51492 11.9137 4.74517 11.8643 4.97695 11.8216C5.56518 11.7131 5.99197 11.1482 5.99197 10.5493C6.44164 10.7298 6.86309 10.8192 7.17467 10.8258C7.17681 10.8259 7.17895 10.8259 7.18093 10.8259C7.18307 10.8259 7.1852 10.8259 7.18734 10.8258C7.49892 10.8192 7.92037 10.7298 8.37004 10.5493C8.37004 11.1482 8.79683 11.7131 9.38506 11.8216C9.58647 11.8587 9.78774 11.9011 9.98824 11.9487C9.36644 12.4334 8.15963 12.6851 7.1202 12.6851ZM11.2636 13.8423V11.6932C11.3501 11.7273 11.4429 11.7485 11.5397 11.7546H11.5401C11.5401 12.7293 12.036 13.4508 12.512 13.8635H11.2849C11.2732 13.8635 11.2636 13.854 11.2636 13.8423ZM12.8117 15.4614C13.2728 15.3763 13.613 14.9887 13.6413 14.5271C13.9558 14.6432 14.2479 14.7012 14.4693 14.7059C14.4713 14.7059 14.4734 14.7061 14.4755 14.7061C14.4775 14.7061 14.4797 14.7059 14.4818 14.7059C14.7032 14.7012 14.9951 14.6432 15.3096 14.5271C15.338 14.9887 15.6781 15.3763 16.1392 15.4614C16.2366 15.4793 16.3339 15.4991 16.4313 15.5203C16.0185 15.7754 15.3135 15.9765 14.4293 15.9765C13.5678 15.9765 12.8711 15.7824 12.4537 15.5351C12.5732 15.5079 12.6927 15.4834 12.8117 15.4614Z" fill="white"/>
</g>
<defs>
<clipPath id="clip0_232_3306">
<rect width="20" height="20" fill="white"/>
</clipPath>
</defs>
</svg>
