<svg width="20" height="20" viewBox="0 0 20 20" fill="none" xmlns="http://www.w3.org/2000/svg">
<path d="M19.0853 4.66208C18.5067 3.52215 17.6612 2.50984 16.6403 1.73448C16.5114 1.63657 16.3277 1.6618 16.2298 1.79061C16.132 1.91945 16.1571 2.1032 16.286 2.20103C17.2368 2.92316 18.0242 3.86587 18.563 4.92727C19.1277 6.0399 19.4141 7.24135 19.4141 8.49829C19.4141 12.8558 15.869 16.4009 11.5114 16.4009C9.81289 16.4009 8.1941 15.8699 6.83003 14.8651C6.71895 14.7834 6.56605 14.7901 6.46264 14.8812C6.27552 15.0462 6.03522 15.137 5.78605 15.137C5.22131 15.137 4.76187 14.6775 4.76187 14.1128C4.76187 13.8561 4.85732 13.6106 5.03065 13.4214C5.12375 13.3197 5.1334 13.167 5.05385 13.0544C4.10852 11.717 3.60881 10.1416 3.60881 8.49829C3.60881 7.10392 3.97714 5.73305 4.67396 4.53386C4.75523 4.39397 4.70774 4.21471 4.56788 4.13343C4.42791 4.05208 4.24869 4.09961 4.16745 4.23951C3.41873 5.52797 3.02295 7.00065 3.02295 8.49829C3.02295 10.19 3.51617 11.8151 4.45138 13.2122C4.27255 13.4767 4.17601 13.7891 4.17601 14.1128C4.17601 15.0005 4.89825 15.7228 5.78601 15.7228C6.0981 15.7228 6.40128 15.6323 6.66045 15.4644C8.08783 16.4611 9.76024 16.9868 11.5114 16.9868C13.7788 16.9868 15.9104 16.1038 17.5137 14.5006C19.1169 12.8973 19.9999 10.7657 19.9999 8.49829C19.9999 7.14832 19.6922 5.85763 19.0853 4.66208Z" fill="white"/>
<path d="M4.9464 3.58415C5.00057 3.62786 5.06556 3.6491 5.13012 3.6491C5.21561 3.6491 5.3004 3.61184 5.35828 3.5401C6.86806 1.66882 9.11091 0.595551 11.5117 0.595551C12.8241 0.595551 14.1239 0.923847 15.2705 1.54505C15.4127 1.62215 15.5904 1.56927 15.6675 1.42703C15.7446 1.28479 15.6917 1.10705 15.5495 1.02996C14.3176 0.362549 12.9213 0.00976562 11.5117 0.00976562C8.93294 0.00976562 6.52391 1.16247 4.90239 3.17232C4.80077 3.29819 4.82049 3.48257 4.9464 3.58415Z" fill="white"/>
<path d="M3.33465 15.3428C2.61135 15.3428 2.02295 15.9312 2.02295 16.6545C2.02295 17.3778 2.61135 17.9662 3.33465 17.9662C4.05795 17.9662 4.64639 17.3778 4.64639 16.6545C4.64639 15.9312 4.05791 15.3428 3.33465 15.3428ZM3.33465 17.3804C2.93441 17.3804 2.60877 17.0547 2.60877 16.6545C2.60877 16.2542 2.93441 15.9286 3.33465 15.9286C3.73492 15.9286 4.06056 16.2542 4.06056 16.6545C4.06056 17.0547 3.73492 17.3804 3.33465 17.3804Z" fill="white"/>
<path d="M0.994691 18.001C0.446203 18.001 0 18.4471 0 18.9956C0 19.5441 0.446203 19.9903 0.994691 19.9903C1.54318 19.9903 1.98938 19.5441 1.98938 18.9956C1.98938 18.4471 1.54318 18.001 0.994691 18.001ZM0.994691 19.4045C0.769265 19.4045 0.585824 19.2211 0.585824 18.9956C0.585824 18.7702 0.769226 18.5868 0.994691 18.5868C1.22015 18.5868 1.40356 18.7702 1.40356 18.9956C1.40356 19.2211 1.22012 19.4045 0.994691 19.4045Z" fill="white"/>
<path d="M10.3774 8.49837C10.3774 9.12372 10.8862 9.63245 11.5116 9.63245C12.1369 9.63245 12.6457 9.12372 12.6457 8.49837C12.6457 7.87303 12.1369 7.36426 11.5116 7.36426C10.8862 7.36426 10.3774 7.87307 10.3774 8.49837ZM12.0598 8.49837C12.0598 8.80066 11.8139 9.04663 11.5116 9.04663C11.2092 9.04663 10.9633 8.80066 10.9633 8.49837C10.9633 8.19605 11.2092 7.95008 11.5116 7.95008C11.8139 7.95008 12.0598 8.19605 12.0598 8.49837Z" fill="white"/>
<path d="M6.67725 8.49837C6.67725 9.12372 7.18602 9.63245 7.81136 9.63245C8.43671 9.63245 8.94548 9.12372 8.94548 8.49837C8.94548 7.87303 8.43671 7.36426 7.81136 7.36426C7.18602 7.36426 6.67725 7.87307 6.67725 8.49837ZM8.35966 8.49837C8.35966 8.80066 8.11369 9.04663 7.81136 9.04663C7.50904 9.04663 7.26307 8.80066 7.26307 8.49837C7.26307 8.19605 7.50904 7.95008 7.81136 7.95008C8.11369 7.95008 8.35966 8.19605 8.35966 8.49837Z" fill="white"/>
<path d="M14.0776 8.49837C14.0776 9.12372 14.5864 9.63245 15.2118 9.63245C15.8371 9.63245 16.3458 9.12372 16.3458 8.49837C16.3458 7.87303 15.8371 7.36426 15.2118 7.36426C14.5864 7.36426 14.0776 7.87307 14.0776 8.49837ZM15.76 8.49837C15.76 8.80066 15.514 9.04663 15.2118 9.04663C14.9094 9.04663 14.6635 8.80066 14.6635 8.49837C14.6635 8.19605 14.9094 7.95008 15.2118 7.95008C15.514 7.95008 15.76 8.19605 15.76 8.49837Z" fill="white"/>
</svg>
