<svg width="18" height="20" viewBox="0 0 18 20" fill="none" xmlns="http://www.w3.org/2000/svg">
<path d="M14.1471 12.218V13.2276C14.1471 13.2814 14.1033 13.3252 14.0495 13.3252H11.9813C11.8195 13.3252 11.6884 13.4564 11.6884 13.6182C11.6884 13.78 11.8195 13.9112 11.9813 13.9112H14.0495C14.4264 13.9112 14.7331 13.6045 14.7331 13.2276V12.218H17.0618C17.4387 12.218 17.7454 11.9113 17.7454 11.5344V7.08945C17.7454 4.90777 15.9705 3.13281 13.7888 3.13281H10.3448C10.183 3.13281 10.0518 3.26395 10.0518 3.42578C10.0518 3.58762 10.183 3.71875 10.3448 3.71875H11.719C10.5879 4.4159 9.83215 5.66602 9.83215 7.08945V9.69535H0.84082V8.98207C0.84082 8.82023 0.709648 8.6891 0.547852 8.6891C0.386055 8.6891 0.254883 8.82023 0.254883 8.98207V11.5344C0.254883 11.9113 0.561562 12.218 0.938477 12.218H3.26723V13.2276C3.26723 13.6045 3.57391 13.9112 3.95082 13.9112H7.82254V19.5119C7.82254 19.7811 8.04156 20.0002 8.31082 20.0002H9.68953C9.95879 20.0002 10.1778 19.7811 10.1778 19.5119V13.9112H10.7045C10.8663 13.9112 10.9975 13.78 10.9975 13.6182C10.9975 13.4564 10.8663 13.3252 10.7045 13.3252H3.95082C3.89699 13.3252 3.85316 13.2814 3.85316 13.2276V12.218H14.1471ZM9.59184 19.4142H8.40844V13.9112H9.59184V19.4142ZM0.84082 11.5344V10.2813H9.83211V11.5344C9.83211 11.5677 9.83531 11.6001 9.83992 11.6321H0.938477C0.884648 11.6321 0.84082 11.5883 0.84082 11.5344ZM17.1595 11.5344C17.1595 11.5883 17.1157 11.6321 17.0618 11.6321H10.5157C10.4619 11.6321 10.418 11.5883 10.418 11.5344V7.08945C10.418 5.23086 11.9302 3.71875 13.7888 3.71875C15.6474 3.71875 17.1595 5.23086 17.1595 7.08945V11.5344H17.1595Z" fill="white"/>
<path d="M15.5056 6.36914H12.0723C11.9105 6.36914 11.7793 6.50027 11.7793 6.66211C11.7793 6.82395 11.9105 6.95508 12.0723 6.95508H15.5056C15.6674 6.95508 15.7986 6.82395 15.7986 6.66211C15.7986 6.50027 15.6674 6.36914 15.5056 6.36914Z" fill="white"/>
<path d="M0.547852 7.99809C0.709648 7.99809 0.84082 7.86695 0.84082 7.70512V7.0893C0.84082 5.2307 2.35293 3.71859 4.21156 3.71859H5.51945V6.74C5.12172 6.86484 4.83242 7.23687 4.83242 7.67523C4.83242 8.21562 5.27203 8.65523 5.81242 8.65523C6.35281 8.65523 6.79242 8.21562 6.79242 7.67523C6.79242 7.23687 6.50309 6.86484 6.10539 6.74V3.71859H9.06797C9.22976 3.71859 9.36094 3.58746 9.36094 3.42562C9.36094 3.26379 9.22976 3.13266 9.06797 3.13266H6.10539V2.19816C6.55813 2.05211 6.88664 1.62688 6.88664 1.12621C6.88664 0.505234 6.38141 0 5.76043 0H3.22996C2.85305 0 2.54637 0.30668 2.54637 0.683594V1.56883C2.54637 1.94574 2.85305 2.25242 3.22996 2.25242H5.51945V3.13266H4.21156C2.02984 3.13266 0.254883 4.90762 0.254883 7.0893V7.70512C0.254883 7.86695 0.386055 7.99809 0.547852 7.99809ZM5.81242 8.0693C5.59512 8.0693 5.41836 7.89254 5.41836 7.67523C5.41836 7.45793 5.59512 7.28117 5.81242 7.28117C6.02969 7.28117 6.20648 7.45793 6.20648 7.67523C6.20648 7.89254 6.02969 8.0693 5.81242 8.0693ZM3.1323 1.56883V0.683594C3.1323 0.629727 3.17613 0.585938 3.22996 0.585938H5.76043C6.05832 0.585938 6.3007 0.828281 6.3007 1.12621C6.3007 1.42414 6.05836 1.66648 5.76043 1.66648H3.22996C3.17613 1.66648 3.1323 1.6227 3.1323 1.56883Z" fill="white"/>
</svg>
