<svg width="20" height="20" viewBox="0 0 20 20" fill="none" xmlns="http://www.w3.org/2000/svg">
<path d="M19.3429 19.6653L18.7991 15.8883C18.7063 15.2439 18.3843 14.6542 17.8922 14.2279C17.4001 13.8016 16.7705 13.5668 16.1193 13.5668L12.0652 13.5669L12.0667 13.2601C12.7284 13.1942 13.3418 12.9046 13.8183 12.4282C14.364 11.8824 14.6646 11.1566 14.6646 10.3847V10.0604C15.3691 10.0282 15.9584 9.54734 16.1531 8.89753C16.6602 8.81804 17.2067 8.39768 17.3192 7.83045C17.44 7.3074 17.2822 6.7181 17.0675 6.27587C17.4297 6.07306 17.9676 5.64368 17.9182 4.89876C17.8595 4.01699 17.2379 3.09644 16.311 2.49296C16.441 2.17304 16.5724 1.61284 16.2575 1.02944C16.0536 0.651584 15.3186 0.193808 13.8672 0.0422832C13.0976 -0.038186 11.5872 -0.0708425 10.0001 0.5867C8.41307 -0.0708034 6.90271 -0.0380688 6.13302 0.0422832C4.68168 0.193847 3.94664 0.651623 3.74273 1.02944C3.42785 1.61284 3.55921 2.173 3.68925 2.49296C2.76233 3.09648 2.14077 4.01699 2.08198 4.89887C2.0326 5.64372 2.5705 6.07306 2.93269 6.27587C2.71804 6.7181 2.56018 7.3074 2.68104 7.83045C2.80394 8.37409 3.25538 8.78577 3.84715 8.89753C4.04187 9.54734 4.6311 10.0282 5.33563 10.0604V10.3847C5.33563 11.8797 6.47677 13.1133 7.93362 13.26L7.93526 13.5669L3.88093 13.5667C3.22976 13.5667 2.60015 13.8015 2.10803 14.2278C1.61596 14.6541 1.29389 15.2438 1.20108 15.8883L0.657322 19.6652C0.634275 19.8254 0.745409 19.9739 0.905566 19.997C0.919707 19.999 0.933769 20 0.947675 20C1.09096 20 1.21627 19.8947 1.23729 19.7487L1.78104 15.9718C1.93034 14.9347 2.83312 14.1527 3.8809 14.1527L14.733 14.1528V16.4398C14.6088 16.3538 14.4683 16.2893 14.3157 16.2536L13.1667 14.9889C12.9083 14.7044 12.4888 14.6281 12.1468 14.8031L10.9412 15.4196C10.5648 15.5692 10.3616 15.9851 10.4777 16.3759L11.2078 18.8304C11.3218 19.2143 11.5051 19.5698 11.7526 19.8871C11.8522 20.0147 12.0362 20.0374 12.1638 19.9379C12.2914 19.8384 12.3141 19.6543 12.2146 19.5268C12.0123 19.2674 11.8625 18.977 11.7694 18.6635L11.0393 16.2089C11.0091 16.1073 11.0631 15.999 11.1623 15.9624C11.1732 15.9583 11.1839 15.9537 11.1942 15.9484L12.4137 15.3248C12.5207 15.2699 12.6521 15.2938 12.733 15.3829L13.948 16.7202C13.9941 16.7709 14.0565 16.8039 14.1244 16.8134C14.4299 16.856 14.6617 17.1107 14.6754 17.4191L14.7508 19.1252C14.7516 19.1431 14.754 19.1608 14.758 19.1781L14.8951 19.7727C14.9264 19.9083 15.047 19.9999 15.1804 19.9999C15.2022 19.9999 15.2243 19.9975 15.2465 19.9924C15.4041 19.956 15.5025 19.7987 15.4661 19.6411L15.335 19.0726L15.3189 18.7084V14.1527H16.1193C17.1671 14.1527 18.0699 14.9348 18.2192 15.9718L18.7629 19.7487C18.784 19.8947 18.9093 20 19.0525 20C19.0665 20 19.0805 19.999 19.0947 19.997C19.2549 19.9739 19.3659 19.8254 19.3429 19.6653ZM14.6646 9.47371V7.3858C15.2448 7.42729 15.7231 7.97956 15.6227 8.59409C15.5474 9.06909 15.1517 9.43882 14.6646 9.47371ZM4.37758 8.59409C4.27301 8.02967 4.73821 7.4151 5.33567 7.3858V9.47371C4.84856 9.43882 4.45285 9.06909 4.37758 8.59409ZM5.92157 10.3847L5.92161 7.3492C6.65662 7.19334 6.95439 6.53685 7.03697 6.02482C8.21709 6.04997 9.09101 5.46689 9.53253 4.97794C10.0664 4.40469 10.2698 3.80469 10.2782 3.77941C10.3291 3.62617 10.2463 3.46105 10.0932 3.40965C9.94007 3.35828 9.77417 3.44094 9.72241 3.59387C9.69456 3.67605 9.01472 5.60544 6.79314 5.42739C6.71189 5.42052 6.6315 5.44899 6.57142 5.50415C6.51138 5.55931 6.47704 5.63751 6.47669 5.71907C6.47669 5.72196 6.47408 6.01173 6.35263 6.29146C6.20989 6.62021 5.97091 6.7856 5.62216 6.79717H5.41114C4.56274 6.79717 3.86367 7.44776 3.78597 8.2762C3.57875 8.21565 3.30027 7.97233 3.25199 7.6985C3.1505 7.2594 3.35511 6.66611 3.58812 6.3008C3.63632 6.22517 3.64675 6.1315 3.6173 6.04681C3.58781 5.96212 3.52066 5.8954 3.43593 5.86603C3.43371 5.86525 3.21214 5.78743 3.00585 5.62107C2.76026 5.42294 2.64929 5.19934 2.66659 4.93774C2.71667 4.18625 3.33894 3.35097 4.21496 2.85925C4.28551 2.81964 4.33606 2.75195 4.35547 2.67343C4.37492 2.59488 4.36055 2.51113 4.3166 2.44316C4.30168 2.42007 3.95429 1.871 4.25828 1.30776C4.37246 1.09627 5.04844 0.744631 6.19388 0.624982C6.92521 0.548731 8.3769 0.518341 9.88328 1.17358C9.95781 1.206 10.0424 1.206 10.1169 1.17358C11.6234 0.51838 13.0751 0.548692 13.8064 0.625021C14.9518 0.744631 15.6278 1.09627 15.742 1.3078C16.046 1.87104 15.6986 2.42015 15.6846 2.44179C15.6395 2.50968 15.6248 2.59327 15.6439 2.67249C15.663 2.75167 15.7142 2.81937 15.7853 2.85925C16.6613 3.35097 17.2835 4.18625 17.3336 4.93762C17.376 5.57739 16.5975 5.85458 16.5653 5.86572C16.48 5.89454 16.4127 5.96103 16.3828 6.04595C16.3529 6.13091 16.3637 6.2249 16.4121 6.3008C16.6452 6.66615 16.8498 7.2594 16.7483 7.6985C16.6795 7.95206 16.5205 8.16616 16.2143 8.27616C16.1389 7.47244 15.4787 6.83631 14.6646 6.79908V5.77095C14.6646 4.46028 13.5983 3.39398 12.2876 3.39398H11.3693C11.2075 3.39398 11.0764 3.52512 11.0764 3.68695C11.0764 3.84879 11.2075 3.97992 11.3693 3.97992H12.2876C13.2752 3.97992 14.0787 4.78337 14.0787 5.77095V10.3846C14.0787 11.0001 13.839 11.5787 13.404 12.0138C12.9689 12.4489 12.3904 12.6885 11.7752 12.6885C11.6139 12.6885 11.4831 12.8188 11.4822 12.9801L11.4794 13.5667H8.52124L8.51811 12.9799C8.51725 12.8188 8.38635 12.6885 8.22514 12.6885C6.95498 12.6886 5.92157 11.6551 5.92157 10.3847Z" fill="white"/>
<path d="M9.01465 10.5156H10.9855C11.1473 10.5156 11.2784 10.3845 11.2784 10.2227C11.2784 10.0608 11.1473 9.92969 10.9855 9.92969H9.01465C8.85281 9.92969 8.72168 10.0608 8.72168 10.2227C8.72168 10.3845 8.85281 10.5156 9.01465 10.5156Z" fill="white"/>
<path d="M12.5586 8.2666C12.3968 8.2666 12.2656 8.39773 12.2656 8.55957V9.14605C12.2656 9.30789 12.3968 9.43902 12.5586 9.43902C12.7204 9.43902 12.8516 9.30789 12.8516 9.14605V8.55957C12.8516 8.39777 12.7204 8.2666 12.5586 8.2666Z" fill="white"/>
<path d="M7.44189 8.29297C7.28006 8.29297 7.14893 8.4241 7.14893 8.58594V9.14578C7.14893 9.30762 7.28006 9.43875 7.44189 9.43875C7.60373 9.43875 7.73486 9.30762 7.73486 9.14578V8.58594C7.73486 8.42414 7.60373 8.29297 7.44189 8.29297Z" fill="white"/>
<path d="M9.05881 15.4198L7.85342 14.8034C7.51123 14.6282 7.09174 14.7046 6.83342 14.9891L5.68432 16.2538C5.53166 16.2894 5.39115 16.354 5.26705 16.44V15.2336C5.26705 15.0718 5.13592 14.9407 4.97408 14.9407C4.81225 14.9407 4.68111 15.0718 4.68111 15.2336V18.7084L4.66502 19.0728L4.53393 19.6413C4.49756 19.7989 4.59592 19.9562 4.75358 19.9926C4.77572 19.9977 4.79787 20.0001 4.81967 20.0001C4.95303 20.0001 5.07361 19.9084 5.1049 19.7729L5.24205 19.1783C5.24607 19.1609 5.24846 19.1432 5.24928 19.1254L5.32463 17.4194C5.33834 17.1109 5.5701 16.8562 5.87568 16.8136C5.94354 16.8041 6.00596 16.7711 6.05205 16.7204L7.26713 15.383C7.34791 15.294 7.47932 15.27 7.58647 15.325L8.8058 15.9486C8.81619 15.9539 8.82686 15.9586 8.83775 15.9626C8.9369 15.9992 8.99092 16.1075 8.96076 16.209L8.23057 18.6638C8.13748 18.9772 7.98768 19.2676 7.78541 19.527C7.68592 19.6545 7.70865 19.8386 7.83627 19.9381C7.96385 20.0376 8.14795 20.0149 8.24744 19.8873C8.49494 19.57 8.67822 19.2145 8.79221 18.8307L9.5224 16.3759C9.63838 15.9853 9.43518 15.5693 9.05881 15.4198Z" fill="white"/>
<path d="M11.7593 7.28325C12.0092 7.49907 12.3837 7.73626 13.0121 7.73626C13.109 7.73626 13.212 7.73059 13.3211 7.71817C13.4712 7.70106 13.5929 7.57786 13.5927 7.42677C13.5925 7.24782 13.4374 7.11442 13.2651 7.13481C12.4865 7.22688 12.192 6.88407 12.1798 6.86942L12.1424 6.83731C12.0373 6.74731 11.8837 6.74274 11.7735 6.82637C11.6244 6.9395 11.6176 7.16095 11.7593 7.28325Z" fill="white"/>
</svg>
