<svg width="20" height="20" viewBox="0 0 20 20" fill="none" xmlns="http://www.w3.org/2000/svg">
<path d="M19.5056 16.3677C19.2519 15.8751 19.0515 15.486 19.4527 14.6739C20.4825 12.5892 19.8972 11.4434 19.025 10.1621C18.2001 8.95035 18.2411 8.105 18.2845 7.21C18.4967 5.43199 17.6407 3.47367 16.2042 2.20192C15.8909 1.93672 15.4521 2.33129 15.7447 2.61551C16.5765 3.36953 17.1621 4.28785 17.4852 5.34508C17.6927 6.0243 17.6654 6.58777 17.6365 7.18437C17.5907 8.12824 17.5434 9.10418 18.4725 10.4691C19.294 11.6759 19.7649 12.604 18.8604 14.4351C18.3387 15.4912 18.6462 16.0881 18.9174 16.6149C19.0933 16.9564 19.2297 17.291 18.9732 17.6377C18.8048 17.8653 18.5348 17.9958 18.2323 17.9958H16.3221C16.0808 16.4942 15.1945 15.1395 13.8367 14.2203C14.5726 13.6284 15.1414 12.869 15.4694 12.0085C16.4941 12.2622 17.5401 11.5306 17.5401 10.5759C17.5401 9.73414 16.7148 9.03441 15.7846 9.09445V7.15652C15.7846 6.62398 15.2742 6.1759 14.6833 6.19301C14.1312 6.20758 13.1031 6.23492 12.3313 5.54461C11.3979 4.70984 10.7017 4.75168 9.96458 4.79602C9.7519 4.80883 9.53191 4.82207 9.28909 4.81703C8.08273 4.79215 7.56871 4.32707 7.34989 3.94125C7.15897 3.60477 6.60007 3.7134 6.55405 4.07805C6.39128 5.57383 5.65572 5.79672 5.06465 5.97578C4.59323 6.11879 4.23694 6.44586 4.23694 6.92101V9.09441C3.30505 9.03461 2.48145 9.73386 2.48145 10.5759C2.48145 11.5316 3.52724 12.2622 4.55215 12.0085C4.87952 12.867 5.44642 13.625 6.18003 14.2163C5.73274 14.5187 5.33186 14.8723 4.9846 15.2711C4.73123 15.562 5.23901 15.9267 5.49442 15.6333C5.84202 15.2342 6.24944 14.8854 6.70757 14.5944C7.14703 14.8735 7.63103 15.0985 8.1479 15.2587V16.1456C8.14772 17.0737 8.9856 17.8285 10.0131 17.8261C11.0389 17.8261 11.8735 17.0722 11.8735 16.1456V15.2588C12.3882 15.0992 12.8704 14.8754 13.3084 14.5979C14.835 15.5694 15.7399 17.1373 15.7399 18.8312V19.7124C15.7399 20.079 16.3886 20.0957 16.3886 19.7124C16.3886 19.3361 16.4005 18.9579 16.3827 18.5817H18.2322C18.7472 18.5817 19.2258 18.3506 19.5124 17.9633C19.8975 17.443 19.7784 16.8972 19.5056 16.3677ZM16.8915 10.5759C16.8915 11.1493 16.2629 11.5943 15.6459 11.4446C15.7897 10.8614 15.7847 9.68277 15.7847 9.68277C16.4146 9.68277 16.8915 10.08 16.8915 10.5759ZM4.1197 11.4752C3.57412 11.4752 3.13021 11.0718 3.13021 10.5759C3.13021 10.0528 3.66052 9.62113 4.23702 9.68277C4.23702 10.2753 4.23205 10.8614 4.37584 11.4446C4.29272 11.4648 4.20649 11.4752 4.1197 11.4752ZM4.8857 10.3001V6.92098C4.8857 6.69973 5.06499 6.59371 5.27097 6.53129C5.85184 6.35531 6.78494 6.07262 7.11391 4.65086C7.74753 5.26879 8.70161 5.39102 9.27439 5.40281C9.5461 5.40844 9.79138 5.39367 10.0078 5.38066C12.1814 5.1366 11.5304 6.90312 14.7024 6.77867C14.9363 6.77207 15.136 6.94465 15.136 7.15648V10.3001C14.8546 16.4718 5.16653 16.4707 4.8857 10.3001ZM11.225 16.1455C11.225 16.7491 10.6814 17.2401 10.0132 17.2401H10.0086C9.34038 17.2401 8.79679 16.7491 8.79679 16.1455V15.4219C9.57499 15.5766 10.4468 15.5766 11.225 15.4219L11.225 16.1455Z" fill="white"/>
<path d="M4.51711 16.4913C4.3571 16.4322 4.15221 16.4994 4.08488 16.648C3.88785 17.0826 3.75167 17.5335 3.67751 17.9954H1.76763C1.46518 17.9954 1.19516 17.8649 1.02672 17.6373C0.77023 17.2906 0.906668 16.956 1.0825 16.6145C2.39849 14.3278 -0.821878 13.6692 1.52745 10.4687C2.45657 9.10387 2.40926 8.1279 2.36346 7.18403C2.33453 6.58747 2.3072 6.02396 2.51473 5.34474C3.10416 3.41576 4.60325 1.92627 6.73575 1.15069C9.10151 0.270575 12.1523 0.4362 14.3352 1.62811C14.4892 1.71077 14.6882 1.66495 14.7796 1.52584C14.8711 1.3867 14.8204 1.20698 14.6664 1.12436C9.38533 -1.76141 1.25362 1.13581 1.71544 7.20973C1.75881 8.10473 1.79981 8.95008 0.974909 10.1619C0.102743 11.4431 -0.482578 12.5889 0.547172 14.6736C0.9484 15.4858 0.748046 15.8748 0.494327 16.3674C0.221581 16.8969 0.102484 17.4428 0.487408 17.9629C0.773993 18.3502 1.25254 18.5814 1.76763 18.5814H3.61701C3.59936 18.9575 3.61117 19.3357 3.61117 19.712C3.61117 20.096 4.27079 20.096 4.27079 19.712C4.27079 18.7336 4.27502 17.8004 4.69459 16.8734C4.76239 16.7236 4.68291 16.5526 4.51711 16.4913Z" fill="white"/>
<path d="M8.56622 12.8107C8.69323 12.9249 8.89856 12.9245 9.02492 12.8098C9.53911 12.3236 10.461 12.3236 10.9752 12.8098C11.128 12.9245 11.2809 12.9248 11.4339 12.8107C11.5609 12.6966 11.5614 12.5111 11.435 12.3964C10.6792 11.6816 9.32098 11.6817 8.56518 12.3964C8.43878 12.5111 8.4393 12.6966 8.56622 12.8107Z" fill="white"/>
<path d="M7.9586 8.0353C7.96123 8.0353 7.96387 8.0353 7.96647 8.03522C8.77822 8.01776 9.40311 7.57694 9.42932 7.55819C9.56935 7.45796 9.59279 7.27468 9.48234 7.1478C9.37189 7.02097 9.16816 6.99898 9.02736 7.09831C9.02256 7.10171 8.54068 7.43679 7.95099 7.44944C7.52688 7.47124 7.53458 8.02269 7.9586 8.0353Z" fill="white"/>
<path d="M10.7362 7.55777C10.7624 7.57652 11.3873 8.01734 12.199 8.0348C12.6283 8.03078 12.6435 7.47171 12.2145 7.44902C11.6254 7.43636 11.1438 7.10187 11.1382 7.09789C10.9978 6.99812 10.7944 7.01964 10.6834 7.14617C10.5722 7.27304 10.5958 7.4573 10.7362 7.55777Z" fill="white"/>
<path d="M11.302 9.59407V9.04571C11.2871 8.65778 10.6681 8.6581 10.6533 9.04571V9.59407C10.7386 11.4482 13.6628 11.4468 13.7472 9.59407V9.04571C13.7323 8.65778 13.1133 8.6581 13.0985 9.04571V9.59407C13.0491 10.6708 11.351 10.6699 11.302 9.59407Z" fill="white"/>
<path d="M7.80083 10.9914C8.65384 10.9914 9.34779 10.3645 9.34779 9.59407V9.04571C9.33292 8.65778 8.71386 8.6581 8.69911 9.04571V9.59407C8.64964 10.6708 6.95158 10.6699 6.90258 9.59407V9.04571C6.88771 8.65778 6.26865 8.6581 6.25391 9.04571V9.59407C6.25391 10.3645 6.94786 10.9914 7.80083 10.9914Z" fill="white"/>
</svg>
