<svg width="20" height="20" viewBox="0 0 20 20" fill="none" xmlns="http://www.w3.org/2000/svg">
<path d="M1.47705 16.3822C1.47705 16.993 1.974 17.49 2.58482 17.49C3.19564 17.49 3.69255 16.993 3.69255 16.3822C3.69255 15.7714 3.1956 15.2744 2.58482 15.2744C1.974 15.2744 1.47705 15.7714 1.47705 16.3822ZM3.10666 16.3822C3.10666 16.6699 2.87261 16.904 2.58486 16.904C2.29711 16.904 2.06303 16.6699 2.06303 16.3822C2.06303 16.0944 2.29711 15.8604 2.58486 15.8604C2.87257 15.8604 3.10666 16.0944 3.10666 16.3822Z" fill="white"/>
<path d="M19.1699 10.4774C19.4195 10.217 19.5731 9.86382 19.5731 9.47546V9.0486C19.5731 8.24957 18.923 7.59957 18.124 7.59957H13.0586C12.6291 7.59957 12.2797 7.2502 12.2797 6.82074V2.9739C12.2797 1.87203 11.3833 0.975586 10.2814 0.975586C9.98462 0.975586 9.72373 1.17577 9.64699 1.46242L8.32612 6.39202C8.28426 6.5483 8.37699 6.70899 8.53327 6.75085C8.68966 6.79258 8.85024 6.69997 8.89209 6.5437L10.213 1.61405C10.2213 1.5831 10.2495 1.56152 10.2815 1.56152C11.0603 1.56152 11.6939 2.1951 11.6939 2.9739V6.8207C11.6939 7.57323 12.3062 8.18547 13.0587 8.18547H18.1241C18.6 8.18547 18.9872 8.57264 18.9872 9.04856V9.47542C18.9872 9.95131 18.6001 10.3385 18.1241 10.3385C17.8772 10.3385 16.0568 10.3385 15.7611 10.3385C15.5992 10.3385 15.4681 10.4697 15.4681 10.6315C15.4681 10.7933 15.5992 10.9244 15.7611 10.9244H18.551C19.0269 10.9244 19.4141 11.3116 19.4141 11.7875V12.2144C19.4141 12.6903 19.0269 13.0775 18.551 13.0775H15.7611C15.5992 13.0775 15.4681 13.2086 15.4681 13.3704C15.4681 13.5322 15.5992 13.6634 15.7611 13.6634H18.1241C18.6 13.6634 18.9872 14.0505 18.9872 14.5265V14.9533C18.9872 15.4292 18.6001 15.8164 18.1241 15.8164C17.9793 15.8164 17.4986 15.8164 15.7611 15.8164C15.5992 15.8164 15.4681 15.9475 15.4681 16.1093C15.4681 16.2711 15.5992 16.4023 15.7611 16.4023C16.3132 16.3995 15.9379 16.4023 17.0377 16.4023C17.3843 16.4023 17.6663 16.6843 17.6663 17.0309V17.8104C17.6663 18.157 17.3843 18.439 17.0377 18.439H11.5514C10.721 18.439 9.93037 18.1779 9.26497 17.6839C8.80161 17.3399 8.2178 17.1505 7.62111 17.1505H5.16979V13.3121C5.16979 13.1504 5.03868 13.0192 4.87685 13.0192C4.71501 13.0192 4.5839 13.1504 4.5839 13.3121V18.2076C4.5839 18.2211 4.57295 18.232 4.55948 18.232H0.610349C0.596883 18.232 0.585936 18.221 0.585936 18.2076V10.9489C0.585936 10.9354 0.596883 10.9245 0.610349 10.9245H4.58386V11.9451C4.58386 12.1069 4.71498 12.238 4.87681 12.238C5.03864 12.238 5.16975 12.1069 5.16975 11.9451V10.9245H6.0523C7.03317 10.9245 7.89555 10.2628 8.14936 9.31537L8.52961 7.89626C8.5715 7.73998 8.47873 7.57933 8.32246 7.53744C8.1661 7.49562 8.00549 7.58835 7.96363 7.74463L7.58339 9.16373C7.39805 9.85543 6.76845 10.3385 6.0523 10.3385C5.52677 10.3385 1.13431 10.3385 0.610349 10.3385C0.273812 10.3386 0 10.6123 0 10.9489V18.2077C0 18.5443 0.273812 18.818 0.610349 18.818H4.55944C4.89598 18.818 5.16979 18.5442 5.16979 18.2077V17.7366H7.62111C8.09286 17.7366 8.55268 17.8851 8.91572 18.1546C9.68289 18.7241 10.5943 19.0251 11.5514 19.0251H17.0377C17.7074 19.0251 18.2522 18.4802 18.2522 17.8106V17.031C18.2522 16.8011 18.188 16.5859 18.0766 16.4024H18.1241C18.9231 16.4024 19.5732 15.7524 19.5732 14.9534V14.5266C19.5732 14.1382 19.4195 13.785 19.17 13.5246C19.6602 13.292 20 12.7922 20 12.2145V11.7876C20 11.2098 19.6601 10.71 19.1699 10.4774Z" fill="white"/>
</svg>
