<svg width="20" height="20" viewBox="0 0 20 20" fill="none" xmlns="http://www.w3.org/2000/svg">
<g clip-path="url(#clip0_232_3397)">
<path d="M10.7756 4.60307C10.867 4.91822 11.2143 5.08041 11.5152 4.951C12.1226 4.68963 12.4264 4.23612 13.0509 4.47979C13.6277 4.70471 13.834 5.4151 13.4666 5.91404C13.0698 6.45283 12.5357 6.23846 11.9169 6.33709C11.5927 6.38865 11.3868 6.71205 11.478 7.02651L12.0895 9.13631C12.173 9.42447 12.4751 9.59119 12.7637 9.50756L14.8279 8.90936C14.8992 9.43502 14.6872 10.2133 15.4754 10.7937C16.2835 11.3889 17.4371 11.0572 17.803 10.1192C18.1581 9.20866 17.5664 8.66959 17.3426 8.18049L19.4068 7.58229C19.695 7.49869 19.8616 7.19623 19.778 6.90799L18.0017 0.779123C17.836 0.207405 17.236 -0.122869 16.6643 0.0427562L10.6611 1.7826C10.3036 1.88619 10.097 2.26139 10.2006 2.61897L10.7756 4.60307ZM10.7709 2.38799C10.779 2.37322 10.7948 2.35385 10.8242 2.34537L16.8274 0.60553C17.0889 0.529827 17.3632 0.680803 17.4389 0.942248L19.2036 7.03108L17.1339 7.63092C16.8193 7.72198 16.6563 8.06901 16.7859 8.37045C17.0474 8.97807 17.5007 9.28155 17.2571 9.90623C17.0323 10.4828 16.3217 10.6894 15.8229 10.3219C15.2834 9.92463 15.5036 9.42447 15.3998 8.77213C15.3482 8.44744 15.024 8.24217 14.7104 8.3333L12.6406 8.93315L12.054 6.90908C12.5502 6.84166 13.3565 7.05166 13.9384 6.26151C14.5341 5.45256 14.2005 4.29916 13.2638 3.93389C12.3528 3.57873 11.8121 4.17139 11.3252 4.39432L10.7634 2.45584C10.7548 2.42651 10.7628 2.40276 10.7709 2.38799Z" fill="white"/>
<path d="M1.2798 20.0001C1.45258 20.0001 14.3655 20 14.5445 20C15.1398 20 15.6241 19.5157 15.6241 18.9204V16.6812C15.6241 16.5193 15.493 16.3882 15.3312 16.3882C15.1693 16.3882 15.0382 16.5193 15.0382 16.6812V18.9204C15.0382 19.1927 14.8168 19.4141 14.5445 19.4141H8.20516V17.2591C8.20516 16.9323 7.91828 16.6786 7.59168 16.7191C7.37379 16.7464 7.27465 16.7788 6.80219 16.9059C6.20453 17.067 5.61699 16.6171 5.61699 15.9976C5.61699 15.3767 6.20605 14.9289 6.80223 15.0892C7.27141 15.2155 7.37305 15.2487 7.59172 15.2761C7.9175 15.3167 8.20516 15.0633 8.20516 14.736V12.5811H10.3125C10.2345 13.1062 9.81469 13.7946 10.4099 14.5712C11.0211 15.3686 12.2218 15.3692 12.8334 14.5712C13.4277 13.7955 13.0096 13.113 12.9307 12.5811H14.949C14.9982 12.5811 15.0382 12.621 15.0382 12.6702V15.314C15.0382 15.4758 15.1693 15.607 15.3311 15.607C15.493 15.607 15.6241 15.4758 15.6241 15.314V12.6702C15.6241 12.298 15.3212 11.9951 14.949 11.9951H12.8832C12.5555 11.9951 12.3025 12.2831 12.3432 12.6085C12.4252 13.2648 12.7761 13.6826 12.3683 14.2148C11.9917 14.7062 11.2518 14.7064 10.875 14.2148C10.467 13.6825 10.8182 13.2648 10.9001 12.6086C10.9407 12.2835 10.6882 11.9951 10.3601 11.9951H8.20516V9.88773C8.72973 9.96566 9.41832 10.3857 10.1953 9.79035C10.9927 9.17918 10.9934 7.97859 10.1953 7.36691C9.41691 6.77043 8.70324 7.19555 8.20516 7.26949V5.25129C8.20516 4.87902 7.9023 4.57617 7.53004 4.57617H4.88625C4.72441 4.57617 4.59328 4.70734 4.59328 4.86914C4.59328 5.03094 4.72441 5.16211 4.88625 5.16211H7.53004C7.57922 5.16211 7.61922 5.20211 7.61922 5.25129V7.31707C7.61922 7.6457 7.90852 7.89789 8.23273 7.85707C8.85195 7.77973 9.30594 7.42359 9.83887 7.83195C10.3302 8.20859 10.3307 8.94832 9.83883 9.32527C9.30656 9.73312 8.88988 9.38234 8.23269 9.30016C7.9066 9.25961 7.61922 9.51297 7.61922 9.84016V11.9951H5.5118C5.53324 11.8505 5.55004 11.8015 5.67687 11.3304C5.9375 10.3622 5.20941 9.40695 4.2027 9.40695C3.19809 9.40695 2.46723 10.3594 2.72855 11.3305C2.85523 11.8008 2.87199 11.8496 2.89363 11.9951H0.786133V5.65574C0.786133 5.38355 1.00758 5.16211 1.2798 5.16211H3.51906C3.6809 5.16211 3.81203 5.03094 3.81203 4.86914C3.81203 4.70734 3.6809 4.57617 3.51906 4.57617H1.2798C0.684531 4.57617 0.200195 5.06047 0.200195 5.65574V18.9205C0.200195 19.5158 0.684531 20.0001 1.2798 20.0001ZM0.786133 12.5811H2.94109C3.26984 12.5811 3.52172 12.292 3.48113 11.9676C3.45383 11.7492 3.42125 11.6496 3.2943 11.1782C3.13324 10.5797 3.58379 9.99293 4.20266 9.99293C4.82184 9.99293 5.27203 10.58 5.11105 11.1782C4.98473 11.6473 4.95152 11.749 4.92422 11.9677C4.88367 12.2927 5.13621 12.5811 5.46426 12.5811H7.61922V14.6885C7.47441 14.667 7.42742 14.6507 6.95453 14.5234C5.98461 14.2623 5.03105 14.992 5.03105 15.9976C5.03105 17.002 5.98355 17.7333 6.95449 17.4717C7.42836 17.3442 7.47469 17.3282 7.61922 17.3067V19.4141H1.2798C1.00758 19.4141 0.786133 19.1927 0.786133 18.9204V12.5811Z" fill="white"/>
</g>
<defs>
<clipPath id="clip0_232_3397">
<rect width="20" height="20" fill="white"/>
</clipPath>
</defs>
</svg>
