<svg width="19" height="20" viewBox="0 0 19 20" fill="none" xmlns="http://www.w3.org/2000/svg">
<path d="M18.8409 19.6554L18.3024 16.6456C18.1017 15.5238 17.1289 14.7097 15.9894 14.7097L12.3046 14.7097C12.3081 14.6821 12.3105 14.6541 12.3105 14.6256V13.3586C12.3105 13.1658 12.2282 12.9923 12.0974 12.8699C12.9151 12.4551 13.562 11.7505 13.9018 10.8921C14.6145 10.6315 15.238 10.1467 15.6683 9.5149C16.1424 8.81911 16.3566 8.00634 16.2878 7.16438L16.0413 4.14401C15.949 3.01162 15.438 1.96392 14.6025 1.19395C13.7671 0.423987 12.6813 0 11.5452 0H8.58217C8.42037 0 8.2892 0.131134 8.2892 0.29297C8.2892 0.454807 8.42037 0.585941 8.58217 0.585941H11.5452C12.5337 0.585941 13.4785 0.954888 14.2054 1.62481C14.9324 2.29478 15.377 3.20635 15.4573 4.19167L15.7039 7.21207C15.7616 7.91899 15.5818 8.60122 15.1841 9.18498C14.9074 9.59111 14.5357 9.92435 14.1086 10.1567C14.1451 9.94678 14.1642 9.73103 14.1642 9.51084V6.94891C14.2756 6.9557 14.3913 6.95949 14.5123 6.95949C14.6741 6.95949 14.8053 6.82836 14.8053 6.66652C14.8053 6.50469 14.6741 6.37355 14.5123 6.37355C12.9676 6.37355 12.4158 5.74902 11.8317 5.0878C11.299 4.48479 10.7482 3.86127 9.50854 3.82448C7.869 3.77588 7.08466 4.32991 6.81849 4.57651H6.02474C5.36899 4.57651 4.83551 5.10999 4.83551 5.7657V6.80227C4.66531 6.83106 4.50981 6.91817 4.39523 7.0516L3.63179 7.94071C3.59945 7.97837 3.57722 8.0236 3.56718 8.0722L3.48878 8.45118C3.35058 8.04723 3.29937 7.61704 3.34023 7.17778L3.71414 3.15357C3.78937 2.42501 4.37805 1.87247 5.12852 1.86458C5.20641 1.86458 5.2811 1.83357 5.33606 1.77837L6.03767 1.07407C6.34693 0.763911 6.7754 0.585941 7.21322 0.585941C7.37502 0.585941 7.50619 0.454807 7.50619 0.29297C7.50619 0.131134 7.37502 0 7.21322 0C6.62079 0 6.04106 0.240744 5.62262 0.660551L5.00305 1.28255C4.91477 1.2879 4.82805 1.29911 4.74321 1.3154C4.43273 0.528011 3.67347 0 2.80394 0C1.65338 0 0.717322 0.93606 0.717322 2.08661C0.717322 3.23717 1.65338 4.17323 2.80394 4.17323C2.8805 4.17323 2.95659 4.16881 3.0321 4.16061L2.75679 7.1236C2.6828 7.91884 2.87343 8.7197 3.29378 9.39357L3.03429 10.6479C3.03417 10.6484 3.03409 10.6489 3.03402 10.6494C3.03374 10.6508 3.03355 10.6521 3.03327 10.6535C2.92523 11.1827 3.02163 11.7271 3.30527 12.1871L3.89679 13.1464L3.64211 14.7098H3.01062C1.87084 14.7098 0.897948 15.5239 0.697283 16.6456L0.15892 19.6554C0.130444 19.8147 0.23646 19.9669 0.395719 19.9954C0.413141 19.9985 0.430523 20 0.447633 20C0.586813 20 0.71033 19.9004 0.735682 19.7586L1.27404 16.7487C1.42463 15.9067 2.15499 15.2957 3.01058 15.2957H3.54664L2.83565 19.6599C2.80964 19.8196 2.918 19.9701 3.07769 19.9961C3.09366 19.9987 3.10948 20 3.12515 20C3.2662 20 3.3905 19.8979 3.41394 19.7541L4.49266 13.1327C4.50399 13.0631 4.48988 12.9918 4.45285 12.9318L3.80398 11.8795C3.62441 11.5883 3.54863 11.2503 3.58496 10.9139L5.22184 10.2226C5.22301 10.2223 5.22411 10.2219 5.22524 10.2217L5.84657 10.0619C5.92263 10.0422 6.00274 10.0763 6.04153 10.1445L6.61587 11.1539C6.65619 11.2248 6.64251 11.3129 6.58259 11.3682L5.64301 12.1616C5.62512 12.1754 5.60665 12.176 5.5943 12.1741C5.58196 12.1721 5.56458 12.1659 5.55176 12.1472L5.36645 11.8767C5.34872 11.8509 5.35235 11.8164 5.37512 11.7947L5.77161 11.4182C5.88892 11.3067 5.89368 11.1213 5.78227 11.0039C5.67087 10.8865 5.4854 10.8818 5.36809 10.9933L4.97161 11.3699C4.73899 11.5908 4.70176 11.9433 4.88309 12.2079L5.0684 12.4784C5.30797 12.8473 5.84165 12.8305 6.1731 12.4928C6.26306 12.7571 6.35704 12.9713 6.36489 13.3062L6.36657 15.003C6.36845 15.1431 6.47509 15.295 6.65982 15.2956H14.2326V19.707C14.2326 19.8688 14.3638 19.9999 14.5256 19.9999C14.6874 19.9999 14.8186 19.8688 14.8186 19.707V15.2956H15.9893C16.8447 15.2956 17.5748 15.9068 17.7255 16.7488L18.2641 19.7586C18.2895 19.9004 18.4129 20 18.5521 20C18.5692 20 18.5866 19.9985 18.6041 19.9954C18.7634 19.9669 18.8694 19.8147 18.8409 19.6554ZM2.80394 3.58729C1.97647 3.58729 1.30326 2.91412 1.30326 2.08661C1.30326 1.25911 1.97647 0.585941 2.80394 0.585941C3.42117 0.585941 3.96113 0.955591 4.18969 1.50934C3.60804 1.81524 3.19558 2.39908 3.1307 3.09947L3.08788 3.56041C2.99484 3.57819 2.89991 3.58729 2.80394 3.58729ZM11.6405 13.2745C11.6869 13.2745 11.7246 13.3123 11.7246 13.3586V14.6256C11.7246 14.672 11.6868 14.7097 11.6405 14.7097H7.35935C7.31295 14.7097 7.27525 14.6719 7.27525 14.6256V13.3586C7.27525 13.3122 7.31299 13.2745 7.35935 13.2745H11.6405ZM4.83977 7.43336C4.89692 7.3561 5.15364 7.32274 5.10446 7.60934L4.86633 8.08559C4.85196 8.11766 4.83574 8.15903 4.83539 8.21661V9.74978L3.72101 10.2204L4.12555 8.26509L4.83977 7.43336ZM6.55083 9.85471C6.38165 9.5574 6.03204 9.40919 5.70067 9.49435L5.42231 9.56595C5.422 9.54759 5.42145 8.28556 5.42145 8.28556L5.62852 7.87134C5.7586 7.61122 5.72485 7.29668 5.54258 7.07008C5.50649 7.0252 5.46575 6.98524 5.42145 6.95047V5.7657C5.42145 5.43304 5.69208 5.16245 6.02474 5.16245H6.94169C7.02119 5.16116 7.11252 5.1287 7.17349 5.04866C7.17884 5.04179 7.75619 4.35889 9.4912 4.41018C10.4771 4.4394 10.9013 4.91964 11.3925 5.4757C11.6126 5.72484 11.8436 5.9857 12.132 6.21812C11.8975 6.24539 11.6931 6.3325 11.5293 6.42176C11.3738 6.50644 11.3311 6.71051 11.4368 6.85258C11.5241 6.97 11.6842 7.00387 11.8129 6.9341C12.0668 6.79645 12.3633 6.70883 12.7248 6.94031C12.8401 7.00934 13.0872 7.01028 13.1649 6.77242C13.2937 6.81316 13.431 6.84828 13.5783 6.87664V9.5108C13.5783 11.2611 12.1561 12.6853 10.4068 12.6886H8.59202C7.90869 12.6871 7.24377 12.464 6.69966 12.0575L6.98001 11.7987C7.24131 11.5575 7.30099 11.1732 7.12509 10.8641L6.55083 9.85471Z" fill="white"/>
</svg>
