<svg width="21" height="20" viewBox="0 0 21 20" fill="none" xmlns="http://www.w3.org/2000/svg">
<path d="M16.7856 17.3726H11.4134V14.1631H14.2413C14.9965 14.1631 15.6109 13.5136 15.6109 12.715V9.75616C15.6109 8.95752 14.9965 8.30811 14.2413 8.30811H13.4021C13.2383 8.30811 13.1062 8.4407 13.1062 8.60397C13.1062 8.7674 13.2383 8.89999 13.4021 8.89999H14.2413C14.6702 8.89999 15.019 9.28391 15.019 9.75616V12.715C15.019 13.1874 14.6702 13.5713 14.2413 13.5713C13.4607 13.5713 8.65186 13.5713 7.8642 13.5713C7.73129 13.5713 7.59946 13.5333 7.48318 13.4612L4.98975 11.9168C4.50696 11.6173 4.50726 10.8537 4.98975 10.5544L7.48318 9.01001C7.59946 8.93784 7.73129 8.89999 7.8642 8.89999H12.2183C12.3817 8.89999 12.5143 8.7674 12.5143 8.60397C12.5143 8.4407 12.3817 8.30811 12.2183 8.30811H11.4134V7.05017H13.4399C13.6834 7.05017 13.9229 6.98151 14.1328 6.85135L16.6261 5.30701C17.4815 4.77722 17.483 3.46893 16.6261 2.93839L14.1328 1.39404C13.9229 1.26389 13.6834 1.19522 13.4399 1.19522H11.4134V0.92926C11.4134 0.416718 10.9968 0 10.4846 0C9.9725 0 9.55579 0.416718 9.55579 0.92926V1.19522H7.06296C6.30765 1.19522 5.69333 1.84464 5.69333 2.64328V5.60211C5.69333 6.40076 6.30765 7.05017 7.06296 7.05017H7.90219C8.06592 7.05017 8.19806 6.91757 8.19806 6.7543C8.19806 6.59088 8.06592 6.45828 7.90219 6.45828H7.06296C6.63403 6.45828 6.28522 6.07437 6.28522 5.60211V2.64328C6.28522 2.17087 6.63403 1.78696 7.06296 1.78696H13.4399C13.573 1.78696 13.7047 1.82495 13.8211 1.89713L16.3144 3.44147C16.7973 3.741 16.797 4.50455 16.3144 4.80392L13.8211 6.34827C13.7047 6.42044 13.573 6.45828 13.4399 6.45828C12.5576 6.45828 10.0122 6.45828 9.08582 6.45828C8.92255 6.45828 8.78995 6.59088 8.78995 6.7543C8.78995 6.91757 8.92255 7.05017 9.08582 7.05017H9.55579V8.30811H7.8642C7.62082 8.30811 7.38126 8.37677 7.17145 8.50693L4.67816 10.0513C3.82275 10.5811 3.82123 11.8892 4.67816 12.4199L7.17145 13.9642C7.38126 14.0944 7.62082 14.1631 7.8642 14.1631H9.55579V17.3726H6.51807C6.35419 17.3726 6.22205 17.5052 6.22205 17.6685C6.22205 17.8319 6.35419 17.9645 6.51807 17.9645H16.7856C16.8104 17.9645 16.8306 17.9845 16.8306 18.0098V19.3628C16.8306 19.388 16.8104 19.4081 16.7856 19.4081C16.6183 19.4081 4.35117 19.4081 4.18378 19.4081C4.15891 19.4081 4.13876 19.388 4.13876 19.3628V18.0098C4.13876 17.9845 4.15891 17.9645 4.18378 17.9645H5.33429C5.49756 17.9645 5.63016 17.8319 5.63016 17.6685C5.63016 17.5052 5.49756 17.3726 5.33429 17.3726H4.18378C3.83252 17.3726 3.54688 17.6582 3.54688 18.0098V19.3628C3.54688 19.7144 3.83252 20 4.18378 20H16.7856C17.1367 20 17.4223 19.7144 17.4223 19.3628V18.0098C17.4223 17.6582 17.1367 17.3726 16.7856 17.3726ZM10.8215 1.19522H10.1477V0.92926C10.1477 0.743408 10.2987 0.591888 10.4846 0.591888C10.6704 0.591888 10.8215 0.743408 10.8215 0.92926V1.19522ZM10.1477 7.05017H10.8215V8.30811H10.1477V7.05017ZM10.8215 17.3726H10.1477V14.1631H10.8215V17.3726Z" fill="white"/>
<path d="M7.2887 3.68369H13.947C14.1104 3.68369 14.2429 3.55124 14.2429 3.38782C14.2429 3.2244 14.1104 3.0918 13.947 3.0918H7.2887C7.12512 3.0918 6.99268 3.2244 6.99268 3.38782C6.99268 3.55124 7.12512 3.68369 7.2887 3.68369Z" fill="white"/>
<path d="M7.2887 5.14072H12.8521C13.0156 5.14072 13.1481 5.00827 13.1481 4.84485C13.1481 4.68143 13.0156 4.54883 12.8521 4.54883H7.2887C7.12512 4.54883 6.99268 4.68143 6.99268 4.84485C6.99268 5.00827 7.12512 5.14072 7.2887 5.14072Z" fill="white"/>
<path d="M14.0156 11.6738H9.4404C9.27698 11.6738 9.14453 11.8064 9.14453 11.9698C9.14453 12.1333 9.27698 12.2657 9.4404 12.2657H14.0156C14.179 12.2657 14.3115 12.1333 14.3115 11.9698C14.3115 11.8064 14.179 11.6738 14.0156 11.6738Z" fill="white"/>
<path d="M14.0156 10.2178H8.45212C8.2887 10.2178 8.15625 10.3502 8.15625 10.5136C8.15625 10.6772 8.2887 10.8097 8.45212 10.8097H14.0156C14.179 10.8097 14.3115 10.6772 14.3115 10.5136C14.3115 10.3502 14.179 10.2178 14.0156 10.2178Z" fill="white"/>
</svg>
