<svg width="21" height="20" viewBox="0 0 21 20" fill="none" xmlns="http://www.w3.org/2000/svg">
<g clip-path="url(#clip0_232_3450)">
<path d="M17.702 5.63672C16.1591 5.63672 14.904 6.89191 14.904 8.43473C14.904 8.59652 15.0352 8.7277 15.197 8.7277C15.3588 8.7277 15.4899 8.59652 15.4899 8.43473C15.4899 7.215 16.4823 6.22266 17.702 6.22266C18.9217 6.22266 19.9141 7.215 19.9141 8.43473C19.9141 9.65445 18.9217 10.6468 17.702 10.6468H0.792969C0.631172 10.6468 0.5 10.778 0.5 10.9398C0.5 11.1016 0.631172 11.2327 0.792969 11.2327H17.702C19.2448 11.2327 20.5 9.97758 20.5 8.43473C20.5 6.89188 19.2448 5.63672 17.702 5.63672Z" fill="white"/>
<path d="M11.4396 5.00977C10.242 5.00977 9.26779 5.98398 9.26779 7.18152C9.26779 7.34336 9.39897 7.47449 9.56076 7.47449C9.72256 7.47449 9.85373 7.34336 9.85373 7.18152C9.85373 6.30711 10.5651 5.5957 11.4396 5.5957C12.314 5.5957 13.0254 6.30711 13.0254 7.18152C13.0254 8.05598 12.314 8.76734 11.4396 8.76734H5.80322C5.64143 8.76734 5.51025 8.89852 5.51025 9.06031C5.51025 9.22211 5.64143 9.35328 5.80322 9.35328H11.4396C12.6371 9.35328 13.6113 8.37902 13.6113 7.18152C13.6113 5.98402 12.6371 5.00977 11.4396 5.00977Z" fill="white"/>
<path d="M15.8234 11.8994C14.9712 11.8994 14.2779 12.5927 14.2779 13.4449C14.2779 13.6067 14.4091 13.7379 14.5709 13.7379C14.7327 13.7379 14.8639 13.6067 14.8639 13.4449C14.8639 12.9158 15.2943 12.4854 15.8234 12.4854C16.3525 12.4854 16.783 12.9158 16.783 13.4449C16.783 13.974 16.3525 14.4045 15.8234 14.4045H8.93457C8.77277 14.4045 8.6416 14.5356 8.6416 14.6974C8.6416 14.8592 8.77277 14.9904 8.93457 14.9904H15.8234C16.6756 14.9904 17.3689 14.2971 17.3689 13.4449C17.3689 12.5927 16.6756 11.8994 15.8234 11.8994Z" fill="white"/>
<path d="M7.68191 14.4043H7.05566C6.89387 14.4043 6.7627 14.5354 6.7627 14.6973C6.7627 14.8591 6.89387 14.9902 7.05566 14.9902H7.68191C7.84371 14.9902 7.97488 14.8591 7.97488 14.6973C7.97488 14.5355 7.84371 14.4043 7.68191 14.4043Z" fill="white"/>
<path d="M4.55057 8.76758H3.92432C3.76252 8.76758 3.63135 8.89875 3.63135 9.06055C3.63135 9.22234 3.76252 9.35352 3.92432 9.35352H4.55057C4.71236 9.35352 4.84354 9.22234 4.84354 9.06055C4.84354 8.89875 4.71236 8.76758 4.55057 8.76758Z" fill="white"/>
<path d="M12.0655 12.5254H5.7998C5.63801 12.5254 5.50684 12.6565 5.50684 12.8184C5.50684 12.9802 5.63801 13.1113 5.7998 13.1113H12.0655C12.2273 13.1113 12.3585 12.9801 12.3585 12.8184C12.3585 12.6565 12.2273 12.5254 12.0655 12.5254Z" fill="white"/>
<path d="M2.6749 8.76758H2.67178C2.50998 8.76758 2.38037 8.89875 2.38037 9.06055C2.38037 9.22234 2.51311 9.35352 2.6749 9.35352C2.8367 9.35352 2.96787 9.22234 2.96787 9.06055C2.96787 8.89875 2.8367 8.76758 2.6749 8.76758Z" fill="white"/>
<path d="M4.55039 12.5254H4.54727C4.38547 12.5254 4.25586 12.6565 4.25586 12.8184C4.25586 12.9802 4.38859 13.1113 4.55039 13.1113C4.71219 13.1113 4.84336 12.9802 4.84336 12.8184C4.84336 12.6565 4.71219 12.5254 4.55039 12.5254Z" fill="white"/>
<path d="M7.99518 6.88867H6.74268C6.58088 6.88867 6.44971 7.01984 6.44971 7.18164C6.44971 7.34348 6.58088 7.47461 6.74268 7.47461H7.99518C8.15697 7.47461 8.28814 7.34348 8.28814 7.18164C8.28814 7.01984 8.15697 6.88867 7.99518 6.88867Z" fill="white"/>
<path d="M19.8941 12.5254H18.6416C18.4798 12.5254 18.3486 12.6565 18.3486 12.8184C18.3486 12.9802 18.4798 13.1113 18.6416 13.1113H19.8941C20.0559 13.1113 20.1871 12.9802 20.1871 12.8184C20.1871 12.6565 20.0559 12.5254 19.8941 12.5254Z" fill="white"/>
</g>
<defs>
<clipPath id="clip0_232_3450">
<rect width="20" height="20" fill="white" transform="translate(0.5)"/>
</clipPath>
</defs>
</svg>
