<svg width="21" height="20" viewBox="0 0 21 20" fill="none" xmlns="http://www.w3.org/2000/svg">
<g clip-path="url(#clip0_232_3484)">
<path d="M20.2464 10.3465C20.0858 10.3245 19.938 10.437 19.9161 10.5975C19.7745 11.6342 19.2615 12.5879 18.4714 13.2827C17.6742 13.9839 16.6499 14.37 15.587 14.37C15.0086 14.37 14.4469 14.2589 13.9174 14.0398C13.9086 14.0361 13.8984 14.0326 13.8893 14.0298C13.8831 14.0279 13.2582 13.8327 12.3278 13.0941C12.2009 12.9934 12.0164 13.0147 11.9156 13.1415C11.8149 13.2684 11.8361 13.4529 11.963 13.5537C12.9175 14.3113 13.5882 14.5491 13.7051 14.5868C14.3025 14.8322 14.9356 14.9567 15.587 14.9567C16.7925 14.9567 17.9545 14.5186 18.8589 13.7233C19.7549 12.9353 20.3367 11.8534 20.4974 10.6769C20.5193 10.5163 20.4069 10.3684 20.2464 10.3465Z" fill="white"/>
<path d="M13.1864 12.0307C13.809 12.5857 14.5833 13.153 15.6065 13.153H15.6076C17.3453 13.1523 18.7591 11.738 18.7591 10.0002C18.7591 8.26176 17.3448 6.84746 15.6063 6.84746C15.6063 6.84746 15.6064 6.84746 15.6063 6.84746C14.4078 6.84746 13.5906 7.54348 13.0128 8.14981C12.1672 9.03707 10.2496 11.3122 10.1799 11.4004C8.34146 13.7272 7.24955 14.0074 7.18978 14.0211C7.16486 14.0243 7.14967 14.0296 7.12584 14.0395C6.6535 14.235 6.15334 14.3448 5.63935 14.3659L5.4533 14.3697C4.28127 14.3689 3.18107 13.9104 2.35521 13.0785C1.52873 12.246 1.07826 11.1411 1.08685 9.96746C1.09533 8.80375 1.56056 7.7102 2.39682 6.88828C3.22307 6.07617 4.30803 5.63059 5.45654 5.63059C5.47123 5.63059 5.48607 5.63067 5.50076 5.63078C6.04428 5.63621 6.57361 5.74016 7.07428 5.93985C7.10517 5.95215 7.13607 5.96426 7.16724 5.97594C7.31994 6.03305 8.66596 6.57672 10.1811 8.5C10.1811 8.5 9.5301 9.29504 9.37955 9.47379C9.0842 9.15203 8.52771 8.56778 7.85682 7.96969C7.23424 7.41469 6.45998 6.84738 5.43674 6.84738C5.43642 6.84738 5.43596 6.84738 5.43568 6.84738C5.33107 6.84738 5.22541 6.85262 5.1217 6.86293C4.96049 6.87899 4.84279 7.02262 4.85881 7.18383C4.87482 7.34504 5.01881 7.46258 5.17971 7.44672C5.26428 7.43832 5.35041 7.43403 5.43584 7.43403H5.43693C5.90068 7.43403 6.50451 7.55004 7.46642 8.40754C8.15025 9.01719 8.72322 9.6252 8.99502 9.92305C8.56537 10.4173 8.10537 10.9214 7.60572 11.4457C6.86725 12.2206 6.19834 12.5662 5.43682 12.5662C4.02189 12.5662 2.87072 11.415 2.87072 10.0001C2.87072 9.13996 3.29861 8.34117 4.01533 7.86328C4.15014 7.7734 4.18654 7.59129 4.09666 7.45649C4.00682 7.32172 3.82471 7.28531 3.68986 7.37516C2.80959 7.96223 2.28404 8.94352 2.28404 10.0002C2.28404 11.7386 3.69834 13.1529 5.43678 13.153C6.63549 13.153 7.45252 12.457 8.03037 11.8506C8.87592 10.9633 10.9154 8.53414 10.9154 8.53414C10.9166 8.53266 10.9178 8.53114 10.919 8.52965C12.7238 6.26719 13.7943 5.99281 13.8533 5.97926C13.8783 5.97606 13.8934 5.97074 13.9173 5.96086C14.3896 5.76539 14.8897 5.65555 15.4038 5.63438L15.5897 5.63063C16.6366 5.63133 17.6488 6.00778 18.4403 6.69082C19.2244 7.36754 19.744 8.30047 19.9035 9.31778C19.9286 9.47781 20.0787 9.58711 20.2387 9.56215C20.3988 9.53703 20.5082 9.38696 20.4831 9.22692C20.3021 8.0725 19.7128 7.01414 18.8236 6.24672C17.9249 5.47113 16.7754 5.04399 15.5869 5.04399C15.5849 5.04399 15.5829 5.04399 15.581 5.04403L15.3889 5.04789C15.3869 5.04793 15.3849 5.04797 15.3829 5.04809C14.8085 5.07137 14.2491 5.19235 13.7199 5.40774C13.4744 5.46242 12.3599 5.82199 10.5624 8.03707C9.01615 6.11219 7.64287 5.52754 7.37267 5.42653C7.34541 5.41633 7.31834 5.40571 7.29142 5.39496C6.7233 5.16836 6.12279 5.05035 5.50654 5.04422C4.18377 5.03039 2.93432 5.53738 1.98553 6.46992C1.03732 7.40196 0.509784 8.64258 0.500135 9.96328C0.490448 11.2945 1.00135 12.5476 1.93881 13.4919C2.87635 14.4363 4.12553 14.9564 5.45623 14.9564C5.45818 14.9564 5.46018 14.9564 5.46217 14.9564L5.65424 14.9525C5.65623 14.9525 5.65822 14.9525 5.66021 14.9523C6.23463 14.9291 6.794 14.8081 7.32322 14.5927C7.56568 14.5388 8.65326 14.1881 10.4077 12.0527C10.5754 12.2443 10.7454 12.4287 10.9156 12.6029C11.0288 12.7187 11.2145 12.7209 11.3304 12.6077C11.4463 12.4945 11.4485 12.3088 11.3353 12.1929C11.1506 12.0039 10.9657 11.8022 10.7841 11.5917C10.9382 11.4058 11.513 10.7053 11.6636 10.5264C11.9588 10.8481 12.5155 11.4326 13.1864 12.0307ZM13.4374 8.55457C14.1759 7.77965 14.8448 7.4341 15.6063 7.43414C17.0213 7.43414 18.1724 8.58528 18.1724 10.0002C18.1724 11.4147 17.0217 12.5658 15.6073 12.5663C15.607 12.5663 15.6067 12.5663 15.6063 12.5663C15.1426 12.5663 14.5387 12.4503 13.5767 11.5928C12.8928 10.983 12.3198 10.3749 12.0481 10.0771C12.4777 9.58293 12.9379 9.07875 13.4374 8.55457Z" fill="white"/>
</g>
<defs>
<clipPath id="clip0_232_3484">
<rect width="20" height="20" fill="white" transform="translate(0.5)"/>
</clipPath>
</defs>
</svg>
