<svg width="21" height="20" viewBox="0 0 21 20" fill="none" xmlns="http://www.w3.org/2000/svg">
<path d="M10.5001 17.3392C10.4121 17.3392 10.3241 17.3188 10.2438 17.2781C7.71915 15.9967 6.07236 14.3721 5.20931 12.3112C4.49505 10.6057 4.33056 8.58723 4.70646 6.14059C4.73372 5.96312 4.83986 5.81227 4.99763 5.72668C5.15501 5.64125 5.33884 5.63453 5.50197 5.70824C6.56005 6.18652 7.54943 6.12496 8.44263 5.52508C9.22525 4.99949 9.75677 4.17652 10.004 3.73277C10.1041 3.55301 10.2942 3.44141 10.5001 3.44141C10.7059 3.44141 10.896 3.55301 10.9961 3.73277C11.2433 4.17652 11.7749 4.99949 12.5575 5.52508C13.4506 6.12492 14.44 6.18652 15.4981 5.70824C15.6612 5.63449 15.8451 5.64121 16.0025 5.72664C16.1603 5.81223 16.2664 5.96309 16.2936 6.14055C16.9517 10.4234 15.9518 13.4775 13.1471 15.752C13.0214 15.8539 12.8369 15.8347 12.735 15.709C12.6331 15.5833 12.6524 15.3988 12.778 15.2969C14.2081 14.1372 15.1233 12.7782 15.5759 11.1421C15.9609 9.7507 16.0074 8.15082 15.7179 6.25184C14.4708 6.80863 13.2975 6.72793 12.2308 6.01152C11.404 5.45629 10.8354 4.64199 10.5001 4.04613C10.1647 4.64195 9.59614 5.45629 8.76931 6.0116C7.70267 6.72805 6.52943 6.80875 5.28216 6.25191C4.92747 8.57875 5.08048 10.4869 5.74974 12.085C6.55579 14.0097 8.10958 15.5361 10.5001 16.7511C10.9463 16.5242 11.3697 16.2823 11.7584 16.0323C11.8944 15.9447 12.0757 15.9841 12.1633 16.1201C12.2508 16.2562 12.2115 16.4375 12.0754 16.525C11.6674 16.7875 11.2236 17.0409 10.7563 17.2781C10.6761 17.3188 10.5881 17.3392 10.5001 17.3392Z" fill="white"/>
<path d="M9.97883 13.2494C9.71797 13.2494 9.47277 13.1478 9.28836 12.9634L7.47656 11.1521C7.29207 10.9677 7.19047 10.7225 7.19043 10.4616C7.19039 10.2007 7.29195 9.9555 7.47637 9.77101C7.85711 9.39023 8.47668 9.39011 8.85742 9.77086L9.96336 10.8765L10.4381 10.3803C10.55 10.2634 10.7354 10.2593 10.8523 10.3712C10.9693 10.4831 10.9733 10.6686 10.8614 10.7855L10.1796 11.498C10.1252 11.5549 10.05 11.5875 9.97121 11.5884C9.89254 11.5896 9.81656 11.5583 9.76082 11.5026L8.44313 10.1853C8.29082 10.033 8.04301 10.033 7.8907 10.1853C7.81695 10.2591 7.77633 10.3573 7.77633 10.4616C7.77633 10.5659 7.81699 10.664 7.89078 10.7377L9.70262 12.5491C9.77637 12.6228 9.87445 12.6635 9.97879 12.6635C9.97918 12.6635 9.98273 12.6635 9.98312 12.6634C10.0875 12.6623 10.1888 12.6184 10.261 12.5429L13.1152 9.56015C13.1873 9.48476 13.2258 9.38582 13.2235 9.28148C13.2212 9.17718 13.1784 9.08004 13.1031 9.00789C13.0277 8.93574 12.9285 8.89687 12.8244 8.89957C12.7201 8.90187 12.6229 8.94465 12.5508 9.02004L11.7444 9.86277C11.6325 9.97961 11.4471 9.98375 11.3302 9.87187C11.2132 9.76 11.2092 9.57457 11.3211 9.45761L12.1274 8.61496C12.3077 8.42648 12.5507 8.31949 12.8115 8.31379C13.0716 8.30726 13.3196 8.40418 13.5082 8.58457C13.6966 8.76488 13.8036 9.00785 13.8093 9.26867C13.815 9.52945 13.7189 9.77687 13.5386 9.96531L10.6843 12.948C10.5038 13.1367 10.2506 13.2465 9.98957 13.2494L9.97883 13.2494Z" fill="white"/>
<path d="M10.5 20C10.3925 20 10.285 19.9751 10.187 19.9254C8.32002 18.9779 6.75405 17.8723 5.5326 16.6395C4.38803 15.4842 3.50487 14.1755 2.90776 12.7496C1.87592 10.2857 1.63893 7.36566 2.18327 3.82258C2.21659 3.60559 2.34635 3.42117 2.53924 3.31656C2.73159 3.21223 2.9562 3.2041 3.15545 3.29418C3.54815 3.47168 3.93956 3.60133 4.31881 3.67953C4.47729 3.71223 4.57924 3.86719 4.54659 4.02563C4.51389 4.18414 4.35897 4.28613 4.20045 4.2534C3.77889 4.16645 3.34612 4.02336 2.91405 3.82805C2.87182 3.80898 2.83604 3.82211 2.81854 3.8316C2.80065 3.84133 2.76959 3.86461 2.76237 3.91152C2.23487 7.34484 2.4592 10.1618 3.44819 12.5233C4.63803 15.3644 6.92905 17.6148 10.4522 19.4029C10.4821 19.4181 10.5178 19.4181 10.5476 19.4029C14.0708 17.6148 16.3618 15.3644 17.5517 12.5233C18.5406 10.1618 18.7649 7.34484 18.2375 3.91152C18.2303 3.86461 18.1992 3.84133 18.1813 3.8316C18.1637 3.82211 18.128 3.80902 18.0858 3.82805C16.3003 4.63523 14.6224 4.5257 13.0989 3.5025C11.8961 2.69465 11.0729 1.50055 10.5942 0.641094C10.5674 0.593047 10.5237 0.585938 10.4999 0.585898C10.4762 0.585898 10.4323 0.593086 10.4056 0.641094C10.0728 1.23852 9.50897 2.10727 8.71245 2.85313C7.74932 3.75496 6.68838 4.25664 5.55905 4.34414C5.39737 4.35664 5.25682 4.23594 5.24432 4.07469C5.23182 3.9134 5.35245 3.7725 5.51377 3.75996C7.77252 3.58492 9.22745 1.55215 9.8937 0.356016C10.018 0.133086 10.2446 0 10.5 0C10.7554 3.90625e-05 10.982 0.133086 11.1062 0.356016C11.4725 1.01371 12.261 2.23391 13.4256 3.01609C14.7694 3.91859 16.2562 4.01211 17.8445 3.29414C18.0437 3.20406 18.2683 3.21223 18.4606 3.31652C18.6536 3.42113 18.7833 3.60555 18.8167 3.82254C19.361 7.36563 19.124 10.2857 18.0921 12.7496C17.495 14.1754 16.6119 15.4842 15.4673 16.6394C14.2458 17.8722 12.6799 18.9778 10.8129 19.9253C10.715 19.9751 10.6075 20 10.5 20Z" fill="white"/>
</svg>
