<svg width="21" height="20" viewBox="0 0 21 20" fill="none" xmlns="http://www.w3.org/2000/svg">
<g clip-path="url(#clip0_232_3528)">
<path d="M20.4596 7.68715C20.3596 7.37954 20.0974 7.16985 19.7753 7.13997L13.6606 6.57286L12.4485 3.75825C12.3845 3.60965 12.2123 3.54098 12.0636 3.60505C11.915 3.66903 11.8464 3.84137 11.9104 3.98993L13.1913 6.9643C13.2337 7.06278 13.3266 7.13024 13.4333 7.14012L19.7212 7.72329C19.846 7.73485 19.8894 7.82844 19.9024 7.86813C19.9153 7.90782 19.9351 8.00907 19.841 8.09176L15.0967 12.2596C15.0161 12.3304 14.9807 12.4395 15.0043 12.5441L16.3928 18.7044C16.4203 18.8266 16.3448 18.8969 16.3109 18.9215C16.2772 18.946 16.1871 18.9963 16.0792 18.9322L10.6494 15.7081C10.5573 15.6534 10.4424 15.6534 10.3503 15.7081L4.92054 18.9322C4.81272 18.9963 4.72264 18.946 4.68886 18.9215C4.65507 18.8969 4.57948 18.8266 4.60702 18.7044L5.32374 15.5245C5.35932 15.3666 5.26018 15.2099 5.10237 15.1743C4.94429 15.1388 4.78776 15.2379 4.75218 15.3957L4.03546 18.5756C3.96436 18.8912 4.08276 19.2053 4.34444 19.3955C4.60612 19.5856 4.94151 19.6011 5.2196 19.436L10.4998 16.3006L15.7801 19.436C15.9082 19.512 16.0484 19.5498 16.188 19.5498C16.3515 19.5498 16.5141 19.498 16.6552 19.3955C16.9169 19.2053 17.0353 18.8912 16.9642 18.5756L15.614 12.585L20.2276 8.53204C20.4707 8.31852 20.5595 7.99481 20.4596 7.68715Z" fill="white"/>
<path d="M11.9102 2.50715L11.2318 0.931836C11.1038 0.634727 10.8234 0.450195 10.4999 0.450195C10.1765 0.450195 9.89606 0.634766 9.76809 0.931875L7.33918 6.57203L1.22465 7.1391C0.902581 7.16898 0.640355 7.37863 0.540355 7.68629C0.440394 7.99391 0.529261 8.31766 0.772308 8.53117L5.38582 12.5841L5.03461 14.1424C4.99903 14.3002 5.09817 14.457 5.25598 14.4926C5.2777 14.4975 5.29934 14.4998 5.32067 14.4998C5.45465 14.4998 5.57551 14.4074 5.60617 14.2712L5.99563 12.5432C6.01922 12.4386 5.98375 12.3294 5.90321 12.2587L1.15899 8.09098C1.06485 8.00828 1.08469 7.90703 1.09762 7.86734C1.11051 7.82766 1.15395 7.73406 1.27875 7.7225L7.56657 7.13934C7.67332 7.12945 7.76618 7.06199 7.8086 6.96352L10.3063 1.16363C10.3558 1.04855 10.4582 1.03609 10.5 1.03609C10.5417 1.03609 10.6441 1.04852 10.6937 1.16359L11.3721 2.73887C11.4362 2.88746 11.6084 2.95609 11.757 2.89207C11.9056 2.82809 11.9742 2.65574 11.9102 2.50715Z" fill="white"/>
</g>
<defs>
<clipPath id="clip0_232_3528">
<rect width="20" height="20" fill="white" transform="translate(0.5)"/>
</clipPath>
</defs>
</svg>
