<svg width="21" height="20" viewBox="0 0 21 20" fill="none" xmlns="http://www.w3.org/2000/svg">
<path d="M8.30829 8.10459C8.32064 8.10459 8.33317 8.10381 8.34575 8.10221L9.04915 8.01233C9.20966 7.99186 9.32313 7.8451 9.30262 7.6846C9.28215 7.52413 9.13548 7.41053 8.97489 7.43112L8.2715 7.521C8.11099 7.54147 7.99751 7.68823 8.01802 7.84874C8.03693 7.99663 8.16298 8.10459 8.30829 8.10459Z" fill="white"/>
<path d="M11.9512 8.01231L12.6546 8.10219C12.6672 8.10379 12.6797 8.10457 12.692 8.10457C12.8373 8.10457 12.9634 7.9966 12.9823 7.84871C13.0028 7.68821 12.8893 7.54149 12.7288 7.52098L12.0254 7.4311C11.8649 7.41063 11.7182 7.5241 11.6977 7.68457C11.6772 7.84512 11.7907 7.99184 11.9512 8.01231Z" fill="white"/>
<path d="M18.2854 8.55159C18.1814 8.40421 18.052 8.22077 18.052 8.11968C18.052 8.01859 18.1814 7.83515 18.2854 7.68773C18.4619 7.43749 18.662 7.15386 18.612 6.83543C18.5606 6.50859 18.2781 6.29707 18.0289 6.11039C17.8882 6.00504 17.7131 5.87391 17.6843 5.78508C17.6538 5.69137 17.7194 5.47875 17.7721 5.30789C17.863 5.01356 17.9659 4.67993 17.818 4.39032C17.6687 4.0979 17.3361 3.98493 17.0425 3.88528C16.8749 3.82833 16.6662 3.75751 16.6101 3.6804C16.5532 3.60216 16.5499 3.38079 16.5473 3.2029C16.5427 2.894 16.5375 2.54388 16.3066 2.31291C16.0756 2.08193 15.7255 2.07681 15.4166 2.07224C15.2387 2.06966 15.0173 2.06638 14.9391 2.00947C14.862 1.95338 14.7911 1.74474 14.7342 1.57709C14.6346 1.28357 14.5216 0.950958 14.2292 0.801622C13.9396 0.653811 13.606 0.75674 13.3116 0.847599C13.1408 0.900333 12.9282 0.965919 12.8345 0.935489C12.7457 0.906661 12.6146 0.731584 12.5092 0.590881C12.3226 0.341663 12.1111 0.0591644 11.7843 0.00779743C11.4659 -0.0421633 11.1823 0.157875 10.9321 0.334398C10.7847 0.438382 10.6012 0.567795 10.5001 0.567795C10.399 0.567795 10.2156 0.438421 10.0682 0.334398C9.81791 0.157836 9.53436 -0.0422024 9.21589 0.00779743C8.88909 0.0591644 8.67753 0.341624 8.49089 0.590881C8.38554 0.731584 8.25441 0.906661 8.16558 0.935528C8.07183 0.965958 7.85921 0.900333 7.68839 0.847638C7.39406 0.756818 7.06043 0.65385 6.77078 0.80174C6.69043 0.842794 6.61754 0.901661 6.55406 0.976739C6.44965 1.10033 6.46519 1.28518 6.58879 1.38959C6.71238 1.494 6.89722 1.47846 7.00164 1.35486C7.01441 1.33975 7.02675 1.32889 7.03722 1.32353C7.11496 1.28389 7.35609 1.35822 7.51566 1.40744C7.79136 1.49252 8.0764 1.58045 8.34655 1.49271C8.61206 1.40646 8.7889 1.17037 8.95991 0.942013C9.06768 0.798068 9.21534 0.60092 9.30686 0.586506C9.39053 0.573459 9.59514 0.717599 9.73045 0.813068C9.9567 0.972676 10.2132 1.15361 10.5001 1.15361C10.7871 1.15361 11.0435 0.972676 11.2698 0.813068C11.4051 0.717599 11.6099 0.573225 11.6934 0.586506C11.7849 0.600881 11.9324 0.79799 12.0402 0.941934C12.2112 1.17029 12.388 1.40646 12.6535 1.49264C12.9236 1.58037 13.2087 1.4924 13.4844 1.40732C13.6439 1.35807 13.885 1.28369 13.9627 1.32338C14.0433 1.36447 14.1219 1.59615 14.1793 1.76529C14.2715 2.03685 14.3669 2.31763 14.5943 2.4831C14.8228 2.64939 15.1202 2.65376 15.4079 2.65798C15.5857 2.6606 15.8293 2.66415 15.8922 2.72708C15.9551 2.78997 15.9587 3.03357 15.9614 3.21138C15.9656 3.49903 15.97 3.79649 16.1363 4.02505C16.3018 4.25243 16.5826 4.34774 16.8541 4.43993C17.0233 4.49739 17.255 4.57602 17.2961 4.65657C17.3358 4.7343 17.2614 4.97543 17.2121 5.135C17.1271 5.41067 17.0391 5.69574 17.1269 5.9659C17.2131 6.23141 17.4492 6.40824 17.6776 6.57926C17.8216 6.68707 18.0187 6.83468 18.0331 6.92621C18.0462 7.01 17.902 7.21449 17.8065 7.3498C17.6469 7.57605 17.466 7.83253 17.466 8.11952C17.466 8.40648 17.6469 8.66292 17.8066 8.88917C17.902 9.02448 18.0462 9.22897 18.0331 9.31276C18.0187 9.40424 17.8216 9.55182 17.6777 9.6596C17.4493 9.83057 17.2132 10.0074 17.127 10.2729C17.0393 10.543 17.1272 10.8281 17.2123 11.1038C17.2615 11.2633 17.3359 11.5044 17.2962 11.5821C17.2551 11.6626 17.0235 11.7413 16.8543 11.7987C16.5828 11.8909 16.302 11.9863 16.1365 12.2136C15.9702 12.4422 15.9658 12.7396 15.9616 13.0273C15.959 13.2051 15.9554 13.4487 15.8925 13.5116C15.8296 13.5745 15.5861 13.5781 15.4082 13.5807C15.1206 13.585 14.8231 13.5893 14.5945 13.7557C14.3672 13.9211 14.2718 14.202 14.1796 14.4735C14.1222 14.6427 14.0435 14.8744 13.963 14.9155C13.8852 14.9552 13.6441 14.8808 13.4846 14.8316C13.2149 14.7484 12.9363 14.6629 12.6714 14.7413V13.786C13.5226 13.2955 14.1936 12.5261 14.5588 11.6035C14.7241 11.7629 14.9487 11.8612 15.196 11.8612C15.7028 11.8612 16.1151 11.4489 16.1151 10.9422C16.1151 10.6771 16.0022 10.438 15.8221 10.2701C16.0036 10.0775 16.1151 9.81831 16.1151 9.53338C16.1151 9.00679 15.7346 8.56765 15.2341 8.47577C15.422 7.085 14.4 6.69804 13.5666 6.38277C12.9368 6.14445 12.3799 5.93356 12.1399 5.40309C12.557 5.43305 12.9118 5.43039 13.2131 5.34379C13.7351 5.19379 14.0576 4.80653 14.2279 4.12501C14.2672 3.96802 14.1718 3.80899 14.0148 3.76974C13.858 3.73056 13.6988 3.82591 13.6595 3.9829C13.4265 4.91477 13.0233 4.91247 11.5184 4.75649L11.3933 4.74352C10.1442 4.61493 9.17108 5.02106 8.23851 6.06043C7.5362 6.84312 7.00703 6.87754 6.39433 6.91738C5.86027 6.95211 5.255 6.99144 4.6036 7.58999C4.48446 7.69949 4.47665 7.8848 4.5861 8.00398C4.64387 8.06683 4.72274 8.0987 4.80188 8.0987C4.8727 8.0987 4.94375 8.0732 5.00004 8.02144C5.30766 7.73874 5.58996 7.61968 5.87852 7.56226C5.72613 7.90976 5.71922 8.23792 5.75047 8.47851C5.25766 8.57655 4.885 9.01221 4.885 9.53338C4.885 9.81831 4.99657 10.0775 5.17801 10.2701C4.99789 10.438 4.885 10.6771 4.885 10.9422C4.885 11.449 5.29731 11.8612 5.8041 11.8612C6.05137 11.8612 6.27597 11.7629 6.44133 11.6035C6.80644 12.5261 7.47749 13.2956 8.32866 13.786V14.7413C8.06394 14.6631 7.78534 14.7486 7.51574 14.8317C7.35621 14.881 7.11507 14.9554 7.03738 14.9157C6.95687 14.8746 6.8782 14.6429 6.82078 14.4737C6.72859 14.2022 6.63324 13.9214 6.40586 13.7559C6.1773 13.5896 5.87988 13.5853 5.59219 13.581C5.41438 13.5784 5.17082 13.5749 5.10793 13.5119C5.045 13.449 5.04141 13.2054 5.03875 13.0276C5.03454 12.74 5.03012 12.4425 4.86379 12.214C4.69833 11.9866 4.41755 11.8913 4.14602 11.799C3.97684 11.7416 3.74513 11.6629 3.70403 11.5824C3.66435 11.5047 3.73876 11.2635 3.78798 11.104C3.87302 10.8283 3.96098 10.5433 3.87325 10.2731C3.787 10.0076 3.55091 9.83077 3.32251 9.65975C3.17857 9.55198 2.98142 9.40432 2.96704 9.3128C2.95388 9.22901 3.09814 9.02452 3.19361 8.88921C3.35321 8.66292 3.53411 8.40648 3.53411 8.11952C3.53411 7.83257 3.35321 7.57609 3.19357 7.34984C3.09814 7.21453 2.95388 7.01007 2.96704 6.92629C2.98142 6.8348 3.17853 6.68722 3.32243 6.57945C3.55079 6.40844 3.78696 6.23164 3.87313 5.96613C3.96087 5.69598 3.8729 5.41094 3.78782 5.13524C3.7386 4.97571 3.66419 4.73461 3.70388 4.65688C3.74497 4.57637 3.97665 4.4977 4.14579 4.44028C4.41731 4.34809 4.69809 4.25274 4.86356 4.02536C5.02989 3.79681 5.03426 3.49939 5.03848 3.21169C5.0411 3.03388 5.04465 2.79033 5.10758 2.7274C5.17047 2.66451 5.41403 2.66091 5.59188 2.65826C5.87953 2.654 6.17699 2.64962 6.40554 2.4833C6.53636 2.38806 6.56523 2.20486 6.47 2.07404C6.3748 1.94322 6.19156 1.91431 6.0607 2.00955C5.9825 2.0665 5.76109 2.06978 5.5832 2.07236C5.2743 2.07693 4.92418 2.08209 4.69321 2.3131C4.46223 2.54408 4.45712 2.89415 4.45258 3.20306C4.44997 3.38095 4.44672 3.60231 4.38981 3.68056C4.33368 3.75767 4.12505 3.82849 3.95743 3.8854C3.66392 3.98505 3.33126 4.09802 3.182 4.39044C3.03415 4.68004 3.13712 5.01368 3.22794 5.30801C3.28067 5.47887 3.34626 5.69145 3.31583 5.78516C3.287 5.87391 3.11193 6.00504 2.97122 6.11039C2.72201 6.29699 2.43955 6.50851 2.38818 6.83527C2.33814 7.15367 2.53822 7.43734 2.71478 7.68757C2.81876 7.83495 2.94818 8.01839 2.94818 8.11948C2.94818 8.22058 2.81876 8.40401 2.71478 8.55144C2.53826 8.80167 2.33814 9.0853 2.38818 9.40374C2.43955 9.73057 2.72204 9.94209 2.97126 10.1287C3.11196 10.2341 3.28708 10.3653 3.31591 10.4541C3.34634 10.5478 3.28075 10.7604 3.22802 10.9313C3.1372 11.2256 3.03427 11.5593 3.18212 11.8489C3.33142 12.1413 3.66407 12.2542 3.95759 12.3539C4.12524 12.4108 4.33391 12.4817 4.39001 12.5588C4.44696 12.637 4.45024 12.8584 4.45286 13.0363C4.45743 13.3452 4.46258 13.6953 4.69356 13.9263C4.92454 14.1572 5.27461 14.1624 5.58356 14.1669C5.76141 14.1695 5.98281 14.1728 6.06102 14.2297C6.13812 14.2858 6.20898 14.4945 6.2659 14.6621C6.36555 14.9556 6.47851 15.2882 6.77093 15.4375C7.06058 15.5854 7.39417 15.4824 7.68851 15.3916C7.85933 15.3389 8.07198 15.2732 8.16566 15.3037C8.18655 15.3105 8.22062 15.3304 8.27237 15.3813C8.17702 15.6485 7.96612 15.8668 7.68863 15.9647L4.45528 17.1059C3.58876 17.4117 3.00661 18.2346 3.00661 19.1534V19.707C3.00661 19.8688 3.13778 19.9999 3.29958 19.9999C3.46138 19.9999 3.59255 19.8688 3.59255 19.707V19.1534C3.59255 18.4825 4.01763 17.8817 4.65032 17.6584L5.73137 17.2769C6.84828 18.7868 8.61714 19.6827 10.5 19.6827C12.3829 19.6827 14.1518 18.7867 15.2687 17.2768L16.3497 17.6584C16.9824 17.8817 17.4075 18.4825 17.4075 19.1534V19.707C17.4075 19.8688 17.5387 19.9999 17.7005 19.9999C17.8623 19.9999 17.9934 19.8688 17.9934 19.707V19.1534C17.9934 18.2346 17.4112 17.4117 16.5448 17.1059L13.3114 15.9647C13.034 15.8668 12.8232 15.6487 12.7278 15.3816C12.7792 15.331 12.8134 15.3105 12.8347 15.3036C12.9283 15.2731 13.141 15.3388 13.3118 15.3915C13.6062 15.4823 13.9399 15.5852 14.2295 15.4374C14.5219 15.2881 14.6348 14.9554 14.7345 14.6619C14.7914 14.4943 14.8622 14.2856 14.9393 14.2295C15.0175 14.1725 15.2389 14.1693 15.4168 14.1666C15.7257 14.1621 16.0759 14.1569 16.3068 13.9259C16.5378 13.695 16.5429 13.3449 16.5475 13.0359C16.5501 12.8581 16.5533 12.6367 16.6102 12.5585C16.6664 12.4814 16.875 12.4105 17.0426 12.3536C17.3361 12.254 17.6688 12.141 17.818 11.8486C17.9659 11.559 17.8629 11.2254 17.7721 10.931C17.7194 10.7602 17.6538 10.5476 17.6842 10.4539C17.713 10.3651 17.8881 10.234 18.0288 10.1287C18.278 9.94206 18.5605 9.73057 18.6119 9.40378C18.662 9.0855 18.4619 8.80183 18.2854 8.55159ZM15.1961 11.2754C15.0124 11.2754 14.8629 11.126 14.8629 10.9423C14.8629 10.7586 15.0124 10.6092 15.1961 10.6092C15.3798 10.6092 15.5293 10.7586 15.5293 10.9423C15.5293 11.126 15.3798 11.2754 15.1961 11.2754ZM5.80426 11.2754C5.62055 11.2754 5.4711 11.126 5.4711 10.9423C5.4711 10.7586 5.62055 10.6092 5.80426 10.6092C5.98797 10.6092 6.13742 10.7586 6.13742 10.9423C6.13742 11.126 5.98793 11.2754 5.80426 11.2754ZM6.72336 10.0031C6.72336 9.84131 6.59219 9.71014 6.43039 9.71014C6.26859 9.71014 6.13742 9.84131 6.13742 10.0031C6.13742 10.0098 6.13766 10.0165 6.13769 10.0232H5.96082C5.69078 10.0232 5.47113 9.8035 5.47113 9.5335C5.47113 9.2635 5.69082 9.04382 5.96082 9.04382H6.43039C6.59219 9.04382 6.72336 8.91265 6.72336 8.75085C6.72336 8.58905 6.59219 8.45788 6.43039 8.45788H6.33906C6.30121 8.24132 6.29879 7.86015 6.60992 7.48999C7.213 7.4441 7.89066 7.32574 8.67476 6.45187C9.48034 5.55414 10.2756 5.21766 11.3335 5.32649C11.3335 5.32649 11.4865 5.34231 11.5007 5.34375C11.756 6.32355 12.641 6.65906 13.3594 6.93086C14.2943 7.28457 14.802 7.52648 14.6452 8.45784H14.57C14.4082 8.45784 14.277 8.58901 14.277 8.75081C14.277 8.91261 14.4082 9.04378 14.57 9.04378H15.0395C15.3096 9.04378 15.5292 9.26346 15.5292 9.53346C15.5292 9.80346 15.3095 10.0231 15.0395 10.0231H14.8627C14.8627 10.0165 14.8629 10.0098 14.8629 10.0031C14.8629 9.84128 14.7318 9.7101 14.57 9.7101C14.4082 9.7101 14.277 9.84128 14.277 10.0031C14.277 12.0856 12.5827 13.7799 10.5001 13.7799C8.41757 13.7799 6.72336 12.0856 6.72336 10.0031ZM13.1165 16.5174L13.4157 16.623C13.1468 16.8966 12.8422 17.1304 12.5061 17.3199C12.3652 17.3994 12.3154 17.578 12.3948 17.719C12.4486 17.8144 12.548 17.8681 12.6503 17.8681C12.699 17.8681 12.7485 17.8559 12.7939 17.8302C13.2568 17.5692 13.667 17.2343 14.0167 16.8351L14.6877 17.0719C13.6771 18.3458 12.1365 19.0969 10.5002 19.0969C8.86393 19.0969 7.32324 18.3459 6.31269 17.0719L6.98269 16.8354C7.87222 17.851 9.14624 18.4306 10.5002 18.4306C10.8769 18.4306 11.2517 18.3857 11.6143 18.297C11.7715 18.2585 11.8678 18.1 11.8293 17.9428C11.7909 17.7857 11.6324 17.6894 11.4751 17.7278C11.158 17.8053 10.83 17.8446 10.5002 17.8446C9.39546 17.8446 8.35159 17.4033 7.58468 16.6229L7.88386 16.5173C8.5005 16.2997 8.91479 15.7141 8.91479 15.0602V14.0676C9.40643 14.26 9.94116 14.3659 10.5002 14.3659C11.0592 14.3659 11.5939 14.26 12.0856 14.0676V15.0603C12.0856 15.7141 12.4999 16.2997 13.1165 16.5174Z" fill="white"/>
<path d="M9.00515 9.22703C9.06175 9.31086 9.15409 9.35601 9.24816 9.35601C9.30456 9.35601 9.36163 9.33972 9.41191 9.30578C9.54597 9.21519 9.5812 9.03308 9.49062 8.89902C9.30359 8.62223 8.97878 8.45703 8.62175 8.45703C8.26472 8.45703 7.93988 8.62223 7.75289 8.89902C7.6623 9.03308 7.69754 9.21519 7.8316 9.30578C7.9657 9.39636 8.14777 9.36113 8.23839 9.22703C8.31511 9.11347 8.46203 9.04293 8.62175 9.04293C8.78148 9.04293 8.92843 9.11347 9.00515 9.22703Z" fill="white"/>
<path d="M11.5884 9.30578C11.7225 9.39636 11.9047 9.36113 11.9952 9.22703C12.072 9.11347 12.2189 9.04293 12.3786 9.04293C12.5383 9.04293 12.6852 9.11347 12.762 9.22703C12.8186 9.31086 12.9109 9.35601 13.005 9.35601C13.0614 9.35601 13.1184 9.33972 13.1687 9.30578C13.3028 9.21519 13.338 9.03308 13.2474 8.89902C13.0604 8.62223 12.7356 8.45703 12.3786 8.45703C12.0215 8.45703 11.6967 8.62223 11.5097 8.89902C11.4191 9.03304 11.4544 9.21515 11.5884 9.30578Z" fill="white"/>
<path d="M12.6392 10.6765C12.6535 10.5915 12.6296 10.5045 12.5739 10.4387C12.5183 10.3729 12.4364 10.335 12.3503 10.335H8.6499C8.56369 10.335 8.48189 10.3729 8.42623 10.4387C8.37056 10.5045 8.3467 10.5915 8.36099 10.6765C8.53732 11.7251 9.43693 12.4862 10.5001 12.4862C11.5632 12.4862 12.4629 11.7252 12.6392 10.6765ZM9.03603 10.9209H11.9642C11.7249 11.5045 11.155 11.9003 10.5001 11.9003C9.84525 11.9003 9.27529 11.5046 9.03603 10.9209Z" fill="white"/>
</svg>
