<svg width="21" height="20" viewBox="0 0 21 20" fill="none" xmlns="http://www.w3.org/2000/svg">
<path d="M16.7806 12.4638C16.6953 12.5887 16.6052 12.7128 16.5125 12.8324C16.4135 12.9604 16.4368 13.1444 16.5648 13.2434C16.6182 13.2848 16.6813 13.3047 16.744 13.3047C16.8315 13.3047 16.9181 13.2657 16.9759 13.1911C17.0756 13.0623 17.1728 12.9287 17.2646 12.7941C17.3558 12.6605 17.3214 12.4782 17.1878 12.387C17.054 12.2957 16.8718 12.3302 16.7806 12.4638Z" fill="white"/>
<path d="M15.695 13.7306C15.5846 13.8341 15.4696 13.9356 15.3533 14.0324C15.2288 14.1358 15.2118 14.3205 15.3152 14.4449C15.3732 14.5147 15.4566 14.5506 15.5407 14.5506C15.6066 14.5506 15.6731 14.5285 15.7278 14.483C15.8531 14.3788 15.9768 14.2695 16.0957 14.1581C16.2137 14.0475 16.2198 13.8621 16.1091 13.744C15.9984 13.626 15.8131 13.6199 15.695 13.7306Z" fill="white"/>
<path d="M16.4975 3.51809C16.5553 3.59219 16.6416 3.63098 16.7288 3.63098C16.7917 3.63098 16.8552 3.61078 16.9087 3.5691C17.0364 3.46961 17.0592 3.28555 16.9597 3.15793C16.8595 3.0293 16.7541 2.90219 16.6467 2.78008C16.5398 2.65859 16.3546 2.64684 16.2332 2.75371C16.1117 2.86059 16.0999 3.04574 16.2068 3.16719C16.3067 3.28055 16.4044 3.39859 16.4975 3.51809Z" fill="white"/>
<path d="M14.9743 2.04236C15.0964 2.13146 15.2176 2.22552 15.3344 2.322C15.3891 2.36708 15.4551 2.38904 15.5208 2.38904C15.6052 2.38904 15.689 2.35275 15.7469 2.28255C15.8499 2.15775 15.8323 1.9731 15.7075 1.87009C15.5816 1.76626 15.4511 1.66493 15.3197 1.569C15.1889 1.47372 15.0057 1.5022 14.9103 1.63298C14.815 1.76368 14.8436 1.94697 14.9743 2.04236Z" fill="white"/>
<path d="M11.9334 0.72052C12.0818 0.74884 12.2314 0.782082 12.3781 0.819387C12.4024 0.82552 12.4266 0.828449 12.4505 0.828449C12.5813 0.828449 12.7005 0.740129 12.7343 0.607551C12.7741 0.450715 12.6793 0.291301 12.5224 0.251457C12.3644 0.21134 12.2032 0.175481 12.0433 0.144934C11.8846 0.114465 11.7309 0.21884 11.7006 0.377785C11.6702 0.536731 11.7745 0.690207 11.9334 0.72052Z" fill="white"/>
<path d="M18.2069 10.186C18.3414 10.186 18.4625 10.0928 18.4927 9.95601C18.5278 9.79664 18.5586 9.63437 18.584 9.47359C18.6093 9.31375 18.5002 9.16371 18.3405 9.13839C18.1805 9.11316 18.0306 9.22222 18.0053 9.38195C17.9817 9.53113 17.9532 9.68183 17.9205 9.8298C17.8857 9.98781 17.9855 10.1441 18.1435 10.179C18.1648 10.1837 18.186 10.186 18.2069 10.186Z" fill="white"/>
<path d="M18.3591 7.40579C18.1976 7.41564 18.0747 7.55454 18.0845 7.71603C18.0937 7.86669 18.0985 8.02005 18.0988 8.17181C18.099 8.33345 18.2301 8.46427 18.3917 8.46427H18.3922C18.554 8.464 18.685 8.33263 18.6847 8.17079C18.6844 8.00755 18.6793 7.84255 18.6694 7.68036C18.6596 7.51896 18.5202 7.39626 18.3591 7.40579Z" fill="white"/>
<path d="M17.3722 4.93709C17.4223 5.04287 17.5275 5.10483 17.6372 5.10483C17.6792 5.10483 17.7219 5.09576 17.7623 5.07658C17.9086 5.00741 17.971 4.83272 17.9018 4.68647C17.8323 4.53951 17.7572 4.39256 17.6787 4.24959C17.6008 4.10776 17.4227 4.05604 17.2809 4.13389C17.1391 4.21178 17.0873 4.3899 17.1651 4.53174C17.238 4.6644 17.3077 4.80076 17.3722 4.93709Z" fill="white"/>
<path d="M17.8016 6.0726C17.8435 6.21784 17.8816 6.36632 17.9147 6.51385C17.9453 6.65014 18.0662 6.74276 18.2003 6.74276C18.2215 6.74276 18.2431 6.74042 18.2647 6.73557C18.4226 6.70014 18.5219 6.54346 18.4865 6.38557C18.4508 6.22655 18.4098 6.06655 18.3645 5.90999C18.3197 5.75456 18.1572 5.66491 18.0018 5.70983C17.8463 5.75471 17.7567 5.91718 17.8016 6.0726Z" fill="white"/>
<path d="M17.5638 10.9905C17.5081 11.1309 17.4472 11.2715 17.3828 11.4087C17.3141 11.5551 17.3771 11.7296 17.5236 11.7984C17.5638 11.8172 17.6061 11.8262 17.6478 11.8262C17.7579 11.8262 17.8634 11.7638 17.9133 11.6576C17.9826 11.5098 18.0482 11.3582 18.1083 11.207C18.1681 11.0566 18.0947 10.8863 17.9443 10.8265C17.7938 10.7666 17.6236 10.8401 17.5638 10.9905Z" fill="white"/>
<path d="M13.5269 1.21216C13.6652 1.27228 13.8041 1.33767 13.9394 1.4065C13.982 1.42814 14.0273 1.43837 14.072 1.43837C14.1787 1.43837 14.2817 1.37978 14.3334 1.27806C14.4067 1.13384 14.3492 0.957472 14.205 0.884152C14.0591 0.810011 13.9095 0.739543 13.7604 0.674738C13.612 0.610246 13.4394 0.678293 13.3749 0.826691C13.3105 0.97509 13.3785 1.14767 13.5269 1.21216Z" fill="white"/>
<path d="M3.08871 11.6624C3.13859 11.7685 3.24406 11.8308 3.35406 11.8308C3.39578 11.8308 3.4382 11.8219 3.47851 11.8029C3.62492 11.734 3.68785 11.5596 3.61906 11.4131C3.5546 11.276 3.49363 11.1354 3.43777 10.9952C3.37792 10.8448 3.20749 10.7716 3.05722 10.8314C2.90691 10.8912 2.83355 11.0616 2.89343 11.2119C2.95355 11.363 3.01925 11.5146 3.08871 11.6624Z" fill="white"/>
<path d="M4.22191 12.4666C4.13066 12.333 3.94832 12.2986 3.81472 12.39C3.68113 12.4813 3.64683 12.6636 3.73812 12.7972C3.83003 12.9317 3.92722 13.0652 4.02707 13.1941C4.0848 13.2685 4.17132 13.3075 4.25882 13.3075C4.32152 13.3075 4.38472 13.2875 4.43812 13.2461C4.56597 13.147 4.58933 12.963 4.49019 12.8351C4.3975 12.7155 4.30726 12.5915 4.22191 12.4666Z" fill="white"/>
<path d="M3.23572 5.08141C3.27615 5.10055 3.31877 5.10962 3.36072 5.10962C3.47053 5.10962 3.57576 5.04758 3.62576 4.94176C3.69057 4.80469 3.76025 4.66801 3.83303 4.53555C3.91084 4.39372 3.859 4.21563 3.71713 4.13774C3.57529 4.05993 3.39721 4.11176 3.31932 4.25364C3.24096 4.39641 3.16584 4.54368 3.09603 4.69137C3.02689 4.83766 3.08943 5.01231 3.23572 5.08141Z" fill="white"/>
<path d="M4.08962 3.57149C4.14309 3.61313 4.20645 3.63329 4.26938 3.63329C4.35661 3.63329 4.44298 3.59446 4.50075 3.52024C4.59372 3.40087 4.69153 3.2827 4.79145 3.16907C4.89829 3.04759 4.88645 2.86247 4.76493 2.75559C4.64345 2.64876 4.45833 2.66059 4.35145 2.78212C4.2438 2.9045 4.13849 3.03177 4.03837 3.1604C3.93895 3.28805 3.96192 3.47212 4.08962 3.57149Z" fill="white"/>
<path d="M2.73449 6.74052C2.75601 6.74533 2.7775 6.74767 2.79867 6.74767C2.93285 6.74767 3.05382 6.65494 3.08429 6.51853C3.11734 6.37072 3.15527 6.22228 3.19711 6.07728C3.24187 5.92185 3.15222 5.75943 2.99672 5.71467C2.84148 5.66986 2.6789 5.75947 2.6341 5.91502C2.58902 6.07134 2.54812 6.23138 2.5125 6.39076C2.47718 6.54861 2.57656 6.70525 2.73449 6.74052Z" fill="white"/>
<path d="M3.08092 9.8352C3.04826 9.68763 3.01967 9.53704 2.99592 9.3877C2.97053 9.2279 2.82049 9.11876 2.66061 9.14434C2.5008 9.16974 2.39186 9.31985 2.41725 9.47966C2.44279 9.64059 2.47361 9.80282 2.50889 9.96192C2.53912 10.0986 2.66026 10.1916 2.79463 10.1916C2.81561 10.1916 2.8369 10.1893 2.85826 10.1846C3.01623 10.1496 3.11592 9.99317 3.08092 9.8352Z" fill="white"/>
<path d="M2.60813 8.46916H2.6084C2.77008 8.46916 2.90121 8.33814 2.90137 8.17646C2.90152 8.02459 2.90621 7.8713 2.91527 7.72084C2.92504 7.55935 2.80203 7.42052 2.64051 7.41076C2.47855 7.40044 2.3402 7.52404 2.33043 7.68552C2.32063 7.84748 2.31559 8.01248 2.31543 8.17595C2.31527 8.33771 2.44629 8.46904 2.60813 8.46916Z" fill="white"/>
<path d="M4.90768 14.1612C5.02651 14.2724 5.15038 14.3817 5.27585 14.4858C5.33054 14.5312 5.39686 14.5533 5.4628 14.5533C5.5469 14.5533 5.63046 14.5173 5.68835 14.4475C5.79171 14.323 5.77456 14.1383 5.65007 14.0349C5.53358 13.9382 5.41854 13.8368 5.30815 13.7334C5.19011 13.6228 5.00464 13.6289 4.89405 13.7471C4.78347 13.8652 4.78956 14.0506 4.90768 14.1612Z" fill="white"/>
<path d="M5.47671 2.39091C5.54246 2.39091 5.60859 2.36892 5.66316 2.32376C5.77945 2.22767 5.90047 2.13361 6.02293 2.04415C6.15359 1.94872 6.18207 1.7654 6.08664 1.63478C5.99117 1.50415 5.80793 1.47564 5.67726 1.57107C5.54547 1.66736 5.41515 1.76865 5.28996 1.87212C5.16523 1.97521 5.14765 2.15986 5.25074 2.28458C5.30871 2.35466 5.39238 2.39091 5.47671 2.39091Z" fill="white"/>
<path d="M8.54428 0.830593C8.56823 0.830593 8.59257 0.827624 8.61682 0.821452C8.76319 0.784186 8.9128 0.750788 9.06155 0.722311C9.22042 0.691843 9.32456 0.538327 9.29413 0.379421C9.26366 0.220514 9.11018 0.116569 8.95124 0.146843C8.79104 0.177546 8.62983 0.213483 8.47217 0.253678C8.31534 0.2936 8.22065 0.453093 8.26061 0.609889C8.29436 0.742389 8.41354 0.830593 8.54428 0.830593Z" fill="white"/>
<path d="M6.92413 1.44113C6.96886 1.44113 7.01425 1.43082 7.05679 1.40918C7.19163 1.34055 7.33011 1.27523 7.46835 1.215C7.61671 1.15043 7.6846 0.977813 7.61999 0.829453C7.55542 0.681094 7.38276 0.613086 7.23444 0.677813C7.08546 0.742656 6.93624 0.813047 6.79097 0.886992C6.64679 0.960391 6.5894 1.1368 6.6628 1.28098C6.71456 1.38262 6.81741 1.44113 6.92413 1.44113Z" fill="white"/>
<path d="M10.2655 0.589375C10.2684 0.589375 10.2713 0.589336 10.2743 0.589258C10.3488 0.587031 10.4248 0.585938 10.5 0.585938C10.5752 0.585938 10.6512 0.587031 10.7258 0.589258C10.7287 0.589336 10.7316 0.589375 10.7345 0.589375C10.8924 0.589375 11.0225 0.463789 11.0272 0.305039C11.032 0.143281 10.9047 0.00832031 10.743 0.00355469C10.6627 0.00117187 10.5809 0 10.5 0C10.4191 0 10.3374 0.00117187 10.257 0.00355469C10.0952 0.00832031 9.96806 0.143281 9.97278 0.305039C9.97747 0.463828 10.1077 0.589375 10.2655 0.589375Z" fill="white"/>
<path d="M11.6838 6.11035C11.8456 6.11035 11.9768 5.97922 11.9768 5.81738C11.9768 5.65555 11.8456 5.52441 11.6838 5.52441H8.60596C8.44412 5.52441 8.31299 5.65555 8.31299 5.81738C8.31299 5.97922 8.44412 6.11035 8.60596 6.11035H11.6838Z" fill="white"/>
<path d="M6.5542 7.8916C6.39236 7.8916 6.26123 8.02273 6.26123 8.18457C6.26123 8.34641 6.39236 8.47754 6.5542 8.47754H9.55311C9.71494 8.47754 9.84607 8.34641 9.84607 8.18457C9.84607 8.02273 9.71494 7.8916 9.55311 7.8916H6.5542Z" fill="white"/>
<path d="M6.5542 6.11035H7.34338C7.50521 6.11035 7.63635 5.97922 7.63635 5.81738C7.63635 5.65555 7.50521 5.52441 7.34338 5.52441H6.5542C6.39236 5.52441 6.26123 5.65555 6.26123 5.81738C6.26123 5.97922 6.3924 6.11035 6.5542 6.11035Z" fill="white"/>
<path d="M6.26123 7.00098C6.26123 7.16281 6.39236 7.29395 6.5542 7.29395H11.6839C11.8458 7.29395 11.9769 7.16281 11.9769 7.00098C11.9769 6.83914 11.8458 6.70801 11.6839 6.70801H6.5542C6.3924 6.70801 6.26123 6.83914 6.26123 7.00098Z" fill="white"/>
<path d="M6.00137 9.66187H7.83926V11.1048C7.83926 11.6147 8.25387 12.0295 8.76348 12.0295H8.86508V12.2466C8.86508 12.562 9.12176 12.8186 9.4373 12.8186C9.58793 12.8186 9.73539 12.7575 9.84172 12.6511L10.4634 12.0295H14.9982C15.5079 12.0295 15.9225 11.6147 15.9225 11.1049V7.63258C15.9225 7.12297 15.5079 6.7084 14.9982 6.7084H13.1604V5.26504C13.1604 4.75543 12.7457 4.34082 12.2361 4.34082H8.02676C7.86492 4.34082 7.73379 4.47195 7.73379 4.63379C7.73379 4.79563 7.86492 4.92676 8.02676 4.92676H12.2361C12.4227 4.92676 12.5744 5.07852 12.5744 5.26504V8.7373C12.5744 8.92402 12.4227 9.07598 12.2361 9.07598H11.8416C11.6798 9.07598 11.5486 9.20711 11.5486 9.36895V9.84562L10.8648 9.16176C10.8098 9.10684 10.7354 9.07598 10.6576 9.07598H6.00137C5.81484 9.07598 5.66309 8.92402 5.66309 8.7373V5.26504C5.66309 5.07852 5.81484 4.92676 6.00137 4.92676H6.65961C6.82145 4.92676 6.95258 4.79563 6.95258 4.63379C6.95258 4.47195 6.82145 4.34082 6.65961 4.34082H6.00137C5.49176 4.34082 5.07715 4.75543 5.07715 5.26504V8.7373C5.07715 9.24711 5.49176 9.66187 6.00137 9.66187ZM11.1579 10.2835C11.2643 10.3899 11.4117 10.4509 11.5623 10.4509C11.8779 10.4509 12.1346 10.1944 12.1346 9.87906V9.66184H12.2362C12.7458 9.66184 13.1604 9.24707 13.1604 8.73723V7.2943H14.9983C15.1848 7.2943 15.3366 7.44605 15.3366 7.63254V11.1048C15.3366 11.2916 15.1848 11.4435 14.9983 11.4435H10.342C10.2643 11.4435 10.1898 11.4744 10.1349 11.5293L9.45102 12.2131V11.7365C9.45102 11.5746 9.31988 11.4435 9.15805 11.4435H8.76348C8.57695 11.4435 8.4252 11.2916 8.4252 11.1048V9.66187H10.5363L11.1579 10.2835Z" fill="white"/>
<path d="M19.0827 16.7479C19.3602 16.4382 19.5293 16.0296 19.5293 15.582C19.5293 14.6176 18.7447 13.833 17.7803 13.833C16.8159 13.833 16.0313 14.6176 16.0313 15.582C16.0313 16.0296 16.2004 16.4382 16.4779 16.7479C16.0172 16.7748 15.6116 17.0098 15.3536 17.3601C15.0956 17.0098 14.6899 16.7749 14.2291 16.7479C14.5066 16.4383 14.6759 16.0296 14.6759 15.582C14.6759 15.467 14.6644 15.3546 14.6431 15.2457C14.6469 15.2434 14.6507 15.2412 14.6545 15.239C14.7938 15.1568 14.8402 14.9771 14.7579 14.8378C14.6909 14.7243 14.5592 14.6726 14.4373 14.7019C14.1336 14.1827 13.5704 13.833 12.9268 13.833C11.9624 13.833 11.1778 14.6177 11.1778 15.5821C11.1778 16.0296 11.347 16.4383 11.6245 16.748C11.1637 16.775 10.7581 17.0099 10.5001 17.3602C10.2421 17.0099 9.83644 16.775 9.37566 16.748C9.65316 16.4383 9.82238 16.0296 9.82238 15.5821C9.82238 14.6177 9.03777 13.833 8.0734 13.833C7.42977 13.833 6.86664 14.1827 6.56293 14.7019C6.44109 14.6727 6.30937 14.7243 6.24234 14.8379C6.16012 14.9772 6.20641 15.1568 6.3457 15.2391C6.34949 15.2413 6.35336 15.2435 6.35715 15.2457C6.33582 15.3546 6.32438 15.467 6.32438 15.5821C6.32438 16.0296 6.49355 16.4383 6.77109 16.748C6.31031 16.775 5.90465 17.0099 5.64664 17.3602C5.38867 17.0098 4.98301 16.7748 4.5223 16.7479C4.7998 16.4382 4.96895 16.0296 4.96895 15.5821C4.96895 14.6177 4.18434 13.833 3.21992 13.833C2.25551 13.833 1.4707 14.6176 1.4707 15.582C1.4707 16.0296 1.63984 16.4382 1.91734 16.7479C1.12805 16.7941 0.5 17.4508 0.5 18.2516V19.7075C0.5 19.8693 0.631133 20.0005 0.792969 20.0005H2.29922C2.46105 20.0005 2.59219 19.8693 2.59219 19.7075C2.59219 19.5457 2.46105 19.4145 2.29922 19.4145H1.08594V18.2516C1.08594 17.7439 1.49875 17.3309 2.00625 17.3309H4.43324C4.9407 17.3309 5.35355 17.7439 5.35355 18.2516V19.4145H3.66641C3.50457 19.4145 3.37344 19.5457 3.37344 19.7075C3.37344 19.8693 3.50457 20.0005 3.66641 20.0005H17.543C17.7048 20.0005 17.8359 19.8693 17.8359 19.7075C17.8359 19.5457 17.7048 19.4145 17.543 19.4145H15.6465V18.2516C15.6465 17.7439 16.0593 17.3309 16.5668 17.3309H18.9938C19.5013 17.3309 19.9141 17.7439 19.9141 18.2516V19.4145H18.9102C18.7484 19.4145 18.6172 19.5457 18.6172 19.7075C18.6172 19.8693 18.7484 20.0005 18.9102 20.0005H20.2071C20.3689 20.0005 20.5 19.8693 20.5 19.7075V18.2516C20.5 17.4508 19.872 16.7941 19.0827 16.7479ZM3.21973 14.4189C3.86105 14.4189 4.38281 14.9407 4.38281 15.582C4.38281 16.2223 3.86266 16.7433 3.22273 16.745H3.21672C2.57676 16.7433 2.05664 16.2223 2.05664 15.582C2.05664 14.9407 2.5784 14.4189 3.21973 14.4189ZM12.9268 14.4189C13.5681 14.4189 14.0898 14.9407 14.0898 15.582C14.0898 16.2233 13.5681 16.745 12.9268 16.745C12.2854 16.745 11.7637 16.2233 11.7637 15.582C11.7637 14.9407 12.2854 14.4189 12.9268 14.4189ZM8.07324 14.4189C8.71457 14.4189 9.23629 14.9407 9.23629 15.582C9.23629 16.2233 8.71457 16.745 8.07324 16.745C7.43191 16.745 6.91016 16.2234 6.91016 15.582C6.91016 14.9407 7.43191 14.4189 8.07324 14.4189ZM5.93945 18.2516V18.2514C5.93945 17.7439 6.35234 17.331 6.85984 17.331H9.2866C9.7941 17.331 10.207 17.7439 10.207 18.2514V19.4145H5.93945V18.2516ZM10.793 18.2514C10.793 17.7439 11.2059 17.3311 11.7134 17.3311H14.1401C14.6476 17.3311 15.0605 17.7439 15.0605 18.2514V18.2517V19.4145H10.793V18.2514ZM17.7803 14.4189C18.4216 14.4189 18.9433 14.9407 18.9433 15.582C18.9433 16.2223 18.4232 16.7433 17.7832 16.745H17.7772C17.1373 16.7433 16.6171 16.2223 16.6171 15.582C16.6172 14.9407 17.1389 14.4189 17.7803 14.4189Z" fill="white"/>
</svg>
