<svg width="21" height="20" viewBox="0 0 21 20" fill="none" xmlns="http://www.w3.org/2000/svg">
<g clip-path="url(#clip0_232_3610)">
<path d="M20.4828 6.95743C20.2676 4.11723 17.9602 1.84144 15.1156 1.66371C13.416 1.55766 11.7676 2.19964 10.5929 3.42536C10.5425 3.47802 10.4575 3.47802 10.4071 3.42536C9.23249 2.1996 7.58423 1.5575 5.88441 1.66371C5.3034 1.7 4.73317 1.82523 4.18951 2.03585C4.03861 2.09429 3.96373 2.26401 4.02217 2.41487C4.08064 2.56573 4.25029 2.64077 4.40123 2.58217C4.88872 2.39327 5.40004 2.28101 5.92097 2.24847C7.44814 2.15331 8.92902 2.72975 9.98408 3.83075C10.1209 3.97348 10.3041 4.05211 10.5 4.05211C10.696 4.05211 10.8792 3.97348 11.016 3.83075C12.071 2.72979 13.552 2.1528 15.0791 2.24847C17.6335 2.40807 19.7054 4.45144 19.8987 7.00164C20.024 8.65521 19.3805 10.2248 18.1332 11.3081C18.1316 11.3096 18.1299 11.311 18.1283 11.3125L16.7373 12.5205C16.552 12.3247 16.3315 12.1596 16.082 12.0333L15.4171 11.6968L17.7869 10.3286C18.2068 10.0862 18.365 9.56579 18.1472 9.14376C18.0922 9.03724 18.0184 8.94505 17.93 8.87056L18.2229 8.70142C18.6427 8.45908 18.801 7.93866 18.5832 7.5166C18.5231 7.40015 18.4405 7.30082 18.3408 7.22293C18.4554 7.10832 18.5382 6.96317 18.5769 6.80379C18.6348 6.56548 18.5936 6.32036 18.4608 6.11349C18.2491 5.78381 17.8514 5.64229 17.4829 5.73893C17.4656 5.6128 17.4207 5.49073 17.3494 5.37971C17.0929 4.98011 16.5631 4.85683 16.1432 5.09925L15.6703 5.37229C15.5302 5.45319 15.4822 5.63237 15.5631 5.77248C15.644 5.91264 15.8232 5.96053 15.9633 5.87971L16.4362 5.60666C16.5822 5.52245 16.7706 5.56264 16.8563 5.69623C16.9017 5.76693 16.9159 5.85053 16.8962 5.93166C16.8765 6.01267 16.826 6.08029 16.754 6.12205C16.7538 6.12216 16.7536 6.12228 16.7534 6.1224L14.6073 7.36144C14.4672 7.44234 14.4192 7.62152 14.5001 7.76163C14.5812 7.90218 14.7605 7.94952 14.9003 7.86886L17.0464 6.62981C17.0464 6.62977 17.0465 6.62973 17.0466 6.6297C17.0468 6.62954 17.0471 6.62938 17.0474 6.62927L17.5476 6.34048C17.6935 6.25619 17.8819 6.29642 17.9677 6.42997C18.0131 6.50071 18.0273 6.58434 18.0076 6.66544C17.9878 6.74669 17.9371 6.81438 17.8648 6.85618L17.349 7.15399L15.2153 8.38588C15.0751 8.46678 15.0271 8.64596 15.108 8.78607C15.1892 8.92662 15.3685 8.97396 15.5082 8.8933L17.6419 7.6614L17.6426 7.66101C17.7148 7.61953 17.7986 7.60968 17.8785 7.63308C17.9587 7.6566 18.024 7.71062 18.0625 7.78527C18.1353 7.92636 18.0759 8.10971 17.93 8.19393L16.9136 8.78076C16.9134 8.78088 16.9132 8.78099 16.9129 8.78111C16.9127 8.78123 16.9125 8.78138 16.9123 8.7815L15.7985 9.42458C15.6584 9.50548 15.6104 9.68465 15.6913 9.82477C15.7724 9.96531 15.9517 10.0127 16.0915 9.93199L17.2059 9.28853C17.3551 9.20236 17.5464 9.25732 17.6265 9.41247C17.6994 9.55352 17.6399 9.73688 17.4939 9.8211L14.1559 11.7483C13.7289 11.9948 13.2272 12.0825 12.7428 11.9956C12.4719 11.9468 12.1993 12.0058 11.9751 12.1615C11.5508 12.4561 7.74716 15.0973 7.00537 15.6123C6.27405 16.1201 5.2702 16.007 4.67028 15.3491C4.29154 14.9338 4.13248 14.3784 4.23392 13.8255C4.33517 13.2736 4.68036 12.8103 5.18282 12.556C5.18282 12.556 10.6188 9.80489 10.6195 9.80457C10.8966 9.66348 11.0883 9.41227 11.155 9.11818L11.3511 8.25467L11.9832 5.89592C12.017 5.76955 12.1474 5.69416 12.2738 5.72811C12.4456 5.77416 12.5891 5.88428 12.678 6.03826C12.7669 6.19224 12.7905 6.37169 12.7445 6.54345L12.5489 7.27348C12.5182 7.38797 12.5595 7.50961 12.6535 7.58175C12.7476 7.65386 12.8758 7.6623 12.9784 7.60304L14.7443 6.58345C14.8844 6.50255 14.9324 6.32337 14.8516 6.18326C14.7707 6.04314 14.5915 5.99517 14.4514 6.07603L13.2979 6.74196L13.3105 6.69512C13.397 6.37216 13.3526 6.0349 13.1854 5.74533C13.0183 5.45581 12.7484 5.2487 12.4254 5.16218C11.9869 5.0446 11.5346 5.30581 11.4171 5.74424L10.7837 8.10846C10.7827 8.11214 10.7818 8.11577 10.781 8.1194L10.5837 8.98841C10.569 9.0531 10.5402 9.11251 10.5002 9.16306C10.4601 9.1124 10.4313 9.0529 10.4167 8.98837L10.2193 8.11944C10.2185 8.11577 10.2176 8.11214 10.2167 8.1085L9.58319 5.74428C9.52627 5.53186 9.39006 5.35436 9.1996 5.2444C9.00913 5.13444 8.7873 5.1053 8.57492 5.16218C8.25199 5.2487 7.98208 5.45581 7.81489 5.74533C7.64774 6.0349 7.60333 6.3722 7.68985 6.69512L7.70243 6.74196L4.85708 5.09921C4.43724 4.85687 3.9074 4.98003 3.65092 5.37967C3.57964 5.49073 3.53475 5.6128 3.51741 5.73889C3.14902 5.64221 2.75121 5.78369 2.53953 6.11345C2.4068 6.32025 2.36555 6.56536 2.4234 6.80372C2.46211 6.96309 2.54485 7.10828 2.65945 7.22289C2.55984 7.30074 2.47727 7.40012 2.41715 7.51656C2.1993 7.93862 2.35754 8.45904 2.77738 8.70139L3.07031 8.87052C2.98191 8.94501 2.90812 9.03728 2.85316 9.14376C2.63535 9.56579 2.79359 10.0862 3.21339 10.3286L5.5832 11.6968L4.91829 12.0333C4.6688 12.1595 4.44833 12.3247 4.26302 12.5205L2.87195 11.3124C2.87031 11.311 2.86871 11.3095 2.86703 11.3081C1.61974 10.2248 0.976273 8.65518 1.10154 7.0016C1.21623 5.48846 1.99977 4.10489 3.25124 3.20572C3.38265 3.11131 3.41265 2.92822 3.31823 2.79686C3.22382 2.66541 3.04074 2.63541 2.90937 2.72987C1.51681 3.73036 0.64491 5.2712 0.517139 6.95743C0.377883 8.79529 1.09225 10.5402 2.47746 11.746C2.4791 11.7475 2.48082 11.749 2.48254 11.7505L3.91565 12.9952C3.79276 13.2173 3.70499 13.4612 3.65753 13.7199C3.52272 14.4545 3.73405 15.1922 4.23728 15.7441C4.69982 16.2512 5.34297 16.5147 5.99128 16.5147C6.46014 16.5147 6.93174 16.3769 7.33951 16.0937L7.4195 16.0382L9.76553 18.0757C9.9749 18.2575 10.2375 18.3484 10.5 18.3484C10.7626 18.3484 11.0252 18.2575 11.2345 18.0757L13.5805 16.0382L13.6605 16.0938C14.0683 16.377 14.5398 16.5148 15.0087 16.5148C15.657 16.5148 16.3002 16.2512 16.7627 15.7441C17.2659 15.1923 17.4773 14.4545 17.3425 13.7199C17.295 13.4612 17.2072 13.2173 17.0843 12.9952L18.5174 11.7506C18.5192 11.7491 18.5208 11.7476 18.5226 11.746C19.9077 10.5402 20.6221 8.79517 20.4828 6.95743ZM3.50612 9.82125C3.36022 9.73704 3.30077 9.55368 3.37358 9.41263C3.41214 9.33798 3.47749 9.28388 3.55757 9.2604C3.63776 9.23685 3.72182 9.24693 3.79416 9.28872L4.90864 9.93219C5.04813 10.0127 5.22758 9.9657 5.30883 9.82496C5.38973 9.68485 5.34172 9.50567 5.20161 9.42477L4.08713 8.78131L3.07011 8.19413C2.92421 8.10991 2.86476 7.92655 2.93757 7.7855C2.97613 7.71085 3.04148 7.65675 3.12156 7.63328C3.20159 7.6098 3.2855 7.61976 3.3578 7.6614L3.35784 7.66144C3.35792 7.66148 3.35804 7.66156 3.35812 7.6616L5.49184 8.89349C5.63133 8.974 5.81078 8.92701 5.89203 8.78627C5.97292 8.64615 5.92492 8.46698 5.7848 8.38608L3.13531 6.85641C3.06292 6.81465 3.01226 6.74688 2.9925 6.66563C2.97281 6.5845 2.98695 6.50087 3.03234 6.43021C3.11812 6.29661 3.30659 6.2565 3.45253 6.34068L6.0998 7.86905C6.23929 7.94956 6.41874 7.90257 6.49999 7.76183C6.58088 7.62171 6.53288 7.44254 6.39276 7.36164L4.2467 6.12259C4.24658 6.12252 4.24646 6.12248 4.24635 6.1224C4.1742 6.0806 4.12361 6.01299 4.10389 5.93185C4.0842 5.85072 4.0983 5.76709 4.14373 5.69643C4.22951 5.56276 4.41802 5.52264 4.56388 5.60686L8.02172 7.60324C8.12434 7.66245 8.25254 7.65406 8.34656 7.58195C8.44055 7.5098 8.48183 7.38816 8.45121 7.27367L8.25559 6.54364C8.20957 6.37193 8.23317 6.19247 8.32211 6.03845C8.41101 5.88447 8.55457 5.77432 8.72636 5.7283C8.78753 5.71193 8.85152 5.72029 8.9064 5.75201C8.96128 5.78373 9.00058 5.83486 9.01698 5.89611L9.64901 8.25487L9.8451 9.11833C9.8735 9.24341 9.92467 9.36036 9.99474 9.46419L6.20749 11.3809L3.50612 9.82125ZM16.3298 15.3492C15.7299 16.0071 14.726 16.1203 13.9947 15.6125L12.735 14.7378C12.6021 14.6454 12.4196 14.6784 12.3273 14.8113C12.235 14.9442 12.2679 15.1268 12.4008 15.2191L13.084 15.6934L10.8503 17.6333C10.6506 17.8067 10.3494 17.8067 10.1497 17.6333L7.91606 15.6934L10.5 13.8992L11.2803 14.441C11.3313 14.4764 11.3895 14.4934 11.4472 14.4934C11.54 14.4934 11.6312 14.4495 11.6881 14.3675C11.7803 14.2346 11.7475 14.0521 11.6145 13.9598L11.0136 13.5425L12.3092 12.6429C12.4049 12.5764 12.5221 12.5514 12.6391 12.5724C13.2594 12.6839 13.9021 12.5714 14.4487 12.2559L14.8108 12.0468L15.8173 12.5561C16.3179 12.8095 16.6645 13.2717 16.7662 13.8256C16.8676 14.3785 16.7086 14.9338 16.3298 15.3492Z" fill="white"/>
</g>
<defs>
<clipPath id="clip0_232_3610">
<rect width="20" height="20" fill="white" transform="translate(0.5)"/>
</clipPath>
</defs>
</svg>
