<svg width="21" height="20" viewBox="0 0 21 20" fill="none" xmlns="http://www.w3.org/2000/svg">
<g clip-path="url(#clip0_232_3616)">
<path d="M18.5863 6.47094C18.4986 6.2009 18.2684 6.01688 17.9857 5.99071L13.0878 5.53641L12.1707 3.40669C12.1067 3.25809 11.9344 3.18942 11.7858 3.25348C11.6372 3.31747 11.5686 3.48981 11.6326 3.6384L12.6185 5.92786C12.6609 6.02633 12.7538 6.0938 12.8605 6.10368L17.9316 6.57403C17.9963 6.58005 18.0204 6.6254 18.029 6.65192C18.0376 6.67844 18.0447 6.7293 17.9959 6.77215L14.1698 10.1334C14.0892 10.2042 14.0538 10.3133 14.0774 10.4179L15.1971 15.3861C15.2114 15.4495 15.1757 15.4864 15.1531 15.5028C15.1306 15.5192 15.0844 15.5418 15.0286 15.5085L10.6495 12.9084C10.5574 12.8538 10.4425 12.8538 10.3504 12.9084L5.97138 15.5086C5.9156 15.5418 5.86943 15.5192 5.84681 15.5029C5.82427 15.4865 5.78857 15.4495 5.80282 15.3862L6.38087 12.8216C6.41646 12.6638 6.31732 12.507 6.1595 12.4714C6.00153 12.4359 5.84482 12.535 5.80927 12.6928L5.23122 15.2574C5.1688 15.5343 5.27275 15.81 5.50239 15.9769C5.6263 16.067 5.76896 16.1124 5.91243 16.1123C6.03497 16.1123 6.1581 16.0792 6.27052 16.0125L10.4999 13.5011L14.7294 16.0125C14.9736 16.1574 15.2679 16.1438 15.4975 15.9769C15.7272 15.8101 15.8311 15.5343 15.7686 15.2573L14.6872 10.4588L18.3826 7.21243C18.596 7.02505 18.674 6.7409 18.5863 6.47094Z" fill="white"/>
<path d="M11.6895 2.28887L11.1424 1.01844C11.0301 0.757695 10.7839 0.595703 10.5 0.595703C10.2161 0.595703 9.97004 0.757656 9.85774 1.01844L7.91223 5.53621L3.01438 5.99051C2.73168 6.01672 2.50156 6.20074 2.41383 6.47074C2.3261 6.74074 2.40414 7.02484 2.61738 7.21223L6.31277 10.4586L6.07262 11.5244C6.03703 11.6822 6.13617 11.8391 6.29402 11.8746C6.3157 11.8795 6.33735 11.8819 6.35867 11.8819C6.49266 11.8819 6.61352 11.7894 6.64422 11.6532L6.92266 10.4177C6.94625 10.3131 6.91078 10.204 6.83024 10.1332L3.00414 6.77199C2.95535 6.72914 2.96254 6.67828 2.9711 6.65176C2.97973 6.62523 3.00383 6.57988 3.06848 6.57387L8.13949 6.10352C8.24625 6.09363 8.3391 6.02617 8.38153 5.9277L10.3959 1.2502C10.4216 1.19055 10.4722 1.18164 10.5001 1.18164C10.528 1.18164 10.5786 1.19055 10.6043 1.2502L11.1514 2.52063C11.2154 2.66922 11.3877 2.73785 11.5363 2.67383C11.6849 2.6098 11.7535 2.43746 11.6895 2.28887Z" fill="white"/>
<path d="M7.29059 4.3087C7.15246 4.00479 5.93027 1.32455 5.55379 0.801625C5.40914 0.600688 5.19488 0.46811 4.95055 0.428305C4.70594 0.388461 4.46094 0.446235 4.26 0.590961C3.84524 0.889594 3.75074 1.46991 4.0493 1.88471C4.42582 2.40768 6.57988 4.41702 6.82426 4.6444C6.8802 4.69643 6.95188 4.72288 7.02391 4.72288C7.08363 4.72288 7.14359 4.70467 7.195 4.66764C7.30836 4.58608 7.34836 4.43584 7.29059 4.3087ZM4.52492 1.54245C4.41508 1.38987 4.44984 1.17639 4.60238 1.06655C4.66106 1.02428 4.73 1.00221 4.8009 1.00221C4.81934 1.00221 4.83785 1.0037 4.85641 1.0067C4.94633 1.02135 5.02508 1.0701 5.07832 1.14401C5.25551 1.39006 5.70547 2.30487 6.1127 3.16428C5.42688 2.50538 4.70207 1.7885 4.52492 1.54245Z" fill="white"/>
<path d="M16.7399 0.590922C16.5389 0.446235 16.2936 0.388461 16.0494 0.428305C15.805 0.46811 15.5908 0.600688 15.4462 0.801587C15.0697 1.32452 13.8475 4.00475 13.7094 4.30866C13.6516 4.43577 13.6916 4.586 13.8049 4.6676C13.8563 4.70459 13.9163 4.72284 13.976 4.72284C14.0481 4.72284 14.1198 4.69635 14.1757 4.64436C14.4201 4.41698 16.5741 2.40764 16.9506 1.88471C17.2492 1.46991 17.1547 0.889516 16.7399 0.590922ZM16.4751 1.54229C16.298 1.78834 15.5731 2.50526 14.8873 3.16416C15.2946 2.30479 15.7445 1.38998 15.9217 1.14389C15.9749 1.06995 16.0537 1.0212 16.1436 1.00655C16.1622 1.00354 16.1807 1.00206 16.1991 1.00206C16.27 1.00206 16.339 1.02413 16.3976 1.06635C16.5502 1.17623 16.5849 1.38971 16.4751 1.54229Z" fill="white"/>
<path d="M20.3989 11.6853C20.2868 11.4646 20.0954 11.3007 19.86 11.2239V11.2239C19.2474 11.0242 16.3225 10.6741 15.991 10.6348C15.8528 10.6185 15.7214 10.7022 15.6781 10.8349C15.6347 10.9677 15.6912 11.1126 15.8129 11.1811C16.1038 11.3448 18.6726 12.7866 19.2852 12.9863C19.3798 13.0171 19.4769 13.0324 19.5736 13.0324C19.7175 13.0324 19.8605 12.9985 19.9925 12.9314C20.2133 12.8193 20.3771 12.6279 20.4538 12.3925C20.5306 12.1571 20.5111 11.906 20.3989 11.6853ZM19.8968 12.2108C19.8685 12.2975 19.8083 12.3678 19.7271 12.4091C19.6458 12.4503 19.5534 12.4575 19.4669 12.4292C19.1787 12.3353 18.2754 11.8625 17.4393 11.4094C18.3818 11.5363 19.3901 11.687 19.6783 11.781C19.7649 11.8093 19.8353 11.8696 19.8766 11.9507C19.9178 12.0319 19.925 12.1242 19.8968 12.2108Z" fill="white"/>
<path d="M5.32188 10.835C5.2786 10.7023 5.14762 10.6183 5.00891 10.6349C4.67743 10.6741 1.75251 11.0242 1.13997 11.224V11.224C0.904578 11.3007 0.713172 11.4646 0.601023 11.6854C0.488875 11.9061 0.469382 12.1572 0.54614 12.3925C0.622898 12.6279 0.786726 12.8193 1.00751 12.9315C1.13954 12.9986 1.28247 13.0325 1.42641 13.0325C1.52309 13.0325 1.6202 13.0172 1.71477 12.9864C2.32739 12.7866 4.89622 11.3449 5.18716 11.1811C5.30876 11.1126 5.3652 10.9677 5.32188 10.835ZM1.53302 12.4293C1.44641 12.4575 1.35399 12.4503 1.27286 12.4091C1.19169 12.3678 1.13145 12.2975 1.10317 12.2108C1.07493 12.1243 1.08212 12.0319 1.12337 11.9507C1.16466 11.8695 1.23501 11.8092 1.32161 11.781C1.60989 11.687 2.61809 11.5363 3.56063 11.4093C2.72458 11.8626 1.8213 12.3353 1.53302 12.4293Z" fill="white"/>
<path d="M10.807 14.7961C10.7796 14.6591 10.6593 14.5605 10.5196 14.5605C10.38 14.5605 10.2598 14.6591 10.2324 14.7961C10.1669 15.1234 9.59277 18.0127 9.59277 18.657C9.59277 19.168 10.0086 19.5838 10.5196 19.5838C11.0307 19.5838 11.4465 19.168 11.4465 18.657C11.4466 18.0126 10.8725 15.1234 10.807 14.7961ZM10.5196 18.9979C10.3316 18.9979 10.1787 18.8449 10.1787 18.6569C10.1787 18.3537 10.348 17.3484 10.5196 16.413C10.6913 17.3484 10.8606 18.3538 10.8606 18.6569C10.8606 18.8449 10.7077 18.9979 10.5196 18.9979Z" fill="white"/>
</g>
<defs>
<clipPath id="clip0_232_3616">
<rect width="20" height="20" fill="white" transform="translate(0.5)"/>
</clipPath>
</defs>
</svg>
