<svg width="21" height="20" viewBox="0 0 21 20" fill="none" xmlns="http://www.w3.org/2000/svg">
<path d="M17.0493 10.1182C17.2112 10.1182 17.3423 9.98707 17.3423 9.82527V9.495C17.4922 9.48207 17.6098 9.35633 17.6098 9.20312C17.6098 9.04133 17.4787 8.91016 17.3168 8.91016H17.0493C16.8875 8.91016 16.7563 9.04133 16.7563 9.20312V9.82527C16.7563 9.98707 16.8875 10.1182 17.0493 10.1182Z" fill="white"/>
<path d="M13.7509 8.91016H13.4834C13.3216 8.91016 13.1904 9.04133 13.1904 9.20312C13.1904 9.35633 13.308 9.48211 13.4579 9.495V9.82527C13.4579 9.98707 13.5891 10.1182 13.7509 10.1182C13.9127 10.1182 14.0439 9.98707 14.0439 9.82527V9.20312C14.0439 9.04133 13.9127 8.91016 13.7509 8.91016Z" fill="white"/>
<path d="M14.1099 10.8809C14.1099 11.5924 14.6887 12.1712 15.4003 12.1712C16.1118 12.1712 16.6906 11.5924 16.6906 10.8809C16.6906 10.7191 16.5595 10.5879 16.3976 10.5879H14.4028C14.241 10.5879 14.1099 10.7191 14.1099 10.8809ZM16.0408 11.1738C15.9294 11.4164 15.6842 11.5853 15.4003 11.5853C15.1163 11.5853 14.871 11.4164 14.7597 11.1738H16.0408Z" fill="white"/>
<path d="M3.86133 8.7627C3.69949 8.7627 3.56836 8.89387 3.56836 9.05566V9.66113C3.56836 9.82293 3.69949 9.9541 3.86133 9.9541C4.02316 9.9541 4.1543 9.82293 4.1543 9.66113V9.05566C4.1543 8.89387 4.02316 8.7627 3.86133 8.7627Z" fill="white"/>
<path d="M7.07129 9.9541C7.23313 9.9541 7.36426 9.82293 7.36426 9.66113V9.05566C7.36426 8.89387 7.23313 8.7627 7.07129 8.7627C6.90945 8.7627 6.77832 8.89387 6.77832 9.05566V9.66113C6.77832 9.82297 6.90949 9.9541 7.07129 9.9541Z" fill="white"/>
<path d="M5.49547 11.9183C6.20699 11.9183 6.78582 11.3395 6.78582 10.6279C6.78582 10.4661 6.65469 10.335 6.49285 10.335H4.49805C4.33621 10.335 4.20508 10.4661 4.20508 10.6279C4.20508 11.3395 4.78398 11.9183 5.49547 11.9183ZM6.13605 10.9209C6.02465 11.1635 5.77941 11.3324 5.49551 11.3324C5.21152 11.3324 4.96629 11.1635 4.85492 10.9209H6.13605Z" fill="white"/>
<path d="M8.62379 3.42045L10.1425 4.64236C10.3734 4.82814 10.7027 4.82724 10.9324 4.64209L12.4489 3.42029C12.8827 3.07072 13.1972 2.60404 13.3583 2.07064C13.5117 1.56279 13.4025 1.0174 13.0809 0.610409C12.6172 0.0237289 11.8363 -0.148771 11.1863 0.130838C10.9506 0.228924 10.7395 0.350838 10.5362 0.507518C10.172 0.226854 9.71024 5.70874e-05 9.25204 5.70874e-05C8.75747 5.70874e-05 8.29801 0.222518 7.99153 0.610409C7.67418 1.01189 7.55872 1.55639 7.71407 2.07064C7.87528 2.60408 8.18977 3.07076 8.62379 3.42045ZM8.45129 0.973768C8.64598 0.727362 8.93786 0.586073 9.25207 0.586073C9.63473 0.586073 10.056 0.850643 10.3401 1.10674C10.4516 1.20717 10.6209 1.20717 10.7324 1.10674C10.947 0.913299 11.1632 0.77494 11.4129 0.671268C11.4141 0.67076 11.4154 0.670252 11.4166 0.669666C11.8339 0.489588 12.3291 0.604041 12.6213 0.973768C13.1435 1.63471 12.6171 2.53232 12.0813 2.96408C10.4506 4.27791 10.5495 4.21783 10.5098 4.18588L8.99122 2.96408C8.47047 2.54451 7.91676 1.64994 8.45129 0.973768Z" fill="white"/>
<path d="M19.0408 13.6359C19.3573 13.2462 19.5367 12.7559 19.5367 12.2418C19.5367 11.6902 19.3272 11.1567 18.9574 10.7511C18.9621 10.7326 18.9667 10.7141 18.971 10.6955C19.6745 10.6014 20.2189 9.99779 20.2189 9.269C20.2189 8.75295 19.9459 8.29967 19.5367 8.04549V7.65502C19.5367 7.49323 19.4056 7.36205 19.2438 7.36205C19.0819 7.36205 18.9508 7.49323 18.9508 7.65502V7.8294C18.8659 7.8294 18.8124 7.8294 18.7283 7.8294H15.5063C14.488 7.8294 13.6175 7.10827 13.4135 6.12792C13.4126 6.12401 13.4118 6.12011 13.411 6.11616C13.19 5.02281 13.9205 4.23511 14.8252 4.23511H15.8705C17.2238 4.23511 18.405 5.10175 18.81 6.39159C18.8584 6.54596 19.0229 6.63178 19.1772 6.58335C19.3316 6.53487 19.4174 6.37046 19.369 6.21608C19.1402 5.48753 18.6755 4.83363 18.0604 4.37488C17.4239 3.90011 16.6667 3.64918 15.8705 3.64918H14.8251C14.7043 3.64918 14.5861 3.66035 14.4709 3.68055C12.5677 3.9241 11.1334 5.55468 11.1334 7.47694V8.12232C11.1334 8.12736 11.1339 8.13225 11.1342 8.13721C10.8877 8.3308 10.705 8.60307 10.6257 8.91681C10.5919 8.92736 10.5595 8.94092 10.5288 8.95744C10.3832 8.8792 10.2621 8.89135 10.1721 8.89404C10.1172 8.55498 9.94082 8.25627 9.68922 8.04385C9.68977 8.03975 9.69055 8.03572 9.69094 8.03154L9.87594 6.02936C9.94106 5.32527 9.53254 4.66308 8.87126 4.37628C8.53052 3.67191 7.82177 3.22363 7.0313 3.22363H4.37628C3.54811 3.22363 2.82362 3.67398 2.43347 4.34234C1.7189 4.60109 1.25918 5.29374 1.32773 6.03518L1.50027 7.90213C1.08078 8.14627 0.797969 8.60053 0.797969 9.1199C0.797969 9.82923 1.32519 10.4175 2.00832 10.514C2.24578 11.542 2.93023 12.4008 3.84503 12.8742V13.252L3.1864 13.5694C3.15159 13.5861 3.11987 13.6075 3.09124 13.632H2.37937C1.49816 13.632 0.78125 14.349 0.78125 15.2302V17.9317C0.78125 18.0935 0.912382 18.2247 1.07422 18.2247H3.65112C3.81296 18.2247 3.94409 18.0935 3.94409 17.9317C3.94409 17.7699 3.81296 17.6388 3.65112 17.6388H1.36719V15.2302C1.36719 14.6721 1.82125 14.218 2.37937 14.218H3.01972C3.05831 14.2723 3.0405 14.2493 4.19182 15.3307C4.22624 15.3629 4.26721 15.3897 4.30545 15.4076L5.42057 16.5631L5.63057 17.6388H5.01889C4.85705 17.6388 4.72592 17.7699 4.72592 17.9317C4.72592 18.0935 4.85705 18.2247 5.01889 18.2247H5.74494L6.04529 19.7631C6.07217 19.9006 6.19267 19.9999 6.33283 19.9999H14.6075C14.7476 19.9999 14.8682 19.9006 14.895 19.7631L15.1954 18.2247H19.8329C19.9947 18.2247 20.1258 18.0935 20.1258 17.9317V15.2177C20.1259 14.4978 19.6749 13.8817 19.0408 13.6359ZM15.1383 13.9468C15.1219 13.9468 15.1056 13.9478 15.0895 13.9491C15.0866 13.9494 15.0837 13.9497 15.0808 13.95C14.9249 13.9655 14.7846 14.0437 14.6897 14.1679C14.6883 14.1696 14.6871 14.1714 14.6858 14.1731C14.6747 14.188 14.664 14.2032 14.6543 14.2193L14.5696 14.359C14.5018 14.278 14.4271 14.2036 14.3463 14.1361C14.2861 13.9378 14.2984 13.8381 14.2984 13.3561C14.7377 13.4948 15.211 13.5478 15.667 13.515C15.941 13.4955 16.2345 13.4419 16.5122 13.3534C16.5122 13.8432 16.5305 13.9868 16.429 14.235L16.0087 14.3395L15.6954 14.4173C15.6835 14.3487 15.6589 14.2828 15.6235 14.2232C15.5979 14.1762 15.521 14.0947 15.4771 14.06C15.3784 13.9861 15.2615 13.9468 15.1383 13.9468ZM12.6449 19.414H8.29548L7.84888 18.0715L7.82864 18.0107V17.7786C7.82864 17.2912 8.22513 16.8948 8.71247 16.8948H9.21696C9.25973 17.6194 9.88192 18.1683 10.5991 18.1325C11.2695 18.0989 11.8089 17.5614 11.8482 16.8948H12.3605C12.7953 16.8948 13.1685 17.2195 13.2338 17.6438L13.0607 18.1644L12.6449 19.414ZM4.11401 13.7728L4.97502 14.3502L4.33022 14.19C4.18464 14.1538 4.03354 14.1913 3.92667 14.2778L3.63483 14.0037L4.11401 13.7728ZM10.5288 12.1939C10.8399 12.6573 11.3687 12.9629 11.9676 12.9629H12.7071C12.7071 12.9632 12.7072 12.9636 12.7072 12.9639C12.7084 12.9923 12.7089 13.0205 12.7089 13.0487C12.7089 14.0529 12.7155 14.0828 12.6857 14.2842C12.6848 14.2899 12.6842 14.2957 12.6833 14.3014C12.5202 15.3425 11.6032 16.1189 10.5317 16.1189C9.46579 16.1189 8.54427 15.3485 8.38017 14.3014C8.34716 14.0899 8.35454 14.045 8.35454 13.0487C8.35454 13.0205 8.35513 12.9923 8.35626 12.9639C8.35626 12.9636 8.3563 12.9632 8.35634 12.9629H9.08993C9.68883 12.9629 10.2177 12.6573 10.5288 12.1939ZM11.2403 8.92451C11.3359 8.70888 11.5185 8.54057 11.7415 8.46267C11.7333 8.60111 11.735 8.68721 11.735 9.03752C11.5906 8.9917 11.4085 8.94884 11.2403 8.92451ZM13.9959 15.3531L13.6198 16.4837C13.235 16.2794 12.9833 15.8751 12.9833 15.4247V15.2334C13.0852 15.0403 13.1644 14.8319 13.2161 14.6222C13.3807 14.591 13.5471 14.5187 13.6887 14.4111C13.7739 14.4492 13.8511 14.4949 13.9213 14.5477C13.9214 14.5477 13.9214 14.5477 13.9214 14.5477C14.0431 14.6391 14.1456 14.7525 14.2243 14.8803C14.2276 14.8857 14.2312 14.8907 14.2344 14.8961C14.236 14.8989 14.2374 14.9018 14.2391 14.9046C14.0772 15.1716 14.0436 15.2096 13.9959 15.3531ZM11.2646 16.8162C11.2646 17.2199 10.9362 17.5482 10.5326 17.5482C10.1289 17.5482 9.80059 17.2199 9.80059 16.8162V16.6079C10.2875 16.7404 10.8038 16.7332 11.2646 16.6074V16.8162ZM6.76439 15.0085C6.89482 14.7281 7.11033 14.5257 7.36841 14.4107C7.50396 14.5137 7.66868 14.5901 7.84782 14.6233C7.89786 14.8255 7.97419 15.0294 8.07427 15.2215V15.4247C8.07427 15.9169 7.7756 16.3492 7.3365 16.5314C6.84795 15.0628 6.95127 15.3169 6.76439 15.0085ZM7.76868 13.0487V13.9749C7.61872 13.8828 7.53083 13.7316 7.51232 13.5746C7.51216 13.5732 7.51173 13.5718 7.51154 13.5703C7.48751 13.353 7.59298 13.1521 7.76872 13.0439C7.76868 13.0455 7.76868 13.0471 7.76868 13.0487ZM6.96251 13.8095C6.97443 13.8528 6.98884 13.8952 7.0056 13.9363C6.76966 14.0639 6.56912 14.2438 6.4215 14.4428L6.28607 14.2193C6.28326 14.2146 6.28014 14.2102 6.27721 14.2057C6.27353 14.2 6.27002 14.1942 6.26619 14.1887L6.88638 13.7728L6.96251 13.8095ZM8.59134 15.9153C8.74462 16.0651 8.91524 16.1975 9.10032 16.3088C8.68294 16.3088 8.59298 16.3015 8.40681 16.341C8.48595 16.2089 8.54833 16.066 8.59134 15.9153ZM13.2948 13.0476C13.4478 13.1446 13.5496 13.3155 13.5496 13.5098C13.5496 13.6848 13.4621 13.8653 13.2948 13.9711V13.0487C13.2948 13.0484 13.2948 13.048 13.2948 13.0476ZM12.4676 15.9197C12.5101 16.0668 12.5709 16.2068 12.648 16.3366C12.555 16.3185 12.4589 16.3088 12.3605 16.3088H11.9632C12.1464 16.1986 12.3154 16.0676 12.4676 15.9197ZM17.0981 13.1089C17.8144 12.7346 18.3845 12.1363 18.7235 11.4107C18.8718 11.6588 18.9507 11.9431 18.9507 12.2418C18.9507 12.7429 18.7196 13.2139 18.3277 13.5215H17.0981L17.0981 13.1089ZM19.0611 10.0749C19.0726 9.8829 19.0724 8.6549 19.061 8.46307C19.3938 8.57971 19.633 8.89693 19.633 9.26896C19.633 9.64099 19.3938 9.95822 19.0611 10.0749ZM18.4699 8.41533C18.4802 8.53678 18.5077 9.93673 18.4425 10.3462C18.4194 10.491 18.3865 10.6326 18.3438 10.77C18.341 10.779 18.3378 10.7879 18.3349 10.7968C17.9326 12.0516 16.7585 12.9388 15.4012 12.9388C14.8714 12.9388 14.3575 12.8023 13.9095 12.5536C13.9095 11.985 13.911 11.9559 13.9044 11.8364C13.8462 10.7669 13.255 9.81708 12.3209 9.29252C12.3209 8.65603 12.3172 8.59588 12.3325 8.41533C12.9169 8.41533 13.5042 8.27467 14.0383 7.98631C14.489 8.27596 14.9967 8.41533 15.5062 8.41533H18.4699ZM11.7194 7.8294V7.47698C11.7194 6.47128 12.1828 5.55983 12.9169 4.96132C12.8078 5.24663 12.7715 5.53401 12.7861 5.83011C12.7864 5.83573 12.787 5.84124 12.7873 5.84686C12.8236 6.50339 13.0896 7.11084 13.54 7.57764C12.881 7.86623 12.4174 7.8294 11.7194 7.8294ZM10.5288 9.73947C10.68 9.73947 10.8045 9.62486 10.8201 9.47779C10.8356 9.47798 10.8508 9.47904 10.8662 9.47947C10.867 9.47951 10.8679 9.47962 10.8687 9.47966C12.1872 9.51955 13.2464 10.5677 13.3193 11.8672C13.3198 11.8759 13.3203 11.8847 13.3207 11.8934C13.3225 11.9323 13.3236 11.9713 13.3236 12.0106V12.3769C11.9883 12.3769 11.7044 12.4359 11.3274 12.181C11.0225 11.9749 10.8218 11.626 10.8218 11.2311C10.8218 11.0693 10.6906 10.9382 10.5288 10.9382C10.367 10.9382 10.2358 11.0693 10.2358 11.2311C10.2358 11.5865 10.0732 11.9047 9.8184 12.115C9.80426 12.1266 9.78981 12.138 9.77512 12.149C9.74571 12.1711 9.7152 12.1917 9.68368 12.2108C9.51043 12.3162 9.30719 12.377 9.09001 12.377C8.81169 12.377 8.03743 12.377 7.73396 12.377C7.73396 12.1619 7.73396 12.2162 7.73396 12.0106C7.73396 10.6271 8.85149 9.49365 10.2375 9.47783C10.2531 9.6249 10.3776 9.73947 10.5288 9.73947ZM9.07337 9.12861C9.07337 8.52064 9.07466 8.46525 9.06895 8.34916C9.33485 8.44842 9.53602 8.6815 9.59012 8.96607C9.43368 9.00052 9.24712 9.05654 9.07337 9.12861ZM4.37628 3.80961H7.03142C7.62626 3.80961 8.15626 4.1655 8.38169 4.71632C8.41353 4.7941 8.4772 4.85445 8.55657 4.88206C9.03411 5.0482 9.3368 5.49784 9.29262 5.9755L9.13219 7.71166C4.84538 7.71166 4.82651 7.75428 4.37659 7.63651C3.80327 7.48565 3.31101 7.11194 3.0071 6.57952C3.0071 6.57948 3.00706 6.57944 3.00702 6.57944C2.86316 6.32741 2.77019 6.04917 2.73261 5.76214C2.73253 5.76155 2.73245 5.76097 2.73238 5.76042C2.58374 4.61632 3.43245 3.80961 4.37628 3.80961ZM2.13914 5.2432C2.09249 5.70749 2.18546 6.24526 2.41429 6.7126C2.25871 6.97416 2.13613 7.26037 2.05539 7.54272L1.91109 5.98132C1.88609 5.71038 1.97312 5.44898 2.13914 5.2432ZM1.38386 9.11994C1.38386 8.76361 1.61179 8.46209 1.92187 8.34861C1.91582 8.46799 1.92035 9.86204 1.92179 9.89158C1.60808 9.77556 1.38386 9.47345 1.38386 9.11994ZM2.50327 9.71318V8.5267C2.50327 8.10174 2.59866 7.66408 2.77878 7.2767C3.13476 7.70799 3.61698 8.02811 4.16483 8.18549C4.17151 8.1874 4.17819 8.18932 4.18487 8.19119C4.69295 8.33311 4.66729 8.29764 8.47841 8.29764C8.49013 8.45017 8.48739 8.4315 8.48739 9.44931C7.64177 10.036 7.14798 10.9848 7.14798 12.0106V12.1956C6.85435 12.3893 6.51463 12.5366 6.15439 12.6154C6.14224 12.618 6.13002 12.6202 6.11787 12.6227C5.87834 12.6719 5.68174 12.6839 5.47393 12.6839C3.83303 12.6839 2.50327 11.3474 2.50327 9.71318ZM4.76163 13.1981C4.95358 13.2371 5.15393 13.2611 5.35666 13.2677C5.7765 13.2813 6.17275 13.2346 6.56951 13.1116V13.2798L5.50022 13.997L4.43088 13.2798V13.1145C4.53706 13.1471 4.64471 13.174 4.75334 13.1964C4.75612 13.197 4.75885 13.1975 4.76163 13.1981ZM7.53568 19.414H6.5742L5.97908 16.3658C5.96826 16.3103 5.94158 16.2592 5.90232 16.2185C5.77014 16.0816 4.72202 14.9954 4.58959 14.8582C5.19553 15.0088 4.62538 14.8671 5.55693 15.0986C5.77568 15.153 5.96955 14.9503 5.90908 14.7352C5.90787 14.7309 5.90713 14.7264 5.90568 14.7221C6.2401 15.274 6.15377 15.1315 6.31353 15.3952C6.31701 15.4009 6.32072 15.4066 6.32455 15.4121C6.35228 15.4514 6.37381 15.4938 6.38857 15.5382L7.67798 19.4141H7.53568V19.414ZM14.3662 19.414H13.2624L14.5518 15.5382C14.5706 15.4817 14.5323 15.5512 15.0347 14.7221C14.9624 14.9404 15.1594 15.1542 15.3835 15.0986L16.3508 14.8582L15.0381 16.2185C14.9988 16.2591 14.9721 16.3103 14.9613 16.3658L14.3662 19.414ZM15.3098 17.6388L15.5198 16.5631L17.059 14.9682C17.1697 14.8535 17.2188 14.6869 17.1728 14.519C17.1712 14.5134 17.1699 14.5078 17.1682 14.5023C17.144 14.4254 17.0952 14.348 17.0297 14.2911C17.0461 14.235 17.0662 14.1434 17.0726 14.1075H18.1165V17.6388H15.3098V17.6388ZM19.5399 17.6388H18.7024V14.1414C19.1832 14.2634 19.5399 14.6996 19.5399 15.2178V17.6388Z" fill="white"/>
<path d="M10.5367 15.6691C11.03 15.6691 11.4313 15.2564 11.4313 14.749C11.4313 14.5872 11.3002 14.4561 11.1383 14.4561C10.9765 14.4561 10.8454 14.5872 10.8454 14.749C10.8454 14.9333 10.7069 15.0832 10.5367 15.0832C10.3665 15.0832 10.228 14.9333 10.228 14.749C10.228 14.5872 10.0969 14.4561 9.93506 14.4561C9.77322 14.4561 9.64209 14.5872 9.64209 14.749C9.64209 15.2564 10.0434 15.6691 10.5367 15.6691Z" fill="white"/>
<path d="M11.6938 14.218C11.8557 14.218 11.9868 14.0868 11.9868 13.925V13.8401C12.0996 13.7993 12.1802 13.6913 12.1802 13.5645C12.1802 13.4027 12.049 13.2715 11.8872 13.2715H11.6938C11.532 13.2715 11.4009 13.4027 11.4009 13.5645V13.925C11.4009 14.0868 11.5321 14.218 11.6938 14.218Z" fill="white"/>
<path d="M8.89307 13.5645C8.89307 13.6913 8.97365 13.7993 9.08639 13.84V13.925C9.08639 14.0868 9.21752 14.218 9.37936 14.218C9.54119 14.218 9.67232 14.0868 9.67232 13.925V13.5645C9.67232 13.4027 9.54119 13.2715 9.37936 13.2715H9.18604C9.0242 13.2715 8.89307 13.4027 8.89307 13.5645Z" fill="white"/>
</svg>
