<svg width="21" height="20" viewBox="0 0 21 20" fill="none" xmlns="http://www.w3.org/2000/svg">
<g clip-path="url(#clip0_232_3657)">
<path d="M20.1543 2.91924C19.7614 2.2484 19.0269 1.86882 18.1885 1.90359C17.3154 1.93992 16.5026 2.42165 15.9725 3.1921C15.4424 2.42161 14.6295 1.93992 13.7566 1.90359C12.9184 1.86863 12.1838 2.2484 11.791 2.9192C11.4151 3.56098 11.3445 4.48811 11.5877 5.40763C10.4947 5.84901 9.5691 6.66758 8.92459 7.75933C8.47551 6.99982 7.88507 6.36437 7.19528 5.90268C6.42284 5.38564 5.54571 5.09278 4.65885 5.05586C3.15049 4.99289 1.83096 5.67232 1.1277 6.87294C0.736476 7.54097 0.519868 8.39958 0.501274 9.35594C0.481273 10.3826 0.6971 11.474 1.12535 12.5123C1.172 12.6253 1.28118 12.6936 1.39634 12.6936C1.43353 12.6936 1.47142 12.6865 1.50794 12.6714C1.65752 12.6097 1.72873 12.4384 1.66705 12.2888C0.905894 10.4435 0.892652 8.43388 1.63334 7.16904C2.22507 6.15878 3.34616 5.58775 4.63447 5.64127C5.41363 5.67373 6.18643 5.93249 6.86934 6.38957C7.61709 6.89005 8.23645 7.62261 8.66044 8.50795C8.70915 8.60967 8.81193 8.67436 8.92471 8.67436C9.03748 8.67436 9.14026 8.60963 9.18893 8.50795C9.76133 7.31295 10.6728 6.41945 11.7748 5.96417C12.0519 6.64481 12.487 7.27104 13.0713 7.82781C13.8014 8.52353 14.7436 9.08617 15.8715 9.50012C15.9041 9.51208 15.9383 9.51805 15.9725 9.51805C16.0067 9.51805 16.0408 9.51208 16.0734 9.50012C16.3096 9.41348 16.5377 9.31984 16.7579 9.21992C16.8245 10.7391 16.3162 12.4088 15.3323 13.866C13.9878 15.857 11.7735 17.4694 8.92471 18.5333C7.67409 18.0666 6.54511 17.4962 5.5602 16.8341L6.56031 16.4904C6.86309 16.3864 7.05876 16.1123 7.05876 15.7921C7.05876 15.4719 6.86309 15.1978 6.56031 15.0938L5.22543 14.635C5.18066 14.6196 5.14617 14.5851 5.13077 14.5404L4.67205 13.2055C4.56803 12.9027 4.29392 12.707 3.97375 12.707C3.65363 12.707 3.37944 12.9027 3.27537 13.2055L2.87751 14.3631C2.61469 14.0228 2.37707 13.6692 2.16882 13.3078C2.088 13.1676 1.90889 13.1194 1.76869 13.2002C1.62849 13.281 1.58033 13.4601 1.66107 13.6003C1.88561 13.99 2.14222 14.3708 2.42594 14.7368L1.38712 15.0938C1.08434 15.1979 0.888667 15.472 0.888667 15.7921C0.888667 16.1123 1.08434 16.3864 1.38712 16.4905L2.722 16.9492C2.76677 16.9646 2.80126 16.999 2.81665 17.0438L3.27529 18.3788C3.37936 18.6815 3.65351 18.8772 3.97367 18.8772C4.29384 18.8772 4.56795 18.6815 4.67197 18.3788L5.07331 17.2108C6.16084 17.9641 7.42041 18.6061 8.82377 19.1209C8.85635 19.1328 8.89049 19.1388 8.92467 19.1388C8.95885 19.1388 8.99303 19.1328 9.02561 19.1209C10.6157 18.5374 12.0189 17.793 13.1965 16.9083C14.2584 16.1106 15.1403 15.1974 15.8178 14.194C16.9261 12.5528 17.4702 10.6493 17.3269 8.93753C17.683 8.74436 18.0134 8.53244 18.3152 8.30259C18.444 8.20454 18.4689 8.02075 18.3709 7.89199C18.2729 7.76328 18.089 7.73832 17.9603 7.83637C17.4007 8.26247 16.7323 8.62424 15.9725 8.91245C14.8356 8.47963 12.9415 7.4946 12.2535 5.57779C11.944 4.71573 11.9609 3.78844 12.2966 3.21538C12.578 2.7349 13.1145 2.46349 13.7322 2.48907C14.373 2.51575 15.2286 2.90104 15.7082 3.90247C15.7569 4.00419 15.8597 4.06892 15.9724 4.06892C16.0852 4.06892 16.188 4.00419 16.2367 3.90247C16.7162 2.90104 17.572 2.51575 18.2129 2.48907C18.8302 2.46317 19.3673 2.73486 19.6487 3.21538C20.1445 4.06201 20.0083 5.70533 18.7793 7.08326C18.6716 7.20401 18.6822 7.38921 18.8029 7.4969C18.9237 7.60464 19.1089 7.59405 19.2166 7.47327C19.8817 6.72759 20.3081 5.86401 20.4499 4.97598C20.5736 4.20088 20.4659 3.45121 20.1543 2.91924ZM4.57658 16.8534L4.11786 18.1883C4.08594 18.2812 4.00637 18.2912 3.97371 18.2913C3.94098 18.2913 3.8614 18.2812 3.82949 18.1883L3.37081 16.8535C3.29635 16.6367 3.12924 16.4696 2.91243 16.3951L1.57755 15.9364C1.48466 15.9045 1.47462 15.8249 1.47462 15.7922C1.47462 15.7595 1.48466 15.6799 1.57755 15.648L2.91243 15.1893C3.12928 15.1148 3.29635 14.9477 3.37077 14.7309L3.82949 13.396C3.8614 13.3032 3.94098 13.2931 3.97367 13.2931H3.97371C4.00641 13.2931 4.08594 13.3032 4.11786 13.396L4.57658 14.7309C4.65107 14.9477 4.81819 15.1148 5.03491 15.1893L6.36979 15.648C6.46269 15.6799 6.47273 15.7595 6.47273 15.7922C6.47273 15.8249 6.46269 15.9045 6.36979 15.9364L5.03491 16.3951C4.81815 16.4696 4.65107 16.6366 4.57658 16.8534Z" fill="white"/>
<path d="M7.90376 5.33474C7.93634 5.34669 7.97052 5.35267 8.0047 5.35267C8.03888 5.35267 8.07306 5.34669 8.10564 5.33474C8.80394 5.07844 10.0435 4.45862 10.5 3.18694C10.719 2.57701 10.6961 1.92691 10.4404 1.4903C10.1973 1.07529 9.74619 0.840396 9.23036 0.861725C8.76019 0.881296 8.31971 1.11384 8.0047 1.49221C7.68969 1.1138 7.24921 0.881296 6.77904 0.861725C6.26356 0.840084 5.81206 1.07529 5.56901 1.4903C5.3133 1.92687 5.29045 2.57701 5.5094 3.18694C5.96586 4.45862 7.2055 5.07844 7.90376 5.33474ZM6.07465 1.78644C6.20043 1.57171 6.43817 1.44635 6.7158 1.44635C6.72865 1.44635 6.74166 1.44662 6.75467 1.44717C7.16683 1.46432 7.53535 1.73023 7.74044 2.15848C7.78915 2.2602 7.89192 2.32489 8.0047 2.32489C8.11748 2.32489 8.22025 2.26016 8.26897 2.15848C8.47405 1.73023 8.84261 1.46432 9.25473 1.44717C9.5483 1.43487 9.80311 1.56174 9.93475 1.78644C10.0621 2.00394 10.1422 2.44939 9.9485 2.98897C9.59279 3.98009 8.61866 4.50542 8.0047 4.74632C7.39074 4.50542 6.41665 3.98009 6.0609 2.98897C5.86726 2.44939 5.9473 2.00394 6.07465 1.78644Z" fill="white"/>
</g>
<defs>
<clipPath id="clip0_232_3657">
<rect width="20" height="20" fill="white" transform="translate(0.5)"/>
</clipPath>
</defs>
</svg>
