<svg width="17" height="20" viewBox="0 0 17 20" fill="none" xmlns="http://www.w3.org/2000/svg">
<path d="M16.5203 8.14135H11.8234C11.3165 8.14135 10.9042 8.55379 10.9042 9.06069V11.899H9.92442V10.3131C9.92442 9.80624 9.51213 9.39394 9.00523 9.39394H7.73631C7.63606 9.39394 7.54191 9.34939 7.47844 9.27172L6.8249 8.47307L12.0686 0.453348C12.1572 0.31785 12.1193 0.136423 11.9838 0.0477688C11.8484 -0.0407323 11.6668 -0.00273784 11.5782 0.132608L8.37962 5.02458L6.34257 3.29332L7.70442 0.418405C7.77354 0.272226 7.71128 0.0975126 7.56495 0.0282375C7.41893 -0.0408849 7.24406 0.0213711 7.17478 0.167703L4.37845 6.07119L2.35208 8.09756C1.99365 8.45599 1.99365 9.03902 2.35208 9.39745L4.80341 11.8488C5.05534 12.1009 5.35838 12.2829 5.68919 12.3862C5.62022 12.515 5.581 12.6621 5.581 12.8182V15.6566H1.177C0.670106 15.6566 0.257812 16.0689 0.257812 16.5758V19.7071C0.257812 19.8688 0.389038 20 0.550782 20C0.712525 20 0.843751 19.8688 0.843751 19.7071V16.5758C0.843751 16.3919 0.993287 16.2424 1.177 16.2424H5.87397C6.03571 16.2424 6.16694 16.1113 6.16694 15.9496V12.8182C6.16694 12.6345 6.31648 12.4849 6.50019 12.4849H11.1972C11.3589 12.4849 11.4901 12.3537 11.4901 12.192V9.06069C11.4901 8.87682 11.6397 8.72744 11.8234 8.72744H16.5203C16.6821 8.72744 16.8133 8.59621 16.8133 8.43447C16.8133 8.27257 16.6821 8.14135 16.5203 8.14135ZM4.96546 6.20043L5.52073 5.0284L7.35133 6.59746L6.4358 7.99746L4.96546 6.20043ZM8.05644 5.51897L7.67466 6.10277L5.78074 4.47939L6.08286 3.84157L8.05644 5.51897ZM6.33906 11.899C5.91547 11.899 5.51722 11.734 5.21769 11.4345L2.76636 8.98318C2.63636 8.85317 2.63636 8.64184 2.76636 8.51183L3.05582 8.22253L5.79646 10.9632C5.9701 11.1368 6.20097 11.2325 6.44648 11.2325H7.75264C7.91453 11.2325 8.04561 11.1013 8.04561 10.9395C8.04561 10.7776 7.91453 10.6465 7.75264 10.6465H6.44648C6.35752 10.6465 6.27375 10.6117 6.21073 10.5489L3.4701 7.8081L4.59971 6.67864L7.02494 9.64282C7.20011 9.85705 7.45951 9.97988 7.73631 9.97988H9.00523C9.18895 9.97988 9.33848 10.1294 9.33848 10.3131V10.6465H9.00508C8.84318 10.6465 8.71211 10.7776 8.71211 10.9395C8.71211 11.1013 8.84318 11.2325 9.00508 11.2325H9.33848V11.899H6.33906Z" fill="white"/>
</svg>
