<svg width="21" height="20" viewBox="0 0 21 20" fill="none" xmlns="http://www.w3.org/2000/svg">
<g clip-path="url(#clip0_232_3695)">
<path d="M20.1914 4.03552H18.563C18.6103 3.96914 18.6532 3.89941 18.6907 3.82632C18.9061 3.40548 18.9353 2.90987 18.7706 2.46645L18.2772 1.14015C18.1127 0.697184 17.7671 0.341042 17.3293 0.163124C16.8911 -0.0149466 16.3947 -0.000755839 15.9673 0.202187L12.0619 2.0569C11.8689 1.91896 11.6329 1.83748 11.378 1.83748H9.62205C9.36722 1.83748 9.13102 1.91911 8.93799 2.05705L5.03279 0.202034C4.60539 -0.00075582 4.10902 -0.0149466 3.67079 0.163124C3.23301 0.341042 2.8874 0.697184 2.72291 1.14L2.22944 2.4666C2.0648 2.90987 2.09394 3.40548 2.30955 3.82632C2.34693 3.89941 2.38996 3.96929 2.43726 4.03552H0.808687C0.638245 4.03552 0.5 4.17361 0.5 4.3442V6.56635C0.5 6.73679 0.638245 6.87504 0.808687 6.87504C0.979128 6.87504 1.11737 6.73679 1.11737 6.56635V4.65274H3.26139C3.29573 4.66479 3.33052 4.67593 3.36576 4.6857L5.95718 5.39905C5.38131 6.28147 4.87334 7.20966 4.43846 8.17143H1.11737V7.80094C1.11737 7.6305 0.979128 7.49241 0.808687 7.49241C0.638245 7.49241 0.5 7.6305 0.5 7.80094V8.48011C0.5 8.65056 0.638245 8.7888 0.808687 8.7888H1.90946V19.7167C1.90946 19.8873 2.04771 20.0254 2.21815 20.0254H18.7819C18.9524 20.0254 19.0906 19.8873 19.0906 19.7167V17.9244C19.0906 17.754 18.9524 17.6157 18.7819 17.6157C18.6113 17.6157 18.4732 17.754 18.4732 17.9244V19.4082H12.3519V8.97862C13.2262 10.6347 13.8181 12.4354 14.0904 14.2959C14.1085 14.419 14.1988 14.5193 14.3195 14.5501C14.3448 14.5566 14.3704 14.5597 14.3959 14.5597C14.4913 14.5597 14.5832 14.5154 14.6424 14.4369C15.0861 13.8482 15.4987 13.218 15.8712 12.56C16.4949 12.9848 17.1006 13.4585 17.6752 13.9712C17.7721 14.0575 17.9128 14.0742 18.0271 14.0125C18.1414 13.951 18.205 13.8245 18.1861 13.696C17.9396 12.015 17.4802 10.3618 16.829 8.7888H18.4731V16.6897C18.4731 16.8603 18.6113 16.9984 18.7818 16.9984C18.9524 16.9984 19.0905 16.8603 19.0905 16.6897V8.7888H20.1914C20.3618 8.7888 20.4999 8.65056 20.4999 8.48011V4.3442C20.5001 4.17361 20.362 4.03552 20.1914 4.03552ZM16.232 0.759745C16.5075 0.62913 16.8145 0.620279 17.0969 0.735026C17.3789 0.84962 17.5925 1.06981 17.6986 1.3553L18.1919 2.68144C18.2981 2.96709 18.2799 3.27379 18.1411 3.54494C18.0024 3.81594 17.7642 4.00973 17.4706 4.09045L12.5571 5.44314V3.95968C13.6615 3.28341 16.4148 1.8886 17.1001 2.85585C17.1985 2.99486 17.3911 3.02797 17.5303 2.9294C17.6694 2.83083 17.7024 2.63811 17.6038 2.4991C17.0749 1.75249 15.9604 1.71617 14.2909 2.39137C13.6032 2.66939 12.9683 3.00875 12.5571 3.24419V3.01638C12.5571 2.85112 12.5228 2.69365 12.4611 2.55068L16.232 0.759745ZM9.62205 2.4547H11.378C11.6878 2.4547 11.9397 2.70677 11.9397 3.01638V5.56781C11.9397 5.87756 11.6878 6.12949 11.378 6.12949H9.62205C9.31229 6.12949 9.06037 5.87756 9.06037 5.56781V3.01638C9.06037 2.70662 9.31229 2.4547 9.62205 2.4547ZM9.10325 8.17127C9.3985 7.6807 9.71986 7.20524 10.0656 6.74686H10.9342C11.2801 7.20524 11.6014 7.6807 11.8965 8.17127H9.10325ZM2.85902 3.54494C2.72016 3.27379 2.702 2.96709 2.80805 2.6816L3.30168 1.35515C3.40757 1.06981 3.6212 0.84962 3.90318 0.735026C4.18547 0.620279 4.49263 0.62913 4.7679 0.759745L8.53897 2.55098C8.47733 2.6938 8.443 2.85112 8.443 3.01653V3.26189C8.03314 3.02599 7.38388 2.67656 6.67861 2.39137C5.0093 1.71617 3.89464 1.75249 3.36576 2.4991C3.26719 2.63811 3.30015 2.83083 3.43931 2.9294C3.57847 3.02797 3.77104 2.99501 3.86946 2.85585C4.56114 1.87944 7.35977 3.3098 8.443 3.97845V5.44314L3.52964 4.0906C3.23591 4.00973 2.99772 3.81594 2.85902 3.54494ZM8.58155 6.12155C8.7352 6.40903 9.00437 6.62586 9.32679 6.70932C7.88315 8.72349 6.88934 11.0378 6.42318 13.4704C6.09527 12.9912 5.78872 12.4891 5.50811 11.9704C5.46706 11.8944 5.39626 11.8392 5.31249 11.818C5.22887 11.7968 5.14022 11.8116 5.06804 11.8587C4.55397 12.194 4.05058 12.5617 3.56444 12.9566C4.06508 10.3287 5.09948 7.79484 6.58279 5.57132L8.58155 6.12155ZM2.52683 8.7888H4.17113C3.51988 10.3618 3.06044 12.0148 2.81385 13.696C2.79508 13.8245 2.85856 13.951 2.97285 14.0125C3.08729 14.074 3.22782 14.0575 3.32472 13.9712C3.89937 13.4585 4.50499 12.9848 5.12893 12.56C5.50139 13.218 5.91384 13.848 6.35772 14.4369C6.41692 14.5154 6.50878 14.5599 6.60415 14.5599C6.62963 14.5599 6.65527 14.5566 6.6806 14.5501C6.8013 14.5193 6.89148 14.419 6.90948 14.2959C7.182 12.4354 7.77389 10.6345 8.64807 8.97847V19.4082H2.52683V8.7888ZM9.26545 19.4082V8.7888H11.7346V19.4082H9.26545ZM15.932 11.8587C15.8599 11.8116 15.7711 11.7969 15.6876 11.8181C15.604 11.8393 15.533 11.8946 15.492 11.9704C15.2114 12.4891 14.9048 12.9914 14.5769 13.4704C14.1107 11.0377 13.1169 8.72349 11.6731 6.70948C11.9956 6.62616 12.2649 6.40918 12.4185 6.12155L14.4178 5.57117C15.9008 7.79514 16.9352 10.329 17.4358 12.9566C16.9495 12.5617 16.4461 12.194 15.932 11.8587ZM19.8827 8.17143H16.5618C16.1269 7.20966 15.6189 6.28147 15.0432 5.39905L17.6343 4.6857C17.6696 4.67593 17.7044 4.66479 17.7387 4.65274H19.8827V8.17143Z" fill="white"/>
</g>
<defs>
<clipPath id="clip0_232_3695">
<rect width="20" height="20" fill="white" transform="translate(0.5)"/>
</clipPath>
</defs>
</svg>
