<svg width="21" height="18" viewBox="0 0 21 18" fill="none" xmlns="http://www.w3.org/2000/svg">
<path d="M20.3332 2.57484C20.2303 2.51542 20.1024 2.51542 19.9994 2.57484C17.529 4.00113 18.2615 3.57818 15.759 5.02303C15.6222 5.10198 15.564 5.26141 15.6047 5.40341L14.1741 6.22748C13.7661 6.46304 13.2591 6.46304 12.851 6.2274L11.5215 5.45978C10.9252 5.11542 10.1841 5.11546 9.58778 5.45978L7.76333 6.51312C7.45069 6.49289 7.14349 6.39987 6.87007 6.24209L5.3978 5.39364C5.43331 5.25262 5.37303 5.09921 5.24103 5.02303L3.62613 4.09067C3.48596 4.00981 3.30681 4.05774 3.22591 4.1979C3.145 4.33803 3.19301 4.51722 3.33314 4.59812L3.47604 4.68063L2.15713 6.96506C2.07623 7.10519 2.12424 7.28438 2.26436 7.36528C2.40387 7.4458 2.58333 7.3988 2.66458 7.25805L3.98349 4.97361L4.72955 5.40438L2.18366 9.81406L1.08597 9.18031V3.30074L2.11447 3.89453C2.25456 3.97535 2.43379 3.92742 2.51469 3.78729C2.5956 3.64717 2.54758 3.46798 2.40746 3.38707L1.00054 2.57484C0.897602 2.51542 0.769743 2.51542 0.666807 2.57484C0.56391 2.63425 0.5 2.745 0.5 2.86384V9.32595C0.5 9.44467 0.563832 9.55534 0.666846 9.61495L2.109 10.4476C2.16045 10.4773 2.21753 10.4925 2.27542 10.4925C2.35894 10.4925 2.44441 10.4607 2.50887 10.3978L3.53483 10.9891C3.4133 11.2758 3.42877 11.6019 3.58866 11.879L3.8543 12.3391C4.01533 12.6181 4.28835 12.7888 4.58611 12.8292C4.55439 13.0439 4.59204 13.2703 4.70877 13.4725L4.97441 13.9326C5.20111 14.3253 5.65824 14.5074 6.0812 14.4013C6.08975 14.5553 6.13436 14.7062 6.21374 14.8437L6.47939 15.3038C6.6126 15.5345 6.82765 15.6996 7.08497 15.7685C7.30194 15.8267 7.53351 15.812 7.74626 15.7175C7.75931 15.859 7.80294 15.9973 7.87615 16.1241L8.14179 16.5842C8.275 16.8149 8.49009 16.98 8.74737 17.0489C9.00391 17.1177 9.27295 17.0828 9.50422 16.9493L9.99655 16.665C10.128 16.5891 10.2426 16.4922 10.3369 16.3789L11.3755 16.9786C11.6097 17.1138 11.8816 17.148 12.1414 17.0758C12.4015 17.0034 12.6167 16.8334 12.7473 16.5971L13.0042 16.1319C13.0717 16.0098 13.1105 15.8788 13.1228 15.7472L13.2721 15.8333C13.5059 15.9683 13.7778 16.0028 14.038 15.9305C14.2981 15.8581 14.5132 15.6882 14.6438 15.4518L14.9007 14.9867C14.9793 14.8444 15.0189 14.6902 15.0233 14.5368C15.417 14.6081 15.8437 14.435 16.064 14.0534L16.3297 13.5933C16.4375 13.4065 16.4779 13.199 16.4583 12.9991C16.5278 12.9944 16.5973 12.9823 16.666 12.9628C16.9277 12.8885 17.1429 12.7156 17.2718 12.4759L17.5236 12.0079C17.7094 11.6626 17.6739 11.2604 17.4627 10.9615L18.4719 10.3774C18.5732 10.4945 18.7483 10.5299 18.8909 10.4476L19.8557 9.89055L19.8772 9.92782C19.952 10.0575 20.106 10.1227 20.2526 10.0833C20.3983 10.0443 20.5 9.91176 20.5 9.76101V2.86384C20.5 2.745 20.4361 2.63425 20.3332 2.57484ZM19.914 3.30078V8.81955L17.5243 4.68043L19.914 3.30078ZM4.3618 12.0461L4.09616 11.586C4.0015 11.4221 4.0331 11.2222 4.15596 11.0949C4.2353 11.0148 4.22226 11.0449 5.33924 10.3933C5.44561 10.3319 5.56183 10.3028 5.6766 10.3028C5.91076 10.3028 6.13882 10.4242 6.26406 10.6411C6.45071 10.9644 6.33953 11.3793 6.01623 11.566C5.90341 11.6312 5.01246 12.1455 4.92374 12.1967C4.82858 12.2517 4.71779 12.2663 4.61162 12.2378C4.50544 12.2094 4.41676 12.1413 4.3618 12.0461ZM5.4819 13.6396L5.21626 13.1795C5.10286 12.9831 5.1704 12.731 5.36682 12.6175C5.79274 12.3716 5.64062 12.4594 6.10995 12.1885C6.43329 12.0024 6.84757 12.1137 7.03399 12.4367C7.22064 12.76 7.10946 13.1749 6.7862 13.3616L6.04385 13.7902C5.84743 13.9036 5.59535 13.8361 5.4819 13.6396ZM7.23666 15.2025C7.13052 15.1741 7.0418 15.106 6.98684 15.0109L6.7212 14.5508C6.66627 14.4556 6.65166 14.3447 6.6801 14.2386C6.7085 14.1325 6.77651 14.0439 6.8716 13.9889C6.87714 13.9857 6.83003 14.0129 7.56414 13.5891C7.88611 13.4032 8.30149 13.5122 8.489 13.8369C8.67565 14.1601 8.56447 14.5751 8.24117 14.7617L7.54879 15.1615C7.45366 15.2163 7.34276 15.231 7.23666 15.2025ZM9.70357 16.1575L9.21123 16.4418C9.11603 16.4967 9.0052 16.5113 8.89906 16.4829C8.79292 16.4544 8.70421 16.3863 8.64924 16.2912L8.3836 15.8311C8.32868 15.7359 8.31407 15.6251 8.34251 15.5189C8.37095 15.4128 8.439 15.3241 8.53416 15.2692L9.02649 14.9849C9.18342 14.8943 9.36585 14.8705 9.54023 14.9173C9.71489 14.9641 9.86088 15.0761 9.95131 15.2328C10.1387 15.5572 10.0271 15.9708 9.70357 16.1575ZM18.8295 9.80641C18.8151 9.78523 18.7983 9.76652 18.7796 9.75039L18.2615 8.85287C18.1806 8.71271 18.0013 8.66481 17.8612 8.74564C17.7211 8.82654 17.6731 9.00573 17.754 9.14586L18.1738 9.87297L16.9686 10.5704L14.7587 9.29458C14.6185 9.21368 14.4393 9.26165 14.3585 9.40181C14.2776 9.54194 14.3256 9.72113 14.4657 9.80203C14.72 9.94888 16.622 11.047 16.851 11.1792C17.0449 11.2911 17.1137 11.5332 17.0076 11.7303L16.7558 12.1983C16.7027 12.2971 16.6139 12.3684 16.506 12.3991C16.398 12.4299 16.285 12.4158 16.1878 12.3596C14.7924 11.5537 15.6136 12.0283 13.8247 10.9954C13.6845 10.9146 13.5053 10.9625 13.4245 11.1027C13.3436 11.2428 13.3916 11.422 13.5317 11.5029L15.675 12.7403C15.8688 12.8546 15.935 13.105 15.8223 13.3003L15.5566 13.7604C15.5016 13.8556 15.4129 13.9236 15.3068 13.952C15.2007 13.9805 15.0898 13.9659 14.9946 13.911C13.6731 13.148 14.2389 13.4747 12.8547 12.6754C12.7146 12.5946 12.5353 12.6425 12.4545 12.7827C12.3736 12.9228 12.4216 13.102 12.5617 13.1829C12.8079 13.3251 13.9872 14.006 14.2334 14.1481C14.4262 14.2594 14.4955 14.5085 14.3878 14.7033L14.1309 15.1684C14.0771 15.2659 13.9884 15.336 13.881 15.3658C13.7738 15.3958 13.6616 15.3815 13.5651 15.3258L12.7795 14.8722C12.7792 14.8721 12.7789 14.8719 12.7786 14.8717C12.7663 14.8646 11.9907 14.4168 11.977 14.4089L11.879 14.3523C11.7388 14.2714 11.5597 14.3194 11.4788 14.4596C11.3979 14.5997 11.4459 14.7789 11.5861 14.8598C11.7732 14.9679 12.1394 15.1793 12.337 15.2933C12.5298 15.4046 12.599 15.6537 12.4914 15.8485L12.2344 16.3136C12.1806 16.4111 12.0918 16.4813 11.9846 16.5111C11.8773 16.541 11.7651 16.5267 11.6686 16.471L10.5965 15.8521C10.6679 15.5404 10.6196 15.2182 10.4588 14.9397C10.2902 14.6476 10.0178 14.4386 9.69192 14.3513C9.5143 14.3037 9.33237 14.2954 9.15631 14.3249C9.18787 14.0631 9.13818 13.7893 8.99649 13.5439C8.72722 13.0775 8.2034 12.8478 7.70083 12.9285C7.77673 12.3143 7.39577 11.7349 6.7978 11.5624C6.98957 11.1924 6.99489 10.7351 6.77147 10.3482C6.42325 9.74507 5.64934 9.53764 5.04617 9.88587C3.86126 10.57 3.94454 10.5216 3.92181 10.5358L2.81256 9.89657L5.11571 5.90742L6.57724 6.74974C6.71499 6.82924 6.85949 6.89592 7.00852 6.9492C6.73874 7.11574 6.6483 7.46896 6.80788 7.74523L6.9034 7.91063C7.38464 8.74419 8.45443 9.03081 9.28811 8.54957L9.70673 8.30792C9.76947 8.27167 9.84885 8.28151 9.89541 8.33136C10.1856 8.64208 10.5958 8.82029 11.0208 8.82029C11.4127 8.82029 11.7808 8.67489 12.0627 8.41468L13.2574 9.10441C13.3973 9.18516 13.5766 9.1375 13.6576 8.99718C13.7385 8.85705 13.6905 8.67786 13.5504 8.59696L12.4127 7.94012C12.4562 7.84848 12.4905 7.75245 12.5153 7.65268C12.5542 7.4956 12.4585 7.33669 12.3015 7.2977C12.1443 7.25867 11.9855 7.35438 11.9465 7.51146C11.9147 7.63983 11.8573 7.75812 11.776 7.8632C11.775 7.86445 11.774 7.86574 11.7731 7.86703C11.5907 8.10052 11.3167 8.23436 11.0208 8.23436C10.7537 8.23436 10.5061 8.12677 10.3236 7.93145C10.0893 7.68046 9.71517 7.62659 9.41378 7.80047L8.9952 8.04212C8.44134 8.36191 7.73056 8.1715 7.41089 7.61768L7.31537 7.45224C7.31448 7.45064 7.31502 7.44857 7.31662 7.44767C7.62356 7.27047 9.57364 6.14462 9.88072 5.96727C10.2964 5.72722 10.8128 5.72722 11.2285 5.96727L12.558 6.73489C13.1468 7.0748 13.8782 7.07487 14.4668 6.73517L15.8891 5.91586L17.069 7.9595C17.1503 8.10033 17.3298 8.14724 17.4692 8.06673C17.6094 7.98583 17.6574 7.80664 17.5765 7.66651L16.2982 5.45251C16.2946 5.43399 16.2892 5.41563 16.2819 5.3977L17.0168 4.97342L19.5627 9.3831L18.8295 9.80641Z" fill="white"/>
<path d="M7.1575 3.09857L7.50069 3.27018C7.89149 3.46559 8.21432 3.78846 8.40976 4.17926L8.58134 4.52241C8.63872 4.63718 8.75404 4.70847 8.88233 4.70847C9.0105 4.70847 9.12598 4.6373 9.18333 4.52241L9.35494 4.17926C9.55034 3.78842 9.87321 3.46555 10.264 3.27018L10.6072 3.09857C10.7219 3.04122 10.7932 2.92598 10.7932 2.79777C10.7933 2.66944 10.7221 2.55405 10.6072 2.49658L10.264 2.32501C9.87321 2.12961 9.55038 1.80674 9.35494 1.41593L9.18333 1.07275C9.12598 0.958012 9.0107 0.886758 8.88241 0.886719C8.75377 0.886719 8.63865 0.958207 8.5813 1.07278L8.40973 1.41593C8.21432 1.80677 7.89145 2.12965 7.50069 2.32501L7.15735 2.49666C7.04261 2.55412 6.9714 2.66948 6.97144 2.79781C6.97155 2.92602 7.04285 3.04134 7.1575 3.09857ZM10.3453 2.57436C10.3452 2.57436 10.3451 2.57444 10.345 2.57452C10.3451 2.57444 10.3452 2.57444 10.3453 2.57436ZM8.88233 1.77568C9.1195 2.20297 9.47686 2.56037 9.90419 2.79754C9.4769 3.03474 9.1195 3.39214 8.88233 3.81944C8.64517 3.39214 8.28777 3.03474 7.86047 2.79758C8.28777 2.56037 8.64517 2.20305 8.88233 1.77568Z" fill="white"/>
<path d="M11.4679 3.90055L11.7538 4.04352C12.0702 4.2017 12.3314 4.46292 12.4896 4.77919L12.6327 5.06538C12.6888 5.17754 12.8016 5.24723 12.9271 5.24723C13.0525 5.24723 13.1654 5.17754 13.2216 5.06519L13.3646 4.77923C13.5227 4.46292 13.784 4.2017 14.1003 4.04352C14.1045 4.04145 14.3905 3.89844 14.3864 3.90047C14.4986 3.84429 14.5683 3.73147 14.5683 3.60604C14.5683 3.4806 14.4986 3.36774 14.3863 3.31153L14.1003 3.16855C13.784 3.01038 13.5227 2.74911 13.3646 2.4328L13.2215 2.14669C13.1653 2.03454 13.0525 1.96484 12.9271 1.96484C12.8016 1.96484 12.6888 2.03454 12.6326 2.14685L12.4896 2.4328C12.3314 2.74911 12.0702 3.01038 11.7538 3.16855L11.4677 3.3116C11.3556 3.36778 11.2859 3.4806 11.2859 3.60604C11.2859 3.73147 11.3556 3.84433 11.4679 3.90055ZM12.9271 2.85169C13.1135 3.15902 13.3741 3.41962 13.6815 3.60608C13.3742 3.79249 13.1135 4.0531 12.9271 4.36042C12.7407 4.05317 12.48 3.79253 12.1727 3.60608C12.4801 3.41962 12.7407 3.15902 12.9271 2.85169Z" fill="white"/>
</svg>
