<svg width="21" height="20" viewBox="0 0 21 20" fill="none" xmlns="http://www.w3.org/2000/svg">
<g clip-path="url(#clip0_232_3708)">
<path d="M10.5 3.0127C10.3382 3.0127 10.207 2.88152 10.207 2.71973V0.292969C10.207 0.131172 10.3382 0 10.5 0C10.6618 0 10.793 0.131172 10.793 0.292969V2.71973C10.793 2.88152 10.6618 3.0127 10.5 3.0127Z" fill="white"/>
<path d="M13.387 3.78603C13.2525 3.69607 13.1989 3.52596 13.2798 3.38584L14.4932 1.28424C14.5741 1.14412 14.7532 1.09607 14.8933 1.17701C15.0335 1.25791 15.0815 1.43709 15.0006 1.57721L13.7872 3.67881C13.733 3.77279 13.5176 3.87346 13.387 3.78603Z" fill="white"/>
<path d="M15.5004 5.89997C15.412 5.76446 15.4675 5.58067 15.6076 5.49978L17.7092 4.28638C17.8493 4.20548 18.0285 4.25345 18.1094 4.3936C18.1903 4.53372 18.1423 4.7129 18.0022 4.7938L15.9006 6.0072C15.7638 6.07938 15.588 6.03415 15.5004 5.89997Z" fill="white"/>
<path d="M2.89062 13.1803C2.81136 13.0392 2.85773 12.861 2.99785 12.7801L5.09945 11.5667C5.23957 11.4857 5.41871 11.5338 5.49964 11.6739C5.58054 11.814 5.53253 11.9932 5.39242 12.0741L3.29082 13.2875C3.17578 13.3532 2.98046 13.3402 2.89062 13.1803Z" fill="white"/>
<path d="M18.9937 9.0791H16.5669C16.4051 9.0791 16.2739 8.94793 16.2739 8.78613C16.2739 8.62434 16.4051 8.49316 16.5669 8.49316H18.9937C19.1554 8.49316 19.2866 8.62434 19.2866 8.78613C19.2866 8.94793 19.1554 9.0791 18.9937 9.0791Z" fill="white"/>
<path d="M4.43311 9.0791H2.00635C1.84455 9.0791 1.71338 8.94793 1.71338 8.78613C1.71338 8.62434 1.84455 8.49316 2.00635 8.49316H4.43311C4.5949 8.49316 4.72607 8.62434 4.72607 8.78613C4.72607 8.94793 4.5949 9.0791 4.43311 9.0791Z" fill="white"/>
<path d="M7.21286 3.67882L5.9995 1.57721C5.9186 1.4371 5.96661 1.25792 6.10673 1.17702C6.24685 1.09608 6.42603 1.14409 6.50693 1.28425L7.72028 3.38585C7.80118 3.52596 7.75552 3.70932 7.61306 3.78604C7.4629 3.86694 7.29036 3.81811 7.21286 3.67882Z" fill="white"/>
<path d="M5.09944 6.00721L2.99784 4.79382C2.85773 4.71292 2.80972 4.53374 2.89062 4.39362C2.97148 4.25346 3.15066 4.20546 3.29081 4.28639L5.39241 5.49979C5.53253 5.58069 5.58394 5.76186 5.49964 5.89999C5.40882 6.04886 5.25257 6.10057 5.09944 6.00721Z" fill="white"/>
<path d="M17.7091 13.2875L15.6075 12.0741C15.4673 11.9932 15.4193 11.814 15.5002 11.6739C15.5811 11.5337 15.7603 11.4857 15.9004 11.5667L18.002 12.7801C18.1421 12.861 18.1902 13.0401 18.1093 13.1803C18.055 13.2742 17.8583 13.3792 17.7091 13.2875Z" fill="white"/>
<path d="M13.8366 8.29163C13.9984 8.29163 14.1296 8.16046 14.1296 7.99866V7.58459C14.1296 6.74889 13.4496 6.06896 12.6139 6.06896H12.3096V5.14865C12.3065 4.68732 11.9647 4.24661 11.41 4.24903C10.9919 4.25087 10.6394 4.53587 10.5391 4.92314C10.0743 4.73177 9.45274 5.03724 9.32528 5.53021C8.86071 5.33845 8.23946 5.64423 8.11204 6.13697C7.57699 5.9172 6.87012 6.36974 6.87012 6.96877L6.87016 11.6959C6.87016 12.1202 6.99848 12.5283 7.24102 12.8758C7.30961 12.9743 7.38809 13.068 7.47426 13.1542L8.08344 13.7638V14.5604H7.76977C7.60797 14.5604 7.4768 14.6916 7.4768 14.8534V15.7761H7.16313C7.00133 15.7761 6.87016 15.9072 6.87016 16.069V17.2558C6.87016 17.4176 7.00133 17.5487 7.16313 17.5487C7.32492 17.5487 7.4561 17.4176 7.4561 17.2558V16.362H13.5436V19.414H7.4561V18.5327C7.4561 18.3709 7.32492 18.2398 7.16313 18.2398C7.00133 18.2398 6.87016 18.3709 6.87016 18.5327V19.7069C6.87016 19.8687 7.00133 19.9999 7.16313 19.9999H13.8366C13.9984 19.9999 14.1296 19.8687 14.1296 19.7069V16.069C14.1296 15.9072 13.9984 15.7761 13.8366 15.7761H13.5229V14.8534C13.5229 14.6916 13.3917 14.5604 13.2299 14.5604H12.9163V13.7638L13.5253 13.1544C13.9149 12.7652 14.1296 12.2472 14.1296 11.696V9.27566C14.1296 9.11386 13.9984 8.98269 13.8366 8.98269C13.6748 8.98269 13.5436 9.11386 13.5436 9.27566V11.696C13.5436 12.0906 13.39 12.4613 13.111 12.7401L12.4161 13.4354C12.3612 13.4903 12.3303 13.5648 12.3303 13.6425V14.5605H10.6428C10.481 14.5605 10.3499 14.6917 10.3499 14.8535C10.3499 14.8538 10.3499 14.8542 10.3499 14.8546C10.3499 14.855 10.3499 14.8554 10.3499 14.8558C10.3499 15.0176 10.481 15.1488 10.6428 15.1488L12.937 15.1464V15.7738H8.06274V15.1464L9.36626 15.1488C9.52806 15.1488 9.65923 15.0176 9.65923 14.8558C9.65923 14.8554 9.65919 14.855 9.65915 14.8546C9.65915 14.8542 9.65923 14.8538 9.65923 14.8535C9.65923 14.6917 9.52806 14.5605 9.36626 14.5605H8.66938V13.6425C8.66938 13.5649 8.63852 13.4903 8.58364 13.4354L7.88868 12.74C7.82688 12.6782 7.77078 12.6113 7.72172 12.5408C7.54797 12.2918 7.4561 11.9997 7.4561 11.696V9.0253C7.67547 9.10425 7.89411 9.1005 8.11204 9.01401C8.21223 9.40148 8.56481 9.68851 8.98317 9.68851C9.21669 9.68851 9.4297 9.59902 9.58978 9.45261C9.6986 9.55218 9.83196 9.62527 9.97958 9.66195C9.56013 10.0483 9.29677 10.6017 9.29677 11.2155C9.29677 11.3773 9.42794 11.5085 9.58974 11.5085C9.75153 11.5085 9.88271 11.3773 9.88271 11.2155C9.88271 10.3735 10.5679 9.68855 11.4101 9.68855H12.0167C12.1785 9.68855 12.3097 9.55738 12.3097 9.39558V8.18229C12.3097 8.05073 12.2153 7.92971 12.0878 7.89807L10.1772 7.42034C9.99693 7.37526 9.90185 7.21108 9.88282 7.04135C9.88407 6.82811 10.0578 6.65494 10.2714 6.65494H12.614C13.1266 6.65494 13.5437 7.07201 13.5437 7.58463V7.9987C13.5436 8.16045 13.6748 8.29163 13.8366 8.29163ZM11.0963 5.14865C11.0963 4.97568 11.237 4.83497 11.41 4.83497C11.6011 4.85298 11.7057 4.95755 11.7237 5.14865V6.06896H11.0963V5.14865ZM7.76977 8.49589C7.59719 8.49589 7.45672 8.35573 7.4561 8.18331V8.18229C7.4561 8.1819 7.45606 8.18155 7.45606 8.18116V6.96881C7.45606 6.79584 7.5968 6.6551 7.76977 6.6551C7.94727 6.66256 8.05184 6.76713 8.08348 6.96881V8.18217C8.08348 8.35514 7.94274 8.49589 7.76977 8.49589ZM8.98313 9.10257C8.81016 9.10257 8.66942 8.96183 8.66942 8.78886V6.36209C8.66942 6.18912 8.81016 6.04838 8.98313 6.04838C9.15536 6.04838 9.29548 6.18791 9.29673 6.35982V8.7889C9.29673 8.7894 9.29677 8.78987 9.29677 8.79038C9.29595 8.96265 9.1556 9.10257 8.98313 9.10257ZM11.7237 8.7889C11.7237 8.96186 11.5829 9.10257 11.41 9.10257C11.2371 9.10257 11.0963 8.96186 11.0963 8.7889V8.25413L11.7237 8.411V8.7889ZM10.5104 8.1076V8.7889C10.5104 8.96186 10.3695 9.10257 10.1963 9.10257C10.0239 9.10257 9.88357 8.96265 9.88275 8.79038C9.88275 8.78987 9.88278 8.78936 9.88278 8.78882V7.93678C9.93189 7.95823 10.5104 8.1076 10.5104 8.1076ZM9.88267 6.15006V5.75529C9.88267 5.58232 10.0234 5.44162 10.1963 5.44162C10.3877 5.45947 10.4924 5.564 10.5104 5.75529V6.06896C10.3104 6.05736 10.0574 6.07377 9.88267 6.15006Z" fill="white"/>
<path d="M12.3198 17.5732C12.4816 17.5732 12.6128 17.4421 12.6128 17.2803C12.6128 17.1185 12.4816 16.9873 12.3198 16.9873H11.7131C11.5513 16.9873 11.4202 17.1185 11.4202 17.2803C11.4202 17.4421 11.5513 17.5732 11.7131 17.5732H12.3198Z" fill="white"/>
</g>
<defs>
<clipPath id="clip0_232_3708">
<rect width="20" height="20" fill="white" transform="translate(0.5)"/>
</clipPath>
</defs>
</svg>
