<svg width="20" height="20" viewBox="0 0 20 20" fill="none" xmlns="http://www.w3.org/2000/svg">
<path d="M8.4609 10.9145C8.19094 10.8299 7.90555 10.7808 7.60805 10.7808C6.01438 10.7808 4.7177 12.0775 4.7177 13.6713C4.7177 14.7811 5.34731 15.7454 6.26731 16.2295C6.66844 16.4406 7.12414 16.5616 7.60805 16.5616C9.165 16.5616 10.435 15.3231 10.4929 13.78L10.4984 0H13.9368C13.9368 0.298086 13.9655 0.589375 14.018 0.872461C14.2605 2.18258 15.0381 3.30652 16.1155 4.00891C16.8657 4.49809 17.7602 4.78359 18.7205 4.78359V5.54961V8.22199C16.9376 8.22199 15.2854 7.6516 13.9368 6.68363V13.6713C13.9368 17.161 11.0978 20 7.60805 20C6.25945 20 5.00906 19.5746 3.98109 18.853C2.34902 17.7072 1.2793 15.8124 1.2793 13.6713C1.2793 10.1815 4.11832 7.34238 7.60805 7.34238C7.89766 7.34238 8.18152 7.36621 8.4609 7.40422V10.9145Z" fill="#ECECEC"/>
</svg>
